<svg width="445" height="445" viewBox="0 0 445 445" fill="none" xmlns="http://www.w3.org/2000/svg">
<mask id="mask0" mask-type="alpha" maskUnits="userSpaceOnUse" x="0" y="0" width="445" height="445">
<circle cx="222.174" cy="222.174" r="222.174" fill="#F9AC34"/>
</mask>
<g mask="url(#mask0)">
<path d="M184.504 -109.151L176.756 -134.964L235.638 -152L284.706 -134.964L274.376 -109.151V-91.5983H414.864L513 103.029L461.866 256.873L404.534 101.481L386.457 192.341L377.089 230.094C372.757 247.554 373.697 265.907 379.791 282.833L414.864 380.258L393.171 473.183L184.504 515L59.5103 465.44L30.5861 391.099L59.5103 295.076L61.1299 289.086C66.8619 267.888 67.7043 245.665 63.5935 224.093L59.5103 202.666L41.4326 90.1231L-18.4817 275.458L-66 169.11L-8.15165 -13.644L47.6307 -87.9845L117.875 -83.3382L182.954 -91.5983L184.504 -109.151Z" fill="white" fill-opacity="0.4"/>
<path d="M146.387 87.6903L147.757 87.4842C157.753 85.981 167.668 90.6589 172.864 99.3296C179.672 110.69 176.416 125.39 165.447 132.812L162.684 134.682C159.346 136.941 156.827 140.219 155.504 144.026C153.828 148.851 154.199 154.151 156.531 158.695L159.491 164.461C167.121 179.326 156.327 197 139.618 197C132.342 197 125.523 193.457 121.34 187.504L112.466 174.874C103.95 162.754 101.374 147.433 105.457 133.195L106.238 130.471C108.293 123.305 111.956 116.703 116.948 111.166L130.34 96.3143C134.529 91.6686 140.201 88.6205 146.387 87.6903Z" fill="#08090A"/>
<path d="M286.171 87.6913L285.121 87.5316C275.066 86.0017 265.088 90.7298 259.905 99.4811C253.207 110.789 256.431 125.353 267.276 132.778L269.997 134.641C273.336 136.927 275.848 140.228 277.162 144.054C278.815 148.866 278.448 154.141 276.147 158.677L273.013 164.855C265.543 179.578 276.241 197 292.75 197C300.001 197 306.792 193.448 310.928 187.492L319.787 174.736C328.152 162.691 330.682 147.532 326.683 133.423L325.83 130.413C323.809 123.284 320.198 116.707 315.268 111.175L301.98 96.265C297.87 91.6529 292.278 88.6205 286.171 87.6913Z" fill="#08090A"/>
<path opacity="0.4" d="M195.647 112.48L150.04 149.511C142.12 155.942 132.538 159.996 122.407 161.202L118.408 161.678C116.969 161.849 115.514 161.855 114.073 161.695L95.5953 159.642C94.2212 159.489 93.0195 160.565 93.0195 161.947C93.0195 163.119 93.8938 164.107 95.0572 164.25L114.85 166.673C117.143 166.954 119.464 166.914 121.746 166.553L126.648 165.779C134.086 164.605 141.218 161.968 147.631 158.021L199.477 126.116C203.145 123.859 207.093 122.095 211.221 120.867L211.989 120.639C219.915 118.283 228.328 118.098 236.35 120.103C243.226 121.822 249.614 125.101 255.019 129.685L278.234 149.374C284.388 154.593 291.58 158.446 299.334 160.678L317.723 165.972C320.323 166.72 322.977 167.271 325.661 167.619L348.041 170.52C348.966 170.64 349.9 170.359 350.605 169.747C352.895 167.763 351.492 164 348.461 164H323.825C322.373 164 320.931 163.746 319.566 163.25L301.312 156.612C292.297 153.334 284.255 147.833 277.931 140.62L254.543 113.943L248.648 106.95C235.957 91.8922 212.655 92.2357 200.413 107.661C199.004 109.436 197.406 111.052 195.647 112.48Z" fill="#CDDAE3"/>
<path d="M270.903 -115.542L250.992 -102.894C244.157 -97.1654 239.389 -89.3532 237.419 -80.655L233.821 -64.7629L240.455 9.49165L245.15 46.2395C246.696 58.3457 249.854 70.1909 254.538 81.4608L265.233 107.193C267.958 113.75 271.425 119.973 275.567 125.74L280.552 132.684C285.487 139.557 292.025 145.123 299.599 148.897L312.644 155.398C321.225 159.674 331.031 160.82 340.368 158.638C352.902 155.708 363.344 147.082 368.587 135.326L369.779 132.655C376.338 117.948 379.081 101.823 377.753 85.7738L375.094 53.643L369.24 16.315L364.603 -4.21559C361.72 -16.9786 357.406 -29.3757 351.744 -41.1718L345.044 -55.1299L325.922 -86.8386L311.707 -107.871C306.686 -115.3 298.304 -119.751 289.337 -119.751H285.381C280.253 -119.751 275.231 -118.291 270.903 -115.542Z" fill="#91AEC1"/>
<path d="M203.133 167.146V147.322C203.133 145.204 204.044 143.168 205.611 141.744C210.719 137.1 218.41 136.517 224.107 140.415C229.525 136.502 236.906 136.758 242.041 141.037L242.747 141.625C244.55 143.128 245.593 145.353 245.593 147.7V167.115C245.593 170.356 243.367 173.174 240.214 173.925L224.107 177.76L208.474 173.947C205.339 173.182 203.133 170.373 203.133 167.146Z" fill="white"/>
<path d="M205.475 238.016V255.797C205.475 257.744 206.312 259.615 207.753 260.925C212.448 265.193 219.518 265.729 224.756 262.146C229.737 265.743 236.522 265.508 241.242 261.575L241.892 261.034C243.549 259.652 244.507 257.606 244.507 255.449V238.047C244.507 234.806 242.282 231.989 239.129 231.238L224.756 227.816L210.816 231.216C207.681 231.98 205.475 234.789 205.475 238.016Z" fill="white"/>
<path d="M205.475 282.222V300.002C205.475 301.949 206.312 303.821 207.753 305.13C212.448 309.399 219.518 309.935 224.756 306.351C229.737 309.949 236.522 309.714 241.242 305.78L241.892 305.239C243.549 303.858 244.507 301.812 244.507 299.654V282.253C244.507 279.012 242.282 276.194 239.129 275.443L224.756 272.021L210.816 275.421C207.681 276.186 205.475 278.995 205.475 282.222Z" fill="white"/>
<path d="M204.318 352.607V354.699C204.318 358.05 206.379 361.057 209.505 362.268C212.828 363.554 216.483 363.711 219.905 362.714L223.534 361.657L226.451 362.554C230.035 363.656 233.879 363.574 237.413 362.32C240.894 361.085 243.219 357.792 243.219 354.099V352.541C243.219 350.577 241.733 348.933 239.779 348.735L237.834 348.537C234.868 348.237 231.935 347.674 229.068 346.856L223.534 345.276L218.182 346.841C215.351 347.669 212.45 348.239 209.516 348.544L207.823 348.719C205.832 348.926 204.318 350.605 204.318 352.607Z" fill="#E1E7EA"/>
<path d="M201.06 368.695L202.128 372.151C203.511 376.626 206.866 380.222 211.234 381.913L212.071 382.237C213.774 382.896 215.526 383.419 217.312 383.799L223.534 385.125L231.97 383.227L236.218 381.72C240.638 380.152 244.094 376.641 245.592 372.197L246.634 369.108C247.588 366.279 244.947 363.555 242.09 364.421C236.401 366.145 230.337 366.194 224.621 364.562L223.534 364.251L222.486 364.558C216.906 366.19 210.966 366.122 205.425 364.362C202.755 363.514 200.232 366.018 201.06 368.695Z" fill="#F1F5F5"/>
<path d="M200.839 386.323L203.075 397.626C203.849 401.535 206.57 404.776 210.287 406.215C213.153 407.325 215.771 408.991 217.99 411.119L223.534 416.435L228.311 411.6C230.719 409.162 233.648 407.301 236.877 406.155C240.788 404.767 243.631 401.358 244.294 397.262L246.128 385.936C246.614 382.935 243.17 380.893 240.77 382.76C236.783 385.861 232.036 387.834 227.026 388.474L223.534 388.92L219.966 388.465C214.996 387.83 210.275 385.916 206.267 382.91C203.748 381.021 200.228 383.235 200.839 386.323Z" fill="#F1F5F5"/>
<path d="M205.004 193.81V211.591C205.004 213.538 205.841 215.409 207.282 216.719C211.978 220.987 219.048 221.523 224.285 217.94C229.266 221.537 236.052 221.302 240.772 217.369L241.421 216.828C243.078 215.446 244.037 213.4 244.037 211.243V193.841C244.037 190.6 241.811 187.783 238.658 187.032L224.285 183.61L210.345 187.01C207.21 187.774 205.004 190.583 205.004 193.81Z" fill="white"/>
<path d="M216.553 332.666L217.743 330.285C218.887 327.997 217.618 325.237 215.135 324.616L204.406 321.934C202.191 321.38 200.209 320.136 198.748 318.382C197.136 316.448 196.253 314.01 196.253 311.492V302.58C196.253 296.135 192.77 290.193 187.147 287.044L172.533 278.86L161.955 274.981C150.245 270.688 137.599 269.608 125.331 271.854L123.092 272.264C114.72 273.797 106.775 277.112 99.7958 281.984C90.302 288.612 82.9529 297.871 78.6528 308.621L70.9528 327.871C68.6683 333.582 69.852 340.097 73.9996 344.64C76.0251 346.858 78.8906 348.122 81.8947 348.122H92.5228C97.5729 348.122 102.407 350.173 105.917 353.803C111.218 359.288 114.182 366.618 114.182 374.247V378.009L111.78 387.319C110.883 390.794 111.301 394.477 112.953 397.663C115.457 402.493 120.443 405.524 125.883 405.524H128.161C132.331 405.524 136.391 406.862 139.744 409.34C143.455 412.083 146.073 416.055 147.13 420.547L147.846 423.591C148.794 427.621 148.797 431.816 147.853 435.847L145.468 446.037C144.681 449.4 146.639 452.797 149.943 453.803C152.983 454.728 155.147 457.418 155.4 460.584L156.878 479.056C163.577 485.45 172.482 489.018 181.743 489.018H187.239C199.67 482.492 210.158 472.802 217.645 460.926L218.457 459.639C219.424 458.105 219.709 456.238 219.245 454.485L217.449 447.7C216.42 443.812 212.902 441.104 208.881 441.104H187.239C181.676 439.25 176.801 435.761 173.25 431.094L171.307 428.541C165.249 420.578 161.11 411.324 159.214 401.499L158.417 397.372C157.417 392.187 158.084 386.819 160.322 382.036L162.08 378.281C165.274 371.457 172.128 367.098 179.662 367.098C187.047 367.098 193.928 363.349 197.932 357.143L200.997 352.392L216.325 345.494C218.34 344.587 219.238 342.219 218.331 340.205L216.483 336.096C215.989 335.001 216.015 333.741 216.553 332.666Z" fill="white"/>
<path d="M165.416 447.271L169.686 451.066V460.08L176.327 472.889C179.276 474.068 182.626 473.637 185.18 471.749L191.982 466.721L201.159 459.457C202.478 458.413 202.98 456.641 202.405 455.06C201.844 453.517 200.377 452.49 198.735 452.49H184.392L179.476 449.786C176.656 448.235 174.904 445.271 174.904 442.053L172.058 437.783H167.788L165.416 442.053V447.271Z" fill="#68D3CC"/>
<path d="M99.0007 323.928L98.6972 324.231C97.069 325.86 96.1543 328.068 96.1543 330.37C96.1543 332.342 96.8252 334.255 98.0568 335.794L100.152 338.413C101.274 339.816 102.619 341.025 104.134 341.993L118.925 351.443L124.734 358.308C127.734 361.853 129.467 366.296 129.66 370.936L130.137 382.373C130.247 385.016 131.538 387.469 133.654 389.056C135.179 390.2 137.034 390.818 138.941 390.818H144.37C146.303 390.818 148.157 390.05 149.524 388.683C150.891 387.316 151.659 385.462 151.659 383.529V375.637L153.082 368.996L155.359 363.873C157.58 358.876 158.169 353.307 157.042 347.957L156.877 347.173L151.659 340.532L134.106 329.146L112.758 321.082H105.872C103.295 321.082 100.823 322.105 99.0007 323.928Z" fill="#485760"/>
<path d="M119.875 437.309L118.319 440.68C115.759 446.226 116.352 452.717 119.875 457.708L117.028 463.875C113.648 468.178 111.81 473.491 111.81 478.963V485.697L117.028 517.956L122.247 550.215L130.311 582H106.592L105.168 559.703L93.3084 500.404L83.8205 467.67L80.4997 463.875L76.6884 459.492C73.0277 455.282 71.0117 449.891 71.0117 444.313C71.0117 439.746 72.3636 435.281 74.8969 431.481L80.4997 423.077C85.2112 418.954 91.7353 417.595 97.7011 419.493L98.5268 419.756L102.616 421C106.504 422.184 110.661 420.264 112.281 416.537L114.182 412.166C115.836 409.133 119.404 407.694 122.699 408.729L133.632 412.166L143.12 423.077L140.274 433.988L133.632 437.309L125.093 433.988L119.875 437.309Z" fill="white"/>
<path d="M230.51 332.666L229.32 330.285C228.175 327.997 229.445 325.237 231.927 324.616L242.657 321.934C244.872 321.38 246.853 320.136 248.315 318.382C249.927 316.448 250.81 314.01 250.81 311.492V302.58C250.81 296.135 254.292 290.193 259.916 287.044L274.529 278.86L285.108 274.981C296.818 270.688 309.463 269.608 321.731 271.854L323.97 272.264C332.342 273.797 340.287 277.112 347.267 281.984C356.76 288.612 364.11 297.871 368.41 308.621L376.11 327.871C378.394 333.582 377.211 340.097 373.063 344.64C371.037 346.858 368.172 348.122 365.168 348.122H354.54C349.49 348.122 344.656 350.173 341.146 353.803C335.844 359.288 332.88 366.618 332.88 374.247V378.009L335.283 387.319C336.18 390.794 335.762 394.477 334.11 397.663C331.606 402.493 326.619 405.524 321.179 405.524H318.901C314.731 405.524 310.672 406.862 307.319 409.34C303.607 412.083 300.99 416.055 299.933 420.547L299.217 423.591C298.268 427.621 298.266 431.816 299.209 435.847L301.594 446.037C302.381 449.4 300.424 452.797 297.119 453.803C294.08 454.728 291.916 457.418 291.662 460.584L290.185 479.056C283.486 485.45 274.581 489.018 265.32 489.018H259.823C247.393 482.492 236.905 472.802 229.417 460.926L228.606 459.639C227.639 458.105 227.353 456.238 227.817 454.485L229.613 447.7C230.642 443.812 234.16 441.104 238.182 441.104H259.823C265.386 439.25 270.262 435.761 273.813 431.094L275.755 428.541C281.814 420.578 285.953 411.324 287.849 401.499L288.645 397.372C289.646 392.187 288.979 386.819 286.74 382.036L284.982 378.281C281.788 371.457 274.935 367.098 267.401 367.098C260.015 367.098 253.135 363.349 249.131 357.143L246.066 352.392L230.737 345.494C228.723 344.587 227.825 342.219 228.731 340.205L230.58 336.096C231.073 335.001 231.047 333.741 230.51 332.666Z" fill="white"/>
<path d="M281.645 447.271L277.375 451.066V460.08L270.733 472.889C267.784 474.068 264.435 473.637 261.881 471.749L255.078 466.721L245.902 459.457C244.583 458.413 244.081 456.641 244.656 455.06C245.217 453.517 246.683 452.49 248.326 452.49H262.669L267.584 449.786C270.404 448.235 272.157 445.271 272.157 442.053L275.003 437.783H279.273L281.645 442.053V447.271Z" fill="#68D3CC"/>
<path d="M348.062 323.928L348.365 324.231C349.994 325.86 350.908 328.068 350.908 330.37C350.908 332.342 350.237 334.255 349.006 335.794L346.91 338.413C345.788 339.816 344.443 341.025 342.929 341.993L328.137 351.443L322.328 358.308C319.329 361.853 317.595 366.296 317.402 370.936L316.926 382.373C316.815 385.016 315.524 387.469 313.409 389.056C311.883 390.2 310.028 390.818 308.122 390.818H302.692C300.759 390.818 298.905 390.05 297.538 388.683C296.172 387.316 295.404 385.462 295.404 383.529V375.637L293.98 368.996L291.704 363.873C289.483 358.876 288.894 353.307 290.02 347.957L290.185 347.173L295.404 340.532L312.956 329.146L334.304 321.082H341.19C343.767 321.082 346.239 322.105 348.062 323.928Z" fill="#485760"/>
<path d="M327.186 437.309L328.742 440.68C331.302 446.226 330.709 452.717 327.186 457.708L330.032 463.875C333.413 468.178 335.251 473.491 335.251 478.963V485.697L330.032 517.956L324.814 550.215L316.749 582H340.469L341.892 559.703L353.752 500.404L363.24 467.67L366.561 463.875L370.372 459.492C374.033 455.282 376.049 449.891 376.049 444.313C376.049 439.746 374.697 435.281 372.164 431.481L366.561 423.077C361.849 418.954 355.325 417.595 349.359 419.493L348.534 419.756L344.445 421C340.557 422.184 336.4 420.264 334.779 416.537L332.879 412.166C331.225 409.133 327.657 407.694 324.362 408.729L313.428 412.166L303.94 423.077L306.787 433.988L313.428 437.309L321.967 433.988L327.186 437.309Z" fill="white"/>
<path d="M184.392 372.791H169.212L166.365 376.586L178.225 388.92L175.379 400.306L178.225 406.473L190.56 409.794L199.099 415.486L203.843 409.794L200.996 396.51L196.727 388.92V385.125L200.996 380.855L194.355 368.521L184.392 372.791Z" fill="#F1F5F5"/>
<path d="M263.617 372.791H278.798L281.645 376.586L269.785 388.92L272.631 400.306L269.785 406.473L257.45 409.794L248.911 415.486L244.167 409.794L247.013 396.51L251.283 388.92V385.125L247.013 380.855L253.655 368.521L263.617 372.791Z" fill="#F1F5F5"/>
<path d="M203.133 211.83V192.006C203.133 189.888 204.044 187.852 205.611 186.428C210.719 181.784 218.41 181.201 224.107 185.1C229.525 181.186 236.906 181.442 242.041 185.721L242.747 186.309C244.55 187.812 245.593 190.037 245.593 192.384V211.799C245.593 215.04 243.367 217.858 240.214 218.609L224.107 222.444L208.474 218.631C205.339 217.866 203.133 215.057 203.133 211.83Z" fill="white"/>
<path d="M203.133 258.275V238.451C203.133 236.333 204.044 234.297 205.611 232.873C210.719 228.229 218.41 227.646 224.107 231.544C229.525 227.631 236.906 227.887 242.041 232.166L242.747 232.754C244.55 234.257 245.593 236.482 245.593 238.829V258.244C245.593 261.485 243.367 264.303 240.214 265.053L224.107 268.888L208.474 265.076C205.339 264.311 203.133 261.502 203.133 258.275Z" fill="white"/>
<path d="M247.531 128.301L245.592 133.765L245.221 133.54C238.245 129.293 229.462 129.381 222.572 133.765L222.21 133.535C215.589 129.322 207.105 129.412 200.575 133.765L198.714 127.358C196.991 121.421 198.217 115.018 202.012 110.139L203.079 108.767C205.297 105.916 208.964 104.603 212.488 105.399C219.132 106.899 226.022 106.944 232.685 105.53L233.557 105.346C237.19 104.575 240.954 105.856 243.363 108.684L244.068 109.511C248.494 114.707 249.814 121.868 247.531 128.301Z" fill="white"/>
<path opacity="0.8" d="M130.692 92.269L88.3755 123.232L80.6348 178.965L130.692 202.704L175.588 193.931L228.741 158.323L258.156 150.583L307.18 139.23L332.983 79.3678L266.929 68.5308H233.901H183.329L130.692 92.269Z" fill="#91AEC1"/>
<path opacity="0.7" d="M199.649 229.698L167.159 224.218C160.44 223.085 154.259 219.837 149.514 214.947L139.815 204.95C134.022 198.979 130.782 190.986 130.782 182.667L130.781 172.658C130.781 159.389 138.97 147.496 151.366 142.763L167.5 136.602C171.471 135.086 175.706 134.376 179.955 134.514L232.087 136.208C235.645 136.324 239.197 135.845 242.597 134.792L266.515 127.382L301.872 115.265C309.727 112.573 318.322 113.039 325.839 116.566L339.129 122.802C355.119 130.304 362.007 149.344 354.517 165.341L347.792 179.704C344.879 185.927 340.039 191.046 333.99 194.306L295.118 215.249L266.104 229.552C261.107 232.015 255.554 233.131 249.993 232.79L199.649 229.698Z" fill="#485760"/>
<path d="M174.884 -115.542L194.795 -102.894C201.63 -97.1654 206.398 -89.3532 208.368 -80.655L211.966 -64.7629L205.332 9.49165L200.637 46.2395C199.091 58.3457 195.934 70.1909 191.249 81.4608L180.554 107.193C177.829 113.75 174.362 119.973 170.22 125.74L165.235 132.684C160.3 139.557 153.762 145.123 146.189 148.897L133.143 155.398C124.562 159.674 114.756 160.82 105.419 158.638C92.8847 155.708 82.443 147.082 77.1997 135.326L76.0085 132.655C69.4488 117.948 66.706 101.823 68.0341 85.7738L70.6929 53.643L76.5467 16.315L81.1843 -4.21559C84.0673 -16.9786 88.3808 -29.3757 94.0428 -41.1718L100.743 -55.1299L119.865 -86.8386L134.08 -107.871C139.101 -115.3 147.483 -119.751 156.45 -119.751H160.407C165.534 -119.751 170.556 -118.291 174.884 -115.542Z" fill="#91AEC1"/>
<path opacity="0.5" d="M228.285 183.962L327.873 174.592C339.941 173.457 351.442 179.947 356.709 190.865L358.623 194.832C362.326 202.51 362.465 211.427 359.001 219.216L351.409 236.287C349.15 241.369 348.399 246.993 349.246 252.489L359.43 318.547C360.663 326.551 358.494 334.706 353.446 341.04L332.471 367.358C328.14 372.792 322.002 376.49 315.175 377.78L263.919 387.462C262.145 387.797 260.343 387.965 258.537 387.965H217.904L172.366 381.759C168.699 381.26 165.162 380.063 161.944 378.233L122.95 356.053L97.1719 336.328C90.0009 330.841 85.7949 322.326 85.7949 313.297V293.97L90.6413 247.108C90.8501 245.089 90.8464 243.053 90.6301 241.035L86.5461 202.922C86.0525 198.316 86.6696 193.658 88.3457 189.34L89.6966 185.859C94.6447 173.109 107.828 165.55 121.331 167.719L220.97 183.723C223.388 184.111 225.846 184.192 228.285 183.962Z" fill="#485760"/>
<path opacity="0.2" d="M224.384 211.754L301.746 205.286C310.765 204.532 319.376 209.181 323.694 217.135C327.251 223.686 327.383 231.563 324.046 238.229L320.768 244.779C318.05 250.209 317.105 256.355 318.067 262.351L324.784 304.236C326.169 312.875 323.58 321.679 317.737 328.192L306.189 341.067C301.801 345.958 295.882 349.215 289.401 350.303L251.862 356.603C250.276 356.869 248.67 357.003 247.062 357.003H215.924L181.43 352.826C178.087 352.421 174.84 351.437 171.835 349.919L142.423 335.054L126.357 324.131C118.416 318.732 113.662 309.752 113.662 300.149V287.45L117.259 256.544C117.523 254.276 117.519 251.985 117.245 249.719L114.418 226.277C113.923 222.172 114.535 218.01 116.19 214.222C120.361 204.672 130.392 199.079 140.709 200.551L217.871 211.564C220.028 211.871 222.213 211.935 224.384 211.754Z" fill="#F2F7F2"/>
<path d="M36.8741 -117.924L29.2006 -115.878L22.5503 -108.716L20.5041 -92.8577L22.5503 -71.3721L10.2728 -20.7273L-3.53941 26.8481L-18.8863 69.8194L-30.6523 90.7935L-49.0686 114.325L-63.9039 128.649L-69.0195 143.996L-61.3461 151.67H-49.0686L-41.3951 154.227L-34.7448 163.947L-26.5598 167.016L-13.7707 157.808V149.112L-18.8863 140.415V128.649L-13.7707 101.536L-8.14349 85.6779L36.8741 -45.2823L52.7326 -81.0918L60.9176 -87.7421L63.4754 -92.8577V-102.066L58.3598 -108.716L47.1054 -115.878L36.8741 -117.924Z" fill="white"/>
<path d="M411.851 -117.924L419.524 -115.878L426.174 -108.716L428.221 -92.8577L426.174 -71.3721L438.452 -20.7273L452.264 26.8481L467.611 69.8194L479.377 90.7935L497.793 114.325L512.629 128.649L517.744 143.996L510.071 151.67H497.793L490.12 154.227L483.469 163.947L475.284 167.016L462.495 157.808V149.112L467.611 140.415V128.649L462.495 101.536L456.868 85.6779L411.851 -45.2823L395.992 -81.0918L387.807 -87.7421L385.249 -92.8577V-102.066L390.365 -108.716L401.619 -115.878L411.851 -117.924Z" fill="white"/>
<path d="M79.8455 -35.1179V-40.1665L78.4504 -38.7714C74.8036 -35.1246 73.003 -30.0235 73.5524 -24.8956C73.9815 -20.8904 75.8564 -17.1792 78.8257 -14.4573L86.4958 -7.42645C95.9346 -2.03288 106.423 1.26795 117.249 2.25217L128.956 3.31638H169.881L193.924 0.758564V-10.4958L169.881 -7.42645H150.953L128.956 -10.4958L105.935 -16.123L92.5476 -21.4076C88.5719 -22.977 85.034 -25.4832 82.2347 -28.7132C80.6937 -30.4912 79.8455 -32.7651 79.8455 -35.1179Z" fill="white"/>
<path d="M368.879 -35.1179V-40.1665L370.274 -38.7714C373.921 -35.1246 375.722 -30.0235 375.172 -24.8956C374.743 -20.8904 372.868 -17.1792 369.899 -14.4573L362.229 -7.42645C352.79 -2.03288 342.302 1.26795 331.475 2.25217L319.769 3.31638H278.844L254.801 0.758564V-10.4958L278.844 -7.42645H297.772L319.769 -10.4958L342.789 -16.123L356.177 -21.4076C360.153 -22.977 363.691 -25.4832 366.49 -28.7132C368.031 -30.4912 368.879 -32.7651 368.879 -35.1179Z" fill="white"/>
<path d="M240.923 -76.2439L238.431 -92.8577L238.317 -92.8934C233.233 -94.482 227.699 -93.5963 223.365 -90.5007L223.084 -90.2999L222.9 -90.4312C218.505 -93.5706 212.892 -94.4688 207.737 -92.8577L205.582 -75.6161C205.315 -73.4843 205.412 -71.3227 205.869 -69.2233L206.692 -65.437C207.378 -62.2789 207.289 -59.0014 206.432 -55.8853L203.093 -43.7424C202.452 -41.413 202.53 -38.9444 203.315 -36.6596L204.789 -32.3727C206.631 -27.0128 205.681 -21.0872 202.256 -16.5718L196.482 -8.96132L199.552 14.059V18.8366C199.552 24.4935 202.332 29.7889 206.989 33.0005C211.435 36.0667 213.501 41.5773 212.167 46.8107L208.921 59.5463C208.157 62.5449 208.487 65.7178 209.853 68.4946L223.084 95.3976L236.315 68.4946C237.68 65.7178 238.011 62.5449 237.246 59.5463L234.05 47.0051C232.69 41.6711 234.844 36.0597 239.425 33.0063C244.237 29.7982 247.127 24.3974 247.127 18.6138V15.7599C247.127 14.6277 247.215 13.4971 247.389 12.3784L250.708 -8.96132L244.709 -16.2098C240.826 -20.9025 239.75 -27.3142 241.888 -33.0176L243.149 -36.3793C244.07 -38.8363 244.161 -41.5276 243.407 -44.041L240.042 -55.259C238.988 -58.7714 238.92 -62.506 239.846 -66.0544L240.518 -68.6294C241.166 -71.1141 241.304 -73.7044 240.923 -76.2439Z" fill="white"/>
<path d="M93.5894 181.95L86.3904 189.819C85.1586 191.165 82.9148 190.294 82.9148 188.469V179.336C82.9148 170.22 84.992 161.223 88.9887 153.03L93.1461 144.508L79.3339 139.904L77.2668 145.646C75.5832 150.322 74.5414 155.205 74.1696 160.162L72.286 185.277C71.8888 190.572 73.8201 195.777 77.5749 199.532L78.3041 200.261C81.2563 203.214 85.2603 204.872 89.4354 204.872C94.638 204.872 99.5046 202.302 102.438 198.005L119.747 172.644L198.353 70.1577C199.829 68.2335 201.075 66.1439 202.067 63.9311C205.376 56.551 205.689 48.1748 202.942 40.5678L200.574 34.01L164.541 63.287C162.581 64.88 159.649 63.4848 159.649 60.9587V58.917C159.649 51.8527 162.638 45.1181 167.876 40.3786L170.392 38.1025L194.436 25.3134V18.6631L183.443 21.0186C181.226 21.4937 179.051 22.1477 176.939 22.9741L167.123 26.8152C160.156 29.5414 152.74 30.9406 145.259 30.9406H113.838C108.942 30.9406 104.079 30.1514 99.4351 28.6034C92.9388 26.438 87.0144 22.8355 82.1027 18.0641L75.931 12.0688C73.5671 9.77245 73.4978 5.99933 75.7758 3.61778L79.6794 -0.463258C80.8963 -1.73544 79.9946 -3.8457 78.2341 -3.8457H69.2667C68.5349 -3.8457 67.8614 -3.44593 67.511 -2.80341L64.8419 2.08979C61.1904 8.78424 61.6863 16.9768 66.1185 23.182L68.787 26.9179C75.5802 36.4283 85.6325 43.1095 97.0314 45.6904C103.245 47.0973 109.678 47.2435 115.949 46.1203L132.74 43.113C137.557 42.2501 142.413 44.4166 144.99 48.578C146.524 51.0573 147.098 54.0128 146.603 56.8864L145.913 60.8883C145.198 65.0352 143.216 68.8591 140.241 71.8347C132.637 79.4386 121.525 82.3528 111.168 79.4589L99.2039 76.1161C95.1761 74.9907 91.2749 73.4533 87.5622 71.5282L81.9014 68.5929C80.1978 67.7095 78.6232 66.5968 77.2218 65.2858L72.9287 61.2696C67.094 55.8114 64.6772 47.619 66.615 39.8679L68.0795 34.01H63.4754L63.013 34.7499C57.1214 44.1764 57.6094 56.2505 64.2424 65.1708L68.0795 70.331L81.251 85.3193C82.3544 86.5749 83.6336 87.6644 85.0487 88.5539L86.6647 89.5696C95.9131 95.3829 106.615 98.467 117.538 98.467H121.82C123.484 98.467 125.124 98.8618 126.606 99.6191C134.172 103.486 133.203 114.592 125.082 117.091L114.12 120.464H99.5065C92.9614 120.464 86.4988 119.004 80.5894 116.19L73.0556 112.603C69.8211 111.062 67.1558 108.539 65.4403 105.394L62.5749 100.141C60.2512 95.8811 60.1319 90.7601 62.2548 86.3964L68.0795 74.4235L58.8713 67.2616L54.9061 77.3549C53.8079 80.1504 53.2441 83.1271 53.2441 86.1306V99.7975C53.2441 101.628 53.5234 103.448 54.0723 105.194L56.2521 112.13C57.9439 117.513 61.4786 122.128 66.2351 125.164L78.4154 132.939C81.3788 134.831 84.7216 136.048 88.2074 136.505L104.706 138.669C109.624 139.314 112.776 144.234 111.306 148.972L109.884 153.554C106.61 164.104 101.046 173.8 93.5894 181.95Z" fill="white"/>
<path d="M353.088 182.462L360.287 190.331C361.519 191.677 363.763 190.805 363.763 188.981V179.847C363.763 170.731 361.686 161.735 357.689 153.542L353.532 145.019L367.344 140.415L369.411 146.157C371.095 150.834 372.136 155.717 372.508 160.673L374.392 185.789C374.789 191.084 372.858 196.289 369.103 200.044L368.374 200.773C365.421 203.725 361.417 205.384 357.242 205.384C352.04 205.384 347.173 202.813 344.24 198.516L326.93 173.155L248.325 70.6694C246.849 68.7452 245.602 66.6556 244.61 64.4428C241.302 57.0627 240.988 48.6865 243.735 41.0796L246.103 34.5217L282.137 63.7988C284.097 65.3917 287.028 63.9965 287.028 61.4704V59.4287C287.028 52.3644 284.04 45.6298 278.801 40.8903L276.286 38.6142L252.242 25.8251V19.1748L263.234 21.5303C265.452 22.0054 267.627 22.6594 269.739 23.4858L279.555 27.3269C286.522 30.0531 293.938 31.4523 301.419 31.4523H332.84C337.735 31.4523 342.599 30.6631 347.243 29.1151C353.739 26.9497 359.663 23.3473 364.575 18.5759L370.747 12.5805C373.111 10.2842 373.18 6.51105 370.902 4.12949L366.998 0.0484607C365.781 -1.22372 366.683 -3.33398 368.444 -3.33398H377.411C378.143 -3.33398 378.816 -2.93421 379.167 -2.29169L381.836 2.60151C385.487 9.29596 384.991 17.4885 380.559 23.6937L377.891 27.4296C371.098 36.94 361.045 43.6213 349.646 46.2021C343.433 47.609 337 47.7552 330.729 46.632L313.938 43.6247C309.12 42.7619 304.264 44.9283 301.688 49.0897C300.153 51.5691 299.579 54.5246 300.075 57.3981L300.765 61.4C301.48 65.5469 303.461 69.3708 306.437 72.3464C314.041 79.9503 325.153 82.8645 335.51 79.9707L347.474 76.6278C351.502 75.5024 355.403 73.965 359.116 72.0399L364.776 69.1046C366.48 68.2213 368.055 67.1085 369.456 65.7975L373.749 61.7814C379.584 56.3232 382.001 48.1307 380.063 40.3796L378.598 34.5217H383.202L383.665 35.2616C389.556 44.6882 389.068 56.7622 382.435 65.6826L378.598 70.8427L365.427 85.831C364.323 87.0866 363.044 88.1761 361.629 89.0656L360.013 90.0814C350.765 95.8946 340.063 98.9787 329.139 98.9787H324.858C323.194 98.9787 321.554 99.3736 320.072 100.131C312.506 103.998 313.475 115.104 321.596 117.603L332.558 120.976H347.171C353.716 120.976 360.179 119.516 366.088 116.702L373.622 113.114C376.857 111.574 379.522 109.051 381.237 105.906L384.103 100.653C386.427 96.3928 386.546 91.2718 384.423 86.9081L378.598 74.9352L387.806 67.7733L391.772 77.8666C392.87 80.6621 393.434 83.6389 393.434 86.6423V100.309C393.434 102.14 393.154 103.96 392.605 105.706L390.426 112.642C388.734 118.025 385.199 122.64 380.443 125.676L368.262 133.451C365.299 135.342 361.956 136.56 358.47 137.017L341.972 139.181C337.053 139.826 333.902 144.746 335.372 149.484L336.794 154.066C340.068 164.616 345.632 174.312 353.088 182.462Z" fill="white"/>
</g>
</svg>
