<svg width="445" height="445" viewBox="0 0 445 445" fill="none" xmlns="http://www.w3.org/2000/svg">
<mask id="mask0" mask-type="alpha" maskUnits="userSpaceOnUse" x="0" y="0" width="445" height="445">
<circle cx="222.174" cy="222.174" r="222.174" fill="#F9AC34"/>
</mask>
<g mask="url(#mask0)">
<circle cx="222.174" cy="222.174" r="222.174" fill="#0C3545"/>
<path d="M1142 174.842L-711.244 1582.79V1878.42H1142V174.842Z" fill="url(#paint0_linear)"/>
<path d="M341.168 420.641L284.333 456.746L269.992 468.763C262.949 474.666 258.036 482.716 256.006 491.679L243.269 547.932L259.135 725.504L273.603 838.763C275.15 850.869 278.307 862.715 282.991 873.984L324.095 972.877C326.82 979.434 330.287 985.657 334.428 991.424L365.478 1034.67C370.413 1041.54 376.951 1047.11 384.525 1050.88L444.807 1080.92C456.901 1086.95 470.72 1088.56 483.878 1085.49L517.607 1077.61C535.271 1073.48 549.986 1061.32 557.376 1044.75L579.983 994.065C588.07 975.933 591.451 956.054 589.814 936.268L581.11 831.088L567.111 741.822L549.985 666.002C547.102 653.239 542.788 640.842 537.126 629.046L509.249 570.968L463.519 495.14L418.353 428.313C413.332 420.884 404.95 416.432 395.983 416.432H355.645C350.518 416.432 345.496 417.892 341.168 420.641Z" fill="#08090A"/>
<path opacity="0.5" d="M83.3022 53.3712L96.492 27.0683L110.443 3.55468C113.239 -1.1571 117.163 -5.0987 121.863 -7.91451L149.551 -24.5036C152.26 -26.1266 155.188 -27.3523 158.245 -28.1434L192.27 -36.9477C194.97 -37.6464 197.748 -38 200.537 -38H233.912C237.308 -38 240.684 -37.4757 243.92 -36.4457L283.924 -23.7138C289.879 -21.8184 295.174 -18.2708 299.192 -13.4839L328.025 20.8678C331.444 24.9411 333.828 29.7803 334.974 34.9734L340.137 58.3748L344.817 103.551C345.045 105.757 345.051 107.981 344.833 110.189L340.137 157.819L330.09 210.61L318.159 263.401L309.922 286.549C308.745 289.858 306.556 292.712 303.665 294.707C299.706 297.439 297.115 301.743 296.554 306.521L293.041 336.45V336.695C293.041 338.981 293.278 341.26 293.749 343.496L296.529 356.696C297.131 359.555 298.11 362.322 299.441 364.923L301.188 368.339C305.582 376.929 313.514 383.166 322.898 385.408L332.588 387.724C335.1 388.324 337.674 388.627 340.257 388.627H367.139H379.477C381.328 388.627 383.17 388.878 384.954 389.372C393.842 391.834 399.995 399.923 399.995 409.145V576C399.995 594.225 385.22 609 366.995 609H78C59.7746 609 45 594.225 45 576V422.319C45 405.827 57.1754 391.867 73.5144 389.626L80.7932 388.627H103.589C105.967 388.627 108.339 388.37 110.662 387.86L123.185 385.112C132.552 383.056 140.562 377.027 145.129 368.594L145.258 368.357C147.871 363.531 149.24 358.13 149.24 352.642V341.322C149.24 338.091 148.765 334.878 147.832 331.785L141.066 309.373C139.09 302.827 134.218 297.551 127.85 295.061C122.254 292.873 117.779 288.517 115.441 282.982L108.457 266.455C107.599 264.424 106.947 262.313 106.51 260.152L96.492 210.61L81.5777 160.457C81.0556 158.701 80.6806 156.905 80.4565 155.087L75.0238 111.008C74.6851 108.26 74.6936 105.48 75.0492 102.733L80.0744 63.9258C80.5502 60.2514 81.6414 56.6833 83.3022 53.3712Z" fill="url(#paint1_radial)"/>
<path d="M163.602 262.264L168.756 232.744C169.168 230.384 169.009 227.96 168.292 225.674L161.662 204.541C161.206 203.088 160.974 201.574 160.974 200.051V191.312L163.341 170.955C163.514 169.468 163.463 167.964 163.191 166.491L161.632 158.073C161.199 155.739 160.219 153.54 158.772 151.659L154.61 146.248C151.983 142.833 151.017 138.416 151.972 134.215V134.215C152.695 131.033 154.478 128.184 157.025 126.146L157.515 125.754C159.754 123.963 162.536 122.987 165.403 122.987V122.987C167.994 122.987 170.521 122.19 172.644 120.705L174.597 119.338C177.978 116.971 180.235 113.315 180.835 109.232L182.2 99.9518C182.411 98.5184 183.013 97.171 183.941 96.058L184.466 95.4271C184.916 94.8877 185.487 94.4623 186.132 94.1857L187.844 93.4519C188.442 93.1958 188.829 92.6082 188.829 91.958V91.958C188.829 90.9006 187.836 90.1248 186.81 90.3812L182.802 91.3832C182.616 91.4296 182.426 91.4531 182.234 91.4531V91.4531C180.942 91.4531 179.895 90.4055 179.895 89.1132V87.0968C179.895 85.8867 180.529 84.7652 181.567 84.1426L182.159 83.7876C182.395 83.6458 182.581 83.4332 182.689 83.1799V83.1799C183.17 82.0574 181.965 80.9573 180.873 81.5035V81.5035C180.309 81.7858 179.616 81.6341 179.228 81.1358L176.711 77.9002C176.382 77.4769 176 77.0971 175.575 76.7702L172.438 74.357C170.434 72.8153 168.073 71.8053 165.573 71.4208L165.172 71.3591C163.438 71.0923 161.67 71.1318 159.95 71.476L153.407 72.7845C152.511 72.9638 151.583 72.906 150.716 72.6169V72.6169C147.964 71.6995 146.476 68.7246 147.394 65.9723L147.835 64.6489" stroke="#FBFBFB" stroke-width="4" stroke-linecap="round"/>
<path d="M162.55 262.79L160.973 252.804L159.499 231.188C159.431 230.184 159.261 229.19 158.994 228.22L152.159 203.445C151.394 200.671 149.846 198.175 147.701 196.256L143.466 192.467C141.843 191.014 139.919 189.936 137.833 189.31L137.671 189.262C136.394 188.879 135.068 188.684 133.736 188.684H133.183C128.882 188.684 124.874 186.504 122.538 182.893V182.893C121.21 180.841 120.504 178.449 120.504 176.005V167.422C120.504 165.879 121.045 164.384 122.033 163.198V163.198C122.754 162.334 123.683 161.668 124.733 161.264L126.099 160.739C128.606 159.775 131.36 159.663 133.937 160.421L136.827 161.27C138.201 161.675 139.626 161.88 141.059 161.88H142.564C144.647 161.88 146.701 161.395 148.564 160.464V160.464C150.163 159.664 151.586 158.553 152.75 157.195L156.471 152.854C157.019 152.215 157.512 151.531 157.944 150.81L161.463 144.945C162.862 142.614 163.601 139.947 163.601 137.228V130.346" stroke="#FBFBFB" stroke-width="4" stroke-linecap="round"/>
<path d="M120.431 167.298L113.34 160.479C111.365 158.581 109.948 156.178 109.243 153.532L108.181 149.549C107.544 147.162 107.507 144.654 108.073 142.249L109.475 136.289C110.031 133.927 111.152 131.735 112.741 129.901L118.969 122.715C119.938 121.597 121.068 120.628 122.321 119.84L130.38 114.774C132.771 113.271 135.538 112.474 138.362 112.474H146.871H154.58C157.371 112.474 160.056 111.409 162.088 109.497L162.577 109.036C164.464 107.26 165.534 104.783 165.534 102.192V101.827C165.534 98.5696 163.734 95.579 160.855 94.0549V94.0549C159.587 93.3837 158.174 93.0329 156.74 93.0329H156.603C154.34 93.0329 152.153 92.2113 150.449 90.7207L146.871 87.5894" stroke="url(#paint2_linear)" stroke-width="4" stroke-linecap="round"/>
<path d="M206.698 116.155L207.338 118.717C208.276 122.469 207.729 126.439 205.81 129.797L203.787 133.337C202.939 134.82 201.716 136.054 200.241 136.915V136.915C197.679 138.409 194.575 138.654 191.811 137.579L187.811 136.023C187.094 135.744 186.331 135.601 185.561 135.601V135.601C183.353 135.601 181.312 136.774 180.199 138.681L179.494 139.89C178.723 141.211 178.317 142.714 178.317 144.245V147.463C178.317 149.006 178.555 150.54 179.023 152.011L181.29 159.135C181.758 160.606 181.996 162.14 181.996 163.683V169.723C181.996 171.144 181.794 172.558 181.396 173.923L180.254 177.839C179.025 182.053 176.012 185.517 172.009 187.318L170.535 187.981C168.736 188.791 166.785 189.209 164.812 189.209H164.459C160.581 189.209 156.901 187.502 154.396 184.543L152.883 182.755C152.673 182.506 152.518 182.215 152.428 181.901L151.791 179.673C151.376 178.22 149.342 178.154 148.834 179.577V179.577C148.412 180.759 146.835 180.979 146.106 179.958L143.093 175.74C142.753 175.265 142.319 174.864 141.818 174.563L138.886 172.804C137.863 172.19 136.692 171.866 135.498 171.866H129.716C129.273 171.866 128.913 171.506 128.913 171.063V171.063C128.913 170.215 127.771 169.946 127.392 170.703L124.376 176.735C124.248 176.99 124.167 177.267 124.137 177.551L122.861 189.463C122.716 190.813 121.577 191.837 120.219 191.837V191.837C119.403 191.837 118.633 191.463 118.129 190.822L113.146 184.479L112.56 183.821C110.83 181.873 111.618 178.793 114.071 177.917V177.917C115.428 177.432 116.943 177.785 117.946 178.82L132.23 193.549C132.821 194.159 133.462 194.717 134.148 195.218L144.966 203.123C146.17 204.003 147.499 204.699 148.909 205.187L151.115 205.951C156.778 207.911 160.731 213.054 161.168 219.031L162.024 230.73L163.075 262.789" stroke="url(#paint3_linear)" stroke-width="4" stroke-linecap="round"/>
<path d="M163.075 254.905L161.014 277.994C160.637 282.212 160.68 286.458 161.142 290.668L165.177 327.434L172.01 392.605V392.605C172.01 403.226 175.171 413.607 181.091 422.425L184.498 427.5" stroke="#FBFBFB" stroke-width="8" stroke-linecap="round"/>
<path d="M167.193 342.64L171.336 334.158C172.203 332.382 172.654 330.431 172.654 328.454V308.054V285.69V272.082C172.654 270.253 173.04 268.444 173.788 266.773L176.38 260.978C176.841 259.947 177.166 258.86 177.347 257.745L179.769 242.773C179.88 242.087 179.935 241.392 179.935 240.697V226.47C179.935 225.216 179.754 223.968 179.396 222.765L177.436 216.17C177.2 215.377 176.746 214.667 176.126 214.119V214.119C174.236 212.452 171.336 212.704 169.762 214.671L169.534 214.957V214.957C166.514 217.817 162.121 218.691 158.237 217.203L152.37 214.957L143.872 211.847C142.441 211.324 140.929 211.056 139.405 211.056H133.077C130.932 211.056 129.029 212.428 128.351 214.462L127.525 216.94C127.042 218.389 125.42 219.11 124.021 218.498V218.498C123.076 218.084 122.465 217.151 122.465 216.119V213.716C122.465 213.159 122.539 212.604 122.686 212.066L123.603 208.702C123.877 207.697 124.464 206.805 125.277 206.154V206.154C126.15 205.455 127.235 205.075 128.352 205.075H131.256C131.976 205.075 132.689 204.934 133.355 204.66L135.06 203.958C136.093 203.532 136.767 202.525 136.767 201.408V201.408C136.767 200.753 136.535 200.12 136.111 199.622L132.347 195.193" stroke="#F8F8F8" stroke-width="3" stroke-linecap="round" stroke-linejoin="round"/>
<path d="M166.153 343.421L168.293 366.533C168.599 369.842 168.617 373.171 168.345 376.483L167.122 391.411C166.508 398.9 162.595 405.728 156.444 410.045V410.045C153.085 412.402 149.203 413.906 145.133 414.428L131.046 416.234H119.69C106.877 416.234 94.1365 418.163 81.8972 421.955V421.955L68.6348 425.076" stroke="url(#paint4_linear)" stroke-width="6"/>
<path d="M138.587 161.907L136.329 157.706C136.057 157.2 135.699 156.745 135.272 156.36L132.762 154.098C132.326 153.705 131.963 153.239 131.689 152.72L128.671 147.011L125.793 139.805C125.678 139.517 125.536 139.24 125.369 138.978L122.95 135.171L119.809 130.627C119.615 130.347 119.382 130.097 119.117 129.885L118.458 129.356C117.045 128.225 117.045 126.075 118.458 124.943V124.943C119.127 124.407 119.517 123.595 119.517 122.737V120.657V118.906C119.517 117.581 118.991 116.311 118.055 115.373L115.703 113.018" stroke="white"/>
<path d="M145.317 158.355L138.875 142.573C137.993 140.414 137.54 138.103 137.54 135.771V130.425C137.54 128.122 138.348 125.892 139.822 124.122V124.122C142.971 120.344 142.848 114.821 139.534 111.187L137.315 108.753C134.734 105.922 131.08 104.309 127.249 104.309H126.002C123.117 104.309 120.283 103.55 117.784 102.108L111.489 98.4766L104.144 94.6859C101.252 93.1932 99.4355 90.2109 99.4355 86.9563V83.7196C99.4355 80.7032 101.881 78.2579 104.897 78.2579V78.2579C106.816 78.2579 108.594 77.2513 109.581 75.6062L112.842 70.1709C114.799 66.9094 114.335 62.7424 111.709 59.9911L111.192 59.4499C109.239 57.4036 108.649 54.4104 109.68 51.7759V51.7759C110.771 48.9872 113.46 47.1521 116.454 47.1521H121.598H128.208" stroke="url(#paint5_linear)"/>
<path d="M152.631 207.155L149.33 211.113C148.823 211.721 148.072 212.073 147.28 212.073V212.073C146.511 212.073 145.779 212.405 145.272 212.983L143.601 214.891C143.333 215.197 143.088 215.522 142.869 215.864L139.888 220.498C139.635 220.89 139.416 221.303 139.232 221.732L137.883 224.878C137.376 226.059 136.215 226.824 134.93 226.824V226.824C134.178 226.824 133.451 227.088 132.874 227.568L132.309 228.038C131.674 228.567 131.307 229.351 131.307 230.178V230.178C131.307 230.917 131.6 231.625 132.123 232.148L132.485 232.51C132.791 232.815 133.144 233.069 133.531 233.263L135.407 234.2" stroke="white"/>
<path d="M54.332 426.896L85.5378 420.915L117.004 417.014H151.07H160.234C163.127 417.014 166.007 417.4 168.798 418.161V418.161C175.364 419.952 181.203 423.756 185.495 429.038L190.326 434.984C193.945 439.438 196.745 444.5 198.595 449.934V449.934C199.503 452.6 200.176 455.341 200.608 458.124L202.299 469.024" stroke="white" stroke-width="12"/>
<path d="M268.283 262.263L263.129 232.744C262.717 230.384 262.876 227.96 263.593 225.674L270.223 204.541C270.679 203.088 270.911 201.574 270.911 200.051V191.311L268.544 170.955C268.371 169.468 268.422 167.963 268.694 166.491L270.253 158.073C270.685 155.739 271.666 153.54 273.113 151.659L277.275 146.248C279.902 142.833 280.867 138.416 279.913 134.215V134.215C279.19 131.033 277.407 128.184 274.859 126.146L274.369 125.754C272.13 123.963 269.349 122.987 266.482 122.987V122.987C263.891 122.987 261.363 122.19 259.241 120.705L257.288 119.337C253.907 116.97 251.65 113.315 251.049 109.231L249.685 99.9515C249.474 98.5181 248.872 97.1707 247.944 96.0577L247.418 95.4269C246.969 94.8874 246.398 94.462 245.753 94.1854L244.041 93.4517C243.443 93.1956 243.056 92.608 243.056 91.9578V91.9578C243.056 90.9004 244.049 90.1245 245.075 90.381L249.083 91.383C249.269 91.4293 249.459 91.4528 249.65 91.4528V91.4528C250.943 91.4528 251.99 90.4052 251.99 89.113V87.0965C251.99 85.8864 251.355 84.765 250.318 84.1424L249.726 83.7873C249.49 83.6456 249.304 83.4329 249.195 83.1796V83.1796C248.714 82.0572 249.919 80.9571 251.012 81.5032V81.5032C251.576 81.7855 252.269 81.6339 252.657 81.1356L255.173 77.9C255.503 77.4766 255.884 77.0969 256.309 76.7699L259.446 74.3568C261.451 72.8151 263.812 71.8051 266.311 71.4206L266.712 71.3589C268.447 71.092 270.214 71.1316 271.935 71.4757L278.478 72.7842C279.374 72.9635 280.302 72.9058 281.169 72.6167V72.6167C283.921 71.6993 285.409 68.7244 284.491 65.9721L284.05 64.6487" stroke="#FBFBFB" stroke-width="4" stroke-linecap="round"/>
<path d="M269.333 262.789L270.91 252.803L272.384 231.188C272.452 230.184 272.621 229.189 272.889 228.219L279.723 203.445C280.489 200.67 282.036 198.175 284.181 196.255L288.416 192.466C290.04 191.013 291.963 189.936 294.05 189.31L294.212 189.261C295.489 188.878 296.814 188.684 298.147 188.684H298.7C303.001 188.684 307.008 186.503 309.345 182.892V182.892C310.673 180.841 311.379 178.449 311.379 176.005V167.422C311.379 165.878 310.838 164.384 309.85 163.198V163.198C309.129 162.333 308.2 161.667 307.149 161.263L305.784 160.738C303.277 159.774 300.522 159.662 297.946 160.42L295.056 161.27C293.682 161.674 292.256 161.879 290.824 161.879H289.318C287.236 161.879 285.182 161.395 283.319 160.463V160.463C281.72 159.664 280.296 158.552 279.133 157.195L275.412 152.854C274.864 152.215 274.371 151.531 273.938 150.809L270.42 144.945C269.021 142.614 268.282 139.946 268.282 137.227V130.345" stroke="url(#paint6_linear)" stroke-width="4" stroke-linecap="round"/>
<path d="M225.185 116.155L224.545 118.717C223.607 122.469 224.154 126.438 226.073 129.797L228.096 133.337C228.944 134.82 230.166 136.054 231.642 136.914V136.914C234.204 138.409 237.307 138.653 240.072 137.578L244.071 136.023C244.789 135.744 245.552 135.601 246.321 135.601V135.601C248.529 135.601 250.571 136.773 251.684 138.681L252.389 139.889C253.16 141.211 253.566 142.714 253.566 144.244V147.462C253.566 149.006 253.328 150.54 252.86 152.01L250.593 159.134C250.125 160.605 249.887 162.139 249.887 163.682V169.722C249.887 171.144 250.089 172.558 250.487 173.922L251.629 177.838C252.858 182.052 255.871 185.516 259.874 187.317L261.348 187.981C263.147 188.79 265.098 189.209 267.07 189.209H267.424C271.302 189.209 274.982 187.502 277.487 184.542L279 182.754C279.21 182.505 279.365 182.214 279.455 181.901L280.092 179.672C280.507 178.22 282.541 178.154 283.049 179.577V179.577C283.471 180.759 285.048 180.978 285.777 179.957L288.79 175.74C289.129 175.264 289.564 174.863 290.065 174.562L292.997 172.804C294.02 172.189 295.191 171.865 296.385 171.865H302.167C302.61 171.865 302.97 171.506 302.97 171.062V171.062C302.97 170.215 304.112 169.945 304.491 170.703L307.507 176.734C307.634 176.99 307.715 177.266 307.746 177.55L309.022 189.463C309.167 190.813 310.306 191.837 311.664 191.837V191.837C312.479 191.837 313.25 191.462 313.753 190.821L318.737 184.479L319.322 183.82C321.053 181.873 320.265 178.793 317.811 177.917V177.917C316.454 177.432 314.94 177.785 313.936 178.819L299.653 193.549C299.062 194.158 298.421 194.716 297.735 195.217L286.917 203.123C285.713 204.003 284.384 204.699 282.974 205.187L280.768 205.95C275.105 207.91 271.152 213.053 270.715 219.03L269.859 230.729L268.808 262.789" stroke="url(#paint7_linear)" stroke-width="4" stroke-linecap="round"/>
<path d="M251.5 226L245.954 218.374C244.359 216.181 243.5 213.54 243.5 210.828V200.585C243.5 199.157 244.657 198 246.085 198V198C247.222 198 248.226 197.256 248.558 196.168L250.852 188.628C251.281 187.219 251.942 185.892 252.808 184.701L256.267 179.946C258.368 177.056 259.5 173.575 259.5 170.003V168.657C259.5 165.035 258.061 161.561 255.5 159L254.328 157.828C252.517 156.017 250.061 155 247.5 155V155C244.939 155 242.483 153.983 240.672 152.172L240.5 152C238.579 150.079 237.5 147.474 237.5 144.757V142.5V136.5" stroke="white" stroke-width="2"/>
<path d="M268.808 254.905V272.28V287.068C268.808 290.658 269.464 294.218 270.744 297.573V297.573C273.583 305.017 273.288 313.294 269.926 320.517L269.619 321.175C267.7 325.298 266.706 329.791 266.706 334.338V355.616C266.706 360.44 266.16 365.249 265.08 369.95L260.974 387.815C260.242 390.998 259.873 394.253 259.873 397.519V397.519C259.873 404.978 257.947 412.311 254.282 418.808L250.301 425.864" stroke="#FBFBFB" stroke-width="5" stroke-linecap="round"/>
<path d="M264.69 342.641L260.547 334.159C259.68 332.382 259.229 330.431 259.229 328.454V308.054V285.69V272.082C259.229 270.253 258.842 268.444 258.095 266.774L255.503 260.978C255.041 259.947 254.717 258.861 254.536 257.746L252.114 242.773C252.003 242.087 251.947 241.393 251.947 240.697V226.47C251.947 225.216 252.129 223.968 252.486 222.766L254.447 216.17C254.683 215.377 255.137 214.667 255.757 214.12V214.12C257.647 212.452 260.547 212.704 262.121 214.672L262.349 214.957V214.957C265.369 217.818 269.762 218.691 273.646 217.204L279.512 214.957L288.011 211.848C289.442 211.324 290.954 211.056 292.478 211.056H298.806C300.95 211.056 302.854 212.428 303.532 214.463L304.358 216.94C304.841 218.389 306.463 219.11 307.862 218.498V218.498C308.807 218.085 309.418 217.151 309.418 216.119V213.716C309.418 213.159 309.344 212.604 309.197 212.066L308.28 208.703C308.005 207.697 307.419 206.805 306.606 206.154V206.154C305.733 205.456 304.648 205.075 303.53 205.075H300.626C299.907 205.075 299.194 204.934 298.528 204.66L296.823 203.958C295.79 203.533 295.115 202.526 295.115 201.408V201.408C295.115 200.754 295.348 200.121 295.772 199.622L299.536 195.193" stroke="#F8F8F8" stroke-width="3" stroke-linecap="round" stroke-linejoin="round"/>
<path d="M265.73 343.42L263.59 366.533C263.284 369.842 263.266 373.171 263.537 376.483L264.761 391.41C265.375 398.9 269.288 405.728 275.439 410.045V410.045C278.798 412.402 282.679 413.906 286.749 414.428L300.836 416.234H312.193C325.006 416.234 337.746 418.163 349.986 421.955V421.955L363.248 425.076" stroke="url(#paint8_linear)" stroke-width="6"/>
<path d="M293.295 161.907L295.554 157.706C295.826 157.2 296.183 156.745 296.61 156.36L299.121 154.098C299.556 153.705 299.92 153.239 300.194 152.72L303.212 147.011L306.09 139.805C306.205 139.517 306.347 139.24 306.513 138.978L308.933 135.171L312.074 130.627C312.267 130.347 312.5 130.097 312.766 129.885L313.425 129.356C314.838 128.225 314.838 126.075 313.425 124.943V124.943C312.755 124.407 312.366 123.595 312.366 122.737V120.657V118.906C312.366 117.581 312.891 116.311 313.828 115.373L316.18 113.018" stroke="white"/>
<path d="M279.252 207.155L282.553 211.112C283.06 211.72 283.811 212.072 284.603 212.072V212.072C285.372 212.072 286.104 212.404 286.611 212.983L288.282 214.891C288.55 215.197 288.794 215.522 289.014 215.864L291.995 220.497C292.248 220.89 292.467 221.303 292.651 221.732L294 224.877C294.507 226.058 295.668 226.824 296.953 226.824V226.824C297.704 226.824 298.432 227.087 299.009 227.568L299.574 228.038C300.209 228.567 300.576 229.351 300.576 230.177V230.177C300.576 230.916 300.283 231.625 299.76 232.147L299.397 232.509C299.092 232.815 298.739 233.069 298.352 233.262L296.475 234.2" stroke="white"/>
<path d="M377.551 426.896L346.345 420.915L314.879 417.014H280.813H271.649C268.756 417.014 265.876 417.4 263.085 418.161V418.161C256.519 419.952 250.68 423.756 246.388 429.038L241.557 434.984C237.937 439.438 235.138 444.5 233.288 449.934V449.934C232.38 452.6 231.707 455.341 231.275 458.124L229.583 469.024" stroke="white" stroke-width="12"/>
<path d="M103.711 94.1996L104.813 93.0977C105.631 92.2797 106.541 91.5592 107.524 90.9503L112.729 87.7283C113.712 87.1195 114.622 86.3989 115.44 85.5809L117.592 83.4289C120.405 80.6159 121.986 76.8006 121.986 72.8223V69.315V69.315C121.986 63.2377 125.765 57.8016 131.462 55.6856L133.888 54.7847C135.021 54.3637 136.1 53.8072 137.1 53.1273L141.331 50.2497C143.823 48.5552 145.315 45.7371 145.315 42.7237V42.7237C145.315 39.8794 143.985 37.1986 141.721 35.4776L138.968 33.3852C136.842 31.77 135.594 29.2541 135.594 26.5847V26.5847C135.594 24.7892 136.16 23.0393 137.211 21.5837L140.649 16.824" stroke="white" stroke-width="0.5"/>
<path d="M286.849 158.355L293.291 142.573C294.173 140.413 294.626 138.103 294.626 135.771V130.425C294.626 128.122 293.818 125.891 292.344 124.122V124.122C289.195 120.344 289.318 114.821 292.632 111.186L294.851 108.753C297.432 105.922 301.086 104.309 304.917 104.309H306.164C309.049 104.309 311.883 103.55 314.382 102.108L320.677 98.4764L328.022 94.6856C330.914 93.193 332.73 90.2106 332.73 86.956V83.7193C332.73 80.7029 330.285 78.2576 327.269 78.2576V78.2576C325.35 78.2576 323.572 77.251 322.585 75.6059L319.324 70.1707C317.367 66.9092 317.831 62.7421 320.457 59.9908L320.974 59.4497C322.927 57.4033 323.517 54.4101 322.486 51.7757V51.7757C321.395 48.987 318.706 47.1519 315.712 47.1519H310.568H303.958" stroke="url(#paint9_linear)"/>
<path d="M328.453 94.1991L327.351 93.0972C326.533 92.2792 325.623 91.5587 324.64 90.9498L319.435 87.7278C318.452 87.119 317.542 86.3984 316.724 85.5804L314.572 83.4284C311.759 80.6154 310.178 76.8001 310.178 72.8218V69.3145V69.3145C310.178 63.2372 306.399 57.8012 300.702 55.6852L298.276 54.7843C297.143 54.3632 296.064 53.8067 295.064 53.1268L290.833 50.2492C288.341 48.5547 286.849 45.7366 286.849 42.7232V42.7232C286.849 39.8789 288.179 37.1981 290.443 35.4771L293.196 33.3847C295.322 31.7695 296.57 29.2536 296.57 26.5842V26.5842C296.57 24.7887 296.004 23.0388 294.953 21.5832L291.515 16.8235" stroke="white" stroke-width="0.5"/>
</g>
<defs>
<linearGradient id="paint0_linear" x1="-299.207" y1="293.095" x2="737.353" y2="1577.25" gradientUnits="userSpaceOnUse">
<stop offset="0.378419" stop-color="#03B5AA"/>
<stop offset="0.932324" stop-color="#07949D"/>
</linearGradient>
<radialGradient id="paint1_radial" cx="0" cy="0" r="1" gradientUnits="userSpaceOnUse" gradientTransform="translate(222 203) rotate(90) scale(260.5 125.869)">
<stop offset="0.242389" stop-color="#D7F2FD"/>
<stop offset="1" stop-color="#476C7B"/>
</radialGradient>
<linearGradient id="paint2_linear" x1="136.373" y1="87.5894" x2="136.373" y2="167.298" gradientUnits="userSpaceOnUse">
<stop stop-color="#0C3545" stop-opacity="0.68"/>
<stop offset="1" stop-color="white"/>
</linearGradient>
<linearGradient id="paint3_linear" x1="158.871" y1="116.155" x2="158.871" y2="262.789" gradientUnits="userSpaceOnUse">
<stop stop-color="#0C3545" stop-opacity="0.8"/>
<stop offset="1" stop-color="white"/>
</linearGradient>
<linearGradient id="paint4_linear" x1="118.694" y1="343.421" x2="118.694" y2="425.076" gradientUnits="userSpaceOnUse">
<stop stop-color="white"/>
<stop offset="1" stop-color="#0C3545" stop-opacity="0.74"/>
</linearGradient>
<linearGradient id="paint5_linear" x1="122.376" y1="47.1521" x2="122.376" y2="158.355" gradientUnits="userSpaceOnUse">
<stop stop-color="#0C3545" stop-opacity="0.66"/>
<stop offset="1" stop-color="white"/>
</linearGradient>
<linearGradient id="paint6_linear" x1="289.83" y1="130.345" x2="289.83" y2="262.789" gradientUnits="userSpaceOnUse">
<stop stop-color="#0C3545" stop-opacity="0.74"/>
<stop offset="1" stop-color="white"/>
</linearGradient>
<linearGradient id="paint7_linear" x1="273.012" y1="116.155" x2="273.012" y2="262.789" gradientUnits="userSpaceOnUse">
<stop stop-color="#0C3545" stop-opacity="0.6"/>
<stop offset="1" stop-color="white"/>
</linearGradient>
<linearGradient id="paint8_linear" x1="313.189" y1="343.42" x2="313.189" y2="425.076" gradientUnits="userSpaceOnUse">
<stop stop-color="white"/>
<stop offset="1" stop-color="#0C3545" stop-opacity="0.84"/>
</linearGradient>
<linearGradient id="paint9_linear" x1="309.79" y1="47.1519" x2="309.79" y2="158.355" gradientUnits="userSpaceOnUse">
<stop stop-color="#0C3545" stop-opacity="0.66"/>
<stop offset="1" stop-color="white"/>
</linearGradient>
</defs>
</svg>
