<svg width="445" height="445" viewBox="0 0 445 445" fill="none" xmlns="http://www.w3.org/2000/svg">
<mask id="mask0" mask-type="alpha" maskUnits="userSpaceOnUse" x="0" y="0" width="445" height="445">
<circle cx="222.174" cy="222.174" r="222.174" fill="#F9AC34"/>
</mask>
<g mask="url(#mask0)">
<path d="M58.2766 -286.449L39.5566 -348.829L181.828 -390L300.387 -348.829L275.427 -286.449V-244.031H614.881L852 226.315L728.449 598.1L589.922 222.572V457.121L562.466 657.985L-76.5067 910L-228.762 604.338L-243.738 573.148L-264.954 440.902L-243.738 188.887L-362.297 551.939L-547 386.008L-407.225 -55.643L-272.442 -235.298L-102.715 -224.069L54.5326 -244.031L58.2766 -286.449Z" fill="white" fill-opacity="0.4"/>
<path opacity="0.3" d="M39.2986 -97.8222L97.2353 -61.1966L111.96 -48.9166C119.033 -43.0184 123.97 -34.9591 126.014 -25.9794L139 31.0969L122.864 210.826L108.129 325.607C106.569 337.763 103.384 349.654 98.6611 360.963L56.7517 461.306C54.0083 467.874 50.5199 474.106 46.3549 479.878L14.5943 523.899C9.64713 530.755 3.10255 536.302 -4.47229 540.059L-66.3685 570.755C-78.4206 576.732 -92.1754 578.333 -105.278 575.285L-140.519 567.088C-158.174 562.981 -172.893 550.857 -180.306 534.317L-203.567 482.417C-211.722 464.22 -215.133 444.252 -213.481 424.379L-204.61 317.692L-190.372 227.342L-172.915 150.437C-170.008 137.628 -165.66 125.19 -159.954 113.36L-131.521 54.4131L-85.0107 -22.3362L-38.9412 -90.1695C-33.9154 -97.5695 -25.5508 -102 -16.6054 -102H24.8712C29.9787 -102 34.9814 -100.551 39.2986 -97.8222Z" fill="#F78764"/>
<path opacity="0.3" d="M288.701 -97.8222L230.765 -61.1966L216.04 -48.9166C208.967 -43.0184 204.03 -34.9591 201.986 -25.9794L189 31.0969L205.136 210.826L219.871 325.607C221.431 337.763 224.616 349.654 229.339 360.963L271.248 461.306C273.992 467.874 277.48 474.106 281.645 479.878L313.406 523.899C318.353 530.755 324.897 536.302 332.472 540.059L394.369 570.755C406.421 576.732 420.175 578.333 433.278 575.285L468.519 567.088C486.174 562.981 500.893 550.857 508.306 534.317L531.567 482.417C539.722 464.22 543.133 444.252 541.481 424.379L532.61 317.692L518.372 227.342L500.915 150.437C498.008 137.628 493.66 125.19 487.954 113.36L459.521 54.4131L413.011 -22.3362L366.941 -90.1695C361.915 -97.5695 353.551 -102 344.605 -102H303.129C298.021 -102 293.019 -100.551 288.701 -97.8222Z" fill="#F78764"/>
<mask id="mask1" mask-type="alpha" maskUnits="userSpaceOnUse" x="117" y="37" width="267" height="351">
<path d="M145.272 90.5858L132.747 111.396C132.499 111.808 132.284 112.239 132.105 112.686L125.115 130.107C118.557 146.45 116.019 164.128 117.714 181.656L120.439 209.842L120.797 211.863C128.134 253.309 153.479 289.364 189.994 310.299L204.55 318.645L258.601 378.36C260.61 380.581 263.325 382.039 266.286 382.489L293.705 386.655C308.693 388.933 323.84 383.679 334.2 372.611L367.761 336.753L382.826 264.552C384.257 257.694 384.102 250.6 382.374 243.81L373.729 209.842L363.12 189.351V158.648C363.12 148.552 359.798 138.736 353.667 130.714L329.469 99.0563C321.914 89.1712 310.676 82.7683 298.32 81.3083L261.708 76.9823L259.579 68.0034C256.012 52.9601 243.931 41.4218 228.739 38.5497C219.965 36.8907 210.893 37.9782 202.759 41.6638L197.636 43.9851C175.862 53.8518 157.6 70.1036 145.272 90.5858Z" fill="#E14E42" fill-opacity="0.8"/>
</mask>
<g mask="url(#mask1)">
<path d="M145.272 92.0934L132.747 112.904C132.499 113.316 132.284 113.747 132.105 114.193L125.115 131.614C118.557 147.957 116.019 165.636 117.714 183.164L120.439 211.35L120.797 213.37C128.134 254.816 153.479 290.872 189.994 311.807L204.55 320.153L258.601 379.868C260.61 382.088 263.325 383.547 266.286 383.997L293.705 388.163C308.693 390.441 323.84 385.187 334.2 374.119L367.761 338.261L382.826 266.06C384.257 259.202 384.102 252.107 382.374 245.318L373.729 211.35L363.12 190.859V160.156C363.12 150.06 359.798 140.244 353.667 132.222L329.469 100.564C321.914 90.6789 310.676 84.276 298.32 82.816L261.708 78.49L259.579 69.5111C256.012 54.4678 243.931 42.9295 228.739 40.0573C219.965 38.3984 210.893 39.4859 202.759 43.1715L197.636 45.4928C175.862 55.3595 157.6 71.6113 145.272 92.0934Z" fill="#ED3021" fill-opacity="0.8"/>
<path d="M250.84 105.227L247.809 106.859C240.891 109.824 233.374 111.382 225.848 111.382C219.43 111.382 213.061 112.494 207.023 114.667L147.102 136.239C142.951 137.733 138.481 138.116 134.136 137.349C117.957 134.494 108.748 117.217 115.398 102.194L134.99 57.9305C140.223 46.1082 148.955 36.1748 160.009 29.4698L176.819 19.2734C184.818 14.4217 193.91 11.6631 203.256 11.2523C233.477 9.92388 259.233 32.9626 261.268 63.1444L261.672 69.1392C261.977 73.6678 261.783 78.2163 261.093 82.7025L260.624 85.7524L259.116 94.0444C258.161 98.8188 255.127 102.919 250.84 105.227Z" fill="#810022"/>
<path d="M291.527 209.378L296.05 222.193L307.357 245.561L311.127 264.407L305.096 296.821L299.819 323.958V351.095L311.127 366.926L324.695 363.157L339.018 353.357L353.34 334.512L359.371 319.435L366.155 289.283L369.924 268.176V250.838L366.155 234.254L363.14 225.962L353.34 213.901L339.018 209.378L327.71 206.363H311.127H299.819L291.527 209.378Z" fill="#FF5541"/>
<path d="M258.292 98.5552L257.617 99.0228C256.605 99.7228 255.659 100.512 254.79 101.382L253.277 102.895C252.155 104.017 251.293 105.37 250.751 106.861C249.399 110.58 250.177 114.74 252.783 117.718L253.006 117.973C253.557 118.603 254.037 119.291 254.438 120.026L269.54 147.713C271.129 150.626 272.499 153.653 273.637 156.769L281.155 177.343C284.327 186.025 291.724 192.477 300.756 194.44C302.638 194.849 304.558 195.056 306.485 195.056H323.94H336.052C337.515 195.056 338.967 194.804 340.345 194.312C345.425 192.498 348.816 187.686 348.816 182.291V176.964V170.232C348.816 162.708 347.603 155.234 345.224 148.096L344.293 145.304L341.037 138.385C339.192 134.463 336.985 130.721 334.447 127.206L332.78 124.897C329.91 120.924 326.631 117.262 322.996 113.974L316.642 108.225C313.976 105.813 311.08 103.666 307.997 101.816C301.119 97.6896 293.426 95.1094 285.45 94.2549L276.45 93.2906H275.145C269.123 93.2906 263.244 95.1272 258.292 98.5552Z" fill="#B02618"/>
<path d="M161.854 94.5033L117.559 115.784C115.329 116.855 116.092 120.207 118.566 120.207C120.375 120.207 121.491 122.179 120.561 123.73L85.1445 182.731C77.5786 195.336 77.2869 211.013 84.3786 223.89L128.069 303.223C132.905 312.004 140.268 319.128 149.204 323.672L271.044 385.627C276.949 388.629 283.763 389.315 290.148 387.55C295.461 386.081 300.184 382.996 303.663 378.721L313.169 367.04C316.807 362.57 319.645 357.504 321.558 352.067L326.389 338.327C328.264 332.997 329.221 327.389 329.221 321.739V295.595C329.221 292.996 329.018 290.401 328.615 287.834L325.348 267.043C324.42 261.135 322.439 255.44 319.5 250.232L308.044 229.931C307.087 228.236 305.994 226.622 304.774 225.104L303.884 223.997C297.953 216.619 295.519 207.028 297.213 197.714C297.941 193.712 297.914 189.609 297.134 185.617L291.769 158.156C291.109 154.777 290.102 151.476 288.763 148.304L283.057 134.782C281.178 130.328 278.662 126.171 275.59 122.439L265.742 110.479C259.456 102.845 251.048 97.247 241.58 94.3917L229.995 90.8975C225.312 89.4853 220.448 88.7678 215.557 88.7678H193.234C189.925 88.7678 186.623 89.0964 183.378 89.7488L165.043 93.4353C163.94 93.6572 162.868 94.0159 161.854 94.5033Z" fill="#A53150"/>
<path d="M188.877 104.129L162.793 109.261C158.198 110.165 153.813 111.918 149.863 114.432C142.979 118.813 137.707 125.313 134.842 132.953L134.337 134.302C133.099 137.603 132.282 141.047 131.907 144.553L130.211 160.38V182.091C130.211 187.709 130.675 193.318 131.599 198.86L133.98 213.147L136.917 222.796C138.464 227.881 140.908 232.649 144.133 236.874C154.518 250.483 171.969 256.91 188.741 253.48C192.397 252.732 195.985 251.524 199.345 249.9L229.881 235.141C236.265 232.056 242.133 228.002 247.278 223.123L265.127 206.197C275.942 195.941 278.985 179.917 272.682 166.411L261.162 140.629C258.309 134.241 254.416 128.371 249.642 123.257C240.606 113.575 228.76 106.97 215.773 104.373L214.762 104.17C206.219 102.462 197.425 102.448 188.877 104.129Z" fill="#BA385A"/>
<path d="M191.862 271.356L191.612 271.606C188.499 274.719 186.75 278.941 186.75 283.343C186.75 285.278 187.088 287.198 187.749 289.016L187.824 289.221C189.087 292.694 191.397 295.689 194.435 297.793L199.565 301.344L205.15 305.067C210.46 308.607 215.471 312.727 219.983 317.239C224.409 321.665 228.451 326.582 231.923 331.79C234.47 335.61 237.29 339.24 240.36 342.652L246.419 349.384C248.347 351.526 250.08 353.836 251.596 356.286L254.381 360.785C257.472 365.777 261.939 369.771 267.246 372.284C271.324 374.216 275.828 375.218 280.34 375.218C288.868 375.218 297.118 371.717 302.991 365.534L303.48 365.019C306.538 361.801 308.909 357.995 310.451 353.832L312.139 349.274C314.463 343 315.652 336.363 315.652 329.673V310.39V292.572C315.652 281.885 314.202 271.248 311.342 260.951L310.369 257.447C308.87 252.05 306.825 246.82 304.266 241.837L296.001 225.741C294.556 222.926 292.37 220.559 289.68 218.894C282.814 214.644 273.872 215.729 268.162 221.439L265.957 224.109C257.922 233.835 248.506 242.333 238.009 249.33L217.656 259.13L197.453 267.603C195.363 268.479 193.464 269.754 191.862 271.356Z" fill="#87253F"/>
</g>
<path d="M-172.215 77.033L-178.212 70.6361C-184.273 64.1716 -183.439 53.8904 -176.415 48.4877L-173.42 46.184L-156.078 28.8422L-130.066 17.6939L-107.769 28.8422L-132.246 36.6302C-134.047 37.2034 -135.614 38.3444 -136.713 39.8826C-139.233 43.4107 -138.539 48.2959 -135.136 50.9825L-128.565 56.1701C-121.365 61.8545 -113.211 66.2134 -104.485 69.0435L-71.8467 79.629L-33.7639 89.1497C-26.1491 91.0534 -18.3296 92.016 -10.4805 92.016H32.3413C35.5485 92.016 38.751 91.7711 41.9209 91.2834L61.2083 88.3161C66.6381 87.4808 71.9948 86.2246 77.2298 84.5589L96.6168 78.3903L111.481 113.074H-7.4342L-63.1758 108.119L-125.472 97.3784C-131.807 96.2862 -137.958 94.3143 -143.746 91.5197L-169.267 79.1991C-170.375 78.6645 -171.374 77.9302 -172.215 77.033Z" fill="white"/>
<path d="M227.007 486.585L218.012 511.936L210.257 507.216C197.563 499.489 181.579 499.649 169.041 507.627L162.27 511.936L156.452 508.234C143.423 499.943 126.73 500.121 113.88 508.687L109.006 511.936L101.272 485.297C99.127 477.91 100.653 469.942 105.375 463.871L118.02 447.613C121.591 443.023 127.492 440.91 133.165 442.19L146.038 445.097C156.733 447.512 167.823 447.585 178.548 445.31L194.409 441.945C199.793 440.803 205.371 442.702 208.94 446.892L222.659 462.996C228.215 469.519 229.873 478.51 227.007 486.585Z" fill="white"/>
<path opacity="0.4" d="M99.8122 455.843L-28.7374 560.221C-37.1045 567.015 -47.2264 571.297 -57.9288 572.571L-88.7813 576.244C-92.2672 576.659 -95.7892 576.673 -99.2783 576.285L-144.021 571.314C-147.348 570.944 -150.258 573.548 -150.258 576.896C-150.258 579.734 -148.141 582.126 -145.324 582.471L-96.9573 588.393C-91.6975 589.037 -86.3737 588.945 -81.1395 588.118L-52.8138 583.646C-45.3755 582.471 -38.2436 579.835 -31.8302 575.888L114.485 485.848C118.742 483.228 123.324 481.18 128.115 479.756L152.188 472.599C161.971 469.691 172.355 469.462 182.256 471.937L209.211 478.676C217.698 480.798 225.583 484.845 232.255 490.503L311.492 557.705C317.646 562.924 324.838 566.777 332.592 569.009L399.145 588.168C401.911 588.964 404.733 589.55 407.586 589.92L467.251 597.654C469.494 597.945 471.753 597.264 473.462 595.783C479.007 590.978 475.608 581.867 468.27 581.867H408.616C405.099 581.867 401.608 581.252 398.303 580.05L334.57 556.874C325.555 553.596 317.513 548.095 311.189 540.882L240.856 460.659L212.042 426.473C188.828 398.93 146.204 399.559 123.811 427.773L108.53 447.027C105.953 450.274 103.03 453.23 99.8122 455.843Z" fill="#D31246"/>
<path d="M-122.382 1.11401L-125.282 -2.04128C-131.199 -8.47966 -130.377 -18.5941 -123.498 -23.9922L-123.135 -24.2771L-109.004 -38.6911L-87.8087 -47.9572L-69.6411 -38.6911C-80.2219 -43.4579 -88.8914 -29.1872 -79.7847 -21.9938L-75.7551 -18.8108C-71.7056 -15.6122 -67.1663 -13.0882 -62.3124 -11.3364L-38.2606 -2.6561L-9.56248 4.66243C-1.80995 6.63947 6.15933 7.63961 14.16 7.63961H45.6456C48.9162 7.63961 52.1819 7.38493 55.4129 6.87786L68.6341 4.803C74.0705 3.94984 79.5651 3.52132 85.068 3.52132H109.007V31.3197H12.1133L-33.3058 27.2015L-82.1482 18.6113C-88.5808 17.48 -94.8201 15.4411 -100.679 12.5557L-119.437 3.31844C-120.547 2.77206 -121.545 2.0246 -122.382 1.11401Z" fill="white"/>
<path d="M-183.334 106.613V90.7776L-189.179 96.6224C-196.449 103.893 -200.039 114.063 -198.944 124.286L-198.287 130.413C-197.432 138.398 -193.694 145.797 -187.774 151.223L-167.231 170.055L-154.272 177.459C-139.956 185.64 -124.049 190.646 -107.628 192.139L-64.4185 196.067H34.6777L92.8967 189.874V162.622L34.6777 170.055H-11.1543L-64.4185 162.622L-120.16 148.997L-158.567 133.836C-164.259 131.589 -169.324 128.001 -173.331 123.377L-179.914 115.782C-182.12 113.237 -183.334 109.981 -183.334 106.613Z" fill="white"/>
<path d="M505.424 77.033L511.421 70.6361C517.482 64.1716 516.648 53.8904 509.624 48.4877L506.629 46.184L489.287 28.8422L463.275 17.6939L440.978 28.8422L465.455 36.6302C467.256 37.2034 468.823 38.3444 469.922 39.8826C472.442 43.4107 471.748 48.2959 468.345 50.9825L461.774 56.1701C454.574 61.8545 446.42 66.2134 437.694 69.0435L405.056 79.629L366.973 89.1497C359.358 91.0534 351.539 92.016 343.689 92.016H300.868C297.661 92.016 294.458 91.7711 291.288 91.2834L272.001 88.3161C266.571 87.4808 261.214 86.2246 255.979 84.5589L236.592 78.3903L221.728 113.074H340.643L396.385 108.119L458.681 97.3784C465.016 96.2862 471.166 94.3143 476.955 91.5197L502.476 79.1991C503.584 78.6645 504.583 77.9302 505.424 77.033Z" fill="white"/>
<path d="M455.593 1.11401L458.493 -2.04128C464.41 -8.47966 463.588 -18.5941 456.709 -23.9922L456.346 -24.2771L442.215 -38.6911L421.02 -47.9572L402.852 -38.6911C413.433 -43.4579 422.102 -29.1872 412.996 -21.9938L408.966 -18.8108C404.917 -15.6122 400.377 -13.0882 395.523 -11.3364L371.472 -2.6561L342.773 4.66243C335.021 6.63947 327.052 7.63961 319.051 7.63961H287.565C284.295 7.63961 281.029 7.38493 277.798 6.87786L264.577 4.803C259.14 3.94984 253.646 3.52132 248.143 3.52132H224.204V31.3197H321.098L366.517 27.2015L415.359 18.6113C421.792 17.48 428.031 15.4411 433.89 12.5557L452.648 3.31844C453.758 2.77206 454.756 2.0246 455.593 1.11401Z" fill="white"/>
<path d="M516.537 106.613V90.7776L522.382 96.6224C529.652 103.893 533.242 114.063 532.147 124.286L531.49 130.413C530.635 138.398 526.897 145.797 520.977 151.223L500.434 170.055L487.475 177.459C473.159 185.64 457.252 190.646 440.831 192.139L397.622 196.067H298.525L240.306 189.874V162.622L298.525 170.055H344.357L397.622 162.622L453.363 148.997L491.77 133.836C497.462 131.589 502.527 128.001 506.534 123.377L513.117 115.782C515.323 113.237 516.537 109.981 516.537 106.613Z" fill="white"/>
<path d="M207.524 8.8905L200.669 -36.8089L188.921 -40.4802C183.837 -42.0688 178.303 -41.1832 173.969 -38.0875L163.508 -30.6154L158.714 -34.04C150.811 -39.685 140.719 -41.3 131.449 -38.4031L126.347 -36.8089L120.556 9.5183C120.29 11.6501 120.387 13.8117 120.843 15.9111L125.302 36.4216C125.989 39.5797 125.9 42.8571 125.043 45.9733L113.705 87.2017C113.064 89.5312 113.142 91.9998 113.927 94.2845L123.399 121.84C125.242 127.2 124.292 133.125 120.866 137.641L99.0957 166.338L106.528 222.08V245.023C106.528 251.599 109.76 257.754 115.173 261.487L133.851 274.368C139.019 277.932 141.421 284.338 139.87 290.421L127.531 338.827C126.767 341.825 127.097 344.998 128.463 347.775L163.508 419.034L198.553 347.775C199.919 344.998 200.249 341.825 199.485 338.827L187.19 290.592C185.618 284.425 188.109 277.937 193.405 274.407L212.821 261.462C218.385 257.753 221.727 251.508 221.727 244.821V223.781C221.727 222.649 221.815 221.518 221.989 220.399L230.398 166.338L206.948 138.003C203.065 133.31 201.988 126.898 204.127 121.195L214.113 94.5648C215.035 92.1078 215.125 89.4166 214.371 86.9032L202.28 46.5996C201.227 43.0872 201.159 39.3526 202.085 35.8042L207.119 16.505C207.767 14.0203 207.905 11.43 207.524 8.8905Z" fill="white"/>
<path d="M-133.956 611.021L-172.422 653.066C-173.654 654.412 -175.897 653.54 -175.897 651.716V602.59C-175.897 593.474 -173.82 584.478 -169.824 576.284L-151.123 537.949L-184.568 526.801L-193.18 550.721C-194.863 555.398 -195.905 560.281 -196.277 565.237L-201.634 636.668C-202.596 649.49 -197.92 662.094 -188.828 671.186L-187.062 672.951C-179.913 680.1 -170.218 684.116 -160.108 684.116C-147.511 684.116 -135.727 677.892 -128.625 667.487L-86.7109 606.078L104.804 356.381C107.595 352.743 109.951 348.792 111.827 344.608L115.356 336.735C121.611 322.781 122.204 306.944 117.011 292.562L109.004 270.389L14.7997 346.93C12.8391 348.523 9.9079 347.128 9.9079 344.602V314.929C9.9079 307.865 12.8966 301.13 18.135 296.391L35.9206 280.299L94.1396 249.331V233.228L62.7876 239.947C60.5702 240.422 58.3949 241.076 56.283 241.902L13.0185 258.832C6.05141 261.558 -1.36406 262.957 -8.8455 262.957H-108.694C-115.465 262.957 -122.192 261.865 -128.616 259.724L-146.142 253.882C-155.128 250.887 -163.323 245.904 -170.117 239.304L-198.878 211.364C-201.242 209.068 -201.312 205.295 -199.033 202.913L-179.133 182.108C-177.916 180.836 -178.818 178.725 -180.578 178.725H-210.633C-211.364 178.725 -212.038 179.125 -212.388 179.768L-228.115 208.6C-231.785 215.329 -231.287 223.564 -226.832 229.801L-197.852 270.372C-189.296 282.351 -176.635 290.766 -162.278 294.017L-130.776 301.149C-122.95 302.921 -114.847 303.105 -106.949 301.691L-55.2511 292.431C-43.5857 290.342 -31.8272 295.588 -25.5894 305.664C-21.8729 311.668 -20.4833 318.824 -21.683 325.782L-23.9113 338.707C-25.2798 346.644 -29.072 353.963 -34.7671 359.658L-43.3341 368.225C-57.8874 382.778 -79.1559 388.355 -98.9781 382.817L-144.357 370.137C-148.856 368.88 -153.213 367.163 -157.36 365.013L-182.001 352.236C-183.704 351.353 -185.279 350.24 -186.68 348.929L-213.515 323.826C-219.35 318.368 -221.766 310.175 -219.829 302.424L-211.82 270.389H-222.968L-237.973 294.398C-243.865 303.824 -243.377 315.898 -236.744 324.819L-211.82 358.337L-179.064 395.612C-176.964 398.001 -174.53 400.074 -171.837 401.767L-162.553 407.602C-142.945 419.927 -120.256 426.466 -97.0962 426.466H-81.6924C-77.6634 426.466 -73.6919 427.422 -70.1043 429.256C-51.7833 438.62 -54.1288 465.512 -73.7944 471.563L-100.337 479.73H-149.853C-156.398 479.73 -162.861 478.27 -168.77 475.456L-206.844 457.326C-210.078 455.785 -212.744 453.263 -214.459 450.117L-230.413 420.869C-232.737 416.609 -232.856 411.488 -230.733 407.124L-211.82 368.247L-234.116 350.905L-246.08 381.358C-247.178 384.154 -247.742 387.13 -247.742 390.134V433.613C-247.742 435.444 -247.463 437.264 -246.914 439.01L-236.736 471.396C-235.044 476.779 -231.509 481.394 -226.753 484.43L-180.397 514.019C-177.433 515.911 -174.091 517.128 -170.605 517.585L-109.751 525.566C-104.832 526.211 -101.681 531.131 -103.151 535.869L-117.661 582.625C-120.936 593.175 -126.5 602.871 -133.956 611.021Z" fill="white"/>
<path d="M462.21 612.26L500.676 654.304C501.908 655.651 504.151 654.779 504.151 652.954V603.828C504.151 594.712 502.074 585.716 498.077 577.523L479.377 539.188L512.822 528.039L521.434 551.96C523.117 556.636 524.159 561.519 524.531 566.476L529.888 637.906C530.85 650.728 526.173 663.332 517.082 672.424L515.316 674.19C508.167 681.339 498.472 685.355 488.362 685.355C475.765 685.355 463.981 679.13 456.879 668.725L414.965 607.316L223.45 357.619C220.659 353.981 218.302 350.03 216.427 345.847L212.898 337.974C206.643 324.02 206.049 308.183 211.243 293.8L219.25 271.628L313.454 348.169C315.415 349.762 318.346 348.367 318.346 345.841V316.168C318.346 309.103 315.357 302.369 310.119 297.629L292.333 281.538L234.114 250.57V234.467L265.466 241.185C267.684 241.66 269.859 242.314 271.971 243.141L315.235 260.07C322.202 262.797 329.618 264.196 337.099 264.196H436.948C443.719 264.196 450.446 263.104 456.87 260.963L474.396 255.121C483.382 252.126 491.577 247.143 498.371 240.542L527.132 212.603C529.496 210.306 529.565 206.533 527.287 204.152L507.387 183.346C506.17 182.074 507.072 179.964 508.832 179.964H538.886C539.618 179.964 540.292 180.364 540.642 181.006L556.369 209.838C560.039 216.567 559.541 224.803 555.086 231.04L526.106 271.611C517.55 283.59 504.889 292.005 490.532 295.255L459.03 302.388C451.204 304.16 443.101 304.344 435.202 302.929L383.505 293.67C371.84 291.581 360.081 296.827 353.843 306.903C350.127 312.907 348.737 320.063 349.937 327.021L352.165 339.945C353.534 347.882 357.326 355.201 363.021 360.896L371.588 369.463C386.141 384.017 407.41 389.594 427.232 384.055L472.611 371.376C477.11 370.119 481.467 368.402 485.614 366.252L510.255 353.475C511.958 352.592 513.533 351.479 514.934 350.168L541.769 325.065C547.603 319.606 550.02 311.414 548.082 303.663L540.074 271.628H551.222L566.227 295.636C572.119 305.063 571.631 317.137 564.998 326.057L540.074 359.576L507.317 396.85C505.218 399.24 502.784 401.313 500.091 403.005L490.807 408.841C471.199 421.166 448.51 427.704 425.35 427.704H409.946C405.917 427.704 401.946 428.661 398.358 430.494C380.037 439.858 382.383 466.751 402.048 472.802L428.591 480.969H478.107C484.652 480.969 491.115 479.508 497.024 476.695L535.098 458.564C538.332 457.024 540.997 454.501 542.713 451.356L558.667 422.107C560.99 417.847 561.11 412.726 558.987 408.363L540.074 369.485L562.37 352.144L574.334 382.597C575.432 385.392 575.996 388.369 575.996 391.372V434.852C575.996 436.683 575.717 438.503 575.168 440.249L564.99 472.635C563.298 478.018 559.763 482.633 555.007 485.669L508.651 515.258C505.687 517.149 502.345 518.367 498.859 518.824L438.005 526.805C433.086 527.45 429.934 532.37 431.405 537.108L445.915 583.864C449.189 594.414 454.753 604.11 462.21 612.26Z" fill="white"/>
<g opacity="0.4">
<mask id="mask2" mask-type="alpha" maskUnits="userSpaceOnUse" x="117" y="37" width="267" height="350">
<path d="M145.137 89.8806L132.612 110.691C132.364 111.103 132.15 111.534 131.971 111.98L124.98 129.402C118.423 145.745 115.885 163.423 117.579 180.951L120.304 209.137L120.662 211.158C127.999 252.604 153.344 288.659 189.859 309.594L204.416 317.94L258.466 377.655C260.476 379.875 263.19 381.334 266.151 381.784L293.57 385.95C308.558 388.228 323.706 382.974 334.065 371.906L367.626 336.048L382.691 263.847C384.122 256.989 383.968 249.895 382.24 243.105L373.594 209.137L362.985 188.646V157.943C362.985 147.847 359.663 138.031 353.532 130.009L329.335 98.3512C321.779 88.466 310.541 82.0631 298.185 80.6032L261.573 76.2772L259.444 67.2983C255.877 52.2549 243.796 40.7166 228.605 37.8445C219.83 36.1856 210.758 37.2731 202.624 40.9587L197.502 43.2799C175.727 53.1467 157.465 69.3984 145.137 89.8806Z" fill="#E14E42" fill-opacity="0.8"/>
</mask>
<g mask="url(#mask2)">
<path d="M145.137 91.3883L132.612 112.199C132.364 112.611 132.15 113.042 131.971 113.488L124.98 130.909C118.423 147.252 115.885 164.931 117.579 182.458L120.304 210.645L120.662 212.665C127.999 254.111 153.344 290.167 189.859 311.102L204.416 319.448L258.466 379.163C260.476 381.383 263.19 382.841 266.151 383.291L293.57 387.458C308.558 389.735 323.706 384.482 334.065 373.414L367.626 337.556L382.691 265.355C384.122 258.497 383.968 251.402 382.24 244.613L373.594 210.645L362.985 190.154V159.451C362.985 149.354 359.663 139.538 353.532 131.517L329.335 99.8588C321.779 89.9737 310.541 83.5708 298.185 82.1108L261.573 77.7848L259.444 68.8059C255.877 53.7626 243.796 42.2243 228.605 39.3522C219.83 37.6933 210.758 38.7807 202.624 42.4664L197.502 44.7876C175.727 54.6543 157.465 70.9061 145.137 91.3883Z" fill="#ED3021" fill-opacity="0.8"/>
<path d="M250.705 104.522L247.674 106.154C240.756 109.119 233.239 110.677 225.713 110.677C219.295 110.677 212.926 111.789 206.888 113.962L146.967 135.534C142.816 137.028 138.346 137.411 134.001 136.644C117.823 133.789 108.614 116.512 115.263 101.489L134.855 57.2254C140.088 45.403 148.82 35.4696 159.874 28.7647L176.685 18.5682C184.683 13.7165 193.775 10.958 203.122 10.5471C233.343 9.21874 259.098 32.2574 261.133 62.4393L261.537 68.434C261.842 72.9627 261.648 77.5112 260.958 81.9973L260.489 85.0472L258.981 93.3392C258.026 98.1137 254.992 102.214 250.705 104.522Z" fill="#810022"/>
<path d="M291.393 208.673L295.915 221.488L307.223 244.856L310.992 263.702L304.961 296.116L299.685 323.253V350.39L310.992 366.22L324.56 362.451L338.883 352.652L353.205 333.806L359.236 318.73L366.02 288.577L369.789 267.471V250.133L366.02 233.549L363.005 225.257L353.205 213.196L338.883 208.673L327.576 205.658H310.992H299.685L291.393 208.673Z" fill="#FF5541"/>
<path d="M258.157 97.8501L257.482 98.3176C256.471 99.0176 255.525 99.8072 254.655 100.677L253.142 102.19C252.02 103.311 251.158 104.665 250.616 106.156C249.264 109.875 250.043 114.035 252.648 117.013L252.871 117.268C253.422 117.897 253.903 118.586 254.303 119.321L269.406 147.008C270.994 149.921 272.364 152.948 273.503 156.064L281.02 176.638C284.192 185.319 291.589 191.772 300.621 193.735C302.503 194.144 304.424 194.351 306.35 194.351H323.805H335.917C337.38 194.351 338.832 194.099 340.21 193.607C345.29 191.793 348.681 186.981 348.681 181.586V176.259V169.527C348.681 162.003 347.468 154.529 345.089 147.391L344.158 144.599L340.902 137.68C339.057 133.758 336.851 130.015 334.313 126.501L332.645 124.192C329.775 120.218 326.496 116.557 322.861 113.269L316.507 107.52C313.841 105.107 310.946 102.961 307.862 101.111C300.984 96.9845 293.291 94.4043 285.316 93.5498L276.315 92.5854H275.011C268.988 92.5854 263.109 94.422 258.157 97.8501Z" fill="#B02618"/>
<path d="M161.719 93.7981L117.424 115.079C115.194 116.15 115.957 119.501 118.432 119.501C120.24 119.501 121.357 121.474 120.426 123.025L85.0098 182.026C77.4438 194.631 77.1521 210.308 84.2439 223.185L127.934 302.518C132.77 311.299 140.133 318.423 149.069 322.967L270.909 384.921C276.814 387.924 283.629 388.61 290.014 386.845C295.326 385.376 300.049 382.29 303.528 378.016L313.034 366.335C316.673 361.865 319.511 356.799 321.423 351.361L326.255 337.621C328.129 332.292 329.086 326.683 329.086 321.034V294.89C329.086 292.291 328.884 289.696 328.48 287.129L325.214 266.338C324.285 260.429 322.304 254.735 319.365 249.526L307.909 229.226C306.953 227.531 305.859 225.916 304.639 224.399L303.749 223.292C297.818 215.913 295.384 206.323 297.078 197.009C297.806 193.007 297.78 188.904 297 184.912L291.635 157.451C290.974 154.072 289.967 150.77 288.629 147.598L282.922 134.077C281.043 129.623 278.528 125.466 275.455 121.734L265.607 109.774C259.321 102.14 250.913 96.5418 241.446 93.6865L229.86 90.1923C225.178 88.7801 220.313 88.0626 215.423 88.0626H193.1C189.79 88.0626 186.488 88.3912 183.244 89.0436L164.909 92.7301C163.805 92.952 162.734 93.3107 161.719 93.7981Z" fill="#A53150"/>
<path d="M188.742 103.424L162.658 108.556C158.064 109.459 153.679 111.213 149.728 113.727C142.845 118.108 137.573 124.608 134.708 132.248L134.202 133.597C132.964 136.898 132.148 140.342 131.772 143.848L130.076 159.675V181.386C130.076 187.004 130.54 192.613 131.464 198.155L133.845 212.442L136.782 222.091C138.329 227.176 140.773 231.944 143.998 236.169C154.384 249.778 171.834 256.205 188.606 252.775C192.262 252.027 195.85 250.819 199.21 249.195L229.746 234.436C236.13 231.351 241.998 227.296 247.144 222.417L264.992 205.492C275.807 195.236 278.85 179.212 272.547 165.706L261.028 139.924C258.174 133.536 254.281 127.666 249.507 122.552C240.471 112.869 228.625 106.265 215.638 103.667L214.627 103.465C206.085 101.757 197.29 101.743 188.742 103.424Z" fill="#BA385A"/>
<path d="M191.727 270.651L191.477 270.901C188.364 274.014 186.615 278.236 186.615 282.638C186.615 284.573 186.953 286.492 187.615 288.31L187.689 288.516C188.952 291.989 191.262 294.984 194.301 297.087L199.43 300.639L205.016 304.362C210.325 307.902 215.336 312.022 219.848 316.534C224.274 320.96 228.316 325.876 231.789 331.085C234.335 334.904 237.155 338.534 240.226 341.947L246.285 348.679C248.212 350.821 249.945 353.13 251.462 355.58L254.247 360.079C257.337 365.072 261.805 369.065 267.111 371.579C271.189 373.511 275.693 374.512 280.205 374.512C288.733 374.512 296.983 371.012 302.857 364.829L303.345 364.314C306.403 361.096 308.775 357.29 310.316 353.127L312.004 348.569C314.328 342.295 315.518 335.658 315.518 328.968V309.684V291.867C315.518 281.18 314.068 270.543 311.207 260.246L310.234 256.741C308.735 251.345 306.69 246.115 304.132 241.132L295.866 225.036C294.421 222.221 292.236 219.854 289.546 218.189C282.679 213.938 273.737 215.024 268.027 220.734L265.822 223.404C257.787 233.13 248.372 241.627 237.875 248.625L217.522 258.425L197.318 266.897C195.228 267.774 193.329 269.049 191.727 270.651Z" fill="#87253F"/>
</g>
</g>
</g>
</svg>
