<svg width="445" height="445" viewBox="0 0 445 445" fill="none" xmlns="http://www.w3.org/2000/svg">
<mask id="mask0" mask-type="alpha" maskUnits="userSpaceOnUse" x="0" y="0" width="445" height="445">
<circle cx="222.174" cy="222.174" r="222.174" fill="#247BA0"/>
</mask>
<g mask="url(#mask0)">
<path d="M241.37 412.823L226.634 449.425C226.241 450.402 225.364 451.102 224.324 451.267L133.652 465.736C132.625 465.9 131.587 465.521 130.907 464.733L74.1484 398.912C73.1957 397.807 73.1759 396.177 74.1016 395.049L91.0386 374.417C96.8937 367.284 100.616 358.643 101.776 349.488L107.159 307.026C108.34 297.709 105.849 288.299 100.215 280.786C100.072 280.596 99.9058 280.425 99.7197 280.277L80.5139 265.02C58.9344 247.878 45.965 222.129 45.0366 194.585L44.3366 173.819C43.7839 157.421 46.3402 141.067 51.8706 125.62L62.4829 95.9787C68.9845 77.819 81.2097 62.2631 97.3178 51.653L120.454 36.4137C143.642 21.1403 170.798 13 198.564 13H218.51C235.372 13 252.104 15.9617 267.941 21.7501L315.751 39.2239C332.952 45.5106 347.162 58.033 355.562 74.3071L382.362 126.232C387.532 136.25 388.115 148.015 383.959 158.495L381.752 164.06C380.032 168.398 380.586 173.307 383.23 177.152L421.451 232.746C422.329 234.023 422.09 235.759 420.899 236.751L417.934 239.222C417.335 239.721 416.565 239.967 415.788 239.909L394.908 238.333C392.794 238.173 391.186 240.196 391.818 242.219L393 246L405.164 273.977C406.89 277.947 406.127 282.56 403.216 285.763L394.924 294.883C393.847 296.068 393.89 297.89 395.023 299.023L400.176 304.176C400.986 304.986 401.264 306.187 400.893 307.271L397.285 317.794C396.109 321.224 395.693 324.868 396.066 328.474L401.376 379.804C401.456 380.572 401.236 381.34 400.763 381.95L387.231 399.411C386.486 400.372 385.235 400.789 384.062 400.465L313.5 381L252.243 364.38C250.514 363.911 248.763 365.051 248.492 366.821L241.553 412.156C241.518 412.385 241.456 412.608 241.37 412.823Z" fill="#F4F4F4" fill-opacity="0.3"/>
<path d="M147.005 281.603L131.353 289.592C130.008 290.279 129.383 291.858 129.893 293.279L133.751 304.015C134.179 305.206 135.309 306 136.575 306H142.213C143.329 306 144.353 305.381 144.871 304.393L146.825 300.664C147.219 299.912 147.913 299.362 148.735 299.151L168.706 294.018C169.522 293.809 170.387 293.952 171.092 294.411L177.28 298.448C178.212 299.056 179.439 298.952 180.255 298.195C181.808 296.754 184.331 297.855 184.331 299.973V300.616C184.331 301.688 184.964 302.659 185.944 303.092L189.851 304.818C191.34 305.475 193.082 304.825 193.777 303.353L196.853 296.831C197.503 295.453 199.082 294.781 200.525 295.268L213.021 299.483L219.304 301.386C221.041 301.912 222.843 300.787 223.135 298.996L225.75 282.916C225.907 281.953 225.585 280.973 224.887 280.29L209.984 265.707C208.968 264.713 207.393 264.568 206.213 265.36L189.183 276.794C188.294 277.391 187.154 277.469 186.192 276.998L180.376 274.153C179.438 273.694 178.329 273.756 177.448 274.316L172.575 277.415C172.219 277.642 171.819 277.79 171.402 277.852L147.931 281.307C147.608 281.355 147.295 281.455 147.005 281.603Z" fill="#E7EBE7"/>
<path d="M158.356 305.505L144.667 315.516C144.32 315.771 144.031 316.097 143.82 316.473L138.382 326.196C138.131 326.643 138 327.147 138 327.66V328.03C138 330.021 139.904 331.459 141.819 330.916L160.941 325.486C161.109 325.439 161.281 325.406 161.455 325.388L174.636 324.041C175.212 323.983 175.76 323.758 176.211 323.395L177.901 322.035C179.447 320.792 181.753 321.365 182.537 323.187L184.289 327.259C184.763 328.36 185.846 329.073 187.045 329.073H189.307C190.089 329.073 190.841 328.767 191.401 328.221L196.596 323.156C197.465 322.308 198.758 322.068 199.873 322.546L214.227 328.705C214.786 328.945 215.405 329.009 216.001 328.889L222.871 327.507C224.567 327.166 225.624 325.466 225.179 323.794L222.321 313.066C222.062 312.095 221.335 311.319 220.384 310.996L208.946 307.122L200.676 303.241C199.204 302.55 197.45 303.158 196.72 304.611L194.353 309.327C193.714 310.599 192.269 311.248 190.895 310.879L185.278 309.373C185.139 309.336 185.004 309.289 184.872 309.232L175.404 305.17C175.03 305.01 174.627 304.927 174.221 304.927H160.127C159.49 304.927 158.87 305.129 158.356 305.505Z" fill="#E7EBE7"/>
<path d="M158.465 334.25L139.968 341.029C138.786 341.462 138 342.587 138 343.846V350.85C138 351.278 138.092 351.702 138.269 352.092L140.003 355.904C140.75 357.548 142.769 358.164 144.307 357.217L158.232 348.643C158.387 348.548 158.55 348.467 158.72 348.401L168.424 344.636C169.436 344.243 170.58 344.427 171.418 345.118L173.611 346.926C174.719 347.84 176.32 347.84 177.428 346.926L177.864 346.567C179.415 345.288 181.76 345.867 182.538 347.72L184.298 351.911C184.766 353.025 185.856 353.75 187.064 353.75H189.285C190.08 353.75 190.843 353.434 191.406 352.872L196.58 347.7C197.455 346.826 198.777 346.578 199.909 347.076L214.209 353.365C214.779 353.615 215.413 353.682 216.023 353.557L223.606 351.994C225 351.706 226 350.479 226 349.055V338.061C226 336.699 225.082 335.508 223.765 335.16L209.223 331.323C209.038 331.274 208.859 331.208 208.688 331.126L200.715 327.291C199.23 326.577 197.446 327.195 196.721 328.675L194.255 333.709C193.664 334.916 192.342 335.583 191.02 335.34L186.326 334.48C185.524 334.333 184.815 333.865 184.365 333.185L180.952 328.024C180.171 326.844 178.671 326.37 177.353 326.887L170.062 329.75L158.465 334.25Z" fill="#E7EBE7"/>
<path d="M166.444 354.689L157.645 361.975L147.798 369.585C147.487 369.826 147.131 370.003 146.751 370.106L130.291 374.583C128.239 375.141 127.403 377.598 128.689 379.292L130.244 381.341C131.001 382.338 132.299 382.761 133.498 382.399L145.95 378.65L157.321 375.83C157.537 375.777 157.746 375.7 157.944 375.6L169.939 369.58C171.197 368.949 172.724 369.277 173.612 370.369L175.686 372.918C176.035 373.348 176.496 373.672 177.019 373.856L180.049 374.92C181.417 375.401 182.933 374.834 183.65 373.574L185.43 370.448C186.088 369.293 187.427 368.708 188.721 369.011L192.115 369.806C192.521 369.901 192.902 370.079 193.235 370.33L197.546 373.575L207.558 380.169C208.197 380.59 208.973 380.751 209.727 380.619L218.728 379.038C220.038 378.808 221.039 377.743 221.19 376.422L222.656 363.546C222.845 361.884 221.639 360.388 219.975 360.221L209.053 359.125C208.722 359.092 208.399 359.004 208.097 358.865L200.163 355.206C198.701 354.532 196.968 355.132 196.235 356.566L193.739 361.452C193.139 362.625 191.845 363.27 190.548 363.042L185.712 362.192C184.921 362.053 184.218 361.603 183.762 360.941L179.866 355.296C179.306 354.485 178.383 354 177.397 354H168.357C167.659 354 166.982 354.244 166.444 354.689Z" fill="#E7EBE7"/>
<path d="M167.745 376.447L156.789 383.209L145.688 392.117C145.308 392.422 144.859 392.63 144.38 392.722L121.431 397.158C120.019 397.431 119 398.666 119 400.104V403.767C119 405.512 120.484 406.889 122.224 406.758L137.713 405.598C138.06 405.571 138.401 405.485 138.719 405.342L157.476 396.907L167.831 392.833C168.251 392.667 168.703 392.599 169.154 392.633L176.744 393.202C177.599 393.266 178.386 393.692 178.906 394.374L180.837 396.907L182.678 399.114C183.394 399.973 184.528 400.362 185.621 400.124L189.552 399.267C190.141 399.138 190.755 399.19 191.314 399.416L199.082 402.551C199.285 402.633 199.479 402.737 199.66 402.862L204.906 406.471C205.406 406.816 205.999 407 206.606 407H215.256C216.784 407 218.067 405.852 218.238 404.334L219.678 391.486C219.858 389.884 218.739 388.426 217.145 388.185L206.495 386.578C205.958 386.496 205.452 386.271 205.033 385.925L195.278 377.87C194.936 377.588 194.536 377.385 194.106 377.276L191.235 376.547C189.956 376.222 188.614 376.772 187.931 377.901L184.99 382.757C184.308 383.883 182.972 384.433 181.695 384.113L179.267 383.505C178.511 383.315 177.859 382.839 177.447 382.177L174.49 377.417C173.943 376.536 172.979 376 171.942 376H169.321C168.764 376 168.219 376.155 167.745 376.447Z" fill="#E7EBE7"/>
<path d="M156.158 401.653L146.293 407.059L135.231 412.407C134.824 412.604 134.377 412.706 133.925 412.706H117C115.343 412.706 114 414.049 114 415.706V421.904C114 423.482 115.221 424.79 116.795 424.897L134.612 426.118H147.854C148.185 426.118 148.513 426.063 148.826 425.956L160.141 422.081C160.524 421.95 160.929 421.898 161.333 421.927L169.011 422.491C169.857 422.553 170.638 422.97 171.159 423.64L173.088 426.118L174.935 428.285C175.649 429.124 176.767 429.504 177.845 429.273L181.821 428.424C182.399 428.301 183.001 428.351 183.55 428.568L191.336 431.645C191.538 431.725 191.73 431.826 191.91 431.947L197.166 435.488C197.661 435.822 198.245 436 198.842 436H207.747C209.17 436 210.397 435 210.685 433.607L214.255 416.312C214.64 414.451 213.218 412.706 211.317 412.706H200.993C200.278 412.706 199.586 412.45 199.042 411.985L192.482 406.368C191.938 405.903 191.246 405.647 190.531 405.647H181.917C181.531 405.647 181.15 405.573 180.792 405.428L176.507 403.696C176.234 403.586 175.978 403.436 175.749 403.251L172.538 400.664C172.005 400.234 171.341 400 170.656 400H165.099C164.929 400 164.759 400.014 164.592 400.043L157.094 401.327C156.766 401.383 156.45 401.493 156.158 401.653Z" fill="#E7EBE7"/>
<path d="M197 240.956V220H221.569C221.569 229.798 225.501 239.187 232.484 246.061L232.848 246.419C237.272 250.773 242.7 253.971 248.654 255.729L251.133 256.461C259.554 258.947 268.576 258.441 276.665 255.029L281.353 253.051L282.278 257.446C282.417 258.104 282.877 258.648 283.502 258.895L286.159 259.941C286.743 260.171 287.185 260.662 287.353 261.267L289.262 268.144C289.414 268.689 289.789 269.144 290.295 269.397L296.965 272.732C297.314 272.907 297.604 273.18 297.8 273.518L301.25 279.463C301.607 280.08 302.266 280.459 302.979 280.459H312.648C313.519 280.459 314.291 281.024 314.554 281.855L315.954 286.276C316.264 287.255 317.265 287.84 318.27 287.63L324.684 286.289C325.252 286.17 325.843 286.304 326.304 286.654L332.223 291.154C332.713 291.527 333.348 291.653 333.944 291.496L340.629 289.73C341.183 289.584 341.773 289.682 342.249 290L346.721 292.98C347.214 293.31 347.829 293.402 348.398 293.234L352.861 291.911C353.228 291.803 353.617 291.801 353.985 291.907L359.012 293.359C359.332 293.452 359.67 293.463 359.996 293.391L366.75 291.909C367.233 291.804 367.738 291.88 368.168 292.125L375.54 296.32C375.842 296.491 376.182 296.582 376.529 296.582H387L380.448 319.153L387 344.949V355.715C387 364.702 381.28 372.694 372.773 375.592L370.843 376.25C367.502 377.388 363.889 377.458 360.506 376.451L338.108 369.777C336.377 369.261 334.719 368.524 333.176 367.584L319.845 359.459L317.834 358.56C307.219 353.81 295.971 350.629 284.441 349.116L252.69 344.949L241.498 342.29C233.657 340.427 227.274 334.753 224.506 327.184L222.409 321.449C221.85 319.922 221.449 318.343 221.209 316.735L218.74 300.128C217.363 290.866 214.193 281.962 209.407 273.914L203.182 263.446C199.136 256.642 197 248.873 197 240.956Z" fill="#F2F7F2"/>
<path d="M229.521 215.201H185.061L193.145 220.878V249.262L178.595 242.774H164.044L156.769 249.262L164.044 252.506L185.061 254.939L196.378 267.104L199.612 277.646H188.295H160.427C149.432 277.646 138.502 275.95 128.025 272.617L122.189 270.76C114.58 268.34 107.434 264.651 101.053 259.851C96.716 256.587 92.7678 252.836 89.2863 248.672L88.1361 247.296C78.5484 235.827 72.0978 222.069 69.414 207.363L65.3181 184.921C63.7758 176.471 63 167.898 63 159.308V153.882C63 130.881 69.4183 108.336 81.533 88.7845C93.7219 69.1126 111.189 53.2579 131.946 43.0254L148.847 34.6938C155.852 31.2409 163.314 28.8063 171.007 27.4641C175.66 26.6521 180.375 26.2439 185.099 26.2439L202.371 26.2439C214.511 26.2439 226.621 27.479 238.511 29.9302L263.917 35.1675C274.371 37.3225 284.576 40.5435 294.373 44.7799L307.539 50.4733C320.04 55.8792 331.188 63.9871 340.183 74.2144C347.191 82.1824 352.771 91.3001 356.678 101.166L369.032 132.366C372.274 140.553 371.244 149.815 366.283 157.09C364.605 159.55 363.708 162.459 363.708 165.436V166.408C363.708 170.186 364.899 173.868 367.112 176.93L371.5 183L369.942 193.653C368.54 203.237 371.059 212.983 376.932 220.687L378.258 222.427L374.216 235.476L392 277.646L384.725 289H374.216L367.749 285.756V289L360.474 285.756H350.774H345.924L340.265 283.323H334.607L331.373 277.646H318.44L315.206 273.591H311.165L303.081 267.104H297.423L293.381 254.939H286.914L279.639 249.262L284.19 242.16C285.69 239.819 284.992 236.703 282.636 235.226L273.98 229.799V224.122H282.539C285.428 224.122 288.288 224.689 290.957 225.792L292.833 226.567C297.782 228.612 301.547 232.778 303.081 237.909L311.165 249.262V244.233C311.165 238.603 309.04 233.181 305.216 229.049C302.242 225.835 298.389 223.566 294.136 222.523L268.153 216.151C265.58 215.52 262.941 215.201 260.293 215.201H229.521Z" fill="#F2F7F2"/>
<path opacity="0.7" d="M85.629 187.956L85.3242 186.086C83.8063 176.773 92.6814 169.154 101.657 172.065L192.32 201.469C194.416 202.148 196.343 203.267 197.972 204.751C203.473 209.761 204.636 217.975 200.741 224.315L193.281 236.457C188.396 244.409 180.346 249.895 171.157 251.534L169.23 251.878C165.066 252.62 160.806 252.645 156.634 251.951L136.731 248.637C125.35 246.743 114.844 241.341 106.68 233.187C102.132 228.645 98.4099 223.346 95.6792 217.528L93.0448 211.914C89.476 204.31 86.9802 196.246 85.629 187.956Z" fill="#D31246"/>
<path opacity="0.8" d="M349.241 163.328V154C349.241 151.239 347.003 149 344.241 149H337.655H329.904C324.934 149 320.126 150.763 316.333 153.974L307.429 161.515C302.717 165.505 300 171.366 300 177.541V188.139C300 192.945 301.649 197.606 304.671 201.343L305.904 202.868C307.702 205.092 310.232 206.607 313.051 207.086C318.276 207.973 325.076 209 328 209C331.862 209 341.195 200.045 345.379 195.567L353.936 183.301C355.28 181.376 356 179.084 356 176.737C356 174.419 355.298 172.156 353.987 170.246L349.241 163.328Z" fill="#91AEC1"/>
<path opacity="0.6" d="M277.417 205.109L276.252 205.303L207.363 208.294C205.368 208.381 204.51 210.866 206.027 212.165C206.849 212.869 207.037 214.066 206.471 214.988L193.127 236.708C188.34 244.5 180.451 249.876 171.448 251.482L169.23 251.878C165.066 252.62 160.806 252.645 156.634 251.951L136.731 248.637C125.35 246.743 114.844 241.341 106.68 233.187C102.132 228.645 98.4099 223.346 95.6792 217.528L93.0448 211.914C89.476 204.31 86.9802 196.246 85.629 187.956L84.0805 178.455C82.6958 169.959 82 161.364 82 152.756V133.624C82 127.015 83.0211 120.446 85.027 114.149C86.7781 108.652 89.2626 103.416 92.4133 98.5835L95.1122 94.4437C105.069 79.1708 118.988 66.8897 135.382 58.9123L141.894 55.7433L147.654 53.5205C167.387 45.9057 188.356 42 209.506 42C219.987 42 230.447 42.9592 240.753 44.8655L248.394 46.2788C262.066 48.8077 275.409 52.8722 288.169 58.395L302.5 64.5976C312.446 68.9028 321.579 74.8859 329.498 82.2856L330.665 83.3755C338.565 90.7578 345.006 99.5613 349.65 109.326L354.778 120.11C356.899 124.571 358 129.448 358 134.387C358 141.587 355.663 148.591 351.34 154.349L341.719 167.161C338.016 172.093 333.764 176.587 329.044 180.556L327.092 182.198C312.885 194.148 295.729 202.06 277.417 205.109Z" fill="#F78764"/>
<ellipse opacity="0.7" cx="321.5" cy="175.5" rx="27.5" ry="26.5" fill="#E1E7EA"/>
<line x1="376.175" y1="296.307" x2="373.307" y2="306.825" stroke="#247BA0" stroke-width="0.5" stroke-linecap="round"/>
<line x1="358.175" y1="292.307" x2="355.307" y2="302.825" stroke="#247BA0" stroke-width="0.5" stroke-linecap="round"/>
<line x1="343.175" y1="289.307" x2="340.307" y2="299.825" stroke="#247BA0" stroke-width="0.5" stroke-linecap="round"/>
<line x1="290.175" y1="268.307" x2="287.307" y2="278.825" stroke="#247BA0" stroke-width="0.5" stroke-linecap="round"/>
<line x1="328.175" y1="287.307" x2="325.307" y2="297.825" stroke="#247BA0" stroke-width="0.5" stroke-linecap="round"/>
<line x1="315.175" y1="282.307" x2="312.307" y2="292.825" stroke="#247BA0" stroke-width="0.5" stroke-linecap="round"/>
<line x1="301.175" y1="277.307" x2="298.307" y2="287.825" stroke="#247BA0" stroke-width="0.5" stroke-linecap="round"/>
<line x1="358.175" y1="276.307" x2="355.307" y2="286.825" stroke="#247BA0" stroke-width="0.5" stroke-linecap="round"/>
<line x1="371.175" y1="276.307" x2="368.307" y2="286.825" stroke="#247BA0" stroke-width="0.5" stroke-linecap="round"/>
<line x1="343.175" y1="273.307" x2="340.307" y2="283.825" stroke="#247BA0" stroke-width="0.5" stroke-linecap="round"/>
<line x1="294.175" y1="250.307" x2="291.307" y2="260.825" stroke="#247BA0" stroke-width="0.5" stroke-linecap="round"/>
<line x1="333.175" y1="269.307" x2="330.307" y2="279.825" stroke="#247BA0" stroke-width="0.5" stroke-linecap="round"/>
<line x1="318.175" y1="264.307" x2="315.307" y2="274.825" stroke="#247BA0" stroke-width="0.5" stroke-linecap="round"/>
<line x1="305.175" y1="259.307" x2="302.307" y2="269.825" stroke="#247BA0" stroke-width="0.5" stroke-linecap="round"/>
<ellipse cx="343" cy="176" rx="6" ry="13" fill="#07949D"/>
</g>
</svg>
