<svg width="445" height="445" viewBox="0 0 445 445" fill="none" xmlns="http://www.w3.org/2000/svg">
<mask id="mask0" mask-type="alpha" maskUnits="userSpaceOnUse" x="0" y="0" width="445" height="445">
<circle cx="222.174" cy="222.174" r="222.174" fill="#F9AC34"/>
</mask>
<g mask="url(#mask0)">
<path opacity="0.4" d="M164.494 135.542L17.6191 334.314L-8 337.39L88.5421 422L180.394 362.988C206.443 346.253 227.327 322.605 240.713 294.686L256.671 261.401C261.661 250.993 272.18 244.371 283.723 244.371H478.383L534 177.629L411.748 0L189.474 114.3C179.624 119.365 171.076 126.634 164.494 135.542Z" fill="white"/>
<path d="M209.395 230.742L197.529 233.186C196.135 233.473 195.134 234.701 195.134 236.125V240.614C195.134 241.232 194.943 241.835 194.587 242.341L151.496 303.535C141.39 317.886 129.581 330.958 116.327 342.464L17.855 427.95C17.3119 428.422 17 429.105 17 429.824C17 431.908 19.4114 433.064 21.036 431.76L125.378 348.001C138.21 337.701 149.829 325.974 160.011 313.047L212.357 246.586C212.773 246.057 213 245.403 213 244.73V233.681C213 231.781 211.256 230.359 209.395 230.742Z" fill="url(#paint0_linear)"/>
<path d="M190.039 153.099L190.97 151.86C193.617 148.34 197.082 145.519 201.067 143.642C207.285 140.711 214.506 140.802 220.649 143.887L230.36 148.764C231.824 149.5 232.428 151.274 231.715 152.75L218.652 179.786C216.816 183.585 212.968 186 208.748 186H201.638C200.551 186 199.548 185.411 199.018 184.461L196.093 179.214C193.884 175.253 189.677 172.798 185.141 172.798C183.545 172.798 182.356 171.306 182.727 169.754L183.266 167.501C184.512 162.286 186.817 157.384 190.039 153.099Z" fill="white"/>
<path d="M412.213 91.2426L238.828 166.785C231.216 170.102 225.318 176.425 222.54 184.25L218.745 194.937C218.264 196.291 218.285 197.773 218.804 199.112L224.924 214.912C226.042 217.797 229.17 219.359 232.147 218.52L248.648 213.868C250.135 213.449 251.403 212.472 252.188 211.141L260.231 197.5C261.369 195.57 263.186 194.133 265.327 193.472L436.147 140.699C439.718 139.596 441.422 135.531 439.705 132.21L419.939 93.9872C418.488 91.1809 415.11 89.9807 412.213 91.2426Z" fill="url(#paint1_linear)"/>
<path d="M412.213 91.2426L238.828 166.785C231.216 170.102 225.318 176.425 222.54 184.25L218.745 194.937C218.264 196.291 218.285 197.773 218.804 199.112L224.924 214.912C226.042 217.797 229.17 219.359 232.147 218.52L248.648 213.868C250.135 213.449 251.403 212.472 252.188 211.141L260.231 197.5C261.369 195.57 263.186 194.133 265.327 193.472L436.147 140.699C439.718 139.596 441.422 135.531 439.705 132.21L419.939 93.9872C418.488 91.1809 415.11 89.9807 412.213 91.2426Z" fill="url(#paint2_linear)" fill-opacity="0.2"/>
<path d="M220.852 208.527L221.364 210.582C222.964 217 220.592 223.756 215.332 227.766C212.445 229.966 208.916 231.158 205.287 231.158H198.89C194.157 231.158 189.638 233.131 186.421 236.603L55.214 378.185C50.4969 383.275 42.3094 382.804 38.2065 377.208C35.1604 373.052 35.392 367.343 38.7648 363.448L173.323 208.063C174.566 206.627 175.56 204.994 176.263 203.231L176.606 202.37C177.747 199.51 179.642 197.014 182.091 195.148L188.624 190.167C190.468 188.761 192.723 188 195.042 188C197.158 188 199.225 188.634 200.977 189.82L213.887 198.561C217.358 200.911 219.838 204.46 220.852 208.527Z" fill="white"/>
</g>
<defs>
<linearGradient id="paint0_linear" x1="207.5" y1="225.5" x2="41" y2="423.5" gradientUnits="userSpaceOnUse">
<stop stop-color="#EDEDED"/>
<stop offset="1" stop-color="white"/>
</linearGradient>
<linearGradient id="paint1_linear" x1="232" y1="199" x2="482" y2="100" gradientUnits="userSpaceOnUse">
<stop stop-color="white"/>
<stop offset="1" stop-color="#EEEEEE"/>
</linearGradient>
<linearGradient id="paint2_linear" x1="330.5" y1="89" x2="330.5" y2="220" gradientUnits="userSpaceOnUse">
<stop stop-color="white"/>
<stop offset="1" stop-color="#C4C4C4"/>
</linearGradient>
</defs>
</svg>
