<svg width="445" height="448" viewBox="0 0 445 448" fill="none" xmlns="http://www.w3.org/2000/svg">
<mask id="mask0" mask-type="alpha" maskUnits="userSpaceOnUse" x="0" y="0" width="445" height="445">
<circle cx="222.174" cy="222.174" r="222.174" fill="#247BA0"/>
</mask>
<g mask="url(#mask0)">
<path d="M334.565 372.133L307.72 438.737C307.326 439.714 306.45 440.413 305.41 440.578L141.295 466.737C140.269 466.9 139.231 466.521 138.552 465.735L35.3088 346.145C34.3546 345.039 34.3348 343.408 35.262 342.279L73.6683 295.547C79.5319 288.412 83.2598 279.766 84.4225 270.605L96.6841 173.984C97.9606 163.926 95.2696 153.765 89.1816 145.657L82.8748 137.258C82.7209 137.053 82.5413 136.869 82.3405 136.709L21.3961 88.3509C-0.206362 71.2098 -13.1922 45.4472 -14.1222 17.8861L-17.1615 -72.1759C-17.7155 -88.5913 -15.1537 -104.963 -9.61176 -120.424L23.6275 -213.159C30.1374 -231.321 42.3728 -246.875 58.4906 -257.48L146.871 -315.627C170.045 -330.875 197.178 -339 224.919 -339H313.686C330.531 -339 347.245 -336.045 363.068 -330.268L487.858 -284.712C505.059 -278.432 519.272 -265.918 527.678 -249.65L591.953 -125.259C597.134 -115.233 597.717 -103.455 593.553 -92.9655L582.381 -64.8253C580.658 -60.4841 581.213 -55.5693 583.861 -51.7218L656.448 53.7382C657.327 55.0157 657.088 56.7527 655.896 57.7448L648.246 64.1125C647.647 64.6109 646.878 64.8569 646.101 64.7983L604.517 61.6635C602.403 61.5041 600.795 63.5277 601.428 65.5508L604.561 75.5651L628.439 130.421C630.168 134.393 629.404 139.011 626.488 142.215L606.489 164.189C605.41 165.374 605.453 167.198 606.587 168.331L618.376 180.106C619.188 180.917 619.466 182.118 619.094 183.203L610.803 207.356C609.625 210.789 609.208 214.438 609.582 218.048L619.578 314.567C619.658 315.335 619.438 316.104 618.964 316.715L593.323 349.762C592.578 350.722 591.328 351.138 590.156 350.815L462.949 315.764L351.297 285.505C349.569 285.037 347.818 286.177 347.547 287.947L334.748 371.466C334.713 371.695 334.652 371.919 334.565 372.133Z" fill="#F4F4F4" fill-opacity="0.3"/>
<path d="M166.647 138.257L136.363 153.644C135.013 154.33 134.386 155.914 134.9 157.338L143.088 180.019C143.517 181.208 144.645 182 145.909 182H159.147C160.26 182 161.283 181.383 161.801 180.398L166.464 171.541C166.859 170.79 167.553 170.242 168.375 170.032L206.247 160.343C207.059 160.135 207.921 160.277 208.624 160.734L221.495 169.092C222.645 169.839 224.156 169.711 225.164 168.78L228.218 165.96C230.14 164.185 233.254 165.548 233.254 168.164V173.576C233.254 174.766 233.957 175.844 235.046 176.323L245.288 180.826C246.774 181.48 248.511 180.832 249.207 179.364L256.62 163.718C257.271 162.344 258.845 161.675 260.286 162.158L284.718 170.362L298.598 174.547C300.333 175.07 302.133 173.947 302.425 172.158L307.748 139.577C307.906 138.61 307.582 137.627 306.881 136.944L277.881 108.695C276.866 107.707 275.299 107.563 274.121 108.35L240.812 130.612C239.926 131.205 238.791 131.282 237.832 130.815L224.955 124.543C224.02 124.088 222.916 124.149 222.037 124.706L211.736 131.228C211.381 131.453 210.982 131.6 210.566 131.661L167.571 137.963C167.249 138.01 166.937 138.11 166.647 138.257Z" fill="#E7EBE7"/>
<path d="M187.941 180.741L162.484 199.177C162.134 199.43 161.844 199.755 161.631 200.131L151.388 218.264C151.134 218.715 151 219.223 151 219.74V224.04C151 226.028 152.898 227.466 154.812 226.928L192.129 216.436C192.296 216.389 192.467 216.357 192.639 216.34L217.061 213.869C217.633 213.811 218.177 213.59 218.628 213.231L224.613 208.463C226.157 207.233 228.447 207.803 229.234 209.614L234.193 221.025C234.669 222.121 235.75 222.829 236.944 222.829H243.501C244.279 222.829 245.026 222.527 245.585 221.987L256.672 211.282C257.538 210.446 258.821 210.208 259.929 210.679L287.676 222.467C288.23 222.703 288.843 222.766 289.435 222.649L304.856 219.577C306.558 219.238 307.618 217.531 307.167 215.856L301.116 193.358C300.855 192.388 300.125 191.613 299.173 191.293L277.574 184.049L260.73 176.222C259.264 175.54 257.521 176.144 256.79 177.586L250.68 189.639C250.039 190.902 248.603 191.545 247.234 191.182L235.183 187.982C235.046 187.945 234.911 187.899 234.78 187.843L217.283 180.41C216.912 180.252 216.513 180.171 216.11 180.171H189.701C189.069 180.171 188.453 180.37 187.941 180.741Z" fill="#E7EBE7"/>
<path d="M187.512 231.75L152.966 244.437C151.785 244.871 151 245.995 151 247.253V261.942C151 262.37 151.091 262.792 151.268 263.182L155.677 272.898C156.424 274.544 158.446 275.16 159.985 274.211L187.279 257.371C187.434 257.275 187.597 257.194 187.767 257.128L206.561 249.82C207.574 249.426 208.721 249.611 209.559 250.303L216.027 255.648C217.136 256.565 218.74 256.565 219.849 255.648L224.558 251.757C226.11 250.475 228.459 251.054 229.236 252.91L234.206 264.773C234.673 265.888 235.764 266.614 236.973 266.614H243.469C244.266 266.614 245.029 266.297 245.592 265.733L256.649 254.659C257.524 253.782 258.848 253.534 259.982 254.033L287.65 266.227C288.22 266.478 288.855 266.546 289.466 266.42L305.607 263.085C307 262.797 308 261.57 308 260.147V236.742C308 235.38 307.083 234.189 305.767 233.841L277.851 226.46C277.667 226.411 277.487 226.345 277.315 226.262L260.789 218.296C259.302 217.579 257.515 218.198 256.791 219.681L250.581 232.387C249.99 233.596 248.667 234.264 247.343 234.021L236.234 231.981C235.431 231.833 234.722 231.365 234.272 230.683L226.58 219.029C225.799 217.846 224.297 217.371 222.978 217.89L208.202 223.705L187.512 231.75Z" fill="#E7EBE7"/>
<path d="M202.362 268.682L186.113 282.025L168.287 295.689C167.976 295.927 167.621 296.102 167.243 296.205L134.321 305.084C132.261 305.64 131.423 308.109 132.72 309.804L138.501 317.357C139.258 318.346 140.548 318.764 141.742 318.408L165.376 311.35L185.791 306.329C186.005 306.277 186.213 306.2 186.411 306.102L209.59 294.565C210.842 293.942 212.359 294.267 213.247 295.349L218.514 301.772C218.864 302.199 219.326 302.521 219.847 302.703L227.678 305.431C229.041 305.906 230.549 305.343 231.267 304.092L236.238 295.433C236.897 294.285 238.23 293.705 239.518 294.004L247.714 295.908C248.118 296.002 248.498 296.178 248.83 296.426L256.865 302.425L275.393 314.528C276.029 314.944 276.799 315.102 277.548 314.972L296.131 311.735C297.441 311.507 298.445 310.443 298.596 309.122L301.653 282.501C301.844 280.837 300.636 279.339 298.969 279.173L276.88 276.974C276.551 276.942 276.23 276.855 275.929 276.717L259.469 269.19C258.012 268.524 256.288 269.121 255.554 270.545L249.336 282.615C248.735 283.781 247.447 284.422 246.154 284.197L234.921 282.24C234.132 282.102 233.431 281.655 232.973 280.998L224.824 269.287C224.263 268.481 223.344 268 222.362 268H204.265C203.571 268 202.898 268.241 202.362 268.682Z" fill="#E7EBE7"/>
<path d="M204.441 307.444L184.347 319.791L164.109 335.957C163.729 336.26 163.281 336.467 162.804 336.559L119.433 344.904C118.021 345.176 117 346.412 117 347.85V358.768C117 360.513 118.483 361.889 120.223 361.76L150.762 359.481C151.109 359.455 151.448 359.369 151.765 359.227L185.571 344.093L204.527 336.668C204.946 336.504 205.396 336.436 205.845 336.469L220.965 337.598C221.818 337.661 222.604 338.086 223.124 338.765L227.204 344.093L231.398 349.099C232.114 349.953 233.245 350.34 234.334 350.104L243.447 348.126C244.033 347.998 244.645 348.05 245.202 348.274L259.96 354.203C260.163 354.284 260.356 354.388 260.537 354.512L270.702 361.475C271.201 361.817 271.792 362 272.397 362H290.645C292.172 362 293.456 360.853 293.627 359.336L296.676 332.257C296.857 330.653 295.737 329.194 294.141 328.954L272.287 325.67C271.751 325.589 271.247 325.365 270.828 325.021L252.534 309.984C252.192 309.704 251.793 309.502 251.364 309.394L244.045 307.543C242.769 307.22 241.431 307.768 240.747 308.892L233.709 320.463C233.027 321.585 231.694 322.132 230.42 321.815L223.483 320.084C222.728 319.896 222.076 319.422 221.664 318.762L215.206 308.412C214.658 307.534 213.696 307 212.661 307H206.011C205.457 307 204.913 307.154 204.441 307.444Z" fill="#E7EBE7"/>
<path d="M184.059 352.707L166.231 362.353L146.144 371.943C145.74 372.135 145.298 372.235 144.851 372.235H112C110.343 372.235 109 373.578 109 375.235V390.431C109 392.01 110.223 393.318 111.798 393.424L145.531 395.706H169.391C169.718 395.706 170.042 395.652 170.352 395.548L191.229 388.488C191.608 388.36 192.008 388.309 192.407 388.338L207.531 389.434C208.371 389.495 209.148 389.906 209.67 390.568L213.721 395.706L217.892 400.541C218.606 401.369 219.714 401.742 220.783 401.517L229.893 399.596C230.464 399.476 231.058 399.525 231.602 399.737L246.297 405.471C246.498 405.549 246.689 405.648 246.868 405.768L256.984 412.498C257.477 412.825 258.055 413 258.646 413H277.039C278.459 413 279.684 412.004 279.975 410.614L287.244 375.849C287.634 373.986 286.212 372.235 284.308 372.235H262.309C261.6 372.235 260.914 371.984 260.372 371.526L247.437 360.591C246.896 360.134 246.21 359.882 245.5 359.882H228.91C228.529 359.882 228.152 359.81 227.798 359.669L219.46 356.34C219.188 356.232 218.933 356.084 218.704 355.902L212.106 350.652C211.575 350.23 210.916 350 210.238 350H199.361C199.193 350 199.026 350.014 198.861 350.042L184.987 352.388C184.662 352.443 184.349 352.551 184.059 352.707Z" fill="#E7EBE7"/>
<path d="M166.059 404.707L148.231 414.353L128.144 423.943C127.74 424.135 127.298 424.235 126.851 424.235H94C92.3431 424.235 91 425.578 91 427.235V442.431C91 444.01 92.2229 445.318 93.7976 445.424L127.531 447.706H151.391C151.718 447.706 152.042 447.652 152.352 447.548L173.229 440.488C173.608 440.36 174.008 440.309 174.407 440.338L189.531 441.434C190.371 441.495 191.148 441.906 191.67 442.568L195.721 447.706L199.892 452.541C200.606 453.369 201.714 453.742 202.783 453.517L211.893 451.596C212.464 451.476 213.058 451.525 213.602 451.737L228.297 457.471C228.498 457.549 228.689 457.648 228.868 457.768L238.984 464.498C239.477 464.825 240.055 465 240.646 465H259.039C260.459 465 261.684 464.004 261.975 462.614L269.244 427.849C269.634 425.986 268.212 424.235 266.308 424.235H244.309C243.6 424.235 242.914 423.984 242.372 423.526L229.437 412.591C228.896 412.134 228.21 411.882 227.5 411.882H210.91C210.529 411.882 210.152 411.81 209.798 411.669L201.46 408.34C201.188 408.232 200.933 408.084 200.704 407.902L194.106 402.652C193.575 402.23 192.916 402 192.238 402H181.361C181.193 402 181.026 402.014 180.861 402.042L166.987 404.388C166.662 404.443 166.349 404.551 166.059 404.707Z" fill="#E7EBE7"/>
<path d="M256 75.6832V29H299.707V40.3205C299.707 50.5046 303.795 60.2625 311.054 67.4056L324.982 81.1124C329.431 85.4904 334.89 88.7051 340.877 90.4724L362.447 96.8403C370.865 99.3257 379.885 98.8199 387.973 95.4089L406.06 87.7806L407.878 96.4172C408.017 97.0754 408.477 97.6198 409.103 97.8662L415.331 100.318C415.915 100.548 416.357 101.039 416.525 101.644L420.315 115.289C420.466 115.834 420.841 116.29 421.348 116.543L434.249 122.992C434.598 123.166 434.889 123.439 435.085 123.777L441.905 135.529C442.263 136.146 442.922 136.526 443.634 136.526H462.872C463.744 136.526 464.515 137.09 464.778 137.922L468.038 148.213C468.348 149.192 469.349 149.777 470.354 149.567L483.84 146.748C484.407 146.629 484.998 146.763 485.459 147.113L497.16 156.006C497.65 156.379 498.285 156.505 498.881 156.348L512.187 152.834C512.741 152.688 513.331 152.786 513.807 153.104L522.952 159.199C523.446 159.528 524.061 159.621 524.63 159.452L533.706 156.763C534.073 156.655 534.462 156.653 534.829 156.759L544.591 159.578C544.911 159.67 545.249 159.681 545.575 159.61L558.561 156.761C559.043 156.656 559.548 156.732 559.978 156.977L573.972 164.937C574.273 165.109 574.614 165.199 574.961 165.199H594L582.345 205.342L594 251.219V282.065C594 291.054 588.28 299.046 579.771 301.944L561.256 308.251C557.915 309.389 554.304 309.459 550.921 308.451L504.992 294.77C503.261 294.255 501.603 293.518 500.06 292.578L474.534 277.026L458.487 269.847C447.874 265.1 436.627 261.92 425.1 260.408L355.069 251.219L325.377 244.167C317.536 242.304 311.153 236.63 308.384 229.062L300.547 207.638C299.988 206.111 299.586 204.531 299.347 202.923L293.052 160.59C291.674 151.326 288.503 142.421 283.715 134.372L262.185 98.1776C258.137 91.3725 256 83.6012 256 75.6832Z" fill="#F2F7F2"/>
<path d="M313.599 20.5556H234.41L248.808 30.6667V81.2222L222.892 69.6667H196.975L184.017 81.2222L196.975 87L234.41 91.3333L254.568 113L260.327 131.778H240.17H190.532C170.948 131.778 151.482 128.756 132.819 122.82L122.424 119.513C108.871 115.202 96.1436 108.632 84.779 100.081C77.0535 94.2686 70.021 87.5878 63.8198 80.1703L61.7714 77.72C44.6941 57.293 33.2046 32.7874 28.4242 6.59509L20.6563 -35.9667C18.2237 -49.295 17 -62.8158 17 -76.3642V-88.6605C17 -129.628 28.4322 -169.784 50.0104 -204.608C71.7207 -239.646 102.832 -267.885 139.803 -286.11L169.907 -300.95C182.383 -307.1 195.674 -311.436 209.377 -313.827C217.665 -315.273 226.063 -316 234.477 -316L279.504 -316C291.644 -316 303.753 -314.765 315.643 -312.314L384.848 -298.048C396.829 -295.578 408.526 -291.886 419.754 -287.031L452.561 -272.844C474.828 -263.216 494.685 -248.775 510.706 -230.559C523.188 -216.367 533.128 -200.127 540.086 -182.554L562.925 -124.878C568.178 -111.613 566.509 -96.6059 558.47 -84.8188L556.779 -82.3399C554.061 -78.3541 552.607 -73.6416 552.607 -68.8172V-63.7659C552.607 -58.7175 554.199 -53.7976 557.156 -49.7062L566.486 -36.7986L561.998 -6.1181C560.596 3.46683 563.116 13.2123 568.988 20.9163L578.523 33.4253L571.324 56.6667L603 131.778L590.042 152H571.324L559.806 146.222V152L546.848 146.222H529.57H520.931L510.853 141.889H500.774L495.015 131.778H471.978L466.219 124.556H459.02L444.622 113H434.543L427.344 91.3333H415.826L402.867 81.2222L413.101 65.2514C414.602 62.9102 413.903 59.7948 411.548 58.3177L392.789 46.5556V36.4445H411.064C414.208 36.4445 417.321 37.0622 420.227 38.2626L429.744 42.1942C436.424 44.9535 441.504 50.5759 443.575 57.5L444.622 61L459.02 81.2222V69.5949C459.02 61.2836 455.883 53.2784 450.238 47.1789L447.035 43.7181C442.643 38.9737 436.955 35.6236 430.676 34.0839L379.384 21.5052C376.811 20.8744 374.172 20.5556 371.524 20.5556H313.599Z" fill="#F2F7F2"/>
<path opacity="0.8" d="M526.052 -72.209V-93C526.052 -95.7614 523.813 -98 521.052 -98H505.569H486.062C481.028 -98 476.161 -96.1916 472.349 -92.9042L446.287 -70.4321C441.66 -66.4429 439 -60.6368 439 -54.5279V-21.5036C439 -16.7607 440.606 -12.1575 443.555 -8.44342L451.583 1.66493C453.376 3.92206 455.916 5.46243 458.753 5.97026C468.193 7.65989 482.683 10 488.5 10C495.328 10 511.828 -6.11941 519.224 -14.1791L535.024 -37.2386C536.963 -40.0679 538 -43.4176 538 -46.8474V-49.2844C538 -52.6693 536.99 -55.9772 535.098 -58.7843L526.052 -72.209Z" fill="#91AEC1"/>
<line x1="421.468" y1="114.962" x2="416.261" y2="134.057" stroke="#247BA0" stroke-width="0.5" stroke-linecap="round"/>
<line x1="441.047" y1="130.98" x2="435.839" y2="150.075" stroke="#247BA0" stroke-width="0.5" stroke-linecap="round"/>
<line x1="428.588" y1="82.9266" x2="423.38" y2="102.021" stroke="#247BA0" stroke-width="0.5" stroke-linecap="round"/>
<line x1="448.166" y1="98.9442" x2="442.958" y2="118.039" stroke="#247BA0" stroke-width="0.5" stroke-linecap="round"/>
</g>
</svg>
