<svg width="445" height="445" viewBox="0 0 445 445" fill="none" xmlns="http://www.w3.org/2000/svg">
<mask id="mask0" mask-type="alpha" maskUnits="userSpaceOnUse" x="0" y="0" width="445" height="445">
<circle cx="222.174" cy="222.174" r="222.174" fill="#F9AC34"/>
</mask>
<g mask="url(#mask0)">
<path d="M192.5 397.5L168 482H28L-25 203.5L28 -1.5L226 -35L400.5 -1.5L467.5 203.5L400.5 474H256.5L242 397.5H192.5Z" fill="white" fill-opacity="0.4"/>
<path d="M199.014 35.7622V59.8996C199.014 62.3782 200.08 64.7604 201.914 66.4277C207.892 71.8622 216.893 72.5441 223.56 67.9821C229.901 72.5618 238.54 72.2626 244.549 67.255L245.375 66.5663C247.485 64.8079 248.705 62.2031 248.705 59.4564V35.7933C248.705 32.5519 246.48 29.7345 243.327 28.9837L223.56 24.2774L204.355 28.9615C201.22 29.7262 199.014 32.5351 199.014 35.7622Z" fill="white"/>
<path d="M199.014 92.0395V116.177C199.014 118.656 200.08 121.038 201.914 122.705C207.892 128.14 216.893 128.821 223.56 124.259C229.901 128.839 238.54 128.54 244.549 123.532L245.375 122.844C247.485 121.085 248.705 118.48 248.705 115.734V92.0707C248.705 88.8292 246.48 86.0118 243.327 85.261L223.56 80.5547L204.355 85.2389C201.22 86.0036 199.014 88.8125 199.014 92.0395Z" fill="white"/>
<path d="M197.541 183.147V185.809C197.541 190.077 200.164 193.905 204.143 195.445C208.375 197.083 213.028 197.283 217.385 196.014L222.004 194.668L225.717 195.81C230.28 197.213 235.174 197.109 239.673 195.512C244.104 193.94 247.065 189.748 247.065 185.047V183.062C247.065 180.563 245.172 178.469 242.686 178.217L239.744 177.919C236.278 177.567 232.849 176.909 229.499 175.953L222.004 173.813L214.912 175.887C211.493 176.887 207.99 177.575 204.446 177.944L202.003 178.197C199.468 178.461 197.541 180.598 197.541 183.147Z" fill="#E1E7EA"/>
<path d="M193.392 203.627L194.752 208.027C196.513 213.724 200.783 218.303 206.344 220.455L207.687 220.975C209.67 221.743 211.711 222.351 213.791 222.794L222.003 224.544L232.743 222.129L238.151 220.21C243.778 218.213 248.177 213.744 250.085 208.086L251.411 204.153C252.626 200.552 249.264 197.084 245.627 198.186C238.385 200.381 230.664 200.443 223.387 198.366L222.003 197.971L220.67 198.361C213.566 200.438 206.004 200.352 198.949 198.112C195.55 197.032 192.338 200.219 193.392 203.627Z" fill="#F1F5F5"/>
<path d="M193.111 226.07L195.958 240.459C196.943 245.436 200.407 249.562 205.139 251.394C208.788 252.806 212.121 254.928 214.945 257.636L222.003 264.405L228.085 258.249C231.151 255.146 234.879 252.776 238.99 251.317C243.969 249.55 247.588 245.211 248.433 239.996L250.767 225.577C251.386 221.757 247.001 219.157 243.946 221.534C238.87 225.481 232.827 227.994 226.449 228.808L222.003 229.376L217.461 228.796C211.134 227.989 205.124 225.552 200.021 221.725C196.815 219.32 192.333 222.138 193.111 226.07Z" fill="#F1F5F5"/>
<path d="M198.414 -20.5152V3.62224C198.414 6.10083 199.48 8.48306 201.314 10.1503C207.292 15.5848 216.293 16.2668 222.961 11.7048C229.302 16.2845 237.94 15.9852 243.949 10.9777L244.776 10.289C246.886 8.53057 248.106 5.92578 248.106 3.17908V-20.484C248.106 -23.7255 245.88 -26.5429 242.727 -27.2937L222.961 -32L203.755 -27.3158C200.62 -26.5511 198.414 -23.7422 198.414 -20.5152Z" fill="white"/>
<path d="M212.884 158.224L215.24 153.511C216.385 151.222 215.115 148.463 212.633 147.842L197.652 144.097C194.832 143.392 192.31 141.808 190.449 139.576C188.397 137.113 187.273 134.009 187.273 130.804V119.458C187.273 111.253 182.839 103.688 175.68 99.6792L157.076 89.2607L140.301 83.1098C127.559 78.4379 113.799 77.263 100.449 79.7072L94.1341 80.8635C83.4753 82.8151 73.3607 87.0353 64.4757 93.2381C52.3893 101.676 43.0333 113.463 37.5589 127.149L27.7562 151.655C24.8478 158.926 26.3548 167.22 31.635 173.003C34.2137 175.828 37.8617 177.437 41.6862 177.437H57.2168C62.3676 177.437 67.2977 179.528 70.8776 183.231L74.3602 186.834C79.7678 192.428 82.7906 199.904 82.7906 207.685V215.485L79.732 227.337C78.5904 231.761 79.1221 236.451 81.2252 240.507C84.4131 246.655 90.7615 250.514 97.6871 250.514H100.587C105.896 250.514 111.064 252.217 115.333 255.372C120.058 258.864 123.39 263.92 124.735 269.64L125.647 273.515C126.854 278.646 126.858 283.986 125.656 289.118L122.62 302.09C121.618 306.371 124.11 310.696 128.317 311.977C132.187 313.154 134.942 316.578 135.264 320.61L137.146 344.126L137.68 344.636C145.866 352.449 156.746 356.809 168.061 356.809H175.798C191.623 348.501 204.975 336.164 214.507 321.045L215.54 319.406C216.771 317.453 217.135 315.077 216.544 312.845L213.808 302.507C212.763 298.559 209.191 295.81 205.107 295.81H175.798C168.716 293.449 162.509 289.008 157.988 283.067L153 276.511C146.941 268.548 142.803 259.293 140.907 249.469L138.685 237.957C137.685 232.773 138.351 227.404 140.59 222.622L143.769 215.831C147.835 207.144 156.56 201.595 166.151 201.595C175.554 201.595 184.313 196.822 189.41 188.921L193.313 182.872L213.823 173.643C215.837 172.736 216.735 170.368 215.829 168.354L212.814 161.654C212.321 160.558 212.347 159.299 212.884 158.224Z" fill="white"/>
<path d="M148.018 303.661L153.453 308.493V319.968L161.908 336.274C165.663 337.776 169.927 337.227 173.179 334.824L181.839 328.423L193.521 319.174C195.2 317.845 195.839 315.59 195.107 313.577C194.393 311.612 192.526 310.305 190.435 310.305H172.175L165.918 306.863C162.327 304.888 160.096 301.115 160.096 297.018L156.473 291.582H151.037L148.018 297.018V303.661Z" fill="#485760"/>
<path d="M63.4635 146.635L63.0771 147.022C61.0043 149.095 59.8398 151.906 59.8398 154.837C59.8398 157.347 60.694 159.782 62.2618 161.742L64.9294 165.076C66.3582 166.862 68.0705 168.402 69.998 169.633L88.8292 181.664L96.3577 190.562C100.09 194.972 102.247 200.501 102.487 206.274L103.102 221.041C103.243 224.405 104.886 227.528 107.58 229.548C109.522 231.004 111.883 231.792 114.311 231.792H121.222C123.683 231.792 126.044 230.814 127.784 229.074C129.524 227.334 130.501 224.974 130.501 222.513V212.465L132.313 204.01L136.145 195.389C138.365 190.393 138.954 184.824 137.828 179.473L137.145 176.229L130.501 167.773L108.155 153.279L80.9779 143.012H72.2118C68.9306 143.012 65.7837 144.315 63.4635 146.635Z" fill="#485760"/>
<path d="M90.0384 290.978L88.0575 295.27C84.7985 302.331 85.5536 310.595 90.0384 316.948L86.4147 324.799C82.1109 330.277 79.7713 337.041 79.7713 344.008V352.581L86.4147 393.649L93.0581 434.717L103.325 475.182H73.1279L71.3161 446.796L56.2175 371.303L44.1386 329.631L39.9109 324.799L35.0589 319.219C30.3986 313.86 27.832 306.997 27.832 299.895C27.832 294.081 29.553 288.397 32.7781 283.559L39.9109 272.86C45.9091 267.612 54.2147 265.881 61.8097 268.298L62.8609 268.632L69.9292 270.784C73.8172 271.967 77.9746 270.047 79.5951 266.32L82.7911 258.969C84.8968 255.109 89.4388 253.276 93.634 254.595L107.553 258.969L119.632 272.86L116.008 286.751L107.553 290.978L96.6818 286.751L90.0384 290.978Z" fill="white"/>
<path d="M231.116 158.224L228.76 153.511C227.615 151.222 228.885 148.463 231.367 147.842L246.348 144.097C249.168 143.392 251.69 141.808 253.551 139.576C255.603 137.113 256.727 134.009 256.727 130.804V119.458C256.727 111.253 261.161 103.688 268.32 99.6792L286.924 89.2607L303.699 83.1098C316.441 78.4379 330.201 77.263 343.551 79.7072L349.866 80.8635C360.525 82.8151 370.639 87.0353 379.524 93.2381C391.611 101.676 400.967 113.463 406.441 127.149L416.244 151.655C419.152 158.926 417.645 167.22 412.365 173.003C409.786 175.828 406.138 177.437 402.314 177.437H386.783C381.632 177.437 376.702 179.528 373.122 183.231L369.64 186.834C364.232 192.428 361.209 199.904 361.209 207.685V215.485L364.268 227.337C365.41 231.761 364.878 236.451 362.775 240.507C359.587 246.655 353.238 250.514 346.313 250.514H343.413C338.104 250.514 332.936 252.217 328.667 255.372C323.942 258.864 320.61 263.92 319.265 269.64L318.353 273.515C317.146 278.646 317.142 283.986 318.344 289.118L321.38 302.09C322.382 306.371 319.89 310.696 315.683 311.977C311.813 313.154 309.058 316.578 308.736 320.61L306.854 344.126L306.32 344.636C298.134 352.449 287.254 356.809 275.939 356.809H268.202C252.377 348.501 239.025 336.164 229.493 321.045L228.46 319.406C227.229 317.453 226.865 315.077 227.456 312.845L230.192 302.507C231.237 298.559 234.809 295.81 238.893 295.81H268.202C275.284 293.449 281.491 289.008 286.012 283.067L291 276.511C297.059 268.548 301.197 259.293 303.093 249.469L305.315 237.957C306.315 232.773 305.649 227.404 303.41 222.622L300.231 215.831C296.165 207.144 287.44 201.595 277.849 201.595C268.446 201.595 259.687 196.822 254.59 188.921L250.687 182.872L230.177 173.643C228.163 172.736 227.265 170.368 228.171 168.354L231.186 161.654C231.679 160.558 231.653 159.299 231.116 158.224Z" fill="white"/>
<path d="M295.982 303.661L290.547 308.493V319.968L282.092 336.274C278.337 337.776 274.073 337.227 270.821 334.824L262.161 328.423L250.479 319.174C248.8 317.845 248.161 315.59 248.893 313.577C249.607 311.612 251.474 310.305 253.565 310.305H271.825L278.082 306.863C281.673 304.888 283.904 301.115 283.904 297.018L287.527 291.582H292.963L295.982 297.018V303.661Z" fill="#485760"/>
<path d="M380.536 146.635L380.923 147.022C382.996 149.095 384.16 151.906 384.16 154.837C384.16 157.347 383.306 159.782 381.738 161.742L379.071 165.076C377.642 166.862 375.929 168.402 374.002 169.633L355.171 181.664L347.642 190.562C343.91 194.972 341.753 200.501 341.513 206.274L340.898 221.041C340.757 224.405 339.114 227.528 336.42 229.548C334.478 231.004 332.117 231.792 329.689 231.792H322.778C320.317 231.792 317.956 230.814 316.216 229.074C314.476 227.334 313.499 224.974 313.499 222.513V212.465L311.687 204.01L307.855 195.389C305.635 190.393 305.046 184.824 306.172 179.473L306.855 176.229L313.499 167.773L335.845 153.279L363.022 143.012H371.788C375.069 143.012 378.216 144.315 380.536 146.635Z" fill="#485760"/>
<path d="M353.962 290.978L355.943 295.27C359.201 302.331 358.446 310.595 353.962 316.948L357.585 324.799C361.889 330.277 364.229 337.041 364.229 344.008V352.581L357.585 393.649L350.942 434.717L340.675 475.182H370.872L372.684 446.796L387.783 371.303L399.861 329.631L404.089 324.799L408.941 319.219C413.601 313.86 416.168 306.997 416.168 299.895C416.168 294.081 414.447 288.397 411.222 283.559L404.089 272.86C398.091 267.612 389.785 265.881 382.19 268.298L381.139 268.632L374.071 270.784C370.183 271.967 366.025 270.047 364.405 266.32L361.209 258.969C359.103 255.109 354.561 253.276 350.366 254.595L336.447 258.969L324.368 272.86L327.992 286.751L336.447 290.978L347.318 286.751L353.962 290.978Z" fill="white"/>
<path d="M172.175 208.842H152.848L149.225 213.674L164.323 229.376L160.7 243.871L164.323 251.722L180.026 255.95L190.897 263.197L196.936 255.95L193.313 239.039L187.877 229.376V224.545L193.313 219.109L184.857 203.406L172.175 208.842Z" fill="#F1F5F5"/>
<path d="M273.032 208.842H292.359L295.982 213.674L280.884 229.376L284.507 243.871L280.884 251.722L265.181 255.95L254.31 263.197L248.271 255.95L251.894 239.039L257.33 229.376V224.545L251.894 219.109L260.35 203.406L273.032 208.842Z" fill="#F1F5F5"/>
</g>
</svg>
