<svg width="445" height="445" viewBox="0 0 445 445" fill="none" xmlns="http://www.w3.org/2000/svg">
<mask id="mask0" mask-type="alpha" maskUnits="userSpaceOnUse" x="0" y="0" width="445" height="445">
<circle cx="222.174" cy="222.174" r="222.174" fill="#247BA0"/>
</mask>
<g mask="url(#mask0)">
<circle cx="222.174" cy="222.174" r="222.174" fill="#022433"/>
<path d="M241.718 476.028L224.723 518.24C224.33 519.217 223.453 519.916 222.413 520.082L118.046 536.736C117.019 536.9 115.981 536.521 115.301 535.733L49.8736 459.859C48.9208 458.754 48.9011 457.124 49.8267 455.996L70.7704 430.483C76.6255 423.35 80.3475 414.709 81.5079 405.555L88.0568 353.891C89.3307 343.841 86.6444 333.69 80.5664 325.586L79.9634 324.782C79.8096 324.577 79.6302 324.393 79.4295 324.233L52.451 302.802C30.8715 285.659 17.9021 259.91 16.9736 232.366L15.8366 198.634C15.2839 182.236 17.8402 165.882 23.3706 150.435L38.2081 108.992C44.7097 90.8323 56.9349 75.2763 73.043 64.6662L108.344 41.4137C131.532 26.1403 158.689 18 186.455 18H219.222C236.084 18 252.815 20.9617 268.653 26.7501L330.814 49.4689C348.015 55.7556 362.225 68.278 370.625 84.5522L404.418 150.026C409.588 160.044 410.171 171.81 406.015 182.29L402.133 192.08C400.413 196.417 400.967 201.327 403.61 205.172L448.242 270.091C449.12 271.368 448.881 273.103 447.691 274.095L443.851 277.295C443.252 277.794 442.482 278.04 441.705 277.981L416.964 276.114C414.851 275.955 413.243 277.977 413.875 280L415.421 284.947L429.77 317.951C431.496 321.921 430.733 326.533 427.822 329.736L417.345 341.261C416.268 342.446 416.311 344.268 417.443 345.4L423.835 351.792C424.645 352.602 424.923 353.803 424.552 354.887L420.07 367.959C418.894 371.389 418.478 375.034 418.851 378.64L425.035 438.42C425.115 439.188 424.895 439.956 424.422 440.566L408.632 460.941C407.887 461.902 406.635 462.319 405.463 461.995L324.338 439.616L253.683 420.446C251.955 419.977 250.203 421.117 249.932 422.887L241.9 475.361C241.865 475.59 241.804 475.814 241.718 476.028Z" fill="white" fill-opacity="0.35"/>
<path d="M133.649 325.705L115.31 335.065C113.965 335.752 113.34 337.331 113.85 338.752L118.505 351.703C118.933 352.894 120.062 353.689 121.328 353.689H128.36C129.476 353.689 130.499 353.07 131.017 352.081L133.469 347.403C133.863 346.651 134.557 346.101 135.379 345.89L158.635 339.914C159.45 339.704 160.316 339.847 161.021 340.307L168.271 345.036C169.339 345.733 170.745 345.613 171.68 344.746C173.459 343.096 176.349 344.358 176.349 346.784V347.586C176.349 348.774 177.051 349.85 178.137 350.33L183.064 352.506C184.553 353.164 186.295 352.514 186.989 351.042L190.862 342.831C191.512 341.454 193.091 340.782 194.534 341.269L209.22 346.222L216.896 348.547C218.633 349.073 220.435 347.949 220.727 346.157L223.84 327.018C223.996 326.054 223.674 325.075 222.977 324.392L205.486 307.276C204.47 306.282 202.895 306.138 201.715 306.93L181.699 320.368C180.81 320.965 179.67 321.043 178.708 320.572L171.599 317.094C170.66 316.635 169.551 316.697 168.67 317.257L162.802 320.989C162.446 321.216 162.047 321.365 161.629 321.426L134.576 325.409C134.253 325.457 133.94 325.557 133.649 325.705Z" fill="#E7EBE7"/>
<path d="M146.705 353.038L130.83 364.648C130.482 364.902 130.193 365.229 129.982 365.605L123.649 376.926C123.399 377.374 123.268 377.878 123.268 378.391V379.506C123.268 381.498 125.172 382.936 127.087 382.392L149.588 376.004C149.756 375.956 149.928 375.923 150.102 375.905L165.37 374.346C165.946 374.287 166.494 374.062 166.945 373.699L169.43 371.7C170.976 370.456 173.282 371.029 174.066 372.852L176.415 378.309C176.888 379.41 177.972 380.124 179.17 380.124H182.227C183.01 380.124 183.761 379.818 184.322 379.271L190.61 373.14C191.478 372.293 192.772 372.052 193.887 372.531L210.725 379.755C211.284 379.995 211.903 380.059 212.5 379.939L220.96 378.238C222.656 377.897 223.713 376.196 223.267 374.525L219.813 361.558C219.555 360.587 218.828 359.81 217.877 359.488L204.55 354.974L194.69 350.347C193.218 349.656 191.464 350.264 190.734 351.717L187.671 357.819C187.032 359.091 185.587 359.74 184.213 359.371L177.403 357.545C177.265 357.508 177.129 357.461 176.997 357.404L166.038 352.702C165.665 352.542 165.262 352.459 164.855 352.459H148.476C147.839 352.459 147.219 352.662 146.705 353.038Z" fill="#E7EBE7"/>
<path d="M146.714 386.055L125.235 393.926C124.053 394.359 123.268 395.484 123.268 396.743V405.168C123.268 405.596 123.359 406.02 123.537 406.41L125.768 411.315C126.515 412.958 128.534 413.574 130.071 412.628L146.482 402.524C146.636 402.429 146.8 402.348 146.969 402.282L158.363 397.861C159.374 397.468 160.519 397.653 161.357 398.343L164.345 400.807C165.453 401.721 167.054 401.721 168.162 400.807L169.393 399.792C170.944 398.513 173.289 399.092 174.068 400.945L176.423 406.557C176.891 407.671 177.981 408.396 179.189 408.396H182.205C183.001 408.396 183.764 408.08 184.326 407.517L190.594 401.253C191.469 400.379 192.79 400.131 193.922 400.629L210.708 408.01C211.278 408.261 211.911 408.328 212.521 408.202L221.694 406.311C223.089 406.024 224.089 404.797 224.089 403.373V390.084C224.089 388.722 223.171 387.531 221.854 387.183L204.827 382.691C204.643 382.642 204.463 382.576 204.292 382.493L194.729 377.894C193.244 377.179 191.46 377.797 190.735 379.278L187.573 385.732C186.982 386.939 185.661 387.606 184.339 387.363L178.452 386.285C177.649 386.138 176.941 385.67 176.49 384.989L172.282 378.627C171.501 377.446 170.001 376.972 168.683 377.49L160.001 380.899L146.714 386.055Z" fill="#E7EBE7"/>
<path d="M155.977 409.371L145.776 417.819L134.425 426.591C134.113 426.832 133.757 427.009 133.378 427.112L113.81 432.434C111.758 432.992 110.922 435.449 112.208 437.143L114.565 440.248C115.323 441.246 116.62 441.668 117.82 441.307L132.377 436.924L145.451 433.682C145.667 433.628 145.876 433.551 146.074 433.451L160.174 426.375C161.432 425.744 162.959 426.072 163.847 427.164L166.522 430.452C166.871 430.882 167.333 431.206 167.855 431.39L171.787 432.771C173.155 433.252 174.671 432.685 175.389 431.425L177.77 427.242C178.428 426.087 179.767 425.503 181.061 425.806L185.357 426.812C185.763 426.907 186.144 427.085 186.477 427.336L191.49 431.109L203.105 438.76C203.744 439.181 204.52 439.342 205.274 439.209L216.079 437.311C217.389 437.081 218.391 436.017 218.541 434.696L220.308 419.179C220.497 417.517 219.291 416.021 217.627 415.854L204.6 414.547C204.269 414.513 203.946 414.425 203.644 414.286L194.106 409.889C192.644 409.215 190.911 409.814 190.179 411.248L186.98 417.507C186.381 418.68 185.087 419.325 183.79 419.097L177.751 418.036C176.96 417.897 176.257 417.447 175.801 416.785L171.103 409.978C170.543 409.167 169.62 408.682 168.634 408.682H157.891C157.192 408.682 156.516 408.926 155.977 409.371Z" fill="#E7EBE7"/>
<path d="M157.452 434.335L144.795 442.147L131.992 452.42C131.612 452.725 131.163 452.933 130.684 453.026L103.931 458.197C102.519 458.469 101.5 459.705 101.5 461.142V466.171C101.5 467.916 102.984 469.293 104.724 469.162L123.015 467.791C123.363 467.765 123.704 467.679 124.022 467.536L145.582 457.84L157.538 453.136C157.959 452.971 158.411 452.902 158.861 452.936L167.853 453.61C168.708 453.674 169.495 454.101 170.015 454.783L172.346 457.84L174.625 460.573C175.342 461.432 176.476 461.821 177.568 461.583L182.463 460.515C183.052 460.387 183.666 460.439 184.224 460.665L193.294 464.325C193.497 464.407 193.691 464.511 193.872 464.635L200.034 468.875C200.534 469.22 201.127 469.404 201.734 469.404H212.171C213.699 469.404 214.982 468.256 215.153 466.738L216.893 451.211C217.073 449.609 215.954 448.151 214.36 447.911L201.623 445.988C201.086 445.907 200.58 445.681 200.161 445.335L188.815 435.968C188.473 435.686 188.073 435.483 187.644 435.374L183.946 434.434C182.667 434.11 181.325 434.659 180.641 435.788L176.938 441.905C176.256 443.031 174.919 443.581 173.642 443.261L170.376 442.442C169.62 442.253 168.967 441.777 168.556 441.115L164.947 435.304C164.4 434.423 163.436 433.887 162.399 433.887H159.028C158.472 433.887 157.926 434.042 157.452 434.335Z" fill="#E7EBE7"/>
<path d="M190.863 280.931V255.159H219.012V256.79C219.012 266.973 223.098 276.729 230.355 283.872L232.878 286.355C237.327 290.735 242.786 293.95 248.773 295.718L254.781 297.492C263.201 299.979 272.223 299.473 280.313 296.06L287.507 293.025L288.598 298.214C288.737 298.872 289.197 299.417 289.823 299.663L293.147 300.972C293.731 301.202 294.173 301.693 294.341 302.298L296.602 310.442C296.754 310.987 297.129 311.442 297.635 311.695L305.47 315.613C305.82 315.788 306.11 316.061 306.306 316.398L310.386 323.43C310.744 324.047 311.403 324.427 312.116 324.427H323.573C324.445 324.427 325.217 324.992 325.48 325.823L327.228 331.342C327.538 332.321 328.539 332.906 329.544 332.696L337.281 331.078C337.848 330.96 338.439 331.093 338.9 331.444L345.901 336.766C346.391 337.139 347.026 337.265 347.622 337.107L355.546 335.015C356.099 334.868 356.689 334.967 357.166 335.284L362.511 338.848C363.005 339.177 363.619 339.27 364.189 339.101L369.515 337.523C369.881 337.414 370.271 337.413 370.638 337.519L376.551 339.227C376.871 339.319 377.209 339.33 377.535 339.259L385.454 337.521C385.937 337.415 386.442 337.492 386.872 337.737L395.483 342.636C395.784 342.808 396.125 342.898 396.472 342.898H408.545L401.039 368.758L408.545 398.312V412.836C408.545 421.824 402.826 429.815 394.318 432.714L389.286 434.429C385.945 435.567 382.332 435.637 378.949 434.629L352.15 426.645C350.419 426.129 348.761 425.392 347.218 424.451L331.606 414.937L326.97 412.863C316.356 408.113 305.107 404.932 293.577 403.419L254.667 398.312L240.015 394.831C232.174 392.968 225.791 387.294 223.023 379.725L219.852 371.054C219.293 369.527 218.891 367.948 218.652 366.34L215.467 344.918C214.09 335.656 210.92 326.752 206.134 318.704L197.045 303.421C192.999 296.617 190.863 288.847 190.863 280.931Z" fill="#F2F7F2"/>
<path d="M228.124 249.661H177.187L186.448 256.165V288.685L169.778 281.252H153.108L144.773 288.685L153.108 292.401L177.187 295.189L190.153 309.125L193.857 321.204H180.892H148.963C136.366 321.204 123.845 319.261 111.84 315.442L105.154 313.315C96.4362 310.542 88.2495 306.316 80.9394 300.816C75.9701 297.077 71.4466 292.779 67.4579 288.008L66.1401 286.432C55.1555 273.292 47.7651 257.529 44.6903 240.681L39.9976 214.969C38.2307 205.288 37.3418 195.466 37.3418 185.625V179.408C37.3418 153.056 44.6953 127.227 58.5749 104.826C72.5398 82.288 92.5519 64.1234 116.333 52.4001L135.697 42.8546C143.722 38.8986 152.271 36.1094 161.085 34.5715C166.416 33.6413 171.818 33.1736 177.23 33.1736L199.678 33.1736C211.819 33.1736 223.928 34.4087 235.819 36.8599L267.531 43.3974C279.508 45.8663 291.2 49.5566 302.424 54.4102L317.508 60.933C331.831 67.1266 344.604 76.4158 354.909 88.1332C362.938 97.2621 369.331 107.708 373.807 119.012L387.962 154.757C391.676 164.137 390.496 174.749 384.811 183.083C382.889 185.902 381.861 189.234 381.861 192.645V193.759C381.861 198.087 383.226 202.306 385.762 205.814L390.789 212.768L388.684 227.157C387.282 236.741 389.802 246.487 395.674 254.191L398.531 257.939L393.901 272.889L414.276 321.204L405.94 334.212H393.901L386.492 330.495V334.212L378.157 330.495H367.043H361.486L355.003 327.708H348.521L344.816 321.204H329.998L326.293 316.559H321.663L312.402 309.125H305.919L301.288 295.189H293.879L285.544 288.685L291.155 279.928C292.655 277.587 291.957 274.472 289.601 272.994L279.061 266.385V259.882H289.117C292.261 259.882 295.374 260.499 298.28 261.7L300.66 262.683C306.331 265.025 310.644 269.798 312.402 275.677L321.663 288.685V282.922C321.663 276.472 319.229 270.26 314.848 265.526C311.44 261.844 307.026 259.244 302.153 258.05L271.82 250.611C269.248 249.98 266.609 249.661 263.96 249.661H228.124Z" fill="#F2F7F2"/>
<path opacity="0.8" d="M365.287 190.23V178.814C365.287 176.053 363.048 173.814 360.287 173.814H352.012H342.011C337.041 173.814 332.232 175.577 328.439 178.789L316.3 189.069C311.588 193.059 308.871 198.921 308.871 205.095V219.738C308.871 224.544 310.52 229.205 313.542 232.942L316.041 236.033C317.839 238.256 320.37 239.771 323.188 240.254C329.247 241.294 337.48 242.556 340.951 242.556C345.375 242.556 356.068 232.296 360.862 227.166L370.666 213.113C372.205 210.907 373.03 208.282 373.03 205.592C373.03 202.937 372.226 200.345 370.724 198.155L365.287 190.23Z" fill="#171717"/>
<mask id="mask1" mask-type="alpha" maskUnits="userSpaceOnUse" x="59" y="51" width="317" height="242">
<path opacity="0.6" d="M282.998 238.098L281.663 238.32L202.737 241.748C200.451 241.847 199.468 244.694 201.206 246.182C202.148 246.989 202.364 248.36 201.715 249.417L186.427 274.301C180.942 283.229 171.904 289.388 161.589 291.228L159.049 291.681C154.278 292.532 149.397 292.56 144.617 291.764L121.815 287.969C108.775 285.798 96.738 279.609 87.3849 270.267C82.1748 265.063 77.9101 258.992 74.7816 252.326L71.7634 245.895C67.6746 237.182 64.8152 227.945 63.2671 218.446L61.493 207.561C59.9065 197.827 59.1094 187.98 59.1094 178.118V156.198C59.1094 148.627 60.2792 141.1 62.5774 133.886C64.5837 127.588 67.4301 121.59 71.0399 116.053L74.1319 111.31C85.5395 93.8115 101.486 79.7411 120.269 70.6014L127.73 66.9707L134.329 64.4241C156.936 55.6998 180.96 51.2251 205.193 51.2251C217.201 51.2251 229.184 52.324 240.992 54.5081L249.746 56.1274C265.41 59.0247 280.697 63.6813 295.316 70.0088L311.735 77.1151C323.131 82.0475 333.594 88.9024 342.667 97.3802L344.003 98.6288C353.055 107.087 360.434 117.173 365.754 128.361L371.63 140.715C374.06 145.826 375.321 151.414 375.321 157.073C375.321 165.321 372.644 173.346 367.691 179.942L356.668 194.622C352.426 200.272 347.554 205.42 342.147 209.968L339.91 211.85C323.634 225.54 303.978 234.606 282.998 238.098Z" fill="#858686"/>
</mask>
<g mask="url(#mask1)">
<path opacity="0.6" d="M282.998 238.098L281.663 238.32L202.737 241.748C200.451 241.847 199.468 244.694 201.206 246.182C202.148 246.989 202.364 248.36 201.715 249.417L186.427 274.301C180.942 283.229 171.904 289.388 161.589 291.228L159.049 291.681C154.278 292.532 149.397 292.56 144.617 291.764L121.815 287.969C108.775 285.798 96.738 279.609 87.3849 270.267C82.1748 265.063 77.9101 258.992 74.7816 252.326L71.7634 245.895C67.6746 237.182 64.8152 227.945 63.2671 218.446L61.493 207.561C59.9065 197.827 59.1094 187.98 59.1094 178.118V156.198C59.1094 148.627 60.2792 141.1 62.5774 133.886C64.5837 127.588 67.4301 121.59 71.0399 116.053L74.1319 111.31C85.5395 93.8115 101.486 79.7411 120.269 70.6014L127.73 66.9707L134.329 64.4241C156.936 55.6998 180.96 51.2251 205.193 51.2251C217.201 51.2251 229.184 52.324 240.992 54.5081L249.746 56.1274C265.41 59.0247 280.697 63.6813 295.316 70.0088L311.735 77.1151C323.131 82.0475 333.594 88.9024 342.667 97.3802L344.003 98.6288C353.055 107.087 360.434 117.173 365.754 128.361L371.63 140.715C374.06 145.826 375.321 151.414 375.321 157.073C375.321 165.321 372.644 173.346 367.691 179.942L356.668 194.622C352.426 200.272 347.554 205.42 342.147 209.968L339.91 211.85C323.634 225.54 303.978 234.606 282.998 238.098Z" fill="#989898" stroke="#022433"/>
<path d="M309.276 80.3024L310.858 78.5934C315.673 73.3934 323.883 73.3528 328.749 78.5051C329.245 79.0304 329.787 79.5108 330.368 79.9407L336.672 84.6057C350.739 95.0153 361.85 108.912 368.909 124.924L375.889 140.757C379.656 149.301 381.288 158.632 380.646 167.947C379.14 189.785 365.382 208.88 345.143 217.222L307.896 232.574C298.276 236.539 288.182 239.234 277.866 240.591L257.911 243.217C252.622 243.913 247.244 243.37 242.2 241.63L237.21 239.91C234.622 239.017 232.323 237.443 230.555 235.354L229.799 234.46C227.963 232.29 226.955 229.539 226.955 226.697C226.955 222.041 229.644 217.804 233.856 215.822L234.157 215.68C235.827 214.894 237.651 214.487 239.497 214.487H244.745C248.115 214.487 251.438 215.271 254.452 216.778C257.466 218.285 260.789 219.069 264.158 219.069H266.494C269.13 219.069 271.751 218.51 274.16 217.439C278.417 215.547 281.842 212.124 283.718 207.861C285.872 202.966 285.829 197.384 283.601 192.523L282.577 190.289C281.421 187.765 279.537 185.644 277.169 184.196L272.979 181.636C271.434 180.692 270.492 179.011 270.492 177.201C270.492 175.771 271.081 174.404 272.12 173.422L277.802 168.056C279.787 166.181 281.428 163.972 282.649 161.529L293.405 140.017L295.769 134.744C299.147 127.208 301.67 119.316 303.29 111.218L304.801 103.663C305.223 101.553 305.435 99.4063 305.435 97.2546V90.1032C305.435 86.4691 306.807 82.9689 309.276 80.3024Z" fill="#253033"/>
<path d="M153.048 47.2277L161.374 35.9627C166.4 29.163 176.873 30.2274 180.428 37.899C182.251 41.8333 186.193 44.351 190.529 44.351H246.247C252.032 44.351 257.753 45.5756 263.032 47.9443L276.443 53.9622C290.598 60.3139 299.706 74.3833 299.706 89.8981C299.706 92.3711 299.473 94.8387 299.01 97.2681L296.091 112.595C293.93 123.937 290.074 134.889 284.652 145.083L278.51 156.629L276.165 160.364C268.905 171.927 253.672 175.46 242.062 168.273C240.05 167.028 237.73 166.368 235.363 166.368H224.271C219.976 166.368 215.708 167.042 211.622 168.367L196.593 173.242C189.928 174.981 183.418 169.951 183.418 163.062V143.576C183.418 131.38 181.154 119.289 176.742 107.919L171.046 93.2421C169.381 88.9506 166.886 85.0295 163.704 81.703L154.633 72.2192C148.094 65.3838 147.425 54.8344 153.048 47.2277Z" fill="#383E42"/>
<path d="M155.864 183.92L150.371 188.347C147.648 190.541 145.58 193.439 144.389 196.726C140.905 206.342 130.474 211.518 120.71 208.474L94.0533 200.166L85.5544 197.592C68.1006 192.306 53.0617 181.05 43.0699 165.795C37.6213 158.154 36.586 148.212 40.3433 139.613L62.8545 88.089C71.2366 68.904 90.6939 56.9823 111.593 58.2263C125.171 59.0346 137.832 65.3451 146.651 75.7002L151.721 81.6524C156.848 87.6729 160.891 94.5381 163.669 101.942L167.334 111.71C170.785 120.907 173.164 130.472 174.426 140.215L177.023 160.271C177.171 161.412 177.211 162.564 177.142 163.712L176.765 170.041C176.372 176.646 170.699 181.682 164.094 181.289C161.119 181.112 158.185 182.05 155.864 183.92Z" fill="#6F7E85"/>
<path d="M64.7315 226.376L63.8195 222.299C60.7718 208.674 73.9012 197.015 87.0705 201.652L147.192 222.822C148.759 223.374 150.261 224.095 151.671 224.973C157.61 228.669 161.525 234.886 162.293 241.839L164.725 263.858C165.944 274.896 159.412 285.323 148.948 289.043C144.889 290.486 140.514 290.807 136.287 289.972L118.059 286.369C105.943 283.974 94.8097 278.036 86.0711 269.307C80.2279 263.471 75.6018 256.533 72.4611 248.895L69.7368 242.27C67.6206 237.124 65.9461 231.807 64.7315 226.376Z" fill="#485760"/>
</g>
<path opacity="0.7" d="M364.759 204.175C364.759 220.797 350.774 234.286 333.503 234.286C316.231 234.286 302.246 220.797 302.246 204.175C302.246 187.554 316.231 174.064 333.503 174.064C350.774 174.064 364.759 187.554 364.759 204.175Z" fill="#E1E7EA" stroke="white" stroke-width="0.5"/>
<line x1="396.119" y1="342.539" x2="392.813" y2="354.659" stroke="#247BA0" stroke-width="0.5" stroke-linecap="round"/>
<line x1="375.496" y1="337.956" x2="372.19" y2="350.076" stroke="#247BA0" stroke-width="0.5" stroke-linecap="round"/>
<line x1="358.312" y1="334.519" x2="355.007" y2="346.639" stroke="#247BA0" stroke-width="0.5" stroke-linecap="round"/>
<line x1="297.589" y1="310.459" x2="294.284" y2="322.58" stroke="#247BA0" stroke-width="0.5" stroke-linecap="round"/>
<line x1="341.127" y1="332.227" x2="337.821" y2="344.348" stroke="#247BA0" stroke-width="0.5" stroke-linecap="round"/>
<line x1="326.232" y1="326.499" x2="322.927" y2="338.619" stroke="#247BA0" stroke-width="0.5" stroke-linecap="round"/>
<line x1="310.193" y1="320.771" x2="306.887" y2="332.891" stroke="#247BA0" stroke-width="0.5" stroke-linecap="round"/>
<line x1="375.496" y1="319.625" x2="372.19" y2="331.745" stroke="#247BA0" stroke-width="0.5" stroke-linecap="round"/>
<line x1="390.39" y1="319.625" x2="387.085" y2="331.745" stroke="#247BA0" stroke-width="0.5" stroke-linecap="round"/>
<line x1="358.312" y1="316.188" x2="355.007" y2="328.308" stroke="#247BA0" stroke-width="0.5" stroke-linecap="round"/>
<line x1="302.172" y1="289.837" x2="298.866" y2="301.957" stroke="#247BA0" stroke-width="0.5" stroke-linecap="round"/>
<line x1="346.853" y1="311.605" x2="343.548" y2="323.725" stroke="#247BA0" stroke-width="0.5" stroke-linecap="round"/>
<line x1="329.67" y1="305.877" x2="326.364" y2="317.997" stroke="#247BA0" stroke-width="0.5" stroke-linecap="round"/>
<line x1="314.775" y1="300.148" x2="311.469" y2="312.268" stroke="#247BA0" stroke-width="0.5" stroke-linecap="round"/>
<ellipse cx="358.136" cy="204.748" rx="6.87417" ry="14.894" fill="#08090A"/>
<path d="M156.796 298.739L154.646 307.778C154.293 309.26 153.768 310.696 153.081 312.056C151.563 315.06 150.849 318.406 151.009 321.768L152.44 351.776L153.124 366.133C153.226 368.268 153.1 370.408 152.747 372.516L145.907 413.364C145.331 416.804 144.159 420.117 142.445 423.155L134.286 437.609C132.68 440.455 131.55 443.545 130.939 446.756L126.419 470.55L121.825 494.729C121.296 497.513 122.208 500.376 124.251 502.341C129.144 507.045 137.308 504.293 138.353 497.586L142.431 471.418C142.64 470.078 142.971 468.76 143.42 467.481L160.611 418.564L167.26 393.048C168.314 389.003 168.511 384.783 167.838 380.657L167.183 376.638L165.741 359.518C165.585 357.676 165.601 355.823 165.787 353.983L167.183 340.174L167.948 335.937C168.55 332.598 169.715 329.386 171.391 326.437L176.378 317.667C177.391 315.885 178.154 313.973 178.647 311.983L180.619 304.017C181.421 300.776 183.967 298.254 187.215 297.483C189.212 297.009 190.984 295.861 192.232 294.233L195.869 289.489C197.068 287.926 198.083 286.23 198.895 284.436L201.752 278.117C202.818 275.76 203.369 273.202 203.369 270.615V267.047C203.369 263.043 201.323 259.317 197.944 257.168L197.181 256.682C195.131 255.379 192.658 254.914 190.275 255.386C188.211 255.794 186.802 253.357 188.185 251.772L189.534 250.227C190.044 249.642 190.618 249.116 191.244 248.657L195.912 245.237C197.836 243.827 200.528 244.176 202.028 246.031C202.876 247.08 204.153 247.69 205.503 247.69H208.408C211.58 247.69 214.584 246.263 216.589 243.804L218.21 241.816C220.53 238.969 221.798 235.408 221.798 231.735V231.587C221.798 228.465 220.905 225.408 219.226 222.777L216.532 218.558C212.191 211.758 205.259 207.026 197.345 205.46L194.369 204.871C190.2 204.047 185.878 204.557 182.017 206.331C179.742 207.376 177.681 208.834 175.939 210.632L173.815 212.825C171.887 214.816 170.536 217.293 169.906 219.993C169.223 222.923 167.69 225.587 165.5 227.65L164.223 228.853C162.636 230.348 160.781 231.528 158.754 232.33L158.12 232.581C157.241 232.929 156.407 233.383 155.637 233.933L153.349 235.568C151.727 236.726 150.765 238.597 150.765 240.59C150.765 241.969 151.226 243.308 152.076 244.394L154.785 247.856C157.391 251.185 158.806 255.291 158.806 259.518V266.253V282.662C158.806 284.096 158.703 285.529 158.498 286.949L156.796 298.739Z" fill="#6A757A" stroke="white" stroke-width="0.25"/>
<path d="M160.34 221.08L161.717 220.003C163.903 218.292 165.551 215.988 166.465 213.367L166.576 213.046C166.892 212.141 167.29 211.266 167.766 210.433L168.096 209.856C169.803 206.869 172.164 204.306 175.001 202.359L176.296 201.47C179.355 199.372 182.858 198.01 186.532 197.494L187.225 197.396C190.929 196.875 194.703 197.227 198.246 198.423L203.776 200.29L209.486 202.769C213.225 204.392 216.107 207.515 217.425 211.372L218.147 213.484C218.27 213.845 218.462 214.179 218.711 214.468C220.378 216.398 223.541 215.477 223.912 212.954L225.206 204.152C225.256 203.812 225.281 203.469 225.281 203.126V202.587C225.281 198.962 223.108 195.689 219.766 194.283L206.133 188.547C205.294 188.194 205.325 186.995 206.181 186.685L209.083 185.635C211.701 184.688 214.464 184.204 217.247 184.204H223.559C226.016 184.204 228.459 184.581 230.802 185.323L237.854 187.555L251.419 193.923L253.184 195.018C257.415 197.645 257.915 203.608 254.181 206.903C252.795 208.125 252.961 210.333 254.514 211.334L255.986 212.282C257.756 213.424 259.818 214.031 261.925 214.031H268.395C269.862 214.031 271.32 213.802 272.716 213.352C276.044 212.279 278.854 210.006 280.6 206.976L281.29 205.777C282.096 204.378 282.52 202.792 282.52 201.177C282.52 198.296 281.172 195.58 278.878 193.837L270.609 187.555L264.622 183.737C262.668 182.491 260.544 181.534 258.316 180.897L236.788 174.74C234.642 174.126 232.42 173.814 230.188 173.814H217.23C214.457 173.814 211.706 174.295 209.098 175.234L198.151 179.177L179.374 185.97C176.486 187.014 173.407 187.424 170.347 187.171L168.487 187.017C162.433 186.517 156.538 189.116 152.824 193.923L150.243 197.233C148.666 199.258 147.43 201.526 146.586 203.95L145.197 207.936C144.351 210.363 144.351 213.006 145.197 215.434L145.662 216.769C146.979 220.547 150.542 223.079 154.544 223.079C156.645 223.079 158.686 222.376 160.34 221.08Z" fill="#3D484D"/>
<path d="M218.747 186.417H216.244C214.811 186.417 213.382 186.57 211.981 186.874C210.896 187.109 210.82 188.627 211.875 188.971L217.108 190.672L223.147 192.636L225.673 193.804C228.02 194.888 229.522 197.238 229.522 199.823V200.086C229.522 200.573 229.45 201.056 229.307 201.521L227.615 207.024C226.879 209.418 229.501 211.446 231.633 210.132C231.791 210.035 231.959 209.954 232.134 209.89L238.57 207.565C240.132 207.001 241.779 206.712 243.44 206.712H247.448C249.469 206.712 251.37 205.754 252.572 204.13L253.369 203.053C254.376 201.694 254.492 199.871 253.667 198.395C253.239 197.63 252.587 197.013 251.798 196.629L243.214 192.441C241.694 191.699 240.121 191.07 238.509 190.557L231.928 188.463C227.665 187.107 223.22 186.417 218.747 186.417Z" fill="white"/>
</g>
</svg>
