<svg width="445" height="445" viewBox="0 0 445 445" fill="none" xmlns="http://www.w3.org/2000/svg">
<mask id="mask0" mask-type="alpha" maskUnits="userSpaceOnUse" x="0" y="0" width="445" height="445">
<circle cx="222.174" cy="222.174" r="222.174" fill="#F9AC34"/>
</mask>
<g mask="url(#mask0)">
<path d="M127.308 220.674L81.5 -3.5L265 -25.5L369 25.5L362.5 280.5L369 498.5L45.5 556L40 450L73 375L109.299 318.039C127.708 289.151 134.166 254.237 127.308 220.674Z" fill="white" fill-opacity="0.4"/>
<path d="M188.076 -10.5094L175.619 -2.3126C174.382 -1.49828 173.924 0.0974349 174.542 1.44401L178.571 10.23C179.103 11.3914 180.313 12.088 181.585 11.9657L185.836 11.5568C186.962 11.4486 187.931 10.7164 188.343 9.6631L189.558 6.55622C189.869 5.76008 190.505 5.13455 191.307 4.83669L207.628 -1.23051C208.441 -1.5327 209.345 -1.46831 210.107 -1.05392L215.557 1.91062C216.415 2.37717 217.482 2.1814 218.118 1.44075C219.308 0.0560928 221.577 0.775357 221.752 2.59248L221.821 3.31247C221.91 4.23948 222.532 5.02933 223.412 5.33378L226.476 6.3937C228.044 6.9359 229.754 6.10342 230.294 4.53527L232.126 -0.786752C232.631 -2.25289 234.17 -3.09271 235.676 -2.72398L246.354 -0.109695L251.408 0.956832C253.201 1.33536 254.912 0.0310369 255.022 -1.79875L255.86 -15.7631C255.917 -16.7135 255.52 -17.6346 254.789 -18.245L241.153 -29.6381C240.033 -30.5738 238.403 -30.5679 237.289 -29.6241L224.161 -18.4926C223.32 -17.7792 222.155 -17.5851 221.128 -17.987L216.42 -19.8295C215.418 -20.2216 214.282 -20.047 213.444 -19.3719L209.817 -16.4493C209.48 -16.1778 209.088 -15.9824 208.669 -15.8765L188.991 -10.9122C188.666 -10.8301 188.357 -10.6939 188.076 -10.5094Z" fill="#F2F7F2"/>
<path d="M195.139 93.1626L182.69 101.355C181.452 102.169 180.994 103.765 181.612 105.111L185.641 113.897C186.173 115.059 187.383 115.755 188.655 115.633L192.907 115.224C194.032 115.116 195.002 114.384 195.413 113.331L196.628 110.224C196.94 109.428 197.576 108.802 198.377 108.504L214.698 102.437C215.511 102.135 216.415 102.199 217.177 102.614L222.628 105.578C223.485 106.045 224.552 105.849 225.189 105.108C226.378 103.724 228.648 104.443 228.822 106.26L228.892 106.98C228.981 107.907 229.602 108.697 230.482 109.001L233.547 110.061C235.114 110.603 236.824 109.771 237.364 108.203L239.196 102.881C239.701 101.415 241.24 100.575 242.746 100.944L253.155 103.492C253.334 103.536 253.517 103.563 253.702 103.573L268.236 104.38C269.459 104.448 270.455 103.41 270.337 102.191L268.91 87.3509C268.819 86.4014 268.282 85.5519 267.463 85.0627L247.839 73.3386C246.884 72.7677 245.691 72.7728 244.74 73.3519L231.303 81.5374C230.143 82.2442 228.653 82.0831 227.671 81.1448L223.746 77.396C222.365 76.0777 220.121 76.3665 219.12 77.9913L213.163 87.656C212.75 88.3256 212.091 88.8063 211.327 88.9946L196.07 92.756C195.739 92.8376 195.424 92.9751 195.139 93.1626Z" fill="#F2F7F2"/>
<path d="M198.806 130.448L186.692 138.42C185.286 139.345 184.916 141.246 185.873 142.631L188.178 145.967C188.797 146.862 189.851 147.352 190.934 147.248L200.016 146.375C200.471 146.331 200.911 146.183 201.301 145.943L214.226 137.988C215.149 137.42 216.307 137.394 217.255 137.92L226.216 142.896C227.073 143.372 228.147 143.18 228.787 142.436C229.974 141.054 232.238 141.772 232.412 143.585L232.482 144.316C232.571 145.243 233.193 146.033 234.073 146.337L237.137 147.397C238.705 147.939 240.415 147.107 240.955 145.539L242.787 140.217C243.292 138.75 244.831 137.911 246.337 138.279L256.745 140.828C256.925 140.872 257.108 140.899 257.293 140.909L271.826 141.716C273.049 141.783 274.045 140.746 273.928 139.527L271.986 119.33C271.827 117.68 270.362 116.472 268.712 116.63L261.566 117.318C260.705 117.401 259.85 117.108 259.22 116.514L250.928 108.693C249.85 107.677 248.192 107.6 247.024 108.511L236.245 116.921C235.082 117.829 233.431 117.756 232.352 116.748L227.056 111.8C225.672 110.507 223.45 110.804 222.455 112.416L218.504 118.817C218.011 119.616 217.172 120.137 216.238 120.227L208.146 121.005C207.373 121.08 206.659 121.451 206.154 122.041L199.437 129.893C199.254 130.107 199.041 130.294 198.806 130.448Z" fill="#F2F7F2"/>
<path d="M193.561 164.597L186.137 173.063C185.22 174.108 185.141 175.647 185.947 176.78L188.757 180.73C189.379 181.604 190.42 182.08 191.489 181.977L200.281 181.132C201.157 181.048 201.952 180.583 202.456 179.86L209.392 169.9C210.433 168.406 212.554 168.176 213.891 169.412L222.488 177.364C223.442 178.246 224.854 178.414 225.988 177.781L229.914 175.588C231.804 174.533 234.156 175.765 234.363 177.92L234.418 178.487C234.531 179.668 235.331 180.672 236.457 181.046L239.396 182.024C240.943 182.539 242.618 181.724 243.168 180.188L245.13 174.706C245.644 173.27 247.154 172.448 248.64 172.796L259.523 175.348C259.698 175.389 259.876 175.414 260.056 175.424L275.152 176.191C276.371 176.253 277.361 175.217 277.244 174.002L275.301 153.793C275.143 152.144 273.677 150.936 272.028 151.094L264.482 151.82C263.638 151.901 262.798 151.621 262.172 151.048L253.519 143.142C252.45 142.166 250.837 142.092 249.684 142.966L238.317 151.576C237.168 152.447 235.562 152.377 234.493 151.409L228.835 146.288C227.459 145.042 225.293 145.333 224.294 146.897L220.461 152.898C219.767 153.984 218.457 154.505 217.207 154.193L204.624 151.055C203.37 150.743 202.057 151.268 201.365 152.359L193.839 164.226C193.757 164.356 193.664 164.481 193.561 164.597Z" fill="#F2F7F2"/>
<path d="M193.498 201.25L185.476 210.397C184.781 211.189 184.553 212.289 184.875 213.292L185.435 215.035C186.087 217.064 188.587 217.786 190.22 216.416L193.889 213.337C194.354 212.947 194.926 212.707 195.53 212.649L209.199 211.334C210.121 211.246 210.95 210.737 211.445 209.955L216.381 202.173C217.681 200.122 220.751 200.385 221.684 202.627L226.415 213.994C226.787 214.888 227.568 215.548 228.513 215.765L230.184 216.149C230.994 216.335 231.845 216.177 232.534 215.712L236.266 213.195C236.681 212.915 237.159 212.744 237.657 212.696L242.99 212.183C243.315 212.152 243.643 212.174 243.962 212.249L256.754 215.248C257.072 215.323 257.4 215.345 257.726 215.314L271.361 214.003C272.412 213.901 273.204 213.001 273.169 211.945L272.569 193.95C272.511 192.221 271.006 190.898 269.283 191.064L261.255 191.836C260.826 191.877 260.393 191.826 259.986 191.685L247.828 187.476C247.609 187.4 247.382 187.35 247.151 187.326L233.453 185.931C233.063 185.891 232.685 185.775 232.339 185.59L225.862 182.117C224.601 181.442 223.039 181.749 222.129 182.853L217.135 188.909C216.387 189.817 215.177 190.203 214.041 189.898L205.969 187.725C204.783 187.406 203.522 187.842 202.786 188.826L193.498 201.25Z" fill="#F2F7F2"/>
<path d="M188.457 236.518L180.435 245.664C179.74 246.457 179.512 247.556 179.834 248.56L180.394 250.303C181.046 252.332 183.546 253.054 185.179 251.684L188.848 248.605C189.313 248.215 189.885 247.975 190.489 247.916L204.158 246.602C205.08 246.513 205.909 246.004 206.404 245.223L211.34 237.44C212.64 235.39 215.71 235.653 216.643 237.894L221.374 249.261C221.746 250.156 222.527 250.815 223.472 251.032L225.143 251.417C225.953 251.603 226.804 251.445 227.493 250.98L231.225 248.463C231.64 248.183 232.118 248.011 232.616 247.964L237.949 247.451C238.274 247.419 238.602 247.441 238.921 247.516L251.985 250.58C252.124 250.612 252.265 250.635 252.407 250.647L266.359 251.874C267.403 251.966 268.34 251.237 268.509 250.203L272.084 228.251C272.417 226.207 270.628 224.448 268.591 224.816L256.335 227.027C255.829 227.118 255.308 227.078 254.821 226.909L242.787 222.744C242.568 222.668 242.341 222.617 242.11 222.594L228.412 221.198C228.022 221.159 227.644 221.043 227.298 220.858L220.821 217.385C219.56 216.709 217.998 217.017 217.088 218.12L212.094 224.177C211.346 225.085 210.136 225.471 209 225.165L200.928 222.993C199.742 222.673 198.481 223.11 197.745 224.093L188.457 236.518Z" fill="#F2F7F2"/>
<path d="M183.146 275.008L175.41 283.828C174.715 284.621 174.487 285.72 174.81 286.724L175.369 288.467C176.021 290.496 178.522 291.217 180.154 289.848L184.256 286.406C184.443 286.249 184.648 286.116 184.867 286.008L195.122 280.996C195.445 280.838 195.794 280.739 196.152 280.705L206.105 279.748C206.908 279.671 207.645 279.274 208.152 278.646L214.507 270.777C216.145 268.749 219.413 269.632 219.806 272.209L222.327 288.727C222.542 290.135 223.718 291.198 225.141 291.27L232.284 291.634C232.685 291.654 233.086 291.594 233.463 291.457L238.134 289.757C238.372 289.671 238.62 289.615 238.872 289.59L246.824 288.826C247.053 288.804 247.284 288.808 247.512 288.839L264.046 291.071C265.204 291.227 266.248 290.361 266.31 289.195L267.541 266.011C267.643 264.078 265.917 262.556 264.012 262.899L251.311 265.191C250.804 265.282 250.283 265.242 249.797 265.073L237.763 260.908C237.543 260.832 237.316 260.781 237.085 260.758L223.7 259.394C223.111 259.334 222.553 259.101 222.096 258.724L216.021 253.715C214.612 252.554 212.502 252.909 211.551 254.468L207.305 261.431C206.482 262.781 204.751 263.26 203.351 262.525L194.623 257.949C193.102 257.152 191.224 257.79 190.505 259.349L183.614 274.287C183.494 274.549 183.336 274.792 183.146 275.008Z" fill="#F2F7F2"/>
<path d="M177.843 310.301L170.108 319.121C169.413 319.914 169.184 321.013 169.507 322.016L170.067 323.759C170.718 325.788 173.219 326.51 174.851 325.14L178.953 321.698C179.14 321.541 179.345 321.408 179.564 321.301L189.819 316.288C190.143 316.13 190.491 316.032 190.85 315.997L200.802 315.04C201.605 314.963 202.343 314.566 202.849 313.939L209.204 306.07C210.842 304.041 214.11 304.924 214.503 307.502L217.025 324.019C217.24 325.427 218.415 326.49 219.838 326.563L226.982 326.926C227.382 326.947 227.783 326.887 228.16 326.749L232.831 325.05C233.069 324.963 233.317 324.907 233.57 324.883L241.521 324.118C241.75 324.096 241.981 324.101 242.209 324.131L258.743 326.363C259.901 326.519 260.946 325.654 261.008 324.487L262.238 301.303C262.341 299.371 260.614 297.848 258.71 298.192L246.008 300.483C245.502 300.575 244.98 300.534 244.494 300.366L232.46 296.2C232.241 296.124 232.013 296.074 231.783 296.05L218.398 294.687C217.808 294.627 217.25 294.394 216.793 294.017L210.718 289.008C209.31 287.846 207.199 288.202 206.248 289.76L202.002 296.723C201.179 298.073 199.449 298.552 198.048 297.818L189.32 293.241C187.8 292.444 185.922 293.083 185.203 294.642L178.312 309.58C178.191 309.841 178.033 310.084 177.843 310.301Z" fill="#F2F7F2"/>
<path d="M173.536 386.077L164.881 395.946C164.75 396.095 164.667 396.28 164.641 396.476L162.701 411.323C162.415 413.511 165.363 414.482 166.433 412.553L174.47 398.064C174.768 397.527 175.224 397.094 175.776 396.824L185.512 392.065C185.836 391.907 186.185 391.808 186.543 391.774L196.496 390.817C197.298 390.739 198.036 390.342 198.542 389.715L204.897 381.846C206.535 379.817 209.803 380.7 210.197 383.278L212.718 399.796C212.933 401.204 214.108 402.267 215.531 402.339L222.675 402.703C223.075 402.723 223.476 402.663 223.853 402.526L228.524 400.826C228.763 400.739 229.011 400.683 229.263 400.659L237.214 399.894C237.443 399.872 237.674 399.877 237.903 399.908L254.436 402.139C255.594 402.296 256.639 401.43 256.701 400.263L257.931 377.079C258.034 375.147 256.307 373.625 254.403 373.968L241.701 376.26C241.195 376.351 240.674 376.311 240.187 376.142L228.153 371.976C227.934 371.9 227.707 371.85 227.476 371.827L214.091 370.463C213.502 370.403 212.943 370.17 212.486 369.793L206.411 364.784C205.003 363.623 202.892 363.978 201.942 365.537L197.695 372.499C196.872 373.85 195.142 374.329 193.741 373.594L185.013 369.018C183.493 368.22 181.615 368.859 180.896 370.418L174.005 385.356C173.884 385.618 173.726 385.861 173.536 386.077Z" fill="#F2F7F2"/>
<path d="M168.659 416.285L160.139 432.32C160.092 432.408 160.059 432.503 160.04 432.601L157.863 443.965C157.463 446.055 160.171 447.242 161.436 445.53L169.88 434.107C170.166 433.719 170.542 433.406 170.975 433.194L180.901 428.343C181.224 428.185 181.573 428.086 181.931 428.052L192.395 427.046C192.883 426.999 193.352 426.833 193.761 426.563L202.912 420.52C204.189 419.677 205.895 419.93 206.873 421.107L210.228 425.146C210.323 425.26 210.409 425.381 210.486 425.508L217.393 436.905C218.136 438.13 219.639 438.659 220.985 438.17L223.913 437.104C224.151 437.018 224.399 436.962 224.651 436.937L232.602 436.173C232.832 436.151 233.063 436.155 233.291 436.186L249.824 438.418C250.982 438.574 252.027 437.708 252.089 436.541L253.405 411.741C253.474 410.448 252.705 409.256 251.497 408.786L239.528 404.129C238.918 403.892 238.247 403.86 237.618 404.039L223.765 407.983C223.399 408.087 223.017 408.121 222.639 408.082L210.383 406.833C209.272 406.72 208.316 405.999 207.901 404.962L204.144 395.558C203.357 393.589 200.831 393.036 199.293 394.495L191.54 401.851C191.055 402.312 190.429 402.597 189.763 402.661L178.961 403.7C178.1 403.783 177.316 404.233 176.812 404.936L168.659 416.285Z" fill="#F2F7F2"/>
<path d="M175.342 345.527L167.302 357.582C166.995 358.043 166.822 358.579 166.801 359.132L166.428 368.876C166.423 369.005 166.401 369.133 166.361 369.256C165.853 370.847 168.02 371.869 168.925 370.465L172.537 364.859L179.255 355.174C179.442 354.904 179.673 354.666 179.937 354.471L185.202 350.581C185.902 350.064 186.791 349.876 187.64 350.066L198.438 352.48C199.36 352.686 200.325 352.446 201.043 351.831L211.625 342.772C213.647 341.042 216.754 342.605 216.569 345.26L215.452 361.277C215.335 362.952 216.616 364.396 218.292 364.482L224.827 364.814C225.228 364.835 225.629 364.774 226.006 364.637L230.677 362.938C230.915 362.851 231.163 362.795 231.415 362.771L239.367 362.006C239.596 361.984 239.827 361.989 240.055 362.019L256.589 364.251C257.747 364.407 258.791 363.542 258.853 362.375L260.084 339.191C260.186 337.259 258.46 335.736 256.555 336.08L243.854 338.371C243.347 338.463 242.826 338.422 242.34 338.254L230.306 334.088C230.086 334.012 229.859 333.962 229.628 333.938L216.332 332.584C215.688 332.518 215.082 332.246 214.606 331.808L206.908 324.732C205.423 323.367 203.042 323.826 202.171 325.645L199.531 331.166C198.767 332.761 196.797 333.353 195.281 332.443L183.152 325.166C181.337 324.077 178.996 325.159 178.649 327.246L175.805 344.354C175.735 344.773 175.577 345.173 175.342 345.527Z" fill="#F2F7F2"/>
<path d="M200.56 10.3818L189.955 19.9604C189.636 20.2487 189.383 20.6024 189.212 20.9973L185.456 29.6955C185.269 30.1284 185.194 30.6016 185.239 31.0711C185.417 32.9222 187.32 34.0865 189.049 33.4026L204.482 27.3001C204.647 27.2349 204.818 27.1844 204.992 27.1493L215.885 24.9499C216.459 24.834 216.986 24.5526 217.403 24.1404L218.19 23.3606C219.611 21.9526 221.985 22.3034 222.939 24.0621L224.346 26.6592C224.92 27.7181 226.072 28.3311 227.271 28.2158L228.696 28.0788C229.482 28.0032 230.208 27.62 230.714 27.0126L234.384 22.6064C235.169 21.663 236.451 21.2936 237.618 21.674L249.861 25.6631C250.448 25.8543 251.079 25.8599 251.669 25.6791L256.811 24.1036C258.457 23.5992 259.342 21.8157 258.748 20.1997L255.65 11.777C255.304 10.8354 254.51 10.1292 253.534 9.89524L243.734 7.54477L236.827 5.03287C235.286 4.47241 233.58 5.2533 232.997 6.78616L231.662 10.2992C231.152 11.6402 229.764 12.4326 228.35 12.1899L223.871 11.4211C223.728 11.3966 223.587 11.3617 223.449 11.3168L215.204 8.63026C214.812 8.50253 214.398 8.45697 213.988 8.49644L202.284 9.62189C201.642 9.68355 201.038 9.95 200.56 10.3818Z" fill="#F2F7F2"/>
<path d="M203.374 37.4063L188.502 44.6898C187.38 45.2394 186.716 46.4272 186.835 47.6712L187.392 53.4565C187.432 53.8734 187.559 54.2774 187.764 54.6423L189.269 57.3122C190.168 58.9069 192.273 59.3319 193.72 58.2109L204.347 49.978C204.493 49.8649 204.649 49.7656 204.814 49.6812L212.43 45.768C213.415 45.2617 214.599 45.3397 215.51 45.9708L217.131 47.0949C218.232 47.8578 219.723 47.7145 220.658 46.7558C221.959 45.4222 224.182 45.7452 225.049 47.3938L226.644 50.4242C227.211 51.5021 228.373 52.1301 229.586 52.0135L230.953 51.882C231.758 51.8046 232.498 51.4056 233.004 50.7755L236.636 46.2583C237.426 45.2755 238.746 44.8917 239.94 45.2977L252.122 49.4412C252.725 49.6465 253.379 49.6542 253.987 49.4632L259.804 47.6369C261.156 47.2122 262.027 45.8986 261.891 44.4875L261.026 35.4866C260.896 34.1378 259.878 33.0434 258.542 32.8162L246.246 30.7253C246.054 30.6928 245.867 30.6417 245.685 30.5729L239.098 28.0753C237.535 27.4825 235.789 28.282 235.216 29.8527L233.811 33.7056C233.345 34.9834 232.078 35.788 230.724 35.6658L227.234 35.3513C226.414 35.2773 225.66 34.8695 225.15 34.2233L222.164 30.4452C221.273 29.3166 219.705 28.9797 218.429 29.6423L212.838 32.5437L203.374 37.4063Z" fill="#F2F7F2"/>
<path d="M205.583 60.3824L190.711 67.6659C189.589 68.2155 188.925 69.4033 189.044 70.6473L189.601 76.4325C189.641 76.8495 189.768 77.2534 189.973 77.6184L191.478 80.2883C192.377 81.8829 194.482 82.308 195.929 81.187L206.556 72.9541C206.702 72.841 206.858 72.7417 207.023 72.6573L214.639 68.7441C215.624 68.2378 216.808 68.3158 217.719 68.9469L219.34 70.0709C220.441 70.8339 221.932 70.6905 222.867 69.7318C224.168 68.3983 226.391 68.7213 227.258 70.3698L228.853 73.4003C229.42 74.4782 230.582 75.1062 231.795 74.9896L233.162 74.8581C233.967 74.7807 234.707 74.3817 235.213 73.7515L238.845 69.2343C239.635 68.2516 240.955 67.8678 242.149 68.2738L254.331 72.4173C254.934 72.6225 255.588 72.6303 256.196 72.4393L262.013 70.6129C263.365 70.1883 264.236 68.8747 264.1 67.4635L263.235 58.4627C263.105 57.1139 262.087 56.0195 260.751 55.7923L248.455 53.7014C248.263 53.6688 248.076 53.6178 247.894 53.5489L241.307 51.0513C239.744 50.4586 237.998 51.2581 237.425 52.8288L236.02 56.6817C235.554 57.9595 234.287 58.764 232.933 58.6419L229.443 58.3274C228.623 58.2534 227.869 57.8455 227.359 57.1994L224.373 53.4213C223.482 52.2926 221.914 51.9558 220.638 52.6184L215.047 55.5198L205.583 60.3824Z" fill="#F2F7F2"/>
<path d="M186.338 438.697L170.852 441.173C167.535 441.703 164.8 444.057 163.782 447.258C163.419 448.402 163.29 449.608 163.405 450.802L164.057 457.58L162.522 461.58C158.11 463.743 155.5 468.413 155.97 473.304L156.198 475.672L157.225 480.87C157.758 483.563 157.056 486.353 155.313 488.474C154.316 489.688 153.772 491.212 153.776 492.784L153.853 521.164C155.046 533.57 166.132 539.053 166.793 545.924C171.24 552.238 177.405 556.46 177.405 556.46L185.105 556.365C187.045 556.34 188.452 554.509 187.976 552.628L185.815 544.094L180.692 509.171C180.402 507.196 180.843 505.183 181.933 503.51C183.011 501.854 184.563 500.561 186.386 499.801L207.583 490.956L212.504 488.076C216.893 485.507 219.99 481.202 221.031 476.224L221.477 474.09C222.259 470.35 221.758 466.455 220.055 463.035L219.499 461.919C217.695 458.295 214.882 455.27 211.398 453.207L207.908 451.141C206.373 450.233 205.185 448.836 204.535 447.175L202.994 443.242C198.354 439.402 192.285 437.747 186.338 438.697Z" fill="#F2F7F2"/>
<path opacity="0.9" d="M175.9 372.44L194.45 362.305C204.439 356.848 216.42 356.436 226.761 361.195L228.792 362.13C233.612 364.348 237.882 367.605 241.297 371.666L258.322 391.916C260.51 394.518 263.055 396.797 265.882 398.685L280.819 408.662C284.085 410.843 286.907 413.624 289.136 416.856C294.54 424.69 296.054 434.569 293.245 443.662L292.719 445.363C290.85 451.412 287.363 456.836 282.636 461.047L268.97 473.219C264.085 477.57 260.553 483.234 258.795 489.536L258.569 490.346C255.624 500.905 258.189 512.237 265.393 520.499L276.186 530.376C282.284 535.957 286.098 543.6 286.889 551.829L287.667 559.923C287.759 560.878 287.58 561.84 287.151 562.698C284.856 567.288 277.984 566.01 277.493 560.902L277.184 557.692C277.094 556.757 276.788 555.857 276.289 555.061L269.509 544.256C268.076 541.972 266.284 539.934 264.202 538.221L261.637 536.11C258.152 533.242 253.672 531.874 249.179 532.306C242.337 532.964 235.769 529.446 232.525 523.385L229.559 517.843C226.836 512.755 222.526 508.696 217.284 506.284L204.886 500.578C201.409 498.977 197.57 498.327 193.76 498.694C186.031 499.437 178.496 495.986 174.011 489.648L162.25 473.03L146.949 452.358C143.061 447.105 140.676 440.892 140.05 434.386L139.645 430.166C138.764 421.004 141.426 411.852 147.083 404.592L164.764 381.904C167.79 378.021 171.58 374.8 175.9 372.44Z" fill="#F2F7F2"/>
</g>
</svg>
