<svg width="445" height="445" viewBox="0 0 445 445" fill="none" xmlns="http://www.w3.org/2000/svg">
<mask id="mask0" mask-type="alpha" maskUnits="userSpaceOnUse" x="0" y="0" width="445" height="445">
<circle cx="222.174" cy="222.174" r="222.174" fill="#F9AC34"/>
</mask>
<g mask="url(#mask0)">
<mask id="mask1" mask-type="alpha" maskUnits="userSpaceOnUse" x="-39" y="-7" width="515" height="515">
<circle cx="218.5" cy="250.5" r="257.5" fill="#F9AC34"/>
</mask>
<g mask="url(#mask1)">
<path d="M175 26.5L167.5 1.5L224.5 -15L272 1.5L262 26.5V43.5H398L493 232L443.5 381L388 230.5V324.5L377 405L121 506L60 383.5L54 371L45.5 318L54 217L6.5 362.5L-67.5 296L-11.5 119L42.5 47L110.5 51.5L173.5 43.5L175 26.5Z" fill="white" fill-opacity="0.4"/>
<path d="M171.056 104.596L190.141 116.72C196.764 122.27 201.384 129.839 203.292 138.267L206.778 153.665L200.35 225.61L195.874 260.647C194.328 272.754 191.171 284.599 186.486 295.869L176.471 319.966C173.745 326.523 170.278 332.745 166.137 338.513L161.734 344.645C156.799 351.519 150.261 357.084 142.688 360.858L130.407 366.978C122.092 371.122 112.591 372.232 103.545 370.117C91.4004 367.279 81.2835 358.921 76.2033 347.531L75.0491 344.943C68.6934 330.693 66.0359 315.07 67.3227 299.52L69.8988 268.388L75.5706 232.221L79.929 212.926C82.812 200.163 87.1255 187.766 92.7875 175.97L99.014 162.998L117.542 132.275L131.065 112.267C136.086 104.838 144.468 100.386 153.435 100.386H156.578C161.706 100.386 166.727 101.846 171.056 104.596Z" fill="#91AEC1"/>
<path d="M263.675 104.596L244.589 116.72C237.967 122.27 233.347 129.839 231.439 138.267L227.952 153.665L234.38 225.61L238.856 260.647C240.403 272.754 243.56 284.599 248.244 295.869L258.26 319.966C260.985 326.523 264.452 332.745 268.593 338.513L272.996 344.645C277.931 351.519 284.469 357.084 292.043 360.858L304.323 366.978C312.638 371.122 322.139 372.232 331.185 370.117C343.33 367.279 353.447 358.921 358.527 347.531L359.681 344.943C366.037 330.693 368.695 315.07 367.408 299.52L364.832 268.388L359.16 232.221L354.801 212.926C351.918 200.163 347.605 187.766 341.943 175.97L335.716 162.998L317.189 132.275L303.666 112.267C298.644 104.838 290.263 100.386 281.296 100.386H278.152C273.025 100.386 268.003 101.846 263.675 104.596Z" fill="#91AEC1"/>
<path d="M205.933 197.179L202.247 203.301C202.156 203.452 202.077 203.612 202.011 203.776C198.741 211.922 197.441 220.822 198.286 229.56L198.572 232.521C200.815 245.183 208.559 256.198 219.716 262.593L223.507 264.766L238.644 281.485C239.812 282.776 241.391 283.624 243.112 283.885C251.827 285.209 260.634 282.155 266.658 275.72L271.889 270.132L274.824 256.071C276.256 249.212 276.101 242.115 274.372 235.324L273.658 232.521L270.514 226.448V222.599C270.514 216.201 268.408 209.981 264.523 204.899C259.736 198.638 252.617 194.583 244.79 193.658L240.451 193.146L239.82 190.487C238.762 186.027 235.18 182.607 230.677 181.755C228.076 181.264 225.387 181.586 222.976 182.678L221.458 183.366C215.002 186.29 209.588 191.108 205.933 197.179Z" fill="#E14E42" fill-opacity="0.8"/>
<path d="M37.1315 102.157L29.6967 104.139L23.2532 111.078L21.2706 126.444L23.2532 147.261L11.3575 196.331L-2.02511 242.427L-16.8947 284.061L-28.2947 304.383L-46.1383 327.183L-60.5122 341.062L-65.4688 355.931L-58.0339 363.366H-46.1383L-38.7035 365.844L-32.26 375.262L-24.3295 378.236L-11.9382 369.314V360.888L-16.8947 352.462V341.062L-11.9382 314.792L-6.48599 299.427L37.1315 172.539L52.4968 137.844L60.4272 131.4L62.9055 126.444V117.522L57.949 111.078L47.0446 104.139L37.1315 102.157Z" fill="white"/>
<path d="M64.3916 84.8087L53.9829 77.3739L44.5655 84.8087L39.1133 95.7131V101.661L58.9394 99.1827L70.3394 111.078L73.809 121.487L58.9394 138.835V151.226L67.3655 163.618L96.1134 141.313V135.861L102.557 129.913L105.035 116.035L102.557 104.139H90.1656L80.2525 107.609L73.809 101.661L64.3916 84.8087Z" fill="white"/>
<path d="M71.3515 73.4975L70.7987 73.8891C68.227 75.7108 67.9136 79.4086 70.142 81.6371C71.2095 82.7046 72.696 83.2428 74.1995 83.1061L88.1833 81.8349H140.723H174.427L184.34 77.374L189.792 71.4261L174.427 74.4001L150.636 71.4261H128.331L102.557 68.9479H85.6457C80.5249 68.9479 75.5303 70.5376 71.3515 73.4975Z" fill="white"/>
<path d="M400.445 102.157L407.879 104.139L414.323 111.078L416.306 126.444L414.323 147.261L426.219 196.331L439.601 242.427L454.471 284.061L465.871 304.383L483.714 327.183L498.088 341.062L503.045 355.931L495.61 363.366H483.714L476.28 365.844L469.836 375.262L461.906 378.236L449.514 369.314V360.888L454.471 352.462V341.062L449.514 314.792L444.062 299.427L400.445 172.539L385.079 137.844L377.149 131.4L374.671 126.444V117.522L379.627 111.078L390.532 104.139L400.445 102.157Z" fill="white"/>
<path d="M373.185 84.8087L383.593 77.3739L393.011 84.8087L398.463 95.7131V101.661L378.637 99.1827L367.237 111.078L363.767 121.487L378.637 138.835V151.226L370.211 163.618L341.463 141.313V135.861L335.019 129.913L332.541 116.035L335.019 104.139H347.411L357.324 107.609L363.767 101.661L373.185 84.8087Z" fill="white"/>
<path d="M366.225 73.4975L366.777 73.8891C369.349 75.7108 369.663 79.4086 367.434 81.6371C366.367 82.7046 364.88 83.2428 363.377 83.1061L349.393 81.8349H296.854H263.149L253.236 77.374L247.784 71.4261L263.149 74.4001L286.941 71.4261H309.245L335.019 68.9479H351.93C357.051 68.9479 362.046 70.5376 366.225 73.4975Z" fill="#F2F7F2"/>
<path d="M232.915 120H204.167L203.673 112.099C203.372 107.277 200.207 103.105 195.644 101.516L159.062 88.774L177.115 89.5421C180.496 89.686 183.814 88.6007 186.456 86.487L194.799 79.8124C197.747 77.4544 201.853 77.1862 205.082 79.1407L213.998 84.5373C216.801 86.2338 220.304 86.2731 223.144 84.64L232.882 79.0407C236.173 77.1486 240.297 77.5244 243.191 79.9803L250.528 86.2049C253.224 88.4933 256.688 89.676 260.221 89.5154L276.532 88.774L248.28 99.6783L241.569 101.627C236.442 103.115 232.915 107.812 232.915 113.151V120Z" fill="white"/>
<path d="M170.174 128.963L180.87 130.409H189.577C192.633 130.409 195.627 129.55 198.218 127.931V120.496H186.818L186.559 120.486C178.154 120.163 169.788 119.171 161.54 117.522L147.505 114.536C141.356 113.227 135.398 111.142 129.775 108.331L127.254 107.07C126.656 106.771 126.12 106.361 125.676 105.861C123.827 103.781 123.92 100.62 125.888 98.652L127.144 97.3955C127.932 96.6076 128.818 95.9245 129.781 95.3631C132.761 93.6248 135.998 92.3709 139.371 91.648L140.232 91.4636C140.888 91.3231 141.556 91.2522 142.227 91.2522H153.609L141.218 84.8087L133.151 88.3047C128.626 90.2653 124.298 92.6505 120.224 95.4283L117.243 97.4603C116.059 98.2679 115.069 99.3296 114.347 100.568L113.645 101.772C112.591 103.579 112.429 105.77 113.206 107.712C113.696 108.938 114.533 109.995 115.615 110.752L117.228 111.881C121.627 114.96 126.497 117.305 131.648 118.824L155.134 125.749C160.058 127.201 165.086 128.276 170.174 128.963Z" fill="white"/>
<path d="M82.9701 171.737L81.8471 170.54C78.868 167.362 79.2782 162.308 82.7306 159.652L89.6698 152.713L100.078 148.252L109 152.713L99.2061 155.83C98.4854 156.059 97.8583 156.515 97.4186 157.131C96.4103 158.543 96.688 160.497 98.0497 161.572L100.679 163.648C103.56 165.923 106.823 167.667 110.314 168.799L123.374 173.035L131.735 175.125C139.35 177.029 147.169 177.992 155.018 177.992H162.186C165.385 177.992 168.58 177.747 171.742 177.261C177.158 176.427 182.502 175.174 187.724 173.513L190.783 172.539L196.731 186.418H149.148L126.844 184.435L107.644 181.125C101.31 180.033 95.1589 178.061 89.3702 175.266L84.7118 173.017C84.0575 172.701 83.467 172.267 82.9701 171.737Z" fill="white"/>
<path d="M241.236 340.724L239.358 346.018L238.998 345.799C232.239 341.685 223.729 341.77 217.053 346.018L216.703 345.795C210.287 341.713 202.067 341.8 195.74 346.018L193.938 339.81C192.268 334.058 193.456 327.854 197.133 323.127L198.167 321.798C200.316 319.035 203.868 317.763 207.283 318.534C213.72 319.987 220.396 320.031 226.852 318.661L227.696 318.482C231.217 317.735 234.864 318.977 237.197 321.716L237.88 322.518C242.169 327.553 243.448 334.491 241.236 340.724Z" fill="white"/>
<path opacity="0.7" d="M191.436 324.082L147.247 359.962C139.573 366.193 130.29 370.12 120.474 371.289L116.599 371.75C115.204 371.916 113.795 371.922 112.399 371.767L94.4956 369.777C93.1643 369.629 92 370.671 92 372.011C92 373.147 92.8471 374.104 93.9743 374.242L113.151 376.59C115.373 376.862 117.622 376.823 119.833 376.474L124.325 375.765C131.702 374.6 138.775 371.985 145.136 368.07L195.147 337.294C198.7 335.108 202.526 333.398 206.525 332.209L207.27 331.987C214.949 329.704 223.1 329.525 230.873 331.468C237.535 333.134 243.724 336.31 248.961 340.752L271.164 359.582C277.318 364.801 284.51 368.654 292.264 370.886L309.715 375.91C312.235 376.636 314.806 377.169 317.406 377.506L339.09 380.317C339.987 380.433 340.891 380.161 341.575 379.569C343.793 377.646 342.434 374 339.497 374H315.627C314.22 374 312.823 373.754 311.501 373.273L294.242 366.997C285.227 363.719 277.184 358.218 270.861 351.005L248.5 325.5L242.789 318.724C230.492 304.135 207.915 304.467 196.053 319.413C194.689 321.132 193.14 322.698 191.436 324.082Z" fill="#91AEC1"/>
<path d="M103.033 141.487L102.117 140.491C99.6821 137.842 100.021 133.68 102.852 131.458L108.506 125.69L116.987 121.983L124.256 125.69C120.023 123.783 116.554 129.493 120.198 132.372L121.81 133.645C123.43 134.925 125.247 135.935 127.189 136.636L136.813 140.109L141.293 141.252C149.046 143.229 157.015 144.229 165.016 144.229H168.391C171.028 144.229 173.662 144.024 176.268 143.615C180.652 142.927 185.083 142.581 189.52 142.581H195.741V153.705H156.97L138.796 152.057L125.069 149.643C118.637 148.511 112.397 146.472 106.538 143.587L104.49 142.578C103.941 142.308 103.447 141.938 103.033 141.487Z" fill="white"/>
<path d="M78.7653 182.388V177.496L77.4136 178.848C73.8803 182.381 72.1356 187.323 72.668 192.292C73.0838 196.173 74.9003 199.768 77.7773 202.406L85.2088 209.218C94.354 214.444 104.516 217.642 115.006 218.595L126.348 219.627H166L189.296 217.148V206.244L166 209.218H147.661L126.348 206.244L104.044 200.792L91.0724 195.671C87.2204 194.151 83.7925 191.723 81.0802 188.593C79.5872 186.87 78.7653 184.667 78.7653 182.388Z" fill="white"/>
<path d="M267.402 128.963L256.706 130.409H247.999C244.943 130.409 241.949 129.55 239.358 127.931V120.496H250.758L251.017 120.486C259.422 120.163 267.788 119.171 276.036 117.522L290.071 114.536C296.22 113.227 302.178 111.142 307.801 108.331L310.322 107.07C310.92 106.771 311.456 106.361 311.9 105.861C313.749 103.781 313.656 100.62 311.688 98.652L310.432 97.3955C309.644 96.6076 308.758 95.9245 307.795 95.3631C304.815 93.6248 301.578 92.3709 298.205 91.648L297.344 91.4636C296.689 91.3231 296.02 91.2522 295.349 91.2522H283.967L296.358 84.8087L304.426 88.3047C308.95 90.2653 313.278 92.6505 317.353 95.4283L320.333 97.4603C321.517 98.2679 322.507 99.3296 323.229 100.568L323.931 101.772C324.985 103.579 325.147 105.77 324.371 107.712C323.88 108.938 323.043 109.995 321.961 110.752L320.348 111.881C315.949 114.96 311.079 117.305 305.929 118.824L282.442 125.749C277.518 127.201 272.49 128.276 267.402 128.963Z" fill="white"/>
<path d="M354.606 171.737L355.729 170.54C358.708 167.362 358.298 162.308 354.846 159.652L347.906 152.713L337.498 148.252L328.576 152.713L338.37 155.83C339.091 156.059 339.718 156.515 340.158 157.131C341.166 158.543 340.888 160.497 339.527 161.572L336.897 163.648C334.016 165.923 330.754 167.667 327.262 168.799L314.202 173.035L305.841 175.125C298.226 177.029 290.407 177.992 282.558 177.992H275.39C272.191 177.992 268.997 177.747 265.834 177.261C260.418 176.427 255.075 175.174 249.852 173.513L246.793 172.539L240.845 186.418H288.428L310.732 184.435L329.932 181.125C336.266 180.033 342.417 178.061 348.206 175.266L352.864 173.017C353.519 172.701 354.109 172.267 354.606 171.737Z" fill="white"/>
<path d="M334.544 141.487L335.459 140.491C337.894 137.842 337.556 133.68 334.725 131.458L329.07 125.69L320.589 121.983L313.32 125.69C317.554 123.783 321.023 129.493 317.379 132.372L315.766 133.645C314.146 134.925 312.329 135.935 310.387 136.636L300.763 140.109L296.283 141.252C288.53 143.229 280.561 144.229 272.56 144.229H269.185C266.548 144.229 263.914 144.024 261.309 143.615C256.925 142.927 252.493 142.581 248.056 142.581H241.835V153.705H280.607L298.781 152.057L312.507 149.643C318.94 148.511 325.179 146.472 331.038 143.587L333.086 142.578C333.635 142.308 334.129 141.938 334.544 141.487Z" fill="white"/>
<path d="M358.811 182.388V177.496L360.163 178.848C363.696 182.381 365.441 187.323 364.908 192.292C364.492 196.173 362.676 199.768 359.799 202.406L352.367 209.218C343.222 214.444 333.06 217.642 322.57 218.595L311.228 219.627H271.576L248.28 217.148V206.244L271.576 209.218H289.915L311.228 206.244L333.533 200.792L346.504 195.671C350.356 194.151 353.784 191.723 356.496 188.593C357.989 186.87 358.811 184.667 358.811 182.388Z" fill="white"/>
<path d="M198.219 378.19V359.153C198.219 357.101 199.101 355.129 200.62 353.748C205.569 349.249 213.021 348.685 218.541 352.462C223.79 348.67 230.942 348.918 235.917 353.063L236.601 353.634C238.348 355.089 239.358 357.246 239.358 359.52V378.159C239.358 381.4 237.133 384.218 233.979 384.968L218.541 388.644L203.56 384.99C200.425 384.226 198.219 381.417 198.219 378.19Z" fill="white"/>
<path d="M199.477 -14.372L198.701 -19.4342C198.134 -23.13 200.288 -26.7031 203.821 -27.9271C207.145 -29.0787 210.72 -29.3031 214.162 -28.5761L218.289 -27.7045L222.159 -28.5409C225.632 -29.2916 229.242 -29.1075 232.621 -28.0075C236.47 -26.7541 238.786 -22.8321 238.024 -18.8558L237.046 -13.7486C235.511 -5.73911 228.504 0.0520706 220.349 0.0520706H218.289H216.28C207.886 0.0520706 200.749 -6.07473 199.477 -14.372Z" fill="white"/>
<path d="M218.803 75.3913H210.636C206.346 75.3913 202.577 72.5454 201.402 68.4195C200.492 65.2207 202.529 61.9315 205.798 61.3216L207.443 61.0147C209.195 60.6879 210.986 60.6241 212.757 60.8255L218.803 61.513L224.7 60.8267C226.437 60.6245 228.195 60.6752 229.919 60.9773L231.648 61.2805C235.161 61.8963 237.275 65.524 236.079 68.8836C234.691 72.7854 230.998 75.3913 226.856 75.3913H218.803Z" fill="white"/>
<path d="M198.65 20.3585L197.763 14.6487C197.167 10.8141 199.409 7.10475 203.081 5.84988L204.513 5.36038C207.116 4.47103 209.847 4.01721 212.598 4.01721H218.278H223.972C226.567 4.01721 229.146 4.42115 231.616 5.21451L233.589 5.84796C237.446 7.08671 239.768 11.0135 238.996 14.9905L237.83 20.9897C236.278 28.9792 229.281 34.7477 221.142 34.7477H218.278H215.448C207.068 34.7477 199.937 28.6399 198.65 20.3585Z" fill="white"/>
<path d="M219.269 56.5565H212.241C206.145 56.5565 200.828 52.4189 199.329 46.5105C198.453 43.055 200.631 39.5654 204.12 38.8346L206.899 38.2526C208.585 37.8996 210.302 37.7217 212.024 37.7217H219.269H226.441C228.062 37.7217 229.679 37.8793 231.269 38.1923L234.284 38.7857C238.046 39.5261 240.326 43.3753 239.167 47.03C237.369 52.7023 232.104 56.5565 226.154 56.5565H219.269Z" fill="white"/>
<path d="M198.219 449.655V468.692C198.219 470.744 199.101 472.716 200.62 474.097C205.569 478.596 213.021 479.161 218.541 475.384C223.79 479.175 230.942 478.927 235.917 474.782L236.601 474.212C238.348 472.756 239.358 470.599 239.358 468.325V449.687C239.358 446.445 237.133 443.628 233.979 442.877L218.541 439.201L203.56 442.855C200.425 443.619 198.219 446.428 198.219 449.655Z" fill="white"/>
<path d="M197.723 403.064V422.101C197.723 424.153 198.605 426.125 200.124 427.505C205.073 432.004 212.524 432.569 218.044 428.792C223.294 432.584 230.446 432.336 235.421 428.19L236.105 427.62C237.852 426.164 238.862 424.008 238.862 421.734V403.095C238.862 399.854 236.637 397.036 233.483 396.285L218.044 392.609L203.064 396.263C199.929 397.028 197.723 399.837 197.723 403.064Z" fill="white"/>
<path d="M234.816 142.421L232.419 126.444C227.424 124.883 221.986 125.753 217.727 128.795L217.549 128.922L217.371 128.795C213.113 125.753 207.675 124.883 202.68 126.444L200.604 143.049C200.338 145.181 200.435 147.342 200.891 149.442L201.635 152.862C202.321 156.02 202.232 159.298 201.375 162.414L198.211 173.92C197.57 176.25 197.648 178.718 198.433 181.003L199.732 184.781C201.574 190.141 200.624 196.066 197.199 200.582L191.775 207.731L194.749 230.035V234.664C194.749 240.145 197.443 245.276 201.955 248.388C206.263 251.358 208.265 256.698 206.973 261.768L203.864 273.963C203.1 276.962 203.43 280.135 204.796 282.911L217.549 308.844L230.303 282.911C231.669 280.135 231.999 276.962 231.235 273.963L228.174 261.957C226.857 256.788 228.944 251.352 233.382 248.393C238.045 245.285 240.845 240.052 240.845 234.448V231.736C240.845 230.604 240.932 229.473 241.107 228.354L244.315 207.731L238.698 200.944C234.814 196.251 233.738 189.839 235.877 184.136L236.947 181.283C237.868 178.826 237.959 176.135 237.205 173.622L234.03 163.04C232.976 159.528 232.909 155.793 233.834 152.245L234.411 150.035C235.059 147.551 235.197 144.96 234.816 142.421Z" fill="white"/>
<path d="M91.7306 393.09L85.2157 400.211C83.9838 401.557 81.7401 400.686 81.7401 398.861V390.603C81.7401 381.487 83.8173 372.49 87.814 364.297L91.6531 356.427L78.2705 351.966L76.3466 357.31C74.6631 361.987 73.6212 366.87 73.2495 371.826L71.4418 395.928C71.057 401.059 72.9282 406.102 76.5662 409.74L77.2727 410.447C80.1331 413.307 84.0127 414.914 88.0579 414.914C93.0987 414.914 97.8139 412.423 100.656 408.26L117.427 383.688L193.588 284.389C195.018 282.525 196.226 280.5 197.187 278.356C200.392 271.206 200.696 263.09 198.035 255.72L195.74 249.366L160.98 277.609C159.019 279.202 156.088 277.806 156.088 275.28V273.843C156.088 266.779 159.077 260.044 164.315 255.305L166.497 253.331L189.793 240.94V234.496L179.246 236.756C177.028 237.231 174.853 237.885 172.741 238.712L163.657 242.266C156.69 244.993 149.274 246.392 141.793 246.392H111.701C106.958 246.392 102.246 245.627 97.7466 244.127C91.4523 242.029 85.7122 238.539 80.9532 233.916L75.1063 228.236C72.7424 225.94 72.6731 222.166 74.9511 219.785L78.5047 216.07C79.7216 214.798 78.8199 212.687 77.0594 212.687H68.5534C67.8215 212.687 67.1481 213.087 66.7976 213.73L64.2293 218.438C60.6913 224.925 61.1718 232.862 65.4662 238.874L68.0517 242.494C74.6336 251.709 84.3733 258.182 95.4176 260.683C101.438 262.046 107.671 262.188 113.747 261.099L130.015 258.186C134.683 257.35 139.388 259.449 141.884 263.481C143.371 265.883 143.927 268.746 143.447 271.531L142.779 275.408C142.086 279.426 140.166 283.131 137.283 286.014C129.916 293.381 119.149 296.205 109.114 293.401L97.5226 290.162C93.62 289.072 89.8402 287.582 86.243 285.717L80.8381 282.915C79.1344 282.031 77.5599 280.918 76.1584 279.607L72.3585 276.053C66.5239 270.594 64.1071 262.402 66.0448 254.651L67.3661 249.366H62.9053L62.761 249.597C56.8694 259.023 57.3574 271.097 63.9905 280.017L67.3661 284.557L80.128 299.079C81.1971 300.296 82.4365 301.351 83.8076 302.213L85.3733 303.197C94.3341 308.83 104.703 311.818 115.287 311.818H119.435C121.047 311.818 122.637 312.201 124.072 312.934C131.403 316.681 130.464 327.442 122.596 329.863L111.975 333.131H98.125C91.5799 333.131 85.1172 331.671 79.2079 328.857L72.3423 325.588C69.1077 324.047 66.4424 321.525 64.7269 318.38L62.1479 313.651C59.8242 309.391 59.705 304.27 61.8278 299.907L67.3661 288.522L58.4444 281.583L54.6542 291.231C53.5559 294.027 52.9922 297.003 52.9922 300.007V313.021C52.9922 314.852 53.2714 316.672 53.8203 318.418L55.8251 324.797C57.517 330.18 61.0516 334.795 65.8081 337.831L77.2406 345.129C80.2041 347.02 83.5469 348.238 87.0327 348.695L102.56 350.731C107.479 351.376 110.631 356.297 109.161 361.035L108.025 364.694C104.751 375.244 99.1869 384.94 91.7306 393.09Z" fill="white"/>
<path d="M343.863 393.585L350.378 400.706C351.61 402.053 353.854 401.181 353.854 399.356V391.098C353.854 381.982 351.776 372.986 347.78 364.793L343.941 356.922L357.323 352.462L359.247 357.806C360.931 362.482 361.973 367.365 362.344 372.322L364.152 396.424C364.537 401.554 362.666 406.598 359.028 410.236L358.321 410.942C355.461 413.803 351.581 415.41 347.536 415.41C342.495 415.41 337.78 412.919 334.938 408.756L318.167 384.183L242.006 284.885C240.576 283.021 239.368 280.996 238.407 278.852C235.201 271.701 234.897 263.586 237.559 256.215L239.853 249.861L274.614 278.104C276.574 279.697 279.506 278.302 279.506 275.776V274.339C279.506 267.274 276.517 260.54 271.279 255.8L269.097 253.827L245.801 241.435V234.992L256.348 237.252C258.565 237.727 260.741 238.381 262.852 239.207L271.937 242.762C278.904 245.488 286.319 246.887 293.801 246.887H323.893C328.636 246.887 333.348 246.123 337.847 244.623C344.141 242.525 349.882 239.034 354.641 234.411L360.487 228.732C362.851 226.435 362.921 222.662 360.643 220.281L357.089 216.565C355.872 215.293 356.774 213.183 358.534 213.183H367.04C367.772 213.183 368.446 213.583 368.796 214.225L371.364 218.934C374.902 225.42 374.422 233.358 370.128 239.37L367.542 242.99C360.96 252.204 351.22 258.678 340.176 261.179C334.156 262.542 327.923 262.683 321.847 261.595L305.578 258.681C300.911 257.845 296.206 259.944 293.71 263.976C292.222 266.379 291.666 269.242 292.146 272.026L292.815 275.904C293.508 279.922 295.427 283.627 298.311 286.51C305.678 293.877 316.445 296.701 326.479 293.897L338.071 290.658C341.974 289.568 345.754 288.078 349.351 286.213L354.756 283.41C356.459 282.527 358.034 281.414 359.435 280.103L363.235 276.548C369.07 271.09 371.487 262.898 369.549 255.146L368.228 249.861H372.688L372.833 250.092C378.724 259.519 378.236 271.593 371.603 280.513L368.228 285.053L355.466 299.575C354.397 300.791 353.157 301.847 351.786 302.709L350.22 303.693C341.26 309.326 330.891 312.314 320.307 312.314H316.159C314.546 312.314 312.957 312.696 311.522 313.43C304.191 317.177 305.129 327.938 312.998 330.359L323.619 333.627H337.469C344.014 333.627 350.477 332.167 356.386 329.353L363.251 326.083C366.486 324.543 369.151 322.02 370.867 318.875L373.446 314.147C375.77 309.887 375.889 304.766 373.766 300.402L368.228 289.018L377.149 282.079L380.94 291.727C382.038 294.522 382.602 297.499 382.602 300.502V313.517C382.602 315.348 382.322 317.167 381.773 318.914L379.769 325.293C378.077 330.676 374.542 335.291 369.786 338.327L358.353 345.624C355.39 347.516 352.047 348.733 348.561 349.19L333.033 351.227C328.115 351.872 324.963 356.792 326.433 361.53L327.569 365.189C330.843 375.739 336.407 385.435 343.863 393.585Z" fill="white"/>
</g>
</g>
</svg>
