<svg width="445" height="445" viewBox="0 0 445 445" fill="none" xmlns="http://www.w3.org/2000/svg">
<mask id="mask0" mask-type="alpha" maskUnits="userSpaceOnUse" x="0" y="0" width="445" height="445">
<circle cx="222.174" cy="222.174" r="222.174" fill="#F9AC34"/>
</mask>
<g mask="url(#mask0)">
<path d="M400.5 -87.5L393 -112.5L450 -129L497.5 -112.5L487.5 -87.5V-70.5H623.5L718.5 118L669 267L613.5 116.5V210.5L602.5 291L254 479.5L279.5 407.5L291.937 362.558C298.188 339.968 298.014 316.082 291.435 293.585L286 275L281.5 257L277.234 235.465C273.098 214.591 271.905 193.241 273.69 172.036L277.337 128.701C277.636 125.152 272.601 124.132 271.496 127.518L232 248.5L214 295.5L182.5 367L132 460L70.5 445L109 335.5L141 257L162 192.5L208.756 23.9086C212.221 11.4131 217.993 -0.324112 225.773 -10.6978L250.114 -43.1516C261.271 -58.0282 279.19 -66.2595 297.745 -65.0316L336 -62.5L399 -70.5L400.5 -87.5Z" fill="white" fill-opacity="0.4"/>
<path d="M183.069 256.402L182.32 258.834C181.796 260.537 180.599 261.951 179.005 262.747C177.406 263.547 176.205 264.969 175.684 266.68L169.729 286.248C169.577 286.748 169.369 287.229 169.11 287.683L141.872 335.349C141.625 335.782 141.424 336.24 141.274 336.715L114.5 421.5L111.1 438.159C110.253 442.31 105.943 444.763 101.942 443.371L99.117 442.389C98.3776 442.131 97.6002 442 96.8174 442H93.3262C88.1226 442 84.7381 436.524 87.0652 431.87L90.5 425L101 405.5L134.708 322.717C134.902 322.24 135.148 321.787 135.442 321.364L147.5 304L159.717 280.542C159.905 280.181 160.062 279.805 160.184 279.417L165.39 262.931C165.789 261.67 165.821 260.321 165.485 259.042L164.061 253.631C163.717 252.325 164.142 250.938 165.158 250.049C166.499 248.876 168.501 248.876 169.842 250.049L170.811 250.897C171.267 251.296 171.79 251.609 172.357 251.821L173.813 252.367C174.912 252.779 176.11 252.848 177.248 252.563L179.012 252.122C180.483 251.754 182.02 252.41 182.772 253.727C183.237 254.539 183.344 255.507 183.069 256.402Z" fill="white"/>
<path d="M193.097 259.13L194.5 261L196.085 263.114C197.838 265.451 200.858 266.454 203.66 265.629L205.991 264.944C206.934 264.666 207.953 264.878 208.708 265.507C209.758 266.382 210.068 267.864 209.457 269.086L208.008 271.984C207.672 272.657 207.229 273.271 206.697 273.803L199.971 280.529C199.33 281.17 198.819 281.93 198.468 282.765L172.5 344.5L154.5 389L130.5 434L125.011 446.504C123.26 450.49 118.163 451.664 114.846 448.844C112.824 447.126 112.05 444.351 112.889 441.834L113.55 439.85C113.847 438.959 114.32 438.137 114.942 437.433L120.896 430.684C121.297 430.23 121.637 429.726 121.908 429.184L136.5 400L150.5 363L167.885 296.84C168.28 295.337 169.234 294.041 170.551 293.218C171.807 292.433 172.735 291.218 173.16 289.799L179.493 268.69C179.826 267.581 180.429 266.571 181.248 265.752L181.332 265.668C182.1 264.9 182.679 263.963 183.023 262.932L183.786 260.641C184.511 258.467 186.546 257 188.838 257C190.514 257 192.092 257.789 193.097 259.13Z" fill="white"/>
<path d="M428.688 261.877V242.84C428.688 240.788 429.57 238.816 431.088 237.436C436.038 232.937 443.489 232.372 449.009 236.149C454.259 232.357 461.411 232.605 466.386 236.751L467.07 237.321C468.817 238.777 469.827 240.933 469.827 243.207V261.846C469.827 265.087 467.601 267.905 464.448 268.656L449.009 272.332L434.029 268.678C430.894 267.913 428.688 265.104 428.688 261.877Z" fill="white"/>
<path d="M430.957 330.885V347.942C430.957 349.828 431.768 351.641 433.164 352.91C437.714 357.046 444.564 357.565 449.639 354.093C454.465 357.579 461.039 357.351 465.612 353.54L466.241 353.016C467.847 351.677 468.776 349.695 468.776 347.605V330.916C468.776 327.675 466.55 324.858 463.397 324.107L449.639 320.831L436.298 324.085C433.163 324.849 430.957 327.658 430.957 330.885Z" fill="white"/>
<path d="M430.957 373.716V390.773C430.957 392.659 431.768 394.472 433.164 395.741C437.714 399.877 444.564 400.396 449.639 396.924C454.465 400.41 461.039 400.182 465.612 396.371L466.241 395.847C467.847 394.508 468.776 392.526 468.776 390.436V373.747C468.776 370.506 466.55 367.689 463.397 366.938L449.639 363.662L436.298 366.916C433.163 367.68 430.957 370.489 430.957 373.716Z" fill="white"/>
<path d="M429.836 441.741V443.768C429.836 447.015 431.832 449.929 434.861 451.101C438.081 452.348 441.623 452.5 444.938 451.534L448.454 450.51L451.28 451.379C454.753 452.447 458.477 452.367 461.902 451.152C465.274 449.956 467.527 446.765 467.527 443.187V441.677C467.527 439.775 466.087 438.181 464.194 437.989L462.309 437.798C459.436 437.507 456.594 436.961 453.816 436.168L448.454 434.638L443.269 436.154C440.525 436.957 437.715 437.509 434.872 437.804L433.232 437.974C431.302 438.175 429.836 439.801 429.836 441.741Z" fill="#E1E7EA"/>
<path d="M430.502 288.054V305.111C430.502 306.997 431.313 308.81 432.709 310.079C437.259 314.215 444.109 314.734 449.184 311.262C454.01 314.748 460.584 314.52 465.157 310.709L465.786 310.185C467.392 308.847 468.321 306.864 468.321 304.774V288.086C468.321 284.844 466.095 282.027 462.942 281.276L449.184 278L435.843 281.254C432.708 282.018 430.502 284.827 430.502 288.054Z" fill="white"/>
<path d="M441.718 422.367L442.775 420.252C443.92 417.964 442.65 415.204 440.168 414.583L429.922 412.022C427.776 411.485 425.856 410.28 424.44 408.581C422.878 406.707 422.023 404.344 422.023 401.905V393.27C422.023 387.025 418.649 381.268 413.2 378.217L399.041 370.288L388.791 366.53C377.446 362.37 365.193 361.323 353.307 363.5L351.138 363.897C343.026 365.382 335.328 368.594 328.566 373.315C319.367 379.736 312.247 388.707 308.08 399.123L300.62 417.774C298.406 423.308 299.553 429.62 303.572 434.022C305.534 436.171 308.311 437.396 311.221 437.396H321.519C326.412 437.396 331.095 439.382 334.496 442.9C339.633 448.214 342.505 455.317 342.505 462.708V466.353L340.177 475.373C339.308 478.74 339.713 482.309 341.313 485.396C343.74 490.075 348.571 493.013 353.842 493.013H356.049C360.089 493.013 364.023 494.308 367.271 496.71C370.867 499.368 373.403 503.216 374.428 507.568L375.122 510.518C376.04 514.423 376.043 518.487 375.129 522.393L372.818 532.265C372.055 535.524 373.952 538.815 377.154 539.79C380.098 540.686 382.195 543.292 382.441 546.36L383.873 564.257C390.363 570.453 398.991 573.91 407.964 573.91H413.29C425.334 567.587 435.496 558.198 442.75 546.691L443.536 545.444C444.473 543.958 444.75 542.149 444.3 540.451L442.56 533.876C441.563 530.109 438.155 527.486 434.258 527.486H413.29C407.9 525.689 403.176 522.309 399.735 517.787L398.013 515.524C392.038 507.67 387.956 498.543 386.086 488.853L385.401 485.305C384.408 480.157 385.07 474.827 387.292 470.079L388.913 466.616C392.008 460.005 398.648 455.781 405.948 455.781C413.104 455.781 419.77 452.149 423.65 446.136L426.62 441.532L441.358 434.9C443.372 433.994 444.27 431.626 443.364 429.611L441.648 425.798C441.155 424.702 441.18 423.442 441.718 422.367Z" fill="white"/>
<path d="M327.797 413.954L327.503 414.248C325.925 415.825 325.039 417.965 325.039 420.196C325.039 422.106 325.689 423.959 326.882 425.451L328.913 427.988C330 429.348 331.303 430.519 332.77 431.457L347.102 440.613L352.73 447.265C355.636 450.699 357.316 455.004 357.503 459.499L357.965 470.581C358.072 473.142 359.323 475.518 361.372 477.056C362.85 478.164 364.648 478.763 366.495 478.763H371.755C373.628 478.763 375.425 478.019 376.749 476.695C378.073 475.371 378.817 473.574 378.817 471.701V464.055L380.196 457.62L382.296 452.895C384.517 447.899 385.106 442.33 383.979 436.979L383.873 436.476L378.817 430.041L361.811 419.01L341.127 411.196H334.455C331.958 411.196 329.563 412.188 327.797 413.954Z" fill="#68D3CC"/>
<path d="M428.688 305.172V286.135C428.688 284.083 429.57 282.111 431.088 280.73C436.038 276.231 443.489 275.667 449.009 279.443C454.259 275.652 461.411 275.9 466.386 280.045L467.07 280.616C468.817 282.071 469.827 284.228 469.827 286.502V305.141C469.827 308.382 467.601 311.2 464.448 311.95L449.009 315.626L434.029 311.972C430.894 311.208 428.688 308.399 428.688 305.172Z" fill="white"/>
<path d="M428.688 350.172V331.135C428.688 329.083 429.57 327.111 431.088 325.73C436.038 321.231 443.489 320.667 449.009 324.443C454.259 320.652 461.411 320.9 466.386 325.045L467.07 325.616C468.817 327.071 469.827 329.228 469.827 331.502V350.141C469.827 353.382 467.601 356.2 464.448 356.95L449.009 360.626L434.029 356.972C430.894 356.208 428.688 353.399 428.688 350.172Z" fill="white"/>
<path d="M471.705 224.411L469.826 229.705L469.467 229.487C462.708 225.372 454.198 225.457 447.522 229.705L447.172 229.482C440.756 225.4 432.536 225.487 426.209 229.705L424.406 223.497C422.737 217.745 423.925 211.541 427.602 206.814L428.636 205.485C430.785 202.722 434.337 201.45 437.751 202.221C444.189 203.674 450.865 203.718 457.321 202.349L458.165 202.169C461.686 201.423 465.332 202.664 467.666 205.404L468.349 206.206C472.638 211.24 473.917 218.178 471.705 224.411Z" fill="white"/>
<path opacity="0.8" d="M358.5 189.5L317.5 219.5L310 273.5L358.5 296.5L402 288L453.5 253.5L482 246L529.5 235L554.5 177L490.5 166.5H458.5H409.5L358.5 189.5Z" fill="#91AEC1"/>
<path opacity="0.7" d="M425.313 322.655L394.155 317.399C387.436 316.266 381.255 313.018 376.51 308.128L367.621 298.965C361.827 292.994 358.587 285.002 358.587 276.682L358.587 268.074C358.587 254.805 366.776 242.912 379.172 238.179L393.976 232.526C397.948 231.009 402.182 230.299 406.432 230.437L456.575 232.067C460.133 232.183 463.685 231.704 467.085 230.651L490.099 223.521L523.976 211.911C531.831 209.219 540.425 209.685 547.943 213.212L559.555 218.66C575.545 226.163 582.433 245.203 574.943 261.2L568.989 273.917C566.075 280.14 561.235 285.26 555.186 288.519L517.813 308.655L489.938 322.396C484.941 324.859 479.388 325.975 473.828 325.634L425.313 322.655Z" fill="#485760"/>
<path d="M401.524 -11.7172L420.61 0.406752C427.233 5.95691 431.852 13.5261 433.761 21.9537L437.247 37.3516L430.819 109.297L426.343 144.335C424.797 156.441 421.639 168.286 416.955 179.556L406.939 203.653C404.214 210.21 400.747 216.432 396.606 222.2L392.203 228.332C387.268 235.206 380.73 240.771 373.157 244.545L360.876 250.665C352.561 254.809 343.06 255.919 334.014 253.804C321.869 250.966 311.752 242.608 306.672 231.218L305.518 228.63C299.162 214.38 296.505 198.757 297.791 183.207L300.368 152.075L306.039 115.908L310.398 96.6132C313.281 83.8502 317.594 71.4531 323.256 59.657L329.483 46.685L348.011 15.9625L361.534 -4.04584C366.555 -11.475 374.937 -15.9268 383.904 -15.9268H387.047C392.175 -15.9268 397.196 -14.4666 401.524 -11.7172Z" fill="#91AEC1"/>
<path opacity="0.5" d="M452.271 276.226L549.895 268.057C561.199 267.111 571.993 272.94 577.401 282.911C581.85 291.114 582.014 300.972 577.841 309.318L572.764 319.472C569.994 325.012 569.071 331.292 570.128 337.394L579.101 389.157C580.616 397.9 578.046 406.855 572.124 413.463L553.777 433.937C549.39 438.833 543.469 442.093 536.985 443.183L486.886 451.599C485.298 451.866 483.691 452 482.081 452H442.5L398.056 446.613C394.711 446.207 391.462 445.222 388.455 443.701L350.5 424.5L327.184 408.632C319.249 403.232 314.5 394.256 314.5 384.657V371L319.103 331.41C319.367 329.145 319.362 326.856 319.089 324.592L315.444 294.335C314.826 289.205 315.594 283.994 317.66 279.258C322.876 267.305 335.442 260.277 348.352 262.122L445.751 276.036C447.91 276.344 450.097 276.408 452.271 276.226Z" fill="#485760"/>
<path opacity="0.2" d="M449.201 302.541L525.382 296.524C533.464 295.886 541.189 299.96 545.228 306.988C548.821 313.239 548.952 320.896 545.577 327.267L543.23 331.699C540.237 337.347 539.195 343.826 540.265 350.128L546.25 385.39C547.778 394.393 544.977 403.589 538.69 410.211L528.746 420.685C524.353 425.311 518.557 428.36 512.256 429.359L475.849 435.132C474.347 435.37 472.829 435.49 471.308 435.49H441.081L407.585 431.658C404.394 431.293 401.285 430.4 398.386 429.016L369.867 415.399L355.328 406.06C347.022 400.725 342 391.532 342 381.66V371.824L345.426 344.019C345.721 341.622 345.716 339.197 345.41 336.801L342.786 316.246C342.272 312.224 342.903 308.139 344.604 304.458C348.578 295.863 357.691 290.863 367.074 292.128L443.043 302.371C445.084 302.646 447.148 302.703 449.201 302.541Z" fill="#CDDAE3"/>
<path d="M267.6 -14.1562L260.165 -12.1736L253.722 -5.23449L251.739 10.1308L253.722 30.9482L241.826 80.0179L228.444 126.114L213.574 167.749L202.174 188.07L184.33 210.87L169.957 224.749L165 239.618L172.435 247.053H184.33L191.765 249.531L198.209 258.949L206.139 261.923L218.531 253.001V244.575L213.574 236.149V224.749L218.531 198.479L223.983 183.114L267.6 56.2265L282.966 21.5308L290.896 15.0873L293.374 10.1308V1.20901L288.418 -5.23449L277.513 -12.1736L267.6 -14.1562Z" fill="white"/>
<path d="M294.86 -31.5042L284.452 -38.939L275.034 -31.5042L269.582 -20.5998V-14.6519L289.408 -17.1302L300.808 -5.23454L304.278 5.17419L289.408 22.5221V34.9134L297.834 47.3047L326.582 25.0003V19.5481L333.026 13.6003L335.504 -0.278L333.026 -12.1737H320.634L310.721 -8.70411L304.278 -14.6519L294.86 -31.5042Z" fill="white"/>
<path d="M463.384 3.68737H434.636L434.142 -4.21332C433.84 -9.03609 430.676 -13.2076 426.112 -14.797L389.531 -27.5388L407.584 -26.7706C410.964 -26.6267 414.283 -27.7121 416.925 -29.8258L425.268 -36.5004C428.216 -38.8584 432.321 -39.1266 435.551 -37.1721L444.467 -31.7754C447.27 -30.079 450.773 -30.0396 453.613 -31.6728L463.351 -37.272C466.642 -39.1642 470.766 -38.7883 473.66 -36.3325L480.996 -30.1078C483.693 -27.8195 487.156 -26.6368 490.69 -26.7974L507.001 -27.5388L478.749 -16.6344L472.038 -14.6861C466.911 -13.1975 463.384 -8.50075 463.384 -3.16191V3.68737Z" fill="white"/>
<path d="M400.643 12.6505L411.339 14.096H420.046C423.102 14.096 426.096 13.2372 428.687 11.6177V4.18289H417.287L417.027 4.17291C408.622 3.84964 400.257 2.85854 392.009 1.20897L377.974 -1.7771C371.825 -3.08543 365.867 -5.17045 360.244 -7.982L357.723 -9.2427C357.125 -9.54175 356.589 -9.95219 356.145 -10.452C354.296 -12.5321 354.389 -15.6929 356.357 -17.6608L357.613 -18.9174C358.401 -19.7053 359.287 -20.3883 360.25 -20.9498C363.229 -22.688 366.466 -23.942 369.84 -24.6648L370.701 -24.8493C371.356 -24.9898 372.025 -25.0607 372.696 -25.0607H384.078L371.687 -31.5042L363.619 -28.0082C359.095 -26.0476 354.766 -23.6624 350.692 -20.8846L347.712 -18.8526C346.528 -18.0449 345.538 -16.9832 344.816 -15.7448L344.113 -14.5411C343.06 -12.7343 342.898 -10.5426 343.674 -8.60051C344.165 -7.37449 345.002 -6.31816 346.084 -5.56092L347.696 -4.43216C352.096 -1.3527 356.966 0.992172 362.116 2.51096L385.603 9.43639C390.527 10.8885 395.555 11.963 400.643 12.6505Z" fill="white"/>
<path d="M313.441 55.4245L312.318 54.2267C309.339 51.049 309.749 45.9952 313.201 43.3395L320.14 36.4003L330.549 31.9395L339.471 36.4003L329.677 39.5166C328.956 39.746 328.329 40.2025 327.889 40.818C326.881 42.2298 327.159 44.1845 328.52 45.2595L331.15 47.3353C334.031 49.6098 337.293 51.354 340.785 52.4865L353.845 56.7221L362.206 58.8123C369.821 60.716 377.64 61.6787 385.489 61.6787H392.656C395.856 61.6787 399.05 61.4344 402.212 60.9479C407.629 60.1146 412.972 58.8615 418.194 57.1999L421.254 56.2265L427.202 70.1048H379.619L357.314 68.1222L338.115 64.8119C331.78 63.7197 325.63 61.7478 319.841 58.9532L315.183 56.7044C314.528 56.3885 313.938 55.9546 313.441 55.4245Z" fill="white"/>
<path d="M333.501 25.1746L332.586 24.1786C330.151 21.529 330.489 17.3667 333.32 15.1452L338.974 9.3776L347.456 5.66986L354.725 9.3776C350.491 7.47019 347.022 13.1805 350.666 16.0588L352.279 17.3325C353.899 18.6124 355.715 19.6223 357.658 20.3233L367.282 23.7966L371.762 24.9391C379.515 26.9162 387.484 27.9163 395.484 27.9163H398.86C401.497 27.9163 404.131 27.7109 406.736 27.302C411.12 26.614 415.551 26.2684 419.989 26.2684H426.209V37.3917H387.438L369.264 35.7438L355.538 33.3297C349.105 32.1983 342.866 30.1594 337.007 27.274L334.959 26.2656C334.41 25.9952 333.916 25.6253 333.501 25.1746Z" fill="white"/>
<path d="M309.236 66.0746V61.1831L307.884 62.5348C304.351 66.0682 302.606 71.0106 303.139 75.9791C303.554 79.8597 305.371 83.4555 308.248 86.0927L315.68 92.9049C324.825 98.1308 334.987 101.329 345.477 102.283L356.819 103.314H396.471L419.767 100.835V89.931L396.471 92.9049H378.132L356.819 89.931L334.514 84.4788L321.543 79.3586C317.691 77.838 314.263 75.4098 311.551 72.2802C310.058 70.5575 309.236 68.3543 309.236 66.0746Z" fill="white"/>
<path d="M465.284 26.1083L462.888 10.1309C457.893 8.5699 452.455 9.44011 448.196 12.4819L448.018 12.6091L447.84 12.4819C443.582 9.44011 438.144 8.5699 433.149 10.1309L431.073 26.7361C430.806 28.8679 430.903 31.0295 431.36 33.1289L432.103 36.5492C432.79 39.7074 432.701 42.9848 431.844 46.101L428.68 57.6074C428.039 59.9369 428.117 62.4055 428.902 64.6902L430.2 68.468C432.043 73.8279 431.093 79.7535 427.668 84.2689L422.244 91.418L425.218 113.722V118.351C425.218 123.832 427.912 128.963 432.424 132.075C436.732 135.046 438.734 140.385 437.441 145.456L434.333 157.651C433.568 160.649 433.899 163.822 435.264 166.599L448.018 192.531L460.772 166.599C462.137 163.822 462.468 160.649 461.703 157.651L458.643 145.644C457.326 140.476 459.413 135.039 463.851 132.08C468.513 128.972 471.314 123.739 471.314 118.136V115.423C471.314 114.291 471.401 113.161 471.575 112.042L474.783 91.418L469.166 84.6309C465.283 79.9383 464.207 73.5265 466.346 67.8231L467.415 64.9705C468.337 62.5135 468.427 59.8223 467.673 57.3089L464.499 46.7273C463.445 43.2148 463.377 39.4802 464.303 35.9319L464.879 33.7227C465.527 31.238 465.665 28.6477 465.284 26.1083Z" fill="white"/>
<path d="M322.199 276.777L315.684 283.898C314.453 285.244 312.209 284.373 312.209 282.548V274.29C312.209 265.174 314.286 256.178 318.283 247.984L322.122 240.114L308.739 235.653L306.815 240.997C305.132 245.674 304.09 250.557 303.718 255.513L301.911 279.615C301.526 284.746 303.397 289.789 307.035 293.427L307.741 294.134C310.602 296.994 314.481 298.601 318.527 298.601C323.567 298.601 328.283 296.111 331.124 291.947L347.896 267.375L424.057 168.076C425.487 166.212 426.695 164.187 427.656 162.043C430.861 154.893 431.165 146.777 428.504 139.407L426.209 133.053L391.449 161.296C389.488 162.889 386.557 161.494 386.557 158.967V157.53C386.557 150.466 389.546 143.731 394.784 138.992L396.966 137.018L420.261 124.627V118.183L409.715 120.443C407.497 120.918 405.322 121.572 403.21 122.399L394.126 125.954C387.159 128.68 379.743 130.079 372.262 130.079H342.17C337.427 130.079 332.715 129.314 328.215 127.814C321.921 125.716 316.181 122.226 311.422 117.603L305.575 111.923C303.211 109.627 303.142 105.854 305.42 103.472L308.973 99.757C310.19 98.4848 309.289 96.3745 307.528 96.3745H299.022C298.29 96.3745 297.617 96.7743 297.266 97.4168L294.698 102.125C291.16 108.612 291.641 116.549 295.935 122.562L298.52 126.181C305.102 135.396 314.842 141.869 325.886 144.37C331.907 145.733 338.14 145.875 344.216 144.787L360.484 141.873C365.152 141.037 369.857 143.136 372.353 147.168C373.84 149.57 374.396 152.434 373.916 155.218L373.248 159.095C372.555 163.113 370.635 166.818 367.752 169.701C360.385 177.069 349.618 179.892 339.583 177.088L327.991 173.849C324.089 172.759 320.309 171.269 316.712 169.404L311.307 166.602C309.603 165.718 308.029 164.606 306.627 163.295L302.827 159.74C296.993 154.282 294.576 146.089 296.514 138.338L297.835 133.053H293.374L293.23 133.284C287.338 142.71 287.826 154.784 294.459 163.705L297.835 168.244L310.597 182.766C311.666 183.983 312.905 185.039 314.276 185.9L315.842 186.885C324.803 192.517 335.172 195.505 345.756 195.505H349.904C351.516 195.505 353.105 195.888 354.541 196.621C361.872 200.368 360.933 211.129 353.064 213.55L342.444 216.818H328.594C322.049 216.818 315.586 215.358 309.677 212.544L302.811 209.275C299.576 207.735 296.911 205.212 295.196 202.067L292.617 197.339C290.293 193.078 290.174 187.957 292.297 183.594L297.835 172.209L288.913 165.27L285.123 174.918C284.025 177.714 283.461 180.69 283.461 183.694V196.708C283.461 198.539 283.74 200.359 284.289 202.105L286.294 208.484C287.986 213.868 291.52 218.482 296.277 221.519L307.709 228.816C310.673 230.707 314.016 231.925 317.501 232.382L333.029 234.418C337.948 235.064 341.1 239.984 339.629 244.722L338.494 248.381C335.22 258.931 329.656 268.627 322.199 276.777Z" fill="white"/>
</g>
</svg>
