{
    "asset" : {
        "generator" : "Khronos glTF Blender I/O v1.7.33",
        "version" : "2.0"
    },
    "scene" : 0,
    "scenes" : [
        {
            "name" : "Scene",
            "nodes" : [
                0,
                1
            ]
        }
    ],
    "nodes" : [
        {
            "mesh" : 0,
            "name" : "extrudedSurface1"
        },
        {
            "mesh" : 1,
            "name" : "loftedSurface1",
            "translation" : [
                1.216077446937561,
                0,
                0
            ]
        }
    ],
    "meshes" : [
        {
            "name" : "extrudedSurfaceShape1",
            "primitives" : [
                {
                    "attributes" : {
                        "POSITION" : 0,
                        "NORMAL" : 1,
                        "TEXCOORD_0" : 2
                    },
                    "indices" : 3
                }
            ]
        },
        {
            "name" : "loftedSurfaceShape1",
            "primitives" : [
                {
                    "attributes" : {
                        "POSITION" : 4,
                        "NORMAL" : 5,
                        "TEXCOORD_0" : 6
                    },
                    "indices" : 7
                }
            ]
        }
    ],
    "accessors" : [
        {
            "bufferView" : 0,
            "componentType" : 5126,
            "count" : 1274,
            "max" : [
                12.917950630187988,
                6.398865222930908,
                1.0000008344650269
            ],
            "min" : [
                1.216077446937561,
                -1.0000003576278687,
                -4.910257339477539
            ],
            "type" : "VEC3"
        },
        {
            "bufferView" : 1,
            "componentType" : 5126,
            "count" : 1274,
            "type" : "VEC3"
        },
        {
            "bufferView" : 2,
            "componentType" : 5126,
            "count" : 1274,
            "type" : "VEC2"
        },
        {
            "bufferView" : 3,
            "componentType" : 5123,
            "count" : 6768,
            "type" : "SCALAR"
        },
        {
            "bufferView" : 4,
            "componentType" : 5126,
            "count" : 573,
            "max" : [
                4.307733058929443,
                0.47984111309051514,
                0.4798411726951599
            ],
            "min" : [
                0,
                -0.47984111309051514,
                -0.4798411726951599
            ],
            "type" : "VEC3"
        },
        {
            "bufferView" : 5,
            "componentType" : 5126,
            "count" : 573,
            "type" : "VEC3"
        },
        {
            "bufferView" : 6,
            "componentType" : 5126,
            "count" : 573,
            "type" : "VEC2"
        },
        {
            "bufferView" : 7,
            "componentType" : 5123,
            "count" : 2544,
            "type" : "SCALAR"
        }
    ],
    "bufferViews" : [
        {
            "buffer" : 0,
            "byteLength" : 15288,
            "byteOffset" : 0
        },
        {
            "buffer" : 0,
            "byteLength" : 15288,
            "byteOffset" : 15288
        },
        {
            "buffer" : 0,
            "byteLength" : 10192,
            "byteOffset" : 30576
        },
        {
            "buffer" : 0,
            "byteLength" : 13536,
            "byteOffset" : 40768
        },
        {
            "buffer" : 0,
            "byteLength" : 6876,
            "byteOffset" : 54304
        },
        {
            "buffer" : 0,
            "byteLength" : 6876,
            "byteOffset" : 61180
        },
        {
            "buffer" : 0,
            "byteLength" : 4584,
            "byteOffset" : 68056
        },
        {
            "buffer" : 0,
            "byteLength" : 5088,
            "byteOffset" : 72640
        }
    ],
    "buffers" : [
        {
            "byteLength" : 77728,
            "uri" : "data:application/octet-stream;base64,"
        }
    ]
}
