<?xml version="1.0" encoding="utf-8"?>
<!-- Generator: Adobe Illustrator 21.0.0, SVG Export Plug-In . SVG Version: 6.00 Build 0)  -->
<svg version="1.1" id="Layer_1" xmlns="http://www.w3.org/2000/svg" xmlns:xlink="http://www.w3.org/1999/xlink" x="0px" y="0px"
	 viewBox="0 0 1000 1000" style="enable-background:new 0 0 1000 1000;" xml:space="preserve">
<style type="text/css">
	.st0{fill:url(#SVGID_1_);}
	.st1{fill:#69C6C6;}
	.st2{fill:#FFFFFF;}
	.st3{fill:#8AD2D5;}
	.st4{fill:#00A19A;}
	.st5{fill:#3FAB9A;}
	.st6{fill:none;}
	.st7{fill:#086FB8;}
	.st8{fill:#015088;}
</style>
<g>
	<g>

			<linearGradient id="SVGID_1_" gradientUnits="userSpaceOnUse" x1="501.5884" y1="993.574" x2="501.5884" y2="25.4912" gradientTransform="matrix(1 0 0 -1 0 1000)">
			<stop  offset="0" style="stop-color:#00B5AA"/>
			<stop  offset="1" style="stop-color:#257694"/>
		</linearGradient>
		<circle class="st0" cx="501.6" cy="498.8" r="496.7"/>
	</g>
	<g>
		<g>
			<g>
				<g>
					<path class="st1" d="M232.7,282.4h-8.8c-4.2,0-7.6,3.4-7.6,7.6v489.8c0,4.2,3.4,7.6,7.6,7.6h8.8c4.2,0,7.6-3.4,7.6-7.6V289.9
						C240.3,285.8,236.9,282.4,232.7,282.4z"/>
					<path class="st2" d="M223.2,289.9c-3.8,0-6.9,3.1-6.9,6.9V770c0,3.8,3.1,6.9,6.9,6.9c3.8,0,6.9-3.1,6.9-6.9V296.9
						C230.2,293,227.1,289.9,223.2,289.9z"/>
				</g>
				<g>
					<path class="st1" d="M237.1,765.5h-17.5c-5.2,0-9.5,3.5-9.5,7.9V786c0,4.4,4.2,7.9,9.5,7.9h17.5c5.2,0,9.5-3.6,9.5-7.9v-12.6
						C246.5,769.1,242.3,765.5,237.1,765.5z"/>
					<path class="st1" d="M227.1,790.2c-4,0.3-10.7,0.8-15.9-0.4c1.6,2.5,4.7,4.2,8.3,4.2h17.5c5.2,0,9.5-3.6,9.5-7.9v-12.6
						c0-1.3-0.4-2.5-1.1-3.6C246.1,780.5,239.3,789,227.1,790.2z"/>
					<path class="st1" d="M210.1,773.4v9.1v3.5c0,0.3,0,0.6,0.1,0.9c1.5-0.5,3.1-1.1,3.4-2.7c0.7-3.4-0.8-7.3,1.3-10.3
						c2.6-3.8,7-5.8,11.2-7.4c0.5-0.2,1.4-0.6,2.4-1h-8.8C214.3,765.5,210.1,769.1,210.1,773.4z"/>
				</g>
			</g>
			<g>
				<g>
					<path class="st3" d="M241.5,353.2h-9.7c-2.8,0-5.1,2.3-5.1,5.1s2.3,5.1,5.1,5.1h9.7c1.8,0,2.9,0.9,3.1,1.1l0,47.8
						c-0.1,0.3-1.3,1.2-3.1,1.2h-9.7c-2.8,0-5.1,2.3-5.1,5.1c0,2.8,2.3,5.1,5.1,5.1h9.7c7.4,0,13.2-4.9,13.2-11.3v-47.9
						C254.7,358.2,248.9,353.2,241.5,353.2z"/>
				</g>
				<g>
					<path class="st1" d="M226.8,359.6c0.6,2.2,2.5,3.8,4.9,3.8h9.7c1.1,0,1.9,0.3,2.5,0.6c0.1-1.1-0.1-2.3-0.6-3.7
						C238.7,360.3,231.7,361.2,226.8,359.6z"/>
					<path class="st1" d="M227.2,420.8c0.8,1.7,2.5,2.8,4.5,2.8h9.7c7.4,0,13.2-4.9,13.2-11.3v-4.7
						C251.7,419.6,235.7,421.8,227.2,420.8z"/>
				</g>
				<g>
					<path class="st1" d="M231.7,353.2c-2.8,0-5.1,2.3-5.1,5.1c0,0.4,0,0.7,0.1,1c3.2-5.5,11.6-6.1,17.8-5.8c-1-0.2-2-0.3-3.1-0.3
						H231.7z"/>
					<path class="st1" d="M226.7,418.5c1.6-2.9,5.8-4,9.6-5h-4.5C229,413.4,226.7,415.7,226.7,418.5z"/>
				</g>
			</g>
		</g>
		<g>
			<path class="st4" d="M712.3,609l-119.9-33.8c-4-1.1-7.2,1.4-7.2,5.5v7.1c0,4.2,3.2,8.5,7.2,9.6l119.9,33.8c4,1.1,7.2-1.4,7.2-5.5
				v-7.1C719.5,614.5,716.3,610.2,712.3,609z"/>
			<path class="st5" d="M709.2,609.6l-110.6-31.2c-2.9-0.8-5.2,1-5.2,4c0,3.1,2.3,6.2,5.2,7l110.6,31.2c2.9,0.8,5.2-1,5.2-4
				C714.4,613.5,712.1,610.4,709.2,609.6z"/>
		</g>
		<polygon class="st3" points="421,646.3 534.9,689.7 534.9,463.4 421,420 		"/>
		<g>
			<path class="st1" d="M716.7,308.2h-8.8c-4.2,0-7.6,2.7-7.6,6v387.1c0,3.3,3.4,6,7.6,6h8.8c4.2,0,7.6-2.7,7.6-6V314.1
				C724.3,310.8,720.9,308.2,716.7,308.2z"/>
			<path class="st2" d="M707.3,314.1c-3.8,0-6.9,2.5-6.9,5.5v373.9c0,3,3.1,5.5,6.9,5.5s6.9-2.5,6.9-5.5V319.6
				C714.2,316.6,711.1,314.1,707.3,314.1z"/>
		</g>
		<g>
			<path class="st1" d="M595,260.6h-8.8c-4.2,0-7.6,2.7-7.6,6v387.1c0,3.3,3.4,6,7.6,6h8.8c4.2,0,7.6-2.7,7.6-6V266.6
				C602.6,263.3,599.2,260.6,595,260.6z"/>
			<path class="st2" d="M585.5,266.6c-3.8,0-6.9,2.5-6.9,5.5V646c0,3,3.1,5.5,6.9,5.5c3.8,0,6.9-2.5,6.9-5.5V272
				C592.5,269,589.4,266.6,585.5,266.6z"/>
		</g>
		<g>
			<g>
				<path class="st6" d="M620.8,454.3c-5.3,1.4-10.4,3.5-15.4,5.9c-30.5,15.1-53.2,48.5-53.2,81.1c0,37.9,30.7,60.4,68.6,50.2
					c0.8-0.2,1.6-0.5,2.4-0.8c36.8-11.1,66.2-49.1,66.2-86.2C689.4,466.7,658.7,444.2,620.8,454.3z"/>
				<path class="st1" d="M701.1,366.4l-160.6,43c-4.2,1.1-7.6,5.4-7.6,9.6v254.9c0,4.2,11.9,14.2,16.1,13.1
					c0,0,157.3-41.8,164.8-45.5l3.3-267.8C717.2,369.5,705.3,365.3,701.1,366.4z M623.2,590.8c-0.8,0.2-1.6,0.5-2.4,0.8
					c-37.9,10.1-68.6-12.3-68.6-50.2c0-32.6,22.8-65.9,53.2-81.1c4.9-2.5,10.1-4.5,15.4-5.9c37.9-10.1,68.6,12.3,68.6,50.2
					C689.4,541.6,659.9,579.7,623.2,590.8z"/>
			</g>
			<g>
				<path class="st3" d="M709.6,374L549,417c-4.2,1.1-7.6,5.4-7.6,9.6v254.9c0,4.2,3.4,6.7,7.6,5.5l160.6-43
					c4.2-1.1,7.6-5.4,7.6-9.6V379.5C717.2,375.4,713.8,372.9,709.6,374z M631.7,598.3c-0.8,0.2-1.6,0.5-2.4,0.8
					c-37.9,10.1-68.6-12.3-68.6-50.2c0-32.6,22.8-65.9,53.2-81.1c4.9-2.5,10.1-4.5,15.4-5.9c37.9-10.1,68.6,12.3,68.6,50.2
					C697.9,549.2,668.5,587.2,631.7,598.3z"/>
			</g>
			<g>
				<path class="st1" d="M629.3,461.9c-5.3,1.4-10.4,3.5-15.4,5.9c0.8-0.2,1.6-0.5,2.4-0.8c37.9-10.1,68.6,12.3,68.6,50.2
					c0,32.6-22.8,65.9-53.2,81.1c36.8-11.1,66.2-49.1,66.2-86.2C697.9,474.3,667.2,451.8,629.3,461.9z"/>
			</g>
		</g>
		<g>
			<g>
				<path class="st1" d="M424.9,220.9h-8.8c-4.2,0-7.6,3.4-7.6,7.6v489.8c0,4.2,3.4,7.6,7.6,7.6h8.8c4.2,0,7.6-3.4,7.6-7.6V228.4
					C432.4,224.2,429.1,220.9,424.9,220.9z"/>
				<path class="st2" d="M415.4,228.4c-3.8,0-6.9,3.1-6.9,6.9v473.1c0,3.8,3.1,6.9,6.9,6.9c3.8,0,6.9-3.1,6.9-6.9V235.3
					C422.3,231.5,419.2,228.4,415.4,228.4z"/>
			</g>
			<g>
				<path class="st1" d="M429.2,704h-17.5c-5.2,0-9.5,3.6-9.5,7.9v12.6c0,4.4,4.3,7.9,9.5,7.9h17.5c5.2,0,9.5-3.6,9.5-7.9v-12.6
					C438.7,707.5,434.5,704,429.2,704z"/>
				<path class="st1" d="M419.3,728.7c-4,0.3-10.7,0.8-15.9-0.4c1.6,2.5,4.7,4.2,8.3,4.2h17.5c5.2,0,9.5-3.6,9.5-7.9v-12.6
					c0-1.3-0.4-2.5-1.1-3.6C438.3,719,431.5,727.5,419.3,728.7z"/>
				<path class="st1" d="M402.2,711.9v9.1v3.5c0,0.3,0,0.6,0.1,0.9c1.5-0.5,3.1-1.1,3.4-2.7c0.7-3.3-0.8-7.3,1.3-10.3
					c2.6-3.8,7-5.8,11.2-7.4c0.5-0.2,1.4-0.6,2.4-1h-8.8C406.5,704,402.2,707.5,402.2,711.9z"/>
			</g>
		</g>
		<path class="st3" d="M543.1,466.2l-116.7-49c-2.1-1.3-6.7-1.7-10.5-0.9c-7.2,1.4-158.5,30.4-171,32.6c-11.5,2-24.5,22.6-8.7,32.1
			c31.6,18.9,73.6,25.5,101.7,37c2.3,0.9,6.7,1.7,10.5,0.8l191.8-46.5C543.9,471.6,545.1,467.5,543.1,466.2z"/>
		<g>
			<path class="st1" d="M543.1,466.2l-13.4-5.6c-39.6,12-75.9,16.3-127.5,29.7c-19.7,5.1-36,13.4-57.8,9.6
				c-17.1-2.8-35-9.5-51.1-15.1c-12-3.4-55.2-12.3-59.6-28.1c-5.8,7.4-7.8,18.3,2.5,24.5c31.6,18.9,73.6,25.5,101.7,37
				c2.3,0.9,6.7,1.7,10.5,0.8l191.8-46.5C543.9,471.6,545.1,467.5,543.1,466.2z"/>
		</g>
		<g>
			<g>
				<path class="st1" d="M537.5,268.7h-8.8c-4.2,0-7.6,3.4-7.6,7.6v489.8c0,4.2,3.4,7.6,7.6,7.6h8.8c4.2,0,7.6-3.4,7.6-7.6V276.3
					C545,272.1,541.6,268.7,537.5,268.7z"/>
				<path class="st2" d="M528,276.3c-3.8,0-6.9,3.1-6.9,6.9v473.1c0,3.8,3.1,6.9,6.9,6.9c3.8,0,6.9-3.1,6.9-6.9V283.2
					C534.9,279.4,531.8,276.3,528,276.3z"/>
			</g>
			<g>
				<path class="st1" d="M541.8,751.9h-17.5c-5.2,0-9.5,3.5-9.5,7.9v12.6c0,4.4,4.3,7.9,9.5,7.9h17.5c5.2,0,9.5-3.6,9.5-7.9v-12.6
					C551.3,755.4,547.1,751.9,541.8,751.9z"/>
				<path class="st1" d="M531.9,776.6c-4,0.3-10.7,0.8-15.9-0.4c1.6,2.5,4.7,4.2,8.3,4.2h17.5c5.2,0,9.5-3.6,9.5-7.9v-12.6
					c0-1.3-0.4-2.5-1.1-3.6C550.9,766.9,544,775.4,531.9,776.6z"/>
				<path class="st1" d="M514.8,759.8v9.1v3.5c0,0.3,0,0.6,0.1,0.9c1.5-0.5,3.1-1.1,3.4-2.7c0.7-3.3-0.8-7.3,1.3-10.3
					c2.6-3.8,7-5.8,11.2-7.4c0.5-0.2,1.4-0.6,2.4-1h-8.8C519,751.9,514.8,755.4,514.8,759.8z"/>
			</g>
		</g>
		<g>
			<g>
				<path class="st1" d="M332.9,356.1v152.1l15.8,10.7l24.1-6.5v-79.5c0-27.9,24.5-56.6,54.6-64.1c30.2-7.5,54.6,9.1,54.6,37v65.4
					l48.4-12.8V321.8L514.6,311L332.9,356.1z"/>
			</g>
			<g>
				<path class="st3" d="M348.6,519l39.9-9.9v-65.4c0-27.9,24.5-56.6,54.6-64.1c30.2-7.5,54.6,9.1,54.6,37V482l32.6-8.1V321.8
					l-181.7,45.1V519z"/>
				<g>
					<path class="st1" d="M448.4,378.5c19.1,3.4,32.4,18.7,32.4,40.7v53.5l17,9.3v-65.4C497.7,390.3,476.1,374.1,448.4,378.5z"/>
				</g>
			</g>
		</g>
		<g>
			<g>
				<g>
					<g>
						<path class="st3" d="M312.3,388.2h9.7c2.8,0,5.1-2.3,5.1-5.1s-2.3-5.1-5.1-5.1h-9.7c-7.4,0-13.2,4.9-13.2,11.3v47.9
							c0,6.3,5.8,11.3,13.2,11.3h9.7c2.8,0,5.1-2.3,5.1-5.1c0-2.8-2.3-5.1-5.1-5.1h-9.7c-1.8,0-2.9-0.9-3.1-1.2l0-47.8
							C309.4,389,310.5,388.2,312.3,388.2z"/>
					</g>
					<g>
						<path class="st1" d="M310.5,385.1c-0.5,1.4-0.7,2.7-0.6,3.7c0.5-0.3,1.3-0.6,2.5-0.6h9.7c2.3,0,4.3-1.6,4.9-3.8
							C322.1,386,315.1,385.1,310.5,385.1z"/>
						<path class="st1" d="M299.1,432.5v4.7c0,6.3,5.8,11.3,13.2,11.3h9.7c2,0,3.7-1.1,4.5-2.8C318.1,446.6,303.1,448.4,299.1,432.5
							z"/>
					</g>
				</g>
				<path class="st7" d="M312.3,388.2c-0.4,0-0.8,0.1-1.1,0.1C311.6,388.2,311.9,388.2,312.3,388.2z"/>
				<path class="st7" d="M311,388.3c-0.3,0.1-0.5,0.1-0.7,0.2C310.5,388.5,310.7,388.4,311,388.3z"/>
				<path class="st1" d="M312.3,378c-7.4,0-13.2,4.9-13.2,11.3v4.3c0.3-1.2,0.7-2.5,1.2-3.7c5.1-11.9,14.7-9.8,24-11.4
					c-0.7-0.3-1.4-0.5-2.2-0.5H312.3z"/>
				<path class="st8" d="M310.3,388.6c-0.2,0.1-0.3,0.1-0.4,0.2C310,388.7,310.1,388.6,310.3,388.6z"/>
				<path class="st8" d="M311.2,388.3c-0.1,0-0.2,0-0.3,0.1C311.1,388.3,311.2,388.3,311.2,388.3z"/>
			</g>
			<g>
				<g>
					<path class="st1" d="M340.4,319.9h-8.8c-4.2,0-7.6,3.4-7.6,7.6v489.8c0,4.2,3.4,7.6,7.6,7.6h8.8c4.2,0,7.6-3.4,7.6-7.6V327.5
						C348,323.3,344.6,319.9,340.4,319.9z"/>
					<path class="st2" d="M331,327.5c-3.8,0-6.9,3.1-6.9,6.9v473.1c0,3.8,3.1,6.9,6.9,6.9c3.8,0,6.9-3.1,6.9-6.9V334.5
						C337.9,330.6,334.8,327.5,331,327.5z"/>
				</g>
				<g>
					<path class="st1" d="M344.8,803.1h-17.5c-5.2,0-9.5,3.6-9.5,7.9v12.6c0,4.4,4.2,7.9,9.5,7.9h17.5c5.2,0,9.5-3.6,9.5-7.9V811
						C354.3,806.7,350,803.1,344.8,803.1z"/>
					<path class="st1" d="M334.9,827.8c-4,0.3-10.7,0.8-15.9-0.4c1.6,2.5,4.7,4.2,8.3,4.2h17.5c5.2,0,9.5-3.6,9.5-7.9V811
						c0-1.3-0.4-2.5-1.1-3.6C353.9,818.1,347,826.6,334.9,827.8z"/>
					<path class="st1" d="M317.8,811v9.1v3.5c0,0.3,0,0.6,0.1,0.9c1.5-0.5,3.1-1.1,3.4-2.7c0.7-3.3-0.8-7.3,1.3-10.3
						c2.6-3.8,7-5.8,11.2-7.4c0.5-0.2,1.4-0.6,2.4-1h-8.8C322,803.1,317.8,806.7,317.8,811z"/>
				</g>
			</g>
		</g>
		<g>
			<g>
				<path class="st1" d="M782.8,737.8c-18.5-6.8-24.9-10.9-40-24.1c-20.2-17.7-30.8-43.5-40.6-68.6c-12.2-31.1-25.3-54.2-39.9-84.2
					c-12.6-25.9-26.6-56-48.6-73.2c-22.8-17.9-38.2-23.5-63.1-37.6c-12.7-7.2-25.5-18.4-34.1-30.8c-5.3-7.6-14.9-21.1-20.7-26.7
					c-4.5-4.3-12.6-8.6-15,5.8c-0.9,5.2,0,17.6,0,17.6v38.5c0,0-0.2,15.4,6.1,23.9c25.3,23.1,56.3,45.8,79.3,60.3
					c18.8,11.9,31.2,32.2,40.7,52.6c17.2,37,20.4,79.8,39.5,115.8c9.8,18.5,23.2,40.4,40,50.7c18.5,11.4,38.7,24.4,58.4,33.5
					c15.3,7.1,34.4,12.5,50.7,16c17.7,3.9,23.8-20.2,23.9-34c0-3.1-0.3-5.9-1.1-8.4C814,749.5,797.3,743.2,782.8,737.8z"/>
				<g>
					<path class="st2" d="M782.8,737.8c-18.5-6.8-24.9-10.9-40-24.1c-20.2-17.7-30.8-43.5-40.6-68.6c-12.2-31.1-25.3-54.2-39.9-84.2
						c-12.6-25.9-26.6-56-48.6-73.2c-22.8-17.9-38.2-23.5-63.1-37.6c-12.7-7.2-25.5-18.4-34.1-30.8c-5.3-7.6-14.9-21.1-20.7-26.7
						c-4.5-4.3-12.6-8.6-15,5.8c-0.1,0.9-0.2,1.9-0.3,3c1.4,2.6,3,5.1,4.6,7.2c6.8,9,14.2,25.2,23.1,31.3c9.8,6.7,43,26.6,52.5,33.5
						c26.9,19.7,53.2,24.3,80.1,72.3c31,55,36.1,114.8,72.9,157.9c16.7,19.6,31,41.8,71,52.8c20.8,5.7,34.6,17,34.1,24.3
						c0.3-2.6,0.5-5,0.5-7.2c0-3.1-0.3-5.9-1.1-8.4C814,749.5,797.3,743.2,782.8,737.8z"/>
				</g>
			</g>
			<path class="st3" d="M789.4,790.4c-9.3-7.1-27.8-12.4-37.7-17.8c-11.1-6.1-19.7-15.4-29.7-22.8c-23.5-17.3-48.3-35.7-64.2-61.2
				c-13.7-22.1-18.5-49.5-26.3-74.1c-7.7-24.3-19.7-44.9-37.9-62.3c-19.9-18.9-43.1-34.5-63.8-52.6c-13.8-12-37.5-33.2-56-35.9
				c-28.5-4.2-60.3,6.1-83,26.1c-1.3,1.1-0.8,1.9,0.4,2.2c-0.1,0.3,0,0.7,0.4,1.1c19.3,17.7,46.6,25.1,68.6,38.5
				c26,15.8,41.6,42.1,55.8,68.6c7.2,13.5,16.5,25.9,24.1,39.2c8.9,15.5,14.2,32.2,18.8,49.4c7.3,27.3,18.3,48.8,37.6,69
				c17.9,18.9,39.7,34,61.7,47.1c19,11.4,34.4,33.1,56.8,31.5c22-1.6,47.7-10.7,66.5-22C798.7,804.1,797.5,796.6,789.4,790.4z"/>
			<g>
				<path class="st1" d="M693.9,772c-19.2-6.9-25.9-11-41.7-24.5c-21.1-17.9-32.1-44.1-42.3-69.5c-12.7-31.5-26.4-54.9-41.6-85.2
					c-13.2-26.2-27.7-56.7-50.6-74.2c-23.8-18.1-39.9-23.9-65.8-38.1c-13.3-7.3-26.6-18.7-35.6-31.2c-5.5-7.7-15.5-21.4-21.5-27
					c-4.7-4.3-13.1-8.7-15.6,5.9c-0.9,5.3,0,17.8,0,17.8v39c0,0-0.2,15.6,6.3,24.2c26.3,23.4,58.7,46.4,82.6,61.1
					c19.6,12.1,32.5,32.6,42.4,53.3c17.9,37.5,21.3,80.9,41.1,117.3c10.2,18.7,24.2,40.9,41.7,51.4c19.3,11.6,40.3,24.7,60.8,33.9
					c16,7.2,35.9,12.6,52.9,16.2c18.5,3.9,24.8-20.4,24.9-34.4c0-3.1-0.4-5.9-1.1-8.5C726.4,783.8,709,777.4,693.9,772z"/>
				<g>
					<path class="st2" d="M693.9,772c-19.2-6.9-25.9-11-41.7-24.5c-21.1-17.9-32.1-44.1-42.3-69.5c-12.7-31.5-26.4-54.9-41.6-85.2
						c-13.2-26.2-27.7-56.7-50.6-74.2c-23.8-18.1-39.9-23.9-65.8-38.1c-13.3-7.3-26.6-18.7-35.6-31.2c-5.5-7.7-15.5-21.4-21.5-27
						c-4.7-4.3-13.1-8.7-15.6,5.9c-0.1,0.9-0.2,1.9-0.3,3.1c1.4,2.6,3.1,5.1,4.8,7.3c7.1,9.1,14.8,25.5,24.1,31.7
						c10.2,6.8,44.9,26.9,54.7,33.9c28,19.9,55.5,24.6,83.5,73.2c32.3,55.7,37.6,116.3,76,160c17.4,19.8,32.3,42.4,74,53.4
						c21.7,5.8,36.1,17.2,35.6,24.6c0.3-2.6,0.5-5.1,0.6-7.3c0-3.1-0.4-5.9-1.1-8.5C726.4,783.8,709,777.4,693.9,772z"/>
				</g>
			</g>
		</g>
		<g>
			<g>
				<path class="st3" d="M367,132.6c0-1.3,0-2.1-0.7-2.7c0.2-0.4,0.5-0.9,0.7-1.3c2.4-4.7-5.7-2.7-7.3-2
					c-4.7,2-102.9,106.6-122.2,123.2c-10.6,9.1-33.7,25-21.2,40.2c11.3,13.7,59.3,24.2,59.3,24.2s55.3,20.1,72.4,19.9
					c24.4-0.2,18.5-56.2,19.3-73.5C369.3,219.1,367.3,169.8,367,132.6z"/>
				<path class="st1" d="M545,268.7c-35.1-29-123.3-105.4-133.7-115.4c-6.5-6.2-49.8-44.6-53.9-23.1c-3.2,16.8-4.9,27.1-6.9,40.3
					c-4.2,26.7-16.9,81.5-19.6,100.7c-1,7-12.3,50.4-6.9,56.3c15.8,17.3,66.2-4.1,86-7.9c24.2-4.7,47.7-12.6,71.2-19.3
					C492.2,297.1,565.4,285.5,545,268.7z"/>
			</g>
			<g>
				<path class="st2" d="M243.9,250.8c-8.2,7.5-18.5,16.5-16.8,28.5c1.8,13.1,24.6,17.7,34.2,20.8c2,0.7,8.7-2.4,5.9-3.3
					c-11.7-3.7-29.5-5.1-27.1-21.7C242,262.5,348,147.6,348,147.6S259.2,236.8,243.9,250.8z"/>
			</g>
		</g>
		<g>
			<g>
				<path class="st1" d="M341.2,564.9L229.6,535c-3.7-1-7.6,1.5-8.7,5.5l-1.8,6.9c-1.1,4.1,1,8.1,4.7,9.1l111.6,29.9
					c3.7,1,7.6-1.5,8.7-5.5l1.8-6.9C347,570,344.9,565.9,341.2,564.9z"/>
				<path class="st2" d="M337.9,565.5l-103-27.6c-2.7-0.7-5.5,1.1-6.3,4c-0.8,2.9,0.7,5.9,3.5,6.6l103,27.6c2.7,0.7,5.5-1.1,6.3-4
					C342.1,569.2,340.6,566.2,337.9,565.5z"/>
			</g>
			<g>
				<g>
					<path class="st2" d="M230.3,537.9c-4.2-0.8-8.1,2.3-6.5,8.7c0.5,2.1,4.9,0.6,4.4-1.5c-0.3-1.3-0.3-2.5,0.3-3.6
						c0.3-0.6,0.6-0.6,1.1-0.5c1.1,0.2,2.3-0.1,3.1-1.1C233.2,539.2,230.3,537.9,230.3,537.9z"/>
				</g>
				<g>
					<path class="st2" d="M228.5,549.7c0-1-2.2-0.4-2.2,0.7c0,0.4,0.1,0.6,0.4,0.9c0.6,0.7,2.7-0.3,2-1.1
						C228.5,550.2,228.5,550,228.5,549.7z"/>
				</g>
			</g>
		</g>
		<g>
			<g>
				<path class="st1" d="M341.2,634l-111.6-29.9c-3.7-1-7.6,1.5-8.7,5.5l-1.8,6.9c-1.1,4,1,8.1,4.7,9.1l111.6,29.9
					c3.7,1,7.6-1.5,8.7-5.5l1.8-6.9C347,639.1,344.9,635,341.2,634z"/>
				<path class="st2" d="M337.9,634.7l-103-27.6c-2.7-0.7-5.5,1.1-6.3,4c-0.8,2.9,0.7,5.9,3.5,6.6l103,27.6c2.7,0.7,5.5-1.1,6.3-4
					C342.1,638.4,340.6,635.4,337.9,634.7z"/>
			</g>
			<g>
				<g>
					<path class="st2" d="M230.3,607c-4.2-0.8-8.1,2.3-6.5,8.7c0.5,2.1,4.9,0.6,4.4-1.5c-0.3-1.3-0.3-2.5,0.3-3.7
						c0.3-0.6,0.6-0.6,1.1-0.5c1.1,0.2,2.3-0.1,3.1-1.1C233.2,608.3,230.3,607,230.3,607z"/>
				</g>
				<g>
					<path class="st2" d="M228.5,618.9c0-1-2.2-0.4-2.2,0.7c0,0.4,0.1,0.6,0.4,0.9c0.6,0.7,2.7-0.3,2-1.1
						C228.5,619.3,228.5,619.2,228.5,618.9z"/>
				</g>
			</g>
		</g>
		<g>
			<g>
				<path class="st1" d="M341.2,703.2l-111.6-29.9c-3.7-1-7.6,1.5-8.7,5.5l-1.8,6.9c-1.1,4,1,8.1,4.7,9.1l111.6,29.9
					c3.7,1,7.6-1.5,8.7-5.5l1.8-6.9C347,708.3,344.9,704.2,341.2,703.2z"/>
				<path class="st2" d="M337.9,703.8l-103-27.6c-2.7-0.7-5.5,1.1-6.3,4c-0.8,2.9,0.7,5.9,3.5,6.6l103,27.6c2.7,0.7,5.5-1.1,6.3-4
					C342.1,707.5,340.6,704.5,337.9,703.8z"/>
			</g>
			<g>
				<g>
					<path class="st2" d="M230.3,676.2c-4.2-0.8-8.1,2.3-6.5,8.7c0.5,2.1,4.9,0.6,4.4-1.5c-0.3-1.3-0.3-2.5,0.3-3.6
						c0.3-0.6,0.6-0.6,1.1-0.5c1.1,0.2,2.3-0.1,3.1-1.1C233.2,677.5,230.3,676.2,230.3,676.2z"/>
				</g>
				<g>
					<path class="st2" d="M228.5,688.1c0-1-2.2-0.4-2.2,0.7c0,0.4,0.1,0.6,0.4,0.9c0.6,0.7,2.7-0.3,2-1.1
						C228.5,688.5,228.5,688.3,228.5,688.1z"/>
				</g>
			</g>
		</g>
		<g>
			<path class="st2" d="M221,304.1c-1.2,0-2.2,1-2.2,2.2c0,1.2,1,2.2,2.2,2.2c1.2,0,2.2-1,2.2-2.2
				C223.2,305.1,222.3,304.1,221,304.1z"/>
			<path class="st2" d="M223.8,311.3c-1.5,0-2.8,1.3-2.8,2.8s1.3,2.8,2.8,2.8s2.8-1.3,2.8-2.8S225.3,311.3,223.8,311.3z"/>
		</g>
		<g>
			<path class="st2" d="M329.3,342c-1.2,0-2.2,1-2.2,2.2c0,1.2,1,2.2,2.2,2.2c1.2,0,2.2-1,2.2-2.2C331.5,343,330.5,342,329.3,342z"
				/>
			<path class="st2" d="M332.1,349.2c-1.5,0-2.8,1.3-2.8,2.8c0,1.5,1.3,2.8,2.8,2.8c1.5,0,2.8-1.3,2.8-2.8
				C334.9,350.5,333.6,349.2,332.1,349.2z"/>
		</g>
		<g>
			<path class="st2" d="M583.9,265.2c-1.2,0-2.2,1-2.2,2.2c0,1.2,1,2.2,2.2,2.2c1.2,0,2.2-1,2.2-2.2
				C586.1,266.2,585.1,265.2,583.9,265.2z"/>
			<path class="st2" d="M586.7,272.4c-1.5,0-2.8,1.3-2.8,2.8s1.3,2.8,2.8,2.8c1.5,0,2.8-1.3,2.8-2.8S588.2,272.4,586.7,272.4z"/>
		</g>
		<g>
			<path class="st2" d="M705.6,313.5c-1.2,0-2.2,1-2.2,2.2c0,1.2,1,2.2,2.2,2.2c1.2,0,2.2-1,2.2-2.2
				C707.8,314.5,706.8,313.5,705.6,313.5z"/>
			<path class="st2" d="M708.4,320.8c-1.5,0-2.8,1.3-2.8,2.8s1.3,2.8,2.8,2.8s2.8-1.3,2.8-2.8S709.9,320.8,708.4,320.8z"/>
		</g>
		<g>
			<path class="st2" d="M217,773.8c-1.4,0-2.5,1.1-2.5,2.5c0,1.4,1.1,2.5,2.5,2.5c1.4,0,2.5-1.1,2.5-2.5
				C219.5,774.9,218.4,773.8,217,773.8z"/>
			<path class="st2" d="M221.9,769.8c-0.7,0-1.4,0.6-1.4,1.4c0,0.8,0.6,1.4,1.4,1.4c0.7,0,1.4-0.6,1.4-1.4
				C223.2,770.4,222.6,769.8,221.9,769.8z"/>
		</g>
		<g>
			<path class="st2" d="M325,811.3c-1.4,0-2.5,1.1-2.5,2.5c0,1.4,1.1,2.5,2.5,2.5c1.4,0,2.5-1.1,2.5-2.5
				C327.5,812.4,326.4,811.3,325,811.3z"/>
			<path class="st2" d="M329.9,807.4c-0.7,0-1.4,0.6-1.4,1.4c0,0.8,0.6,1.4,1.4,1.4s1.4-0.6,1.4-1.4
				C331.3,808,330.7,807.4,329.9,807.4z"/>
		</g>
		<g>
			<path class="st2" d="M409.5,711.2c-1.4,0-2.5,1.1-2.5,2.5c0,1.4,1.1,2.5,2.5,2.5c1.4,0,2.5-1.1,2.5-2.5
				C411.9,712.3,410.8,711.2,409.5,711.2z"/>
			<path class="st2" d="M414.3,707.3c-0.8,0-1.4,0.6-1.4,1.4c0,0.8,0.6,1.4,1.4,1.4s1.4-0.6,1.4-1.4
				C415.7,707.9,415.1,707.3,414.3,707.3z"/>
		</g>
		<g>
			<path class="st2" d="M523.5,758.3c-1.4,0-2.5,1.1-2.5,2.5c0,1.3,1.1,2.5,2.5,2.5c1.4,0,2.5-1.1,2.5-2.5
				C526,759.4,524.9,758.3,523.5,758.3z"/>
			<path class="st2" d="M528.4,754.4c-0.7,0-1.4,0.6-1.4,1.4c0,0.8,0.6,1.4,1.4,1.4c0.8,0,1.4-0.6,1.4-1.4
				C529.8,755,529.2,754.4,528.4,754.4z"/>
		</g>
	</g>
</g>
</svg>
