<?xml version="1.0" encoding="UTF-8"?>
<svg id="Layer_1" data-name="Layer 1" xmlns="http://www.w3.org/2000/svg" xmlns:xlink="http://www.w3.org/1999/xlink" viewBox="0 0 2000 2000">
  <defs>
    <style>
      .cls-1, .cls-2, .cls-3, .cls-4, .cls-5 {
        fill: none;
      }

      .cls-1, .cls-2, .cls-5 {
        stroke-linecap: round;
      }

      .cls-1, .cls-6, .cls-7, .cls-8, .cls-9, .cls-10, .cls-5 {
        stroke-miterlimit: 10;
      }

      .cls-1, .cls-8, .cls-9, .cls-5 {
        stroke: #ed1c24;
      }

      .cls-1, .cls-5 {
        stroke-width: 12.29px;
      }

      .cls-2 {
        stroke: #fff;
        stroke-width: 3.8px;
      }

      .cls-2, .cls-4 {
        stroke-linejoin: round;
      }

      .cls-3, .cls-11, .cls-12, .cls-13, .cls-14, .cls-15, .cls-16, .cls-17, .cls-18, .cls-19, .cls-20, .cls-21, .cls-22, .cls-23, .cls-24 {
        stroke-width: 0px;
      }

      .cls-11 {
        fill: url(#linear-gradient);
      }

      .cls-12 {
        fill: #e3b931;
        opacity: .77;
      }

      .cls-6 {
        stroke: #231f20;
        stroke-width: 4.19px;
      }

      .cls-6, .cls-7, .cls-8, .cls-10 {
        fill: #f7fcfc;
      }

      .cls-7, .cls-8 {
        stroke-width: 1.97px;
      }

      .cls-7, .cls-4 {
        stroke: #c9a92d;
      }

      .cls-9 {
        stroke-width: 1.35px;
      }

      .cls-9, .cls-20 {
        fill: #fff;
      }

      .cls-4 {
        stroke-width: 5.79px;
      }

      .cls-13 {
        fill: url(#linear-gradient-2);
      }

      .cls-10 {
        stroke: #02625b;
        stroke-width: 1.36px;
      }

      .cls-14 {
        fill: #231f20;
      }

      .cls-15 {
        fill: #c9a92d;
      }

      .cls-16 {
        fill: #fce169;
      }

      .cls-17 {
        fill: #fde581;
      }

      .cls-18 {
        fill: #fde485;
      }

      .cls-19 {
        fill: #fdf1be;
      }

      .cls-21 {
        fill: #fff0b8;
      }

      .cls-22 {
        fill: #e3b257;
      }

      .cls-23 {
        fill: #fbdc4a;
      }

      .cls-24 {
        fill: #fefbec;
      }

      .cls-5 {
        stroke-dasharray: 0 0 39.68 49.61;
      }
    </style>
    <linearGradient id="linear-gradient" x1="133.83" y1="499.92" x2="1866.17" y2="1500.08" gradientUnits="userSpaceOnUse">
      <stop offset="0" stop-color="#fbd823"/>
      <stop offset="1" stop-color="#fdeeb1"/>
    </linearGradient>
    <linearGradient id="linear-gradient-2" x1="373.58" y1="1111.29" x2="1024.01" y2="1111.29" gradientUnits="userSpaceOnUse">
      <stop offset="0" stop-color="#fbd81e"/>
      <stop offset="1" stop-color="#d8ad2e"/>
    </linearGradient>
  </defs>
  <rect class="cls-11" x="0" y="0" width="2000" height="2000" rx="1000" ry="1000"/>
  <rect class="cls-14" x="345.77" y="941.71" width="708.44" height="485.43" rx="15.27" ry="15.27"/>
  <g>
    <path class="cls-1" d="m1449.44,973.08c6.68.7,13.17,1.62,19.47,2.75"/>
    <path class="cls-5" d="m1516.48,989.54c160.53,66.52,141.01,297.35-71.29,374.75-238.3,86.88-282.49-186.93-111.44-202.32,152.84-13.75,354.29,176.91,165.61,370.8-115.84,119.04-412.8,97.44-608.96,28.82"/>
    <path class="cls-1" d="m867.11,1553.04c-6.21-2.39-12.29-4.83-18.25-7.32"/>
  </g>
  <rect class="cls-22" x="610.12" y="1408.71" width="170.54" height="129.79"/>
  <rect class="cls-20" x="366.26" y="961.41" width="666.68" height="358.55"/>
  <path class="cls-24" d="m345.77,1338.87h708.44v74.15c0,7.79-6.32,14.11-14.11,14.11H359.88c-7.79,0-14.11-6.32-14.11-14.11v-74.15h0Z"/>
  <polygon class="cls-24" points="886.58 1556.46 886.58 1564.05 504.2 1564.05 504.2 1556.46 518.11 1527.39 872.04 1527.39 886.58 1556.46"/>
  <rect class="cls-22" x="504.2" y="1555.52" width="382.37" height="8.53"/>
  <rect class="cls-14" x="945.79" y="376.28" width="708.44" height="485.43" rx="15.27" ry="15.27"/>
  <rect class="cls-22" x="1210.13" y="843.29" width="170.54" height="129.79"/>
  <rect class="cls-20" x="966.27" y="395.98" width="666.68" height="358.55"/>
  <path class="cls-24" d="m945.79,773.45h708.44v74.15c0,7.79-6.32,14.11-14.11,14.11h-680.23c-7.79,0-14.11-6.32-14.11-14.11v-74.15h0Z"/>
  <g>
    <polygon class="cls-24" points="1486.59 991.04 1486.59 998.63 1104.22 998.63 1104.22 991.04 1118.12 961.97 1472.05 961.97 1486.59 991.04"/>
    <rect class="cls-22" x="1104.22" y="990.1" width="382.37" height="8.53"/>
  </g>
  <rect class="cls-3" x="1133.61" y="425.07" width="323.59" height="300.38"/>
  <rect class="cls-3" x="1130.88" y="408.96" width="326.32" height="326.32"/>
  <g>
    <path class="cls-23" d="m1194.47,726.29h211.08c25.12,0,45.49-20.37,45.49-45.49v-211.08c0-25.12-20.37-45.49-45.49-45.49h-211.08c-25.12,0-45.49,20.37-45.49,45.49v211.08c0,25.12,20.37,45.49,45.49,45.49Z"/>
    <g>
      <path class="cls-10" d="m1221.12,708.23c22.52,0,45.73-15.63,69.02-46.47,2.77,1.72,5.96,2.63,9.29,2.63h.73c3.94,0,7.68-1.29,10.72-3.63,23.55,31.5,47.01,47.47,69.77,47.47h.37c22.12-.16,42.71-15.35,59.54-43.96,1.16-1.97,1.48-4.27.91-6.48-.57-2.21-1.98-4.06-3.94-5.22-1.31-.77-2.81-1.18-4.33-1.18-3.02,0-5.85,1.62-7.37,4.22-9.49,16.13-24.99,35.39-44.95,35.53h-.23c-19.15,0-40.28-16.84-62.81-50.05v-2.33c19.65,14.41,38.6,21.71,56.41,21.71,2.13,0,4.28-.11,6.38-.32,21.37-2.12,40.47-15.01,55.23-37.28,1.26-1.9,1.71-4.18,1.25-6.42-.46-2.24-1.75-4.17-3.66-5.43-1.4-.93-3.03-1.42-4.71-1.42-2.88,0-5.54,1.43-7.13,3.83-8.24,12.44-22.33,27.7-42.66,29.71-1.55.15-3.13.23-4.71.23-16.99,0-35.96-8.89-56.39-26.43v-8.21c15.21,6.99,30.15,10.52,44.49,10.52,29.99,0,53.63-15.23,70.89-28.5,1.81-1.39,2.97-3.4,3.26-5.67.29-2.26-.31-4.51-1.7-6.31-1.63-2.12-4.11-3.34-6.78-3.34-1.9,0-3.7.61-5.21,1.77-16.01,12.32-35.71,24.91-60.42,24.91h0c-14.26,0-28.84-4.09-44.53-12.49v-12.43c12.21,3.69,24.54,5.56,36.73,5.56,24.86,0,49.92-7.69,74.47-22.87,1.94-1.2,3.3-3.09,3.83-5.31.52-2.22.15-4.52-1.05-6.46-1.57-2.54-4.29-4.06-7.28-4.06-1.59,0-3.14.44-4.49,1.28-21.72,13.42-43.77,20.23-65.54,20.23-12.2,0-24.52-2.14-36.68-6.37v-13.16c7.7,1.59,15.68,2.39,23.77,2.39,30.25,0,59.28-11.01,83.7-21.78,2.09-.92,3.69-2.6,4.52-4.73.83-2.13.77-4.45-.15-6.54-1.37-3.1-4.43-5.1-7.82-5.1-1.19,0-2.36.25-3.46.73-24.01,10.59-49.89,20.4-76.37,20.4-8.29,0-16.41-.97-24.19-2.89v-16.31c6.28,1.11,12.75,1.67,19.28,1.67,28.62,0,56.02-10.59,79.45-20.51,4.34-1.84,6.37-6.87,4.54-11.21-1.34-3.17-4.43-5.21-7.87-5.21-1.15,0-2.27.23-3.33.68-21.78,9.23-47.17,19.07-72.81,19.07-6.57,0-13.04-.65-19.25-1.94v-14.79c.33,0,.66,0,.98,0,27.24,0,52.17-5.03,74.09-14.94,4.29-1.94,6.21-7.02,4.27-11.31-1.38-3.05-4.44-5.03-7.79-5.03-1.22,0-2.4.26-3.51.76-19.7,8.91-42.26,13.42-67.06,13.42-.46,0-.92,0-1.38,0-1.71-7.96-8.86-13.99-17.27-13.99h-.73c-8.41,0-15.55,6.02-17.27,13.98-24.51-.1-46.8-4.6-66.26-13.4-1.12-.51-2.3-.76-3.52-.76-3.35,0-6.41,1.98-7.79,5.03-1.94,4.29-.03,9.37,4.27,11.31,21.6,9.77,46.12,14.79,72.89,14.94v15.2c-5.53,1.01-11.26,1.52-17.08,1.52-25.67,0-51.03-9.83-72.79-19.05-1.06-.45-2.19-.68-3.34-.68-3.44,0-6.53,2.05-7.87,5.22-1.83,4.34.2,9.37,4.54,11.21,23.43,9.92,50.82,20.51,79.45,20.51,5.76,0,11.5-.44,17.1-1.31v16.47c-7.1,1.58-14.49,2.38-22,2.38-26.49,0-52.36-9.8-76.38-20.4-1.1-.48-2.26-.73-3.45-.73-3.38,0-6.45,2-7.82,5.1-1.9,4.31.06,9.37,4.37,11.27,24.41,10.77,53.45,21.78,83.7,21.78,7.32,0,14.56-.66,21.58-1.97v13.46c-11.45,3.74-23.04,5.64-34.52,5.64-21.77,0-43.81-6.8-65.51-20.22-1.36-.84-2.91-1.28-4.49-1.28-2.99,0-5.71,1.52-7.28,4.05-2.48,4.01-1.23,9.29,2.78,11.77,24.55,15.18,49.61,22.87,74.48,22.87,11.48,0,23.08-1.65,34.54-4.91v12.96c-14.87,7.63-28.73,11.34-42.32,11.34-24.71,0-44.42-12.61-60.45-24.93-1.51-1.16-3.31-1.77-5.21-1.77-2.68,0-5.15,1.22-6.78,3.34-1.39,1.81-2,4.05-1.7,6.32.3,2.26,1.46,4.28,3.27,5.67,17.25,13.27,40.9,28.5,70.88,28.5,13.63,0,27.84-3.21,42.31-9.56v9.09c-19.61,16.32-37.84,24.59-54.23,24.59-1.58,0-3.16-.08-4.7-.23-20.33-2.01-34.42-17.27-42.66-29.71-1.59-2.4-4.25-3.83-7.13-3.83-1.68,0-3.31.49-4.72,1.42-1.9,1.26-3.2,3.19-3.66,5.42-.45,2.24,0,4.52,1.25,6.42,14.76,22.27,33.86,35.16,55.23,37.28,2.12.21,4.26.32,6.38.32,17.15,0,35.37-6.77,54.23-20.13v3.93c-21.71,31.11-42.11,46.88-60.63,46.88h-.25c-19.94-.14-35.44-19.4-44.93-35.53-1.53-2.6-4.35-4.22-7.37-4.22-1.52,0-3.02.41-4.33,1.18-1.97,1.16-3.37,3.01-3.94,5.22-.57,2.21-.25,4.51.91,6.48,16.82,28.6,37.42,43.8,59.57,43.96h.34Z"/>
      <path class="cls-12" d="m1212.38,452.1c-1.94,0-3.8,1.12-4.65,3-1.16,2.57-.02,5.59,2.55,6.75,21.52,9.73,45.91,14.63,72.67,14.63.74,0,1.5-.03,2.25-.04v21.52c-6.88,1.48-13.73,2.14-20.53,2.14-25.48,0-50.34-9.24-74.14-19.32-.65-.28-1.32-.41-1.99-.41-1.99,0-3.88,1.17-4.7,3.11-1.1,2.59.11,5.59,2.71,6.69,24.93,10.56,51,20.23,78.1,20.23,6.78,0,13.63-.61,20.54-1.96v23.3c-8.57,2.16-17.06,3.1-25.45,3.1-27.6,0-53.98-10.2-77.77-20.69-.67-.3-1.37-.44-2.06-.44-1.96,0-3.83,1.14-4.67,3.04-1.14,2.58.03,5.59,2.61,6.73,26.36,11.63,54,21.49,82.31,21.49,8.29,0,16.64-.85,25.03-2.75v20.16c-12.62,4.41-25.28,6.61-37.96,6.61-22.46,0-44.97-6.91-67.33-20.73-.84-.52-1.76-.76-2.68-.76-1.71,0-3.38.86-4.34,2.42-1.48,2.4-.74,5.54,1.66,7.02,24.11,14.9,48.4,22.36,72.66,22.36,12.68,0,25.35-2.04,37.99-6.11v19.69c-16.96,9.02-32.06,12.7-45.77,12.7-24.38,0-44.36-11.65-62.55-25.65-.93-.71-2.02-1.06-3.11-1.06-1.53,0-3.04.69-4.05,1.99-1.72,2.23-1.3,5.44.93,7.15,19.17,14.75,41.41,27.79,68.78,27.79,13.85,0,29.02-3.36,45.76-11.51v16.08c-20.74,17.56-40.07,26.43-57.67,26.43-1.69,0-3.37-.08-5.04-.25-21.67-2.15-36.54-18.17-45.2-31.24-.98-1.48-2.6-2.28-4.26-2.28-.97,0-1.95.27-2.81.85-2.35,1.56-2.99,4.72-1.44,7.07,14.16,21.38,32.39,33.74,52.7,35.76,2,.2,4.01.3,6.04.3,18.11,0,37.42-7.89,57.68-23.52v11.85c-22.63,32.69-44.14,49.24-64.07,49.24h-.25c-21.58-.15-37.96-20.33-47.9-37.23-.95-1.62-2.65-2.52-4.4-2.52-.88,0-1.77.23-2.58.7-2.43,1.43-3.24,4.55-1.81,6.98,16.18,27.5,35.75,42.11,56.62,42.26.1,0,.21,0,.32,0,22.1,0,45.02-16.1,68.36-47.91,2.57,2.51,6.07,4.07,9.95,4.07h.73c4.53,0,8.55-2.12,11.16-5.41,23.67,32.7,46.93,49.25,69.34,49.25.11,0,.21,0,.32,0,20.87-.14,40.45-14.76,56.62-42.26,1.43-2.43.62-5.56-1.81-6.98-.81-.48-1.7-.7-2.58-.7-1.75,0-3.45.9-4.4,2.52-9.94,16.9-26.32,37.08-47.9,37.23h-.25c-20.58,0-42.82-17.63-66.26-52.44v-10.36c21.06,16.77,41.11,25.23,59.86,25.23,2.03,0,4.04-.1,6.04-.3,20.31-2.01,38.53-14.38,52.7-35.76,1.56-2.35.91-5.51-1.44-7.07-.87-.57-1.84-.85-2.81-.85-1.65,0-3.28.8-4.26,2.29-8.66,13.07-23.52,29.09-45.2,31.24-1.67.17-3.35.25-5.05.25-18.21,0-38.29-9.5-59.84-28.3v-15.28c17.61,8.93,33.49,12.57,47.94,12.57,27.37,0,49.61-13.04,68.78-27.79,2.23-1.72,2.65-4.92.93-7.15-1-1.31-2.52-1.99-4.05-1.99-1.08,0-2.18.34-3.11,1.06-18.19,13.99-38.15,25.62-62.53,25.62-14.3,0-30.12-4.01-47.97-13.89v-19.21c13.36,4.56,26.77,6.84,40.18,6.84,24.27,0,48.55-7.45,72.66-22.36,2.4-1.48,3.14-4.63,1.66-7.02-.97-1.56-2.64-2.42-4.35-2.42-.92,0-1.84.25-2.68.76-22.37,13.83-44.88,20.74-67.35,20.74-13.4,0-26.79-2.46-40.13-7.39v-19.9c9.13,2.26,18.2,3.26,27.21,3.26,28.31,0,55.95-9.86,82.31-21.49,2.58-1.14,3.75-4.15,2.61-6.73-.84-1.91-2.71-3.04-4.67-3.04-.69,0-1.39.14-2.06.44-23.79,10.5-50.17,20.69-77.77,20.69-9.09,0-18.33-1.11-27.64-3.68v-23.17c7.65,1.67,15.23,2.41,22.73,2.41,27.11,0,53.17-9.68,78.1-20.23,2.59-1.1,3.81-4.09,2.71-6.69-.82-1.95-2.71-3.11-4.7-3.11-.66,0-1.34.13-1.99.41-23.81,10.08-48.67,19.34-74.16,19.34-7.51,0-15.08-.8-22.69-2.63v-21.08c1.48.03,2.97.08,4.43.08,26.77,0,51.15-4.9,72.67-14.63,2.57-1.16,3.71-4.18,2.55-6.75-.85-1.89-2.71-3-4.65-3-.7,0-1.42.14-2.1.45-20.19,9.13-43.17,13.72-68.48,13.72-1.47,0-2.95-.02-4.44-.05-.15-7.73-6.45-13.95-14.21-13.95h-.73c-7.77,0-14.07,6.23-14.21,13.97-.75,0-1.5.01-2.25.01-25.31,0-48.29-4.58-68.48-13.71-.68-.31-1.39-.45-2.1-.45m0-6.89h0c1.71,0,3.37.36,4.93,1.07,18.33,8.29,39.26,12.68,62.26,13.07,2.96-8.11,10.79-13.95,19.84-13.95h.73c9.07,0,16.9,5.86,19.86,13.99,23.84-.14,45.51-4.55,64.43-13.11,1.57-.71,3.23-1.07,4.94-1.07,4.71,0,9,2.77,10.94,7.05,2.73,6.03.04,13.15-5.99,15.87-21.71,9.82-46.28,14.94-73.05,15.23v8.5c5.13.89,10.43,1.35,15.8,1.35,25,0,50-9.7,71.47-18.79,1.49-.63,3.07-.95,4.68-.95,4.83,0,9.17,2.87,11.05,7.32,2.58,6.09-.28,13.14-6.37,15.72-23.74,10.05-51.52,20.78-80.79,20.78-5.34,0-10.64-.36-15.83-1.08v9.54c6.71,1.45,13.66,2.19,20.74,2.19,25.85,0,51.31-9.66,74.98-20.11,1.53-.68,3.17-1.02,4.84-1.02,4.75,0,9.06,2.81,10.98,7.16,1.29,2.93,1.37,6.19.21,9.18-1.16,2.99-3.41,5.35-6.34,6.64-24.74,10.92-54.2,22.07-85.09,22.07-6.88,0-13.68-.57-20.32-1.69v6.53c11.04,3.58,22.2,5.4,33.23,5.4,21.12,0,42.56-6.63,63.73-19.71,1.9-1.17,4.08-1.79,6.3-1.79,4.19,0,8,2.13,10.21,5.69,3.48,5.63,1.73,13.04-3.9,16.51-25.11,15.52-50.77,23.39-76.29,23.39-11.05,0-22.21-1.49-33.28-4.45v5.79c14.48,7.48,27.95,11.13,41.08,11.13,23.68,0,42.77-12.23,58.32-24.19,2.09-1.6,4.68-2.49,7.31-2.49,3.76,0,7.22,1.71,9.51,4.68,4.04,5.25,3.05,12.79-2.19,16.83-17.69,13.6-41.96,29.22-72.99,29.22-13.29,0-27.06-2.92-41.04-8.71v1.35c19.33,16.31,37.13,24.58,52.95,24.58,1.47,0,2.94-.07,4.37-.22,18.98-1.88,32.3-16.36,40.13-28.18,2.23-3.36,5.97-5.37,10-5.37,2.36,0,4.65.69,6.62,2,2.67,1.77,4.49,4.47,5.13,7.61.64,3.14.01,6.34-1.75,9.01-15.35,23.17-35.32,36.59-57.76,38.81-2.2.22-4.46.33-6.72.33-14.7,0-30.09-4.72-45.92-14.07,18.79,24.82,36.73,37.85,52.31,37.85h.25c18.3-.13,32.92-18.47,41.96-33.83,2.15-3.65,6.11-5.92,10.34-5.92,2.13,0,4.24.57,6.08,1.66,2.76,1.62,4.72,4.22,5.53,7.33.8,3.1.35,6.33-1.27,9.09-17.47,29.7-39.09,45.49-62.52,45.66h-.36c-23.26,0-46.99-15.57-70.59-46.29-3,1.6-6.39,2.46-9.9,2.46h-.73c-2.9,0-5.71-.58-8.3-1.69-23.4,30.22-46.93,45.53-70.01,45.53h-.41c-23.38-.16-45-15.95-62.47-45.66-1.63-2.76-2.08-5.99-1.27-9.09.8-3.1,2.77-5.71,5.53-7.33,1.84-1.08,3.94-1.66,6.07-1.66,4.23,0,8.2,2.27,10.34,5.91,9.04,15.37,23.66,33.7,42.01,33.83h.2c15.82,0,33.4-12.73,52.34-37.86-15.83,9.35-31.23,14.08-45.94,14.08-2.24,0-4.5-.11-6.72-.33-22.44-2.22-42.42-15.64-57.76-38.81-1.77-2.67-2.39-5.87-1.76-9.01.64-3.14,2.46-5.85,5.13-7.62,1.97-1.3,4.26-1.99,6.62-1.99,4.04,0,7.78,2.01,10.01,5.37,7.83,11.82,21.15,26.31,40.13,28.18,1.43.14,2.9.21,4.36.21,15.22,0,32.29-7.66,50.78-22.76v-2.29c-13.24,5.21-26.27,7.84-38.86,7.84-31.02,0-55.3-15.61-72.99-29.22-2.54-1.95-4.17-4.78-4.58-7.96-.42-3.18.43-6.33,2.39-8.87,2.29-2.98,5.76-4.68,9.51-4.68,2.63,0,5.22.88,7.31,2.49,15.57,11.98,34.68,24.22,58.35,24.22,12.46,0,25.21-3.28,38.87-10.02v-6.34c-10.34,2.57-20.77,3.87-31.1,3.87-25.51,0-51.18-7.87-76.29-23.39-5.63-3.48-7.38-10.89-3.9-16.51,2.2-3.56,6.02-5.69,10.21-5.69,2.22,0,4.4.62,6.29,1.79,21.16,13.08,42.59,19.71,63.71,19.71,10.31,0,20.74-1.58,31.07-4.71v-6.85c-5.94.89-12.01,1.34-18.14,1.34-30.89,0-60.35-11.16-85.09-22.07-2.93-1.29-5.18-3.65-6.34-6.64-1.16-2.99-1.08-6.25.21-9.18,1.92-4.35,6.23-7.16,10.97-7.16,1.68,0,3.31.34,4.85,1.03,23.66,10.44,49.13,20.1,74.98,20.1,6.31,0,12.53-.58,18.55-1.74v-9.71c-4.5.53-9.06.8-13.65.8-29.27,0-57.05-10.73-80.79-20.78-6.09-2.58-8.95-9.64-6.37-15.73,1.88-4.45,6.22-7.32,11.05-7.32,1.61,0,3.19.32,4.68.95,21.45,9.08,46.43,18.77,71.45,18.77,4.62,0,9.19-.33,13.63-.99v-8.87c-25.92-.54-49.75-5.65-70.87-15.2-6.03-2.73-8.71-9.85-5.99-15.87,1.94-4.29,6.24-7.06,10.94-7.06h0Z"/>
    </g>
  </g>
  <rect class="cls-16" x="484.99" y="660.57" width="177.79" height="146.28" transform="translate(-352.08 632.45) rotate(-45.73)"/>
  <polygon class="cls-17" points="419.89 774.17 486.4 705.95 530.7 721.36 611.34 638.65 692.02 717.31 530.99 882.48 419.89 774.17"/>
  <rect class="cls-18" x="561.87" y="580" width="177.79" height="146.28" transform="translate(-217.91 344.12) rotate(-25.52)"/>
  <polygon class="cls-19" points="492.27 637.93 578.26 596.87 614.51 626.64 718.75 576.87 767.3 678.55 559.13 777.95 492.27 637.93"/>
  <rect class="cls-21" x="676.17" y="520.36" width="177.79" height="146.28" transform="translate(-46.32 65.09) rotate(-4.73)"/>
  <polygon class="cls-20" points="622.3 523.01 717.26 515.16 740.57 555.85 855.7 546.33 864.99 658.63 635.09 677.64 622.3 523.01"/>
  <rect class="cls-13" x="373.58" y="1038.01" width="650.42" height="146.58"/>
  <rect class="cls-20" x="564.92" y="1015.31" width="40.4" height="239.77"/>
  <rect class="cls-20" x="795.66" y="1007.6" width="38.4" height="239.77"/>
  <g>
    <path class="cls-2" d="m734.93,1124.17c.05-4.53,1.83-8.17,3.71-12.02,2.81-5.75,6-12.27,4.09-23.21-1.57-9.02-6.45-16.58-14.11-21.85-7.55-5.2-17.45-7.95-28.63-7.95s-21.08,2.75-28.63,7.95c-7.66,5.28-12.54,12.83-14.11,21.85-1.91,10.93,1.28,17.45,4.09,23.21,1.88,3.85,3.66,7.49,3.71,12.02-.62.53-1.19,1.12-1.68,1.76-2.34,3.05-3.03,7.22-1.98,12.07.9,4.16,2.87,7.15,5.86,8.9,4.93,2.88,10.93,1.37,12.66.84.79-.25,1.51-.41,2.17-.53,1.41,1.01,1.75,2.55.92,4.24-1,2.03-.67,3.02.59,4.34-.07.09-.15.19-.22.29l-.06.09c-.7,1.03-1.77,2.59-1.36,3.98.69,2.33,2.44,2.66,4.67,2.74.22.62.59,1.13,1.11,1.49,1.01.69,2.04,1.3,3.37,1.3.43,0,.89-.06,1.4-.21,1.07,2.28,3.64,2.58,4.51,2.68.19.02.37.03.55.03.91,0,1.73-.27,2.29-.77.05-.05.1-.09.15-.14.04.05.09.1.14.14.56.5,1.38.77,2.29.77.18,0,.37-.01.55-.03.87-.1,3.45-.4,4.51-2.68.5.15.97.21,1.4.21,1.33,0,2.36-.61,3.37-1.3.51-.36.89-.87,1.11-1.49,2.23-.08,3.98-.41,4.67-2.74.41-1.38-.66-2.94-1.36-3.98l-.06-.09c-.07-.1-.14-.2-.22-.29,1.26-1.33,1.59-2.31.59-4.34-.83-1.7-.5-3.23.92-4.24.66.11,1.37.28,2.17.53,1.72.53,7.73,2.04,12.65-.84,3-1.75,4.97-4.75,5.86-8.9,1.04-4.85.36-9.03-1.98-12.07-.49-.64-1.06-1.22-1.68-1.76Zm2.57,13.59c-.83,3.84-2.62,6.58-5.33,8.17-4.53,2.65-10.15,1.24-11.76.74-3.64-1.13-6.5-.96-7.83.44-.75.79-.92,1.88-.49,3.08.08.23.3.37.53.37.06,0,.13-.01.19-.03.29-.11.44-.43.33-.72-.2-.55-.32-1.33.25-1.93.48-.51,1.48-.87,3.04-.83-1.14,1.31-1.32,3.09-.43,4.89.7,1.43-.92,3.85-.29,4.77l.06.09c.55.8,1.47,2.15,1.21,3.02-.43,1.46-1.3,1.83-3.39,1.94.01-.31-1.3,1.24-1.95,1.69-1.17.8-2.21,1.39-3.79.95.4-2.09-.49-4.67-1.65-5.39-.26-.16-.61-.09-.77.18-.16.26-.08.61.18.77.81.51,1.62,3.05,1.01,4.75-.49,1.37-1.65,2.09-3.75,2.34-.81.09-1.54-.08-1.97-.47-.15-.13-.33-.35-.33-.64v-3.92c0-1.64-.14-2.97-.56-2.36-.42-.62-.56.72-.56,2.36v3.92c0,.29-.18.51-.33.64-.43.38-1.17.56-1.97.47-2.11-.24-3.26-.96-3.75-2.34-.61-1.7.2-4.24,1.01-4.75.26-.17.34-.51.18-.77-.16-.26-.51-.34-.77-.18-1.17.73-2.05,3.3-1.65,5.39-1.58.44-2.62-.14-3.79-.95-.65-.45-1.96-2-1.95-1.69-2.09-.1-2.96-.48-3.39-1.94-.26-.87.66-2.22,1.21-3.03l.06-.09c.62-.92-1-3.34-.29-4.77.89-1.81.7-3.58-.44-4.89,1.56-.05,2.56.32,3.04.83.57.6.45,1.38.25,1.93-.11.29.04.61.34.72.06.02.13.03.19.03.23,0,.44-.14.53-.37.44-1.2.26-2.29-.49-3.08-1.34-1.41-4.19-1.57-7.83-.44-1.61.5-7.23,1.92-11.76-.74-2.71-1.59-4.51-4.34-5.33-8.17-.99-4.58-.39-8.34,1.77-11.16,2.24-2.91,6.09-4.64,10.85-4.87.31-.02.55-.28.53-.59-.01-.31-.27-.55-.59-.53-1.48.07-2.88.29-4.18.63,1.33-1.76,3.06-5.03,3.48-10.46.4-5.2-1.17-9.11-4-9.97-2.1-.63-4.3.68-5.88,3.52-.15.27-.05.61.22.76.27.15.61.05.76-.21,1.31-2.34,3.02-3.46,4.58-2.99,1.89.57,3.61,3.52,3.2,8.81-.37,4.79-1.82,7.8-3.01,9.5,0,0-1.16,1.37-2.13,2.03-.04.02-.07.04-.11.05.11-.05-1.03.5-1.35.73-.17.11-.34.21-.5.32-.24-4.39-1.97-7.94-3.8-11.68-2.87-5.87-5.84-11.95-4-22.52,3.1-17.81,19.06-28.88,41.64-28.88s38.53,11.07,41.64,28.88c1.84,10.57-1.13,16.65-4,22.52-1.83,3.74-3.56,7.28-3.8,11.68-.16-.11-.33-.21-.5-.32l-1.35-.73s-.07-.04-.11-.05c.11.05-2.13-2.03-2.13-2.03-1.18-1.7-2.64-4.71-3.01-9.5-.41-5.29,1.32-8.24,3.2-8.81,1.56-.47,3.27.65,4.58,2.99.15.27.49.36.76.21.27-.15.37-.49.22-.76-1.58-2.84-3.78-4.15-5.88-3.52-2.83.85-4.4,4.77-4,9.97.42,5.43,2.15,8.7,3.48,10.46-1.3-.34-2.7-.55-4.18-.63-.32-.02-.57.22-.59.53-.02.31.22.57.53.59,4.76.23,8.62,1.96,10.85,4.87,2.16,2.82,2.76,6.57,1.77,11.16Z"/>
    <path class="cls-2" d="m730.53,1138.11c-.19.25-.53.3-.78.11-.25-.18-.3-.53-.11-.78.9-1.19,1.09-2.43.56-3.5-.14-.28-.33-.55-.56-.8-1.14,5.44-5.27,8.57-11.76,8.86-.21,0-.41.01-.61.01-3.11,0-5.87-1.09-7.82-3.1-1.4-1.45-2.27-3.3-2.45-5.13,0-.65.03-1.4.96-2.05.05-.05.11-.09.17-.11,2.58-1.7,6.2-2.21,11.56-2.21,6.13,0,10.21,1.43,11.51,4.02.72,1.44.48,3.15-.67,4.67Z"/>
    <path class="cls-2" d="m692.98,1133.79c-.18,1.83-1.05,3.68-2.45,5.13-1.95,2.01-4.71,3.1-7.82,3.1-.2,0-.4,0-.61-.01-6.49-.29-10.62-3.43-11.76-8.86-.23.25-.42.51-.56.8-.53,1.07-.33,2.31.56,3.5.19.25.14.6-.11.78-.25.19-.6.14-.78-.11-1.15-1.53-1.39-3.23-.67-4.67,1.3-2.59,5.38-4.02,11.51-4.02,5.35,0,8.49.45,11.06,2.15.06.03.12.07.16.11.93.64,1.35,1.22,1.46,2.11Z"/>
    <path class="cls-2" d="m706.34,1147.12c-.14-.31-.27-.61-.4-.91-1.2-2.79-2.34-5.43-5.14-4.41-.52.19-1.1.19-1.62,0-2.8-1.02-3.93,1.61-5.14,4.41-.13.3-.26.6-.39.91-2.02,4.58-.29,6.59,1.52,7.47,1.7.83,3.16.64,4.35-.54.27-.27.68-.27.95,0,.7.7,1.5,1.05,2.38,1.05.62,0,1.27-.17,1.97-.51,1.81-.88,3.54-2.89,1.52-7.47Z"/>
  </g>
  <g>
    <path class="cls-2" d="m514.41,1131.7c-1.09-2.08-2.27-4.31-2.65-7.53.63-2.96,1.44-5.33,2.22-7.63,1.41-4.12,2.74-8.01,2.74-14.45,0-12.71-4.83-24.34-13.6-32.75-8.07-7.73-18.89-12.16-29.68-12.16s-21.61,4.43-29.68,12.16c-8.77,8.4-13.6,20.03-13.6,32.75,0,6.44,1.33,10.33,2.74,14.45.79,2.3,1.6,4.68,2.22,7.63-.38,3.23-1.55,5.46-2.65,7.53-.3.57-.59,1.11-.86,1.67-1.65,3.39-.6,7.09,2.81,9.89,2.53,2.08,6.09,3.4,9.9,3.4,1.77,0,3.61-.29,5.41-.92,3.07,1.81,4.32,5.44,3.37,7.57-.41.91-.21,1.97.5,2.71l.21.22c-.89,1.6-1.34,3.6-.76,4.94.66,1.51,1.56,2.05,2.72,2.05.58,0,1.23-.14,1.95-.35.26.51.59.89,1,1.14.4.25.85.37,1.37.37.37,0,.78-.06,1.22-.19,1.13-.32,1.76-.28,2.37-.23.49.03,1.01.07,1.71-.08.18.18.39.34.6.48.81.52,1.81.68,2.8.45.43-.1,1.05.01,1.66.11.48.08.97.17,1.43.17.51,0,.99-.11,1.39-.44.06-.05.11-.1.16-.15.05.05.1.11.16.15.39.33.87.44,1.39.44.46,0,.95-.08,1.43-.17.6-.1,1.23-.21,1.66-.11.99.22,1.99.06,2.8-.45.22-.14.42-.3.61-.48.7.15,1.21.12,1.71.08.61-.04,1.24-.09,2.37.23.44.13.85.19,1.22.19.52,0,.97-.12,1.37-.37.4-.25.73-.62,1-1.14.72.22,1.37.35,1.95.35,1.16,0,2.06-.54,2.72-2.05.58-1.33.13-3.34-.75-4.94l.21-.22c.71-.74.91-1.8.5-2.71-.95-2.12.3-5.75,3.37-7.56,5.69,1.98,11.62.56,15.32-2.48,3.41-2.8,4.46-6.49,2.81-9.89-.27-.56-.55-1.1-.86-1.67Zm-2.66,10.7c-3.48,2.86-9.09,4.17-14.45,2.21-.02,0-.04-.02-.06-.02-1.41-.52-2.8-1.27-4.14-2.27-2.24-1.69-3.89-1.48-4.88-1-1.64.79-.75,1.6.48,1.01.99-.47,2.23-.2,3.59.79l1.09.77c.82.54,1.65.99,2.49,1.36-2.87,2.1-4.32,5.85-3.13,8.52.22.48.1,1.08-.29,1.48l-.03.03c-.41-.53-.86-.96-1.33-1.23-.27-.15-.61-.06-.76.2-.16.27-.06.61.2.77.47.28.92.76,1.3,1.35.02.06.06.11.1.16.83,1.37,1.28,3.2.85,4.2-.56,1.28-1.15,1.72-3.25,1.1.06-.22.12-.46.16-.71.42-2.21-.87-6.36-3.19-7.11-.29-.09-.61.06-.7.36-.09.29.07.61.36.7,1.55.5,2.79,3.96,2.44,5.84-.22,1.15-.56,1.86-1.04,2.16-.4.25-.95.26-1.69.06-1.32-.37-2.08-.32-2.75-.27-.3.02-.58.04-.89.02.2-.38.35-.8.45-1.26.55-2.5.52-5.72-1.25-7.28-.23-.2-.59-.18-.79.05-.2.23-.18.59.05.79,1.41,1.24,1.36,4.11.9,6.2-.21.94-.66,1.65-1.31,2.06-.56.36-1.26.46-1.96.3-.65-.15-1.38-.02-2.09.1-.77.13-1.56.27-1.91-.02-.26-.22-.32-.75-.32-1.16v-6.2c0-1.73.04-3.06-.56-2.23-.61-.82-.56.5-.56,2.23v6.2c0,.41-.06.94-.32,1.16-.35.29-1.14.15-1.91.02-.71-.12-1.45-.25-2.09-.1-.7.16-1.4.05-1.96-.3-.65-.41-1.1-1.12-1.31-2.06-.47-2.09-.51-4.96.9-6.2.23-.2.26-.56.05-.79-.2-.23-.56-.25-.79-.05-1.77,1.56-1.81,4.78-1.25,7.28.1.46.25.88.45,1.26-.31.02-.59,0-.89-.02-.67-.05-1.43-.1-2.75.27-.74.21-1.29.19-1.69-.06-.49-.3-.83-1-1.04-2.16-.36-1.88.89-5.34,2.44-5.84.3-.1.46-.41.36-.7-.09-.3-.41-.45-.7-.36-2.32.75-3.61,4.9-3.19,7.11.05.26.1.49.16.71-2.11.62-2.69.18-3.25-1.1-.44-1,.02-2.84.85-4.2.04-.05.08-.1.1-.16.38-.59.83-1.08,1.3-1.35.27-.15.36-.5.2-.77-.15-.27-.5-.36-.76-.2-.47.27-.92.7-1.32,1.23l-.03-.03c-.39-.4-.5-1-.29-1.48,1.19-2.67-.26-6.42-3.13-8.52.84-.37,1.67-.83,2.49-1.36l1.09-.77c1.36-.99,2.6-1.26,3.59-.79,1.24.59,2.12-.22.48-1.01-.99-.48-2.64-.69-4.88,1-1.33,1-2.72,1.75-4.13,2.27-.02,0-.04.01-.06.02-5.36,1.96-10.97.65-14.45-2.21-2.98-2.45-3.92-5.64-2.52-8.54.26-.54.54-1.08.84-1.64,2.06-3.9,4.39-8.32,1.7-18.34-1.3-4.83-.49-9.04,2.29-11.87,3.45-3.51,9.62-4.47,16.92-2.63.3.07.6-.11.68-.41.08-.3-.11-.6-.41-.68-4.05-1.02-7.78-1.21-10.95-.6l-1.31.3c-2.29.63-4.24,1.71-5.73,3.23-3.07,3.12-3.98,7.71-2.58,12.94.57,2.11.9,3.95,1.06,5.59-.38-1.26-.79-2.44-1.18-3.6-1.38-4.03-2.68-7.84-2.68-14.09,0-27.05,21.89-43.79,42.17-43.79s42.17,16.74,42.17,43.79c0,6.25-1.3,10.06-2.68,14.09-.4,1.16-.8,2.34-1.18,3.6.16-1.64.49-3.49,1.06-5.59,1.41-5.23.49-9.82-2.58-12.94-1.49-1.52-3.44-2.6-5.73-3.23l-1.31-.3c-3.18-.6-6.91-.42-10.95.6-.3.08-.48.38-.4.68.08.3.38.48.68.41,7.3-1.84,13.47-.88,16.92,2.63,2.78,2.82,3.59,7.04,2.29,11.87-2.69,10.01-.36,14.43,1.7,18.34.3.56.58,1.09.84,1.64,1.41,2.9.47,6.09-2.51,8.54Z"/>
    <path class="cls-2" d="m506.17,1126.97c-.56.84-1.34,1.81-2.36,2.73-1.79,1.62-4.63,3.29-8.68,3.29-1.2,0-2.51-.15-3.92-.48-6.14-1.47-9.58-4.77-11.39-7.28-.8-1.11-1.36-2.15-1.74-3.02-.35-5.41.56-9.66,5.33-11.76,5.26-2.32,12.81-2.43,17.87.45,3.92,2.22,6.34,5.78,6.44,10.3.04,2.03-.71,3.67-1.54,5.77Z"/>
    <path class="cls-2" d="m468.79,1122.21c-.38.86-.94,1.91-1.74,3.02-1.81,2.51-5.26,5.82-11.39,7.28-1.42.34-2.72.48-3.92.48-4.05,0-6.89-1.67-8.68-3.29-1.02-.92-1.8-1.9-2.36-2.73-.76-1.22-1.87-3.14-1.54-5.77.56-4.49,2.52-8.08,6.44-10.3,5.07-2.88,12.75-3.07,17.87-.45,3.72,1.9,5.98,6.35,5.33,11.76Z"/>
    <path class="cls-2" d="m479.69,1142.63c-.89.82-1.67,1.1-2.36,1.1-.83,0-1.54-.4-2.16-.76-.58-.33-1.13-.64-1.73-.64s-1.15.31-1.73.64c-1.15.65-2.57,1.46-4.53-.34-1.71-1.58-1.12-4.62,1.73-8.81.84-1.24,1.05-2.53,1.24-3.67.27-1.71.56-3.47,3.29-3.47s3.02,1.77,3.29,3.47c.18,1.14.39,2.43,1.23,3.67,2.84,4.19,3.44,7.23,1.73,8.81Z"/>
  </g>
  <g>
    <path class="cls-2" d="m957.7,1113.24c.67,5.74-3.45,21.13-10.33,20.47.33.09-5.2-1.36-6.47-4.59-1-2.55-.62-5.7,1.07-8.86,2.29-4.27,6.4-7.5,10.73-8.44,2.98-.64,5.26,1.58,5,1.42Z"/>
    <path class="cls-2" d="m975.33,1147.42c-.32-.57-.71-1.01-1.18-1.31.55-.84.9-1.98.53-3.14-.15-.46-.51-.84-.94-1.28-.78-.8-1.75-1.8-1.95-3.74.54-.76.97-1.64,1.29-2.64.62-1.99-.15-3.62-.98-5.34-.84-1.75-1.78-3.73-1.64-6.64.14-2.98-1.43-4.87-2.81-6.53-1.58-1.89-2.94-3.53-2.09-6.55.12-.14.25-.28.37-.41,1.31-1.45,2.67-2.96,2.38-5.83-.92-9.2-5.12-17.52-12.14-24.06-6.35-5.91-14.73-10.21-24.25-12.45-9.56-2.24-19.6-2.17-28.28.21-9.41,2.59-16.72,7.68-21.15,14.72-5.84,9.29-9,19.6-9.13,29.83-.11,7.98,1.67,15.94,4.88,21.83,5.22,9.59,9.47,12.69,15.36,16.98.35.26.7.51,1.07.78,3.45,2.53,6.61,3.47,9.53,3.47,4.58,0,8.6-2.3,12.32-4.43,3.1-1.78,6.04-3.45,8.97-3.65.19.21.38.43.57.66,1.79,2.2,4.64,3.44,7.82,3.44.47,0,.95-.03,1.44-.08,3.98-.46,7.4-2.68,8.92-5.8,1.06-2.18,1.7-3.23,2.81-4.27.42-.27.7-.11.77.16.34,1.26.15,3.39-.85,4.85-.58.85-.64,1.92-.16,2.79l.03.06c-.24.25-.46.54-.66.87-.23.4-.52.77-.8,1.12-.76.96-1.62,2.04-1.1,3.8.45,1.51,1.59,1.79,2.59,1.79.32,0,.63-.03.9-.05.31-.03.6-.06.8-.04.81.1,1.43-.09,1.85-.3.32.56.73.93,1.09,1.16.59.39,1.31.6,2.03.6.18,0,.36-.01.54-.04.98-.15,1.71-.39,2.27-.75.21.33.53.61.94.82.55.28,1.24.43,2,.43,1.11,0,2.35-.33,3.4-1.08.43.43,1.15.77,2.33,1.08.52.14,1.01.2,1.47.2,1.58,0,2.76-.74,3.5-1.66.1.06.21.11.32.16.33.13.74.18,1.18.18,1.07,0,2.35-.34,3.39-.95,1.07-.63,1.71-1.42,1.84-2.29.32-2.07-.45-5.02-1.38-6.68Zm.27,6.51c-.08.52-.54,1.05-1.3,1.49-1.17.69-2.8.99-3.62.69-.64-.24-.79-1.15-.94-2.5-.09-.82-.19-1.67-.5-2.36-.82-1.82-1.85-1.39-1.02.46.24.54.33,1.3.41,2.03.09.84.2,1.74.56,2.43-.49.66-1.68,1.8-3.91,1.21-2.22-.59-2.19-.8-1.95-2.82v-.12c.13-.96-.05-1.92-.21-2.84-.23-1.24-.43-2.32.13-3.07.18-.25.13-.6-.12-.78-.25-.18-.6-.13-.78.12-.83,1.13-.58,2.56-.32,3.93.15.85.31,1.72.22,2.51v.12c-.11.79-.17,1.41-.08,1.93-1.37,1.05-3.32,1.21-4.37.67-.48-.25-.7-.59-.65-1.02.06-.51.06-1.15.05-1.83,0-1.68-.01-3.78.89-4.6.23-.21.24-.56.03-.79-.21-.23-.56-.24-.79-.03-1.26,1.16-1.26,3.53-1.25,5.43,0,.65,0,1.26-.05,1.7,0,.05,0,.1-.01.15-.3.3-.86.62-2.12.81-.63.09-1.28-.05-1.79-.38-.6-.4-.96-1.28-2.13-1.28-.25.15-.68.31-1.3.24-.31-.04-.66,0-1.03.03-1.24.11-2.01.11-2.31-.94-.35-1.2.17-1.87.9-2.79.31-.39.62-.79.89-1.26.37-.65.8-2.17.6-2.08-.24-.5-.2-1.09.13-1.57,1.21-1.76,1.42-4.23,1.01-5.77-.12-.44-.77-2.31-1.64-1.59-.05.03-.09.06-.13.11-1.33,1.14-2.67,2.88-3.9,5.39-1.36,2.78-4.44,4.77-8.04,5.18-3.36.38-6.45-.72-8.26-2.95-.24-.3-.49-.58-.74-.86-.02-.03-.05-.06-.08-.09-.75-.81-1.54-1.52-2.38-2.12-.02-.02-.04-.03-.07-.05-3.9-2.76-8.81-3.27-15.51-1.68,0,0-.01,0-.02,0-.79.19-1.61.41-2.46.66-.3.09-.47.4-.38.69.09.3.4.47.69.38.78-.23,1.54-.43,2.27-.61,3.87-.99,7.26-4.28,14.93,1.61.45.33.89.69,1.32,1.09-2.86.45-5.62,2.03-8.53,3.69-6.08,3.48-12.37,7.09-20.63,1.04-.36-.27-.72-.53-1.07-.78-5.77-4.2-9.94-7.24-15.04-16.61-3.11-5.73-4.84-13.49-4.74-21.28.13-10.01,3.23-20.13,8.96-29.24,8.31-13.22,28.14-19.16,48.22-14.44,15.83,3.72,33.48,15,35.53,35.53.24,2.37-.85,3.58-2.1,4.97-1.53,1.69-3.26,3.61-2.87,7.86.03.31.3.53.61.51.31-.03.53-.3.51-.61-.2-2.12.19-3.58.83-4.72.04,2.3,1.34,3.87,2.61,5.39,1.38,1.65,2.68,3.21,2.56,5.76-.15,3.19.9,5.4,1.75,7.18.79,1.65,1.41,2.95.92,4.53-.9,2.86.25,6.79.94,7.5.31.32.61.63.68.84.28.87-.06,1.76-.52,2.37-.59-.12.64,1.17,1.26,2.28.81,1.46,1.52,4.16,1.24,5.97Z"/>
    <path class="cls-2" d="m969.38,1135.38c1.08-1.86-.35-5.41-1.25-7.87-.77-2.1-.84-4.73-2.61-4.94-.68-.08-1.34.27-1.74.83-1.34,1.86-.71,4.26-2.05,6.79-1.51,2.86-1.17,6.92.95,8.03,2.12,1.1,5.62-.97,6.71-2.83Z"/>
  </g>
  <rect class="cls-4" x="373.58" y="1038.01" width="191.33" height="148.92" rx="8.49" ry="8.49"/>
  <rect class="cls-4" x="604.33" y="1038.01" width="191.33" height="148.92" rx="8.49" ry="8.49"/>
  <rect class="cls-4" x="834.06" y="1037.81" width="191.33" height="148.92" rx="8.49" ry="8.49"/>
  <rect class="cls-8" x="373.58" y="1201.02" width="463.36" height="95" rx="15.39" ry="15.39"/>
  <rect class="cls-7" x="858.26" y="1201.02" width="142.94" height="95" rx="8.55" ry="8.55"/>
  <path class="cls-9" d="m366.94,961.97h665.99v20.75c0,5.85-4.75,10.6-10.6,10.6H377.54c-5.85,0-10.6-4.75-10.6-10.6v-20.75h0Z"/>
  <rect class="cls-15" x="373.58" y="1015.31" width="41.05" height="14.86"/>
  <rect class="cls-15" x="418.57" y="1015.31" width="41.05" height="14.86"/>
  <rect class="cls-15" x="463.98" y="1015.31" width="41.05" height="14.86"/>
  <rect class="cls-15" x="507.72" y="1015.31" width="41.05" height="14.86"/>
  <rect class="cls-15" x="939.22" y="1012.17" width="41.05" height="14.86"/>
  <rect class="cls-15" x="982.96" y="1012.17" width="41.05" height="14.86"/>
  <path class="cls-15" d="m867.58,1201.02h124.31c5.14,0,9.31,4.17,9.31,9.31v13.37h-142.94v-13.37c0-5.14,4.17-9.31,9.31-9.31Z"/>
  <g>
    <path class="cls-14" d="m761.15,1231.01l9.35,42.03c.32,1.42,2.3,1.5,2.74.12l4.77-15.22,16.12,1.88c1.43.17,2.17-1.65,1.03-2.53l-34.01-26.28Z"/>
    <line class="cls-6" x1="774.38" y1="1251.46" x2="790.85" y2="1279.16"/>
  </g>
</svg>