<?xml version="1.0" encoding="UTF-8" standalone="no"?>
<!-- Generator: Adobe Illustrator 28.0.0, SVG Export Plug-In . SVG Version: 6.00 Build 0)  -->

<svg
   version="1.1"
   id="Layer_1"
   x="0px"
   y="0px"
   viewBox="0 0 1000 1000"
   style="enable-background:new 0 0 1000 1000;"
   xml:space="preserve"
   sodipodi:docname="heart_01.svg"
   inkscape:version="1.3.2 (091e20e, 2023-11-25, custom)"
   xmlns:inkscape="http://www.inkscape.org/namespaces/inkscape"
   xmlns:sodipodi="http://sodipodi.sourceforge.net/DTD/sodipodi-0.dtd"
   xmlns="http://www.w3.org/2000/svg"
   xmlns:svg="http://www.w3.org/2000/svg"><defs
   id="defs33" /><sodipodi:namedview
   id="namedview33"
   pagecolor="#ffffff"
   bordercolor="#000000"
   borderopacity="0.25"
   inkscape:showpageshadow="2"
   inkscape:pageopacity="0.0"
   inkscape:pagecheckerboard="0"
   inkscape:deskcolor="#d1d1d1"
   showgrid="false"
   inkscape:zoom="0.777"
   inkscape:cx="499.3565"
   inkscape:cy="500"
   inkscape:window-width="1920"
   inkscape:window-height="991"
   inkscape:window-x="-9"
   inkscape:window-y="-9"
   inkscape:window-maximized="1"
   inkscape:current-layer="Layer_1" />
<style
   type="text/css"
   id="style1">
	.st0{fill:#0D394B;}
	.st1{fill:#F2799B;}
	.st2{fill:#FEC56D;}
	.st3{opacity:0.1;fill:#FFFFFF;stroke:#FFFFFF;stroke-width:32;stroke-linecap:round;stroke-miterlimit:10;}
	.st4{fill:#F17196;}
	.st5{fill:#EE2658;}
	.st6{fill:#F3D7E7;}
	.st7{fill:#FFFFFF;}
	.st8{display:none;}
	.st9{display:inline;fill:#D9EDDA;}
	.st10{display:inline;opacity:0.3;fill:#FFFFFF;stroke:#FFFFFF;stroke-width:32;stroke-linecap:round;stroke-miterlimit:10;}
	.st11{display:inline;fill:#00B4A8;}
	.st12{display:inline;fill:#72CBCD;}
	.st13{display:inline;fill:#227DA1;}
	.st14{display:inline;fill:#048194;}
	.st15{display:inline;}
	.st16{fill:#B8E1D4;}
</style>
<g
   id="g17"
   transform="matrix(1.3873499,0,0,1.3677147,-193.53531,-190.79619)">
	<circle
   class="st0"
   cx="500"
   cy="500"
   r="360.5"
   id="circle1" />
	<path
   class="st1"
   d="m 404.1,374.1 c 0,-28.6 0.4,-63.1 0,-71.2 -0.4,-8.1 -56.1,-9.3 -56.9,0 -0.8,9.3 1.2,25.9 0,27.9 -1.2,1.9 -6,1.6 -16.6,1.9 -8.9,0.3 -10.7,1.3 -11.2,3.2 -0.6,2.3 -1.5,16.9 -0.1,20.1 0.7,1.6 5.6,0.8 24.3,0.9 4.9,0 6,11.6 3.5,29.5 -3.9,28.1 -23.6,66.7 -19.7,101.9 3.9,35.2 55.7,23.6 66.2,10.8 10.5,-12.8 10.5,-125 10.5,-125 z"
   id="path1" />
	<path
   class="st2"
   d="m 341.2,459.8 c 5.8,-15.7 23.6,-53.3 37.6,-73.5 17,-24.5 42.2,-58.8 74.7,-77.4 32.5,-18.6 116.1,-45.5 122.1,-45.5 6,0 15.3,27.4 7.4,31.1 -7.9,3.7 -66.9,31.1 -77.5,39.9 -10.6,8.8 -50.1,90.5 -72,112.8 -21.7,22.4 -94.5,18.6 -92.3,12.6 z"
   id="path2" />
	<path
   class="st1"
   d="m 341.3,657.2 c 0,28.6 -0.4,63.1 0,71.2 0.4,8.1 56.1,9.3 56.9,0 0.8,-9.3 -1.2,-25.9 0,-27.9 1.2,-1.9 6,-1.6 16.6,-1.9 8.9,-0.3 10.7,-1.3 11.2,-3.2 0.6,-2.3 1.5,-16.9 0.1,-20.1 -0.7,-1.6 -5.6,-0.8 -24.3,-0.9 -4.9,0 -6,-11.6 -3.5,-29.5 3.9,-28.1 23.6,-66.7 19.7,-101.9 -3.9,-35.2 -55.7,-23.6 -66.2,-10.8 -10.5,12.8 -10.5,125 -10.5,125 z"
   id="path3" />
	<path
   class="st2"
   d="m 466.4,402.4 c 1.2,-10.6 21.4,-34.2 30.8,-36.2 9.4,-2 20.4,-15.6 41.8,-14.3 21.4,1.3 26.6,0.9 29.9,2.9 3.3,2 -1.6,16.7 2.1,18.8 3.6,2.1 24.6,1.2 30,0.9 5.5,-0.3 7.5,17.3 5.7,20.9 -1.8,3.6 -9.1,4.9 -15.7,6.9 -6.5,1.9 -17,4.4 -18.2,4.4 -1.2,0 -1.2,5.8 0.6,5.8 1.8,0 20.9,0 24.3,0 3.4,0 7.9,16.1 4.2,18.8 -3.6,2.7 -18.4,5.6 -30.6,7.6 -3.7,0.6 -2.7,11.8 -2.7,17.6 0,5.8 -31.9,24 -60.1,23.4 -28.2,-0.6 -58.2,10.9 -58.2,-27 0,-37.9 16.1,-50.5 16.1,-50.5 z"
   id="path4" />
	<path
   class="st3"
   d="m 689.8,311.2 c -3.3,-4.3 -7.2,-7 -9.7,-7.3 -0.6,-0.1 -1.1,-0.1 -1.6,0.2 -5.2,2.6 -12.5,8.3 -20.9,12.5 -8.3,4.2 -24.5,12.5 -54,6.3 -25.9,-5.5 -36,-8 -60.4,-8.5 17.8,-8.8 35.7,-17.2 39.8,-19.1 0,0 0,0 0,0 0,0 0,0 0.1,0 3.4,-0.9 4.3,-8.6 2,-17.2 -1.9,-6.9 -5.2,-12.2 -8.3,-13.6 -0.4,-0.2 -0.8,-0.4 -1.2,-0.4 -0.1,0 -0.1,0 -0.2,0 -0.1,0 -0.3,0 -0.4,0 -0.1,0 -0.2,0 -0.3,0 0,0 0,0 0,0 0,0 0,0 0,0 -9.1,1.5 -66,19.8 -102.6,36.2 -2.5,-10.2 -9.6,-23.2 9.3,-49 19.8,-27.1 20.9,-54.9 16,-75.3 -1.8,-7.6 -26.2,-3.6 -24.8,5.2 2.9,18 5.1,24.7 -6.8,44 -11.9,19.3 -30.2,18.8 -45.4,6.3 -15.2,-12.5 -21.5,-40 -24.5,-42.2 -5.5,-4.1 -28.3,5.6 -26.1,13.6 0,0 18.2,34.4 28.7,51.6 10.4,17.2 22.1,26.2 25.4,46 1.7,10.4 2.8,20.2 0.7,31 -7.3,6.9 -14.1,14.3 -20.4,21.8 0.1,-22.4 0.2,-43.6 -0.1,-49.7 -0.4,-8.1 -56.1,-9.3 -56.9,0 -0.8,9.3 1.2,25.9 0,27.9 -1.2,1.9 -6,1.6 -16.6,1.9 -8.9,0.3 -10.7,1.3 -11.2,3.2 -0.6,2.3 -1.5,16.9 -0.1,20.1 0.7,1.6 5.6,0.8 24.3,0.9 4.9,0 6,11.6 3.5,29.5 -3.4,24.5 -18.9,57.1 -20.1,88.5 -14,24.3 -26.8,59.1 -19.3,111.7 8.2,57.5 19.7,83.7 33.5,102.5 -0.1,18.3 -0.2,34.2 0.1,39.4 0.3,6.4 34.8,8.5 49.9,4.6 15.3,8.8 30.1,15.1 37,17.6 0.3,0.1 0.5,0.2 0.8,0.2 0.6,2.5 1.3,4.7 1.9,6.4 10.7,30.1 50.9,46.2 68.3,56.9 17.4,10.7 37.5,22.1 62.9,7.4 25.4,-14.7 58.3,-48.2 67.6,-73.7 9.4,-25.4 17.4,-81 12.7,-109.8 -4.7,-28.8 -20.8,-44.9 -21.4,-56.9 -0.7,-12.1 -3.3,-30.1 -7.4,-59.5 -3.7,-27.2 -21.3,-55.9 -45.2,-69.5 -0.1,-5.8 -0.1,-12.8 2.8,-13.3 12.1,-2 26.5,-4.8 30.4,-7.4 0,0 0,0 0,0 0.1,0 0.1,-0.1 0.2,-0.1 0.1,0 0.1,-0.1 0.1,-0.1 0,0 0,0 0.1,-0.1 0.1,-0.1 0.1,-0.1 0.2,-0.2 1.4,-1.6 2.1,-5.4 1.4,-9.5 -0.8,-5.4 -3.5,-9.4 -5.9,-9 -0.1,0 -0.3,0.1 -0.4,0.1 -3.9,0 -22.2,0 -24,0 -1.8,0 -1.8,-5.8 -0.6,-5.8 1.2,0 11.7,-2.5 18.2,-4.4 5.6,-1.6 11.6,-2.8 14.4,-5.3 2.4,-0.9 3.7,-5.9 2.8,-11.7 -0.8,-5.2 -3.1,-9.3 -5.4,-10.2 -0.5,-0.4 -1.1,-0.6 -1.8,-0.6 -5.5,0.3 -26.4,1.2 -30,-0.9 -2.3,-1.3 -1.2,-7.7 -0.9,-12.7 19.7,0 40.6,1 63,-1.7 31.6,-3.8 55.8,-32 60.5,-34.9 0.8,-0.5 1,-1.5 0.9,-2.7 0.4,-2.6 -1.4,-7 -4.6,-11.2 z"
   id="path5" />
	<path
   class="st1"
   d="m 454.4,423.1 c 10.7,0 81.7,14.1 108.5,26.1 26.8,12 46.9,43.1 50.9,72.4 4,29.3 6.7,47.4 7.4,59.5 0.7,12.1 16.7,28.1 21.4,56.9 4.7,28.8 -3.3,84.4 -12.7,109.8 -9.4,25.4 -42.2,58.9 -67.6,73.7 -25.4,14.8 -45.5,3.3 -62.9,-7.4 -17.4,-10.7 -57.6,-26.8 -68.3,-56.9 -10.7,-30.1 -26.8,-185.5 -20.8,-228.3 6,-42.8 44.1,-105.8 44.1,-105.8 z"
   id="path6" />
	<ellipse
   transform="matrix(0.9882,-0.1532,0.1532,0.9882,-52.0193,96.9708)"
   class="st4"
   cx="603.29999"
   cy="386.10001"
   rx="5"
   ry="11.2"
   id="ellipse6" />
	
		<ellipse
   transform="matrix(0.9882,-0.1532,0.1532,0.9882,-57.5785,96.7936)"
   class="st4"
   cx="599.40002"
   cy="422.10001"
   rx="4.5"
   ry="9.8000002"
   id="ellipse7" />
	<path
   class="st1"
   d="m 369.8,202.2 c -2.3,-7.9 20.6,-17.6 26.1,-13.6 3.1,2.3 9.4,29.7 24.5,42.2 15.1,12.5 33.4,13 45.4,-6.3 12,-19.3 9.8,-26 6.8,-44 -1.4,-8.9 22.9,-12.8 24.8,-5.2 4.9,20.4 3.8,48.2 -16,75.3 -19.8,27.1 -11,40.2 -8.9,50.6 2.1,10.4 4.5,19.5 8.7,20 4.2,0.5 21.8,-7.8 50.9,-7.8 33,0 42.1,2.4 71.5,8.6 29.5,6.3 45.6,-2.1 54,-6.3 8.3,-4.2 15.6,-9.9 20.9,-12.5 5.2,-2.6 19.8,18.1 15.1,21 -4.7,3 -28.8,31.1 -60.5,34.9 -38.5,4.6 -72.5,-1.7 -104,5.1 -31.3,6.7 -51,31.7 -52.1,58.8 -0.6,14 -90.8,21 -89.8,0.7 1,-20.3 12.8,-47.7 21.6,-59.9 19.2,-26.6 18.3,-44.3 15,-64.1 -3.3,-19.8 -15,-28.8 -25.4,-46 -10.4,-17.2 -28.6,-51.5 -28.6,-51.5 z"
   id="path7" />
	<path
   class="st5"
   d="m 438.3,383 c -19.6,-0.9 -75.7,32.8 -87.7,55.6 -12,22.8 -55.2,61 -42.9,148 10.8,76.3 27.6,97.4 47.7,119.5 20.1,22.1 60,40 72.8,44.6 22,8 40.4,-45.1 40.4,-68.5 0,-23.4 -10.9,-78.5 -7.6,-114.8 3.3,-36.3 30.8,-101.2 28.1,-132.7 -2.7,-31.5 -20,-50.4 -50.8,-51.7 z"
   id="path8" />
	
		<ellipse
   transform="matrix(0.7899,-0.6132,0.6132,0.7899,-48.1781,486.4414)"
   class="st2"
   cx="685.90002"
   cy="313.5"
   rx="4.9000001"
   ry="12.5"
   id="ellipse8" />
	<ellipse
   transform="matrix(0.9649,-0.2625,0.2625,0.9649,-52.9421,161.7527)"
   class="st4"
   cx="579"
   cy="279"
   rx="6.4000001"
   ry="16.1"
   id="ellipse9" />
	<g
   id="g15">
		<g
   id="g9">
			<path
   class="st6"
   d="m 473.4,521.4 c -1.3,12.9 1,24.8 3,37 0.2,9.5 1.9,18.9 3.7,28.2 4.4,21.4 11.3,42.5 20.2,62.4 4.4,10.1 9.7,19 16.1,28 11.1,15.7 23.5,30.8 36.3,45.2 1.9,2 3.6,4.2 5.7,6 1,1 1.7,2.2 2.4,3.4 5.4,8.2 10.5,16.8 17,24.2 -8.2,-3 -15.4,-8.2 -22.5,-13.1 -2.8,-2.1 -6.2,-4.1 -8.2,-6.9 -18.5,-20.7 -36.5,-41.9 -51,-65.7 -8.6,-15.2 -14.7,-31.3 -20.1,-47.7 -6.7,-20.5 -11.3,-41.7 -13.1,-63.2 -0.2,-1.5 0,-2.9 0.2,-4.4 0.7,-5.9 1.8,-11.7 3.5,-17.3 1.6,-5.7 3.8,-11.1 6.8,-16.1 z"
   id="path9" />
		</g>
		<g
   id="g10">
			<path
   class="st6"
   d="m 566.1,701.3 c -3.8,1.5 -7.5,2.5 -11.4,3.3 -3.1,-1.1 -6.3,-2 -9.4,-3.2 -13,-4.4 -26,-9.9 -36.9,-18.8 -1.2,-1.1 -3,-2.5 -4.1,-3.6 -0.9,-0.9 -2.4,-2.6 -3.5,-3.3 -1.2,-2.8 -1.4,-6.8 -1.4,-9.8 0,-1 0.1,-2 0.2,-3.1 1.9,0.6 3.7,1.3 5.6,2 1.5,0.5 3.7,1.1 5.2,1.5 6,6.6 13.3,11.7 21.6,15.6 8,3.8 16.9,7 25.5,9.6 0.4,0 0.8,0 1.2,0.4 2.7,2.9 5.2,5.9 7.4,9.4 z"
   id="path10" />
		</g>
		<g
   id="g11">
			<path
   class="st6"
   d="m 520.4,753.9 c -1.2,-2.8 -2.2,-6.1 -3.1,-8.9 -0.3,-1.5 -1.3,-2.9 -0.5,-4.1 2.1,-9.1 2.8,-18.9 1.4,-28 -1.4,-9.1 -5.1,-18 -10.3,-25.7 -0.3,-0.3 -0.7,-0.6 -0.7,-1.1 -0.1,-3.9 -0.7,-7.7 -0.7,-12.2 4.1,1.2 8.1,2.8 11.8,5 0.5,0.2 0.6,0.7 0.8,1.2 0.2,0.4 0.5,0.8 0.8,1.2 5.6,9 9.7,19 11.4,29.6 1.5,9.6 1.1,19.3 -0.7,28.7 -0.2,1.4 -0.6,2.8 -0.8,4.1 0,0.5 0,1 -0.3,1.4 -2.7,3.2 -5.7,6.2 -9.1,8.8 z"
   id="path11" />
		</g>
		<g
   id="g12">
			<path
   class="st6"
   d="m 603.3,615.8 c -5.8,-1.3 -11.1,-1.9 -16.8,-2.1 -12,-5.1 -25.1,-6.6 -38,-10 -10.2,-2.6 -21.7,-7.2 -29,-15.8 -5,-6.2 -11.4,-10.5 -19.3,-12.9 -2.7,-0.9 -5.6,-1.5 -8.6,-2.2 -1.6,-0.5 -3.3,-0.4 -4.8,-1.1 -6.8,-3.2 -14.4,-8.8 -13.6,-17.3 0.1,-1.8 0.5,-3.4 1,-5 0.5,1.6 1.1,3.1 1.9,4.4 2.7,5.3 8.6,5.2 13.9,5.1 1.5,0 2.9,0.8 4.4,1.1 11.8,2.4 24,7.1 32.4,16.5 2.7,3.2 5.3,6.2 9.1,8.4 4.5,2.8 10,4.6 15.8,6.2 12.2,3.2 25.1,4.9 37.3,9.5 0.8,0.3 1.7,0.3 2.4,0.9 0.7,0.5 1.4,1.2 2,1.8 4.2,3.4 7.7,7.7 9.9,12.5 z"
   id="path12" />
		</g>
		<g
   id="g13">
			<path
   class="st6"
   d="m 575.3,637.5 c -3.2,0.3 -6.6,-0.1 -9.6,-1 -0.4,-0.1 -0.4,-0.5 -0.5,-0.8 -3.8,-5.5 -7,-11.7 -9.7,-17.6 -2.7,-5.6 -4.9,-11.4 -8.4,-16.1 0.6,-2.6 1.1,-5.5 0.1,-8.1 3.1,-1.7 7,-1.1 10.2,-0.1 4.5,5.8 7,12.6 10,18.7 2.7,5.7 5.3,11.2 9,16 -0.4,2.8 -0.8,6.3 -1.1,9 z"
   id="path13" />
		</g>
		<g
   id="g14">
			<path
   class="st6"
   d="m 584.3,565.2 c -1.5,1.2 -5.2,4.1 -6.6,5.3 -0.7,0.5 -1.3,1.1 -2,1.6 -0.3,0.2 -0.7,0.1 -1,0.1 -8.4,0.8 -16.2,3.3 -24.6,5.7 -9.1,2.6 -19.2,5.7 -29.3,5 -3.5,-2.1 -6.6,-5 -8.5,-8.6 3.6,-1.2 6.4,-2.5 9.4,-4.6 8.4,0.5 16.2,-2.2 24.7,-4.5 8.5,-2.6 17.8,-5.1 26.8,-6.3 0.4,-0.1 0.8,-0.3 1.2,-0.1 3.6,1.5 7.1,3.6 9.9,6.4 z"
   id="path14" />
		</g>
	</g>
	<g
   id="g16">
		<path
   class="st7"
   d="m 180.3,505.2 c 33,-1.3 69.5,-2.2 102.7,-3 0,0 -6.3,4.2 -6.3,4.2 2.7,-7.3 5.5,-14.5 8.3,-21.7 8,-20.9 17.2,-44.2 25.5,-64.9 3,-7.4 13.6,-7.1 16.2,0.4 23,62.8 57.6,157.8 80.7,221.5 0,0 -17.3,-2.2 -17.3,-2.2 0,0 90.1,-131.2 90.1,-131.2 3.1,-4.5 9.2,-5.6 13.7,-2.6 0.5,0.3 72.8,57 73.3,57.3 0,0 -14.8,3.3 -14.8,3.3 0,0 74.9,-147.5 75,-147.5 2.4,-4.6 8,-6.5 12.6,-4.1 2.3,1.1 3.9,3.1 4.6,5.3 16.4,48 49.7,144.8 66,192.8 0,0 -16.4,0 -16.4,0 0,0 18.9,-52.8 18.9,-52.8 0,-0.2 19.1,-52.7 19.2,-52.9 1.1,-3.1 4.1,-5 7.2,-4.9 0,0 14.7,0.3 14.7,0.3 7.2,0.2 22.2,0.6 29.5,0.9 4.9,0.1 9.8,0.3 14.7,0.5 0,0 0,12 0,12 -13.5,0.5 -30.6,1 -44.2,1.4 0,0 -14.7,0.3 -14.7,0.3 0,0 7.3,-5.2 7.3,-5.2 -9,26.5 -26.9,79.7 -36.1,106.1 -1.6,4.5 -6.5,7 -11,5.4 -2.7,-0.9 -4.6,-3 -5.4,-5.4 -16.9,-47.9 -50.6,-144.4 -67.3,-192.4 0,0 17.3,1.2 17.3,1.2 L 570,575.2 c -2.7,5.5 -10.1,7.1 -14.8,3.3 0,0 -72.9,-56.9 -72.9,-56.9 l 14.2,-2.2 c 0,0 -90.3,131.1 -90.3,131.1 -4.4,6.5 -14.7,5.2 -17.2,-2.3 -22.5,-64.3 -56.7,-158.7 -78.6,-222.2 0,0 16.2,0.4 16.2,0.4 -3,7.1 -6.1,14.3 -9.2,21.3 -8.9,20.8 -19.1,43.6 -28.3,64.2 -1.1,2.5 -3.6,3.9 -6.1,3.8 -12.7,-0.3 -38.6,-0.9 -51.3,-1.3 -17.1,-0.5 -34.2,-1 -51.3,-1.7 -0.1,0.1 -0.1,-7.5 -0.1,-7.5 z"
   id="path15" />
	</g>
</g>
<g
   class="st8"
   id="g33">
	<circle
   class="st9"
   cx="500"
   cy="500"
   r="360.5"
   id="circle17" />
	<path
   class="st10"
   d="M689.8,310.5c-3.3-4.3-7.2-7-9.7-7.3c-0.6-0.1-1.1-0.1-1.6,0.2c-5.2,2.6-12.5,8.3-20.9,12.5   c-8.3,4.2-24.5,12.5-54,6.3c-25.9-5.5-36-8-60.4-8.5c17.8-8.8,35.7-17.2,39.8-19.1c0,0,0,0,0,0c0,0,0,0,0.1,0   c3.4-0.9,4.3-8.6,2-17.2c-1.9-6.9-5.2-12.2-8.3-13.6c-0.4-0.2-0.8-0.4-1.2-0.4c-0.1,0-0.1,0-0.2,0c-0.1,0-0.3,0-0.4,0   c-0.1,0-0.2,0-0.3,0c0,0,0,0,0,0c0,0,0,0,0,0c-9.1,1.5-66,19.8-102.6,36.2c-2.5-10.2-9.6-23.2,9.3-49c19.8-27.1,20.9-54.9,16-75.3   c-1.8-7.6-26.2-3.6-24.8,5.2c2.9,18,5.1,24.7-6.8,44s-30.2,18.8-45.4,6.3s-21.5-40-24.5-42.2c-5.5-4.1-28.3,5.6-26.1,13.6   c0,0,18.2,34.4,28.7,51.6c10.4,17.2,22.1,26.2,25.4,46c1.7,10.4,2.8,20.2,0.7,31c-7.3,6.9-14.1,14.3-20.4,21.8   c0.1-22.4,0.2-43.6-0.1-49.7c-0.4-8.1-56.1-9.3-56.9,0c-0.8,9.3,1.2,25.9,0,27.9c-1.2,1.9-6,1.6-16.6,1.9   c-8.9,0.3-10.7,1.3-11.2,3.2c-0.6,2.3-1.5,16.9-0.1,20.1c0.7,1.6,5.6,0.8,24.3,0.9c4.9,0,6,11.6,3.5,29.5   c-3.4,24.5-18.9,57.1-20.1,88.5c-14,24.3-26.8,59.1-19.3,111.7c8.2,57.5,19.7,83.7,33.5,102.5c-0.1,18.3-0.2,34.2,0.1,39.4   c0.3,6.4,34.8,8.5,49.9,4.6c15.3,8.8,30.1,15.1,37,17.6c0.3,0.1,0.5,0.2,0.8,0.2c0.6,2.5,1.3,4.7,1.9,6.4   c10.7,30.1,50.9,46.2,68.3,56.9c17.4,10.7,37.5,22.1,62.9,7.4c25.4-14.7,58.3-48.2,67.6-73.7c9.4-25.4,17.4-81,12.7-109.8   c-4.7-28.8-20.8-44.9-21.4-56.9c-0.7-12.1-3.3-30.1-7.4-59.5c-3.7-27.2-21.3-55.9-45.2-69.5c-0.1-5.8-0.1-12.8,2.8-13.3   c12.1-2,26.5-4.8,30.4-7.4c0,0,0,0,0,0c0.1,0,0.1-0.1,0.2-0.1c0.1,0,0.1-0.1,0.1-0.1c0,0,0,0,0.1-0.1c0.1-0.1,0.1-0.1,0.2-0.2   c1.4-1.6,2.1-5.4,1.4-9.5c-0.8-5.4-3.5-9.4-5.9-9c-0.1,0-0.3,0.1-0.4,0.1c-3.9,0-22.2,0-24,0c-1.8,0-1.8-5.8-0.6-5.8   c1.2,0,11.7-2.5,18.2-4.4c5.6-1.6,11.6-2.8,14.4-5.3c2.4-0.9,3.7-5.9,2.8-11.7c-0.8-5.2-3.1-9.3-5.4-10.2c-0.5-0.4-1.1-0.6-1.8-0.6   c-5.5,0.3-26.4,1.2-30-0.9c-2.3-1.3-1.2-7.7-0.9-12.7c19.7,0,40.6,1,63-1.7c31.6-3.8,55.8-32,60.5-34.9c0.8-0.5,1-1.5,0.9-2.7   C694.8,319.1,693,314.7,689.8,310.5z"
   id="path17" />
	<path
   class="st11"
   d="M404.1,374.1c0-28.6,0.4-63.1,0-71.2s-56.1-9.3-56.9,0c-0.8,9.3,1.2,25.9,0,27.9c-1.2,1.9-6,1.6-16.6,1.9   c-8.9,0.3-10.7,1.3-11.2,3.2c-0.6,2.3-1.5,16.9-0.1,20.1c0.7,1.6,5.6,0.8,24.3,0.9c4.9,0,6,11.6,3.5,29.5   c-3.9,28.1-23.6,66.7-19.7,101.9c3.9,35.2,55.7,23.6,66.2,10.8S404.1,374.1,404.1,374.1z"
   id="path18" />
	<path
   class="st12"
   d="M341.2,459.8c5.8-15.7,23.6-53.3,37.6-73.5c17-24.5,42.2-58.8,74.7-77.4s116.1-45.5,122.1-45.5   c6,0,15.3,27.4,7.4,31.1c-7.9,3.7-66.9,31.1-77.5,39.9s-50.1,90.5-72,112.8C411.8,469.6,339,465.8,341.2,459.8z"
   id="path19" />
	<path
   class="st11"
   d="M341.3,657.2c0,28.6-0.4,63.1,0,71.2s56.1,9.3,56.9,0c0.8-9.3-1.2-25.9,0-27.9c1.2-1.9,6-1.6,16.6-1.9   c8.9-0.3,10.7-1.3,11.2-3.2c0.6-2.3,1.5-16.9,0.1-20.1c-0.7-1.6-5.6-0.8-24.3-0.9c-4.9,0-6-11.6-3.5-29.5   c3.9-28.1,23.6-66.7,19.7-101.9s-55.7-23.6-66.2-10.8C341.3,545,341.3,657.2,341.3,657.2z"
   id="path20" />
	<path
   class="st12"
   d="M466.4,402.4c1.2-10.6,21.4-34.2,30.8-36.2s20.4-15.6,41.8-14.3s26.6,0.9,29.9,2.9c3.3,2-1.6,16.7,2.1,18.8   c3.6,2.1,24.6,1.2,30,0.9c5.5-0.3,7.5,17.3,5.7,20.9c-1.8,3.6-9.1,4.9-15.7,6.9c-6.5,1.9-17,4.4-18.2,4.4c-1.2,0-1.2,5.8,0.6,5.8   c1.8,0,20.9,0,24.3,0s7.9,16.1,4.2,18.8c-3.6,2.7-18.4,5.6-30.6,7.6c-3.7,0.6-2.7,11.8-2.7,17.6c0,5.8-31.9,24-60.1,23.4   s-58.2,10.9-58.2-27S466.4,402.4,466.4,402.4z"
   id="path21" />
	<path
   class="st11"
   d="M454.4,423.1c10.7,0,81.7,14.1,108.5,26.1s46.9,43.1,50.9,72.4s6.7,47.4,7.4,59.5s16.7,28.1,21.4,56.9   c4.7,28.8-3.3,84.4-12.7,109.8c-9.4,25.4-42.2,58.9-67.6,73.7s-45.5,3.3-62.9-7.4c-17.4-10.7-57.6-26.8-68.3-56.9   c-10.7-30.1-26.8-185.5-20.8-228.3S454.4,423.1,454.4,423.1z"
   id="path22" />
	
		<ellipse
   transform="matrix(0.9882 -0.1532 0.1532 0.9882 -52.0193 96.9708)"
   class="st13"
   cx="603.3"
   cy="386.1"
   rx="5"
   ry="11.2"
   id="ellipse22" />
	
		<ellipse
   transform="matrix(0.9882 -0.1532 0.1532 0.9882 -57.5785 96.7936)"
   class="st13"
   cx="599.4"
   cy="422.1"
   rx="4.5"
   ry="9.8"
   id="ellipse23" />
	<path
   class="st11"
   d="M369.8,202.2c-2.3-7.9,20.6-17.6,26.1-13.6c3.1,2.3,9.4,29.7,24.5,42.2s33.4,13,45.4-6.3s9.8-26,6.8-44   c-1.4-8.9,22.9-12.8,24.8-5.2c4.9,20.4,3.8,48.2-16,75.3c-19.8,27.1-11,40.2-8.9,50.6c2.1,10.4,4.5,19.5,8.7,20s21.8-7.8,50.9-7.8   c33,0,42.1,2.4,71.5,8.6c29.5,6.3,45.6-2.1,54-6.3c8.3-4.2,15.6-9.9,20.9-12.5c5.2-2.6,19.8,18.1,15.1,21   c-4.7,3-28.8,31.1-60.5,34.9c-38.5,4.6-72.5-1.7-104,5.1c-31.3,6.7-51,31.7-52.1,58.8c-0.6,14-90.8,21-89.8,0.7   c1-20.3,12.8-47.7,21.6-59.9c19.2-26.6,18.3-44.3,15-64.1c-3.3-19.8-15-28.8-25.4-46S369.8,202.2,369.8,202.2z"
   id="path23" />
	<path
   class="st14"
   d="M438.3,383c-19.6-0.9-75.7,32.8-87.7,55.6s-55.2,61-42.9,148c10.8,76.3,27.6,97.4,47.7,119.5   c20.1,22.1,60,40,72.8,44.6c22,8,40.4-45.1,40.4-68.5c0-23.4-10.9-78.5-7.6-114.8c3.3-36.3,30.8-101.2,28.1-132.7   S469.1,384.3,438.3,383z"
   id="path24" />
	<g
   class="st15"
   id="g31">
		<g
   id="g25">
			<path
   class="st16"
   d="M479.1,498.7c-1.5,13.5,0,26.9,2,40.2c0.3,2.9-0.1,5.9,0.2,8.8c0,0,0.2,4.4,0.2,4.4     c2,29.5,7.4,59.1,16.1,87.3c3.5,11.3,7.7,21.2,14.5,31.1c13.1,19.6,28.6,38.3,44.5,55.8c1,1.1,2.2,2,3,3.3c0,0,2.5,3.8,2.5,3.8     c3.3,5.1,6.6,10.2,10.1,15.1c1.8,2.5,3.6,4.9,5.7,7.2c-10.2-3.9-19.1-10.7-28-17.1c-9.4-10-18.3-20.6-26.9-31.2     c-10.5-13.2-21.1-26.8-29.2-41.9c-9-18.3-13.6-38.2-17.9-57.9c-4.4-21.1-7.1-42.5-8-64c-0.6-6.2,1.1-12.5,2.2-18.6     C471.8,516.1,474.5,506.9,479.1,498.7L479.1,498.7z"
   id="path25" />
		</g>
		<g
   id="g26">
			<path
   class="st16"
   d="M566.1,701.3c-3.8,1.5-7.5,2.5-11.4,3.3c-3.1-1.1-6.3-2-9.4-3.2c-13-4.4-26-9.9-36.9-18.8     c-1.2-1.1-3-2.5-4.1-3.6c-0.9-0.9-2.4-2.6-3.5-3.3c-1.2-2.8-1.4-6.8-1.4-9.8c0-1,0.1-2,0.2-3.1c1.9,0.6,3.7,1.3,5.6,2     c1.5,0.5,3.7,1.1,5.2,1.5c6,6.6,13.3,11.7,21.6,15.6c8,3.8,16.9,7,25.5,9.6c0.4,0,0.8,0,1.2,0.4     C561.4,694.8,563.9,697.8,566.1,701.3L566.1,701.3z"
   id="path26" />
		</g>
		<g
   id="g27">
			<path
   class="st16"
   d="M520.4,753.9c-1.2-2.8-2.2-6.1-3.1-8.9c-0.3-1.5-1.3-2.9-0.5-4.1c2.1-9.1,2.8-18.9,1.4-28     c-1.4-9.1-5.1-18-10.3-25.7c-0.3-0.3-0.7-0.6-0.7-1.1c-0.1-3.9-0.7-7.7-0.7-12.2c4.1,1.2,8.1,2.8,11.8,5c0.5,0.2,0.6,0.7,0.8,1.2     c0.2,0.4,0.5,0.8,0.8,1.2c5.6,9,9.7,19,11.4,29.6c1.5,9.6,1.1,19.3-0.7,28.7c-0.2,1.4-0.6,2.8-0.8,4.1c0,0.5,0,1-0.3,1.4     C526.8,748.3,523.8,751.3,520.4,753.9L520.4,753.9z"
   id="path27" />
		</g>
		<g
   id="g28">
			<path
   class="st16"
   d="M603.3,615.8c-5.8-1.3-11.1-1.9-16.8-2.1c-12-5.1-25.1-6.6-38-10c-10.2-2.6-21.7-7.2-29-15.8     c-5-6.2-11.4-10.5-19.3-12.9c-2.7-0.9-5.6-1.5-8.6-2.2c-1.6-0.5-3.3-0.4-4.8-1.1c-6.8-3.2-14.4-8.8-13.6-17.3     c0.1-1.8,0.5-3.4,1-5c0.5,1.6,1.1,3.1,1.9,4.4c2.7,5.3,8.6,5.2,13.9,5.1c1.5,0,2.9,0.8,4.4,1.1c11.8,2.4,24,7.1,32.4,16.5     c2.7,3.2,5.3,6.2,9.1,8.4c4.5,2.8,10,4.6,15.8,6.2c12.2,3.2,25.1,4.9,37.3,9.5c0.8,0.3,1.7,0.3,2.4,0.9c0.7,0.5,1.4,1.2,2,1.8     C597.6,606.7,601.1,611,603.3,615.8L603.3,615.8z"
   id="path28" />
		</g>
		<g
   id="g29">
			<path
   class="st16"
   d="M575.3,637.5c-3.2,0.3-6.6-0.1-9.6-1c-0.4-0.1-0.4-0.5-0.5-0.8c-3.8-5.5-7-11.7-9.7-17.6     c-2.7-5.6-4.9-11.4-8.4-16.1c0.6-2.6,1.1-5.5,0.1-8.1c3.1-1.7,7-1.1,10.2-0.1c4.5,5.8,7,12.6,10,18.7c2.7,5.7,5.3,11.2,9,16     C576,631.3,575.6,634.8,575.3,637.5L575.3,637.5z"
   id="path29" />
		</g>
		<g
   id="g30">
			<path
   class="st16"
   d="M584.3,565.2c-1.5,1.2-5.2,4.1-6.6,5.3c-0.7,0.5-1.3,1.1-2,1.6c-0.3,0.2-0.7,0.1-1,0.1     c-8.4,0.8-16.2,3.3-24.6,5.7c-9.1,2.6-19.2,5.7-29.3,5c-3.5-2.1-6.6-5-8.5-8.6c3.6-1.2,6.4-2.5,9.4-4.6     c8.4,0.5,16.2-2.2,24.7-4.5c8.5-2.6,17.8-5.1,26.8-6.3c0.4-0.1,0.8-0.3,1.2-0.1C578,560.3,581.5,562.4,584.3,565.2L584.3,565.2z"
   id="path30" />
		</g>
	</g>
	<g
   class="st15"
   id="g32">
		<path
   class="st7"
   d="M180.3,505.2c33-1.3,69.5-2.2,102.7-3c0,0-6.3,4.2-6.3,4.2c2.7-7.3,5.5-14.5,8.3-21.7    c8-20.9,17.2-44.2,25.5-64.9c3-7.4,13.6-7.1,16.2,0.4c23,62.8,57.6,157.8,80.7,221.5c0,0-17.3-2.2-17.3-2.2s90.1-131.2,90.1-131.2    c3.1-4.5,9.2-5.6,13.7-2.6c0.5,0.3,72.8,57,73.3,57.3c0,0-14.8,3.3-14.8,3.3c0,0,74.9-147.5,75-147.5c2.4-4.6,8-6.5,12.6-4.1    c2.3,1.1,3.9,3.1,4.6,5.3c16.4,48,49.7,144.8,66,192.8c0,0-16.4,0-16.4,0s18.9-52.8,18.9-52.8c0-0.2,19.1-52.7,19.2-52.9    c1.1-3.1,4.1-5,7.2-4.9c0,0,14.7,0.3,14.7,0.3c7.2,0.2,22.2,0.6,29.5,0.9c4.9,0.1,9.8,0.3,14.7,0.5c0,0,0,12,0,12    c-13.5,0.5-30.6,1-44.2,1.4c0,0-14.7,0.3-14.7,0.3s7.3-5.2,7.3-5.2c-9,26.5-26.9,79.7-36.1,106.1c-1.6,4.5-6.5,7-11,5.4    c-2.7-0.9-4.6-3-5.4-5.4c-16.9-47.9-50.6-144.4-67.3-192.4c0,0,17.3,1.2,17.3,1.2L570,575.2c-2.7,5.5-10.1,7.1-14.8,3.3    c0,0-72.9-56.9-72.9-56.9l14.2-2.2c0,0-90.3,131.1-90.3,131.1c-4.4,6.5-14.7,5.2-17.2-2.3c-22.5-64.3-56.7-158.7-78.6-222.2    c0,0,16.2,0.4,16.2,0.4c-3,7.1-6.1,14.3-9.2,21.3c-8.9,20.8-19.1,43.6-28.3,64.2c-1.1,2.5-3.6,3.9-6.1,3.8    c-12.7-0.3-38.6-0.9-51.3-1.3c-17.1-0.5-34.2-1-51.3-1.7C180.3,512.8,180.3,505.2,180.3,505.2L180.3,505.2z"
   id="path31" />
	</g>
	
		<ellipse
   transform="matrix(0.7899 -0.6132 0.6132 0.7899 -48.1265 486.759)"
   class="st12"
   cx="686.4"
   cy="313.6"
   rx="4.9"
   ry="12.5"
   id="ellipse32" />
</g>
</svg>
