<?xml version="1.0" encoding="UTF-8"?>
<svg id="Layer_1" data-name="Layer 1" xmlns="http://www.w3.org/2000/svg" xmlns:xlink="http://www.w3.org/1999/xlink" viewBox="0 0 2000 2000">
  <defs>
    <style>
      .cls-1 {
        stroke: #fee8a1;
      }

      .cls-1, .cls-2 {
        stroke-width: 7.37px;
      }

      .cls-1, .cls-2, .cls-3 {
        fill: none;
      }

      .cls-1, .cls-2, .cls-3, .cls-4 {
        stroke-linecap: round;
      }

      .cls-1, .cls-2, .cls-4 {
        stroke-linejoin: round;
      }

      .cls-2, .cls-3 {
        stroke: #fee699;
      }

      .cls-5 {
        fill: url(#linear-gradient);
      }

      .cls-5, .cls-6, .cls-7, .cls-8, .cls-9 {
        stroke-width: 0px;
      }

      .cls-6 {
        fill: url(#linear-gradient-3);
        opacity: .6;
      }

      .cls-3 {
        stroke-miterlimit: 10;
        stroke-width: 20.15px;
      }

      .cls-7 {
        fill: url(#linear-gradient-4);
      }

      .cls-8 {
        fill: url(#linear-gradient-2);
      }

      .cls-10 {
        fill: #fee699;
        font-family: Manrope-Bold, Manrope;
        font-size: 62.42px;
        font-variation-settings: 'wght' 700;
        font-weight: 700;
      }

      .cls-9 {
        fill: #e3b257;
      }

      .cls-4 {
        fill: #ed1c24;
        stroke: #e3b257;
        stroke-width: 12.89px;
      }
    </style>
    <linearGradient id="linear-gradient" x1="292.89" y1="292.89" x2="1707.11" y2="1707.11" gradientUnits="userSpaceOnUse">
      <stop offset="0" stop-color="#fbd823"/>
      <stop offset=".16" stop-color="#fbd827"/>
      <stop offset=".33" stop-color="#fbda33"/>
      <stop offset=".5" stop-color="#fbdd48"/>
      <stop offset=".68" stop-color="#fbe265"/>
      <stop offset=".85" stop-color="#fce789"/>
      <stop offset="1" stop-color="#fdeeb1"/>
    </linearGradient>
    <linearGradient id="linear-gradient-2" x1="354.62" y1="1275.5" x2="1003.62" y2="1275.5" gradientUnits="userSpaceOnUse">
      <stop offset="0" stop-color="#fbf1b3"/>
      <stop offset="1" stop-color="#fffffd"/>
    </linearGradient>
    <linearGradient id="linear-gradient-3" x1="637.5" y1="2003.82" x2="1242.47" y2="2003.82" gradientTransform="translate(-587.68 -357.2) rotate(-11.98)" xlink:href="#linear-gradient-2"/>
    <linearGradient id="linear-gradient-4" x1="844.43" y1="292.55" x2="844.43" y2="1545.11" xlink:href="#linear-gradient-2"/>
  </defs>
  <rect class="cls-5" x="0" y="0" width="2000" height="2000" rx="1000" ry="1000"/>
  <path class="cls-8" d="m1003.62,1622.46H447.7l-6.98-15.7c-86.45-194.33-108.51-411.22-62.96-618.98h0s537.63-59.25,537.63-59.25l-.79,14.03c-12.32,220.18,14.83,440.78,80.18,651.4l8.84,28.49Z"/>
  <path class="cls-6" d="m1116.15,1687.25l-553.18,55.1-8.51-14.93c-105.29-184.81-148.73-398.44-124-609.69h0s529.11-112.24,529.11-112.24l.61,14.04c9.56,220.31,58.45,437.14,144.35,640.25l11.62,27.47Z"/>
  <path class="cls-9" d="m1330.35,349.44c456.91,174.21,480.06,518.95,357.95,796.71l-306.49-129.86s138.05-146.46,90.65-314.57c-22.17-78.64-159.94-295.55-406.82-269.47l264.71-82.8Z"/>
  <path class="cls-7" d="m341.78,1529.31l552.5,15.8s-101.24-438.3-30.31-698.48c65.99-242.06,170.73-357.92,281.93-414.4,44.81-22.76,140-60.91,269.8-45.36,0,0-567.25-310.36-970.94,194.88-312.18,390.72-102.98,947.55-102.98,947.55Z"/>
  <polygon class="cls-9" points="1258.44 923.09 1865.6 1194.97 1206.76 1253.43 1258.44 923.09"/>
  <line class="cls-3" x1="496.41" y1="747.09" x2="787.53" y2="805.57"/>
  <line class="cls-3" x1="478.8" y1="805.57" x2="769.93" y2="864.06"/>
  <line class="cls-3" x1="443.45" y1="945.29" x2="736.55" y2="992.96"/>
  <line class="cls-3" x1="430.79" y1="1004.64" x2="723.89" y2="1052.31"/>
  <line class="cls-3" x1="422.99" y1="1064.44" x2="541.1" y2="1083.65"/>
  <line class="cls-3" x1="422.83" y1="1200.72" x2="718.58" y2="1227.42"/>
  <rect class="cls-4" x="389.19" y="732.81" width="51.89" height="51.89" rx="10.54" ry="10.54" transform="translate(-428.48 949.44) rotate(-74.05)"/>
  <rect class="cls-4" x="340.42" y="922.2" width="51.89" height="51.89" rx="10.54" ry="10.54" transform="translate(-618.42 1199.96) rotate(-83.22)"/>
  <rect class="cls-4" x="327.77" y="1173.67" width="51.89" height="51.89" rx="10.54" ry="10.54" transform="translate(-861.2 1496.54) rotate(-87.31)"/>
  <line class="cls-1" x1="341.78" y1="1335.3" x2="800.84" y2="1357.16"/>
  <text class="cls-10" transform="translate(590.27 1440.93) rotate(2.69)"><tspan x="0" y="0">96</tspan></text>
  <text class="cls-10" transform="translate(693.59 1493.41) rotate(2.69)"><tspan x="0" y="0">100</tspan></text>
  <line class="cls-2" x1="641.97" y1="1483.83" x2="716.27" y2="1412.96"/>
</svg>