<svg width="445" height="445" viewBox="0 0 445 445" fill="none" xmlns="http://www.w3.org/2000/svg">
<mask id="mask0" mask-type="alpha" maskUnits="userSpaceOnUse" x="0" y="0" width="445" height="445">
<circle cx="222.174" cy="222.174" r="222.174" fill="#F9AC34"/>
</mask>
<g mask="url(#mask0)">
<circle cx="222.174" cy="222.174" r="222.174" fill="#247BA0"/>
<path d="M471 18.5L-30.5 399.5V479.5H471V18.5Z" fill="url(#paint0_linear)"/>
</g>
<g filter="url(#filter0_d)">
<circle cx="325.5" cy="223.5" r="62.5" fill="#FFCD3C"/>
</g>
<circle cx="317.5" cy="216.5" r="61.5" stroke="#FBFBFB" stroke-width="2"/>
<path d="M300.469 209.121C300.469 210.501 300.124 211.725 299.434 212.793C298.743 213.861 297.793 214.714 296.582 215.352C297.962 216.016 299.056 216.934 299.863 218.105C300.671 219.264 301.074 220.632 301.074 222.207C301.074 224.733 300.215 226.732 298.496 228.203C296.777 229.661 294.44 230.391 291.484 230.391C288.529 230.391 286.185 229.655 284.453 228.184C282.721 226.712 281.855 224.72 281.855 222.207C281.855 220.632 282.259 219.258 283.066 218.086C283.874 216.914 284.961 216.003 286.328 215.352C285.117 214.714 284.167 213.861 283.477 212.793C282.799 211.725 282.461 210.501 282.461 209.121C282.461 206.699 283.268 204.772 284.883 203.34C286.497 201.895 288.691 201.172 291.465 201.172C294.225 201.172 296.413 201.888 298.027 203.32C299.655 204.74 300.469 206.673 300.469 209.121ZM295.41 221.797C295.41 220.56 295.052 219.57 294.336 218.828C293.62 218.086 292.656 217.715 291.445 217.715C290.247 217.715 289.29 218.086 288.574 218.828C287.858 219.557 287.5 220.547 287.5 221.797C287.5 223.008 287.852 223.984 288.555 224.727C289.258 225.469 290.234 225.84 291.484 225.84C292.708 225.84 293.665 225.482 294.355 224.766C295.059 224.049 295.41 223.06 295.41 221.797ZM294.824 209.395C294.824 208.288 294.531 207.402 293.945 206.738C293.359 206.061 292.533 205.723 291.465 205.723C290.41 205.723 289.59 206.048 289.004 206.699C288.418 207.35 288.125 208.249 288.125 209.395C288.125 210.527 288.418 211.439 289.004 212.129C289.59 212.819 290.417 213.164 291.484 213.164C292.552 213.164 293.372 212.819 293.945 212.129C294.531 211.439 294.824 210.527 294.824 209.395ZM324.395 230H304.902V226.133L314.102 216.328C315.365 214.948 316.296 213.743 316.895 212.715C317.507 211.686 317.812 210.71 317.812 209.785C317.812 208.522 317.493 207.533 316.855 206.816C316.217 206.087 315.306 205.723 314.121 205.723C312.845 205.723 311.836 206.165 311.094 207.051C310.365 207.923 310 209.076 310 210.508H304.336C304.336 208.776 304.746 207.194 305.566 205.762C306.4 204.329 307.572 203.21 309.082 202.402C310.592 201.582 312.305 201.172 314.219 201.172C317.148 201.172 319.421 201.875 321.035 203.281C322.663 204.688 323.477 206.673 323.477 209.238C323.477 210.645 323.112 212.077 322.383 213.535C321.654 214.993 320.404 216.693 318.633 218.633L312.168 225.449H324.395V230ZM327.793 207.031C327.793 205.286 328.359 203.874 329.492 202.793C330.625 201.699 332.109 201.152 333.945 201.152C335.807 201.152 337.305 201.693 338.438 202.773C339.57 203.841 340.137 205.293 340.137 207.129V208.535C340.137 210.293 339.57 211.706 338.438 212.773C337.305 213.841 335.82 214.375 333.984 214.375C332.135 214.375 330.638 213.841 329.492 212.773C328.359 211.693 327.793 210.241 327.793 208.418V207.031ZM331.543 208.535C331.543 209.316 331.764 209.948 332.207 210.43C332.663 210.898 333.255 211.133 333.984 211.133C334.714 211.133 335.293 210.892 335.723 210.41C336.152 209.928 336.367 209.284 336.367 208.477V207.031C336.367 206.25 336.152 205.618 335.723 205.137C335.293 204.655 334.701 204.414 333.945 204.414C333.229 204.414 332.65 204.655 332.207 205.137C331.764 205.605 331.543 206.263 331.543 207.109V208.535ZM341.387 223.027C341.387 221.27 341.96 219.857 343.105 218.789C344.251 217.708 345.736 217.168 347.559 217.168C349.408 217.168 350.898 217.702 352.031 218.77C353.177 219.824 353.75 221.283 353.75 223.145V224.551C353.75 226.296 353.19 227.708 352.07 228.789C350.951 229.857 349.46 230.391 347.598 230.391C345.723 230.391 344.219 229.85 343.086 228.77C341.953 227.689 341.387 226.257 341.387 224.473V223.027ZM345.137 224.551C345.137 225.267 345.371 225.879 345.84 226.387C346.309 226.895 346.895 227.148 347.598 227.148C349.186 227.148 349.98 226.27 349.98 224.512V223.027C349.98 222.246 349.759 221.621 349.316 221.152C348.874 220.671 348.288 220.43 347.559 220.43C346.829 220.43 346.243 220.671 345.801 221.152C345.358 221.621 345.137 222.266 345.137 223.086V224.551ZM335.098 227.871L332.344 226.387L346.23 204.16L348.984 205.645L335.098 227.871Z" fill="#FBFBFB"/>
<g filter="url(#filter1_d)">
<circle cx="154.5" cy="317.5" r="62.5" fill="#D31246"/>
</g>
<circle cx="146.5" cy="310.5" r="61.5" stroke="#FBFBFB" stroke-width="2"/>
<path d="M126.246 295.27V299.918H125.699C123.147 299.957 121.09 300.621 119.527 301.91C117.978 303.199 117.047 304.99 116.734 307.281C118.245 305.745 120.152 304.977 122.457 304.977C124.931 304.977 126.897 305.862 128.355 307.633C129.814 309.404 130.543 311.734 130.543 314.625C130.543 316.474 130.139 318.147 129.332 319.645C128.538 321.142 127.405 322.307 125.934 323.141C124.475 323.974 122.822 324.391 120.973 324.391C117.978 324.391 115.556 323.349 113.707 321.266C111.871 319.182 110.953 316.402 110.953 312.926V310.895C110.953 307.809 111.533 305.087 112.691 302.73C113.863 300.361 115.536 298.531 117.711 297.242C119.898 295.94 122.431 295.283 125.309 295.27H126.246ZM120.738 309.508C119.827 309.508 119 309.749 118.258 310.23C117.516 310.699 116.969 311.324 116.617 312.105V313.824C116.617 315.712 116.988 317.19 117.73 318.258C118.473 319.312 119.514 319.84 120.855 319.84C122.066 319.84 123.043 319.365 123.785 318.414C124.54 317.451 124.918 316.207 124.918 314.684C124.918 313.134 124.54 311.884 123.785 310.934C123.03 309.983 122.014 309.508 120.738 309.508Z" fill="#FBFBFB"/>
<path d="M153.395 324H133.902V320.133L143.102 310.328C144.365 308.948 145.296 307.743 145.895 306.715C146.507 305.686 146.812 304.71 146.812 303.785C146.812 302.522 146.493 301.533 145.855 300.816C145.217 300.087 144.306 299.723 143.121 299.723C141.845 299.723 140.836 300.165 140.094 301.051C139.365 301.923 139 303.076 139 304.508H133.336C133.336 302.776 133.746 301.194 134.566 299.762C135.4 298.329 136.572 297.21 138.082 296.402C139.592 295.582 141.305 295.172 143.219 295.172C146.148 295.172 148.421 295.875 150.035 297.281C151.663 298.688 152.477 300.673 152.477 303.238C152.477 304.645 152.112 306.077 151.383 307.535C150.654 308.993 149.404 310.693 147.633 312.633L141.168 319.449H153.395V324Z" fill="#FBFBFB"/>
<path d="M156.793 301.031C156.793 299.286 157.359 297.874 158.492 296.793C159.625 295.699 161.109 295.152 162.945 295.152C164.807 295.152 166.305 295.693 167.438 296.773C168.57 297.841 169.137 299.293 169.137 301.129V302.535C169.137 304.293 168.57 305.706 167.438 306.773C166.305 307.841 164.82 308.375 162.984 308.375C161.135 308.375 159.638 307.841 158.492 306.773C157.359 305.693 156.793 304.241 156.793 302.418V301.031ZM160.543 302.535C160.543 303.316 160.764 303.948 161.207 304.43C161.663 304.898 162.255 305.133 162.984 305.133C163.714 305.133 164.293 304.892 164.723 304.41C165.152 303.928 165.367 303.284 165.367 302.477V301.031C165.367 300.25 165.152 299.618 164.723 299.137C164.293 298.655 163.701 298.414 162.945 298.414C162.229 298.414 161.65 298.655 161.207 299.137C160.764 299.605 160.543 300.263 160.543 301.109V302.535ZM170.387 317.027C170.387 315.27 170.96 313.857 172.105 312.789C173.251 311.708 174.736 311.168 176.559 311.168C178.408 311.168 179.898 311.702 181.031 312.77C182.177 313.824 182.75 315.283 182.75 317.145V318.551C182.75 320.296 182.19 321.708 181.07 322.789C179.951 323.857 178.46 324.391 176.598 324.391C174.723 324.391 173.219 323.85 172.086 322.77C170.953 321.689 170.387 320.257 170.387 318.473V317.027ZM174.137 318.551C174.137 319.267 174.371 319.879 174.84 320.387C175.309 320.895 175.895 321.148 176.598 321.148C178.186 321.148 178.98 320.27 178.98 318.512V317.027C178.98 316.246 178.759 315.621 178.316 315.152C177.874 314.671 177.288 314.43 176.559 314.43C175.829 314.43 175.243 314.671 174.801 315.152C174.358 315.621 174.137 316.266 174.137 317.086V318.551ZM164.098 321.871L161.344 320.387L175.23 298.16L177.984 299.645L164.098 321.871Z" fill="#FBFBFB"/>
<g filter="url(#filter2_d)">
<circle cx="146.5" cy="132.5" r="62.5" fill="#03CABE"/>
</g>
<circle cx="138.5" cy="125.5" r="61.5" stroke="#FBFBFB" stroke-width="2"/>
<path d="M104.645 139H99V117.242L92.2617 119.332V114.742L104.039 110.523H104.645V139ZM133.043 127.242C133.043 131.174 132.229 134.182 130.602 136.266C128.974 138.349 126.591 139.391 123.453 139.391C120.354 139.391 117.984 138.368 116.344 136.324C114.703 134.28 113.863 131.35 113.824 127.535V122.301C113.824 118.329 114.645 115.315 116.285 113.258C117.939 111.201 120.315 110.172 123.414 110.172C126.513 110.172 128.883 111.194 130.523 113.238C132.164 115.27 133.004 118.193 133.043 122.008V127.242ZM127.398 121.5C127.398 119.143 127.073 117.431 126.422 116.363C125.784 115.283 124.781 114.742 123.414 114.742C122.086 114.742 121.103 115.257 120.465 116.285C119.84 117.301 119.508 118.896 119.469 121.07V127.984C119.469 130.302 119.781 132.027 120.406 133.16C121.044 134.28 122.06 134.84 123.453 134.84C124.833 134.84 125.829 134.299 126.441 133.219C127.053 132.138 127.372 130.484 127.398 128.258V121.5ZM156.012 127.242C156.012 131.174 155.198 134.182 153.57 136.266C151.943 138.349 149.56 139.391 146.422 139.391C143.323 139.391 140.953 138.368 139.312 136.324C137.672 134.28 136.832 131.35 136.793 127.535V122.301C136.793 118.329 137.613 115.315 139.254 113.258C140.908 111.201 143.284 110.172 146.383 110.172C149.482 110.172 151.852 111.194 153.492 113.238C155.133 115.27 155.973 118.193 156.012 122.008V127.242ZM150.367 121.5C150.367 119.143 150.042 117.431 149.391 116.363C148.753 115.283 147.75 114.742 146.383 114.742C145.055 114.742 144.072 115.257 143.434 116.285C142.809 117.301 142.477 118.896 142.438 121.07V127.984C142.438 130.302 142.75 132.027 143.375 133.16C144.013 134.28 145.029 134.84 146.422 134.84C147.802 134.84 148.798 134.299 149.41 133.219C150.022 132.138 150.341 130.484 150.367 128.258V121.5ZM159.762 116.031C159.762 114.286 160.328 112.874 161.461 111.793C162.594 110.699 164.078 110.152 165.914 110.152C167.776 110.152 169.273 110.693 170.406 111.773C171.539 112.841 172.105 114.293 172.105 116.129V117.535C172.105 119.293 171.539 120.706 170.406 121.773C169.273 122.841 167.789 123.375 165.953 123.375C164.104 123.375 162.607 122.841 161.461 121.773C160.328 120.693 159.762 119.241 159.762 117.418V116.031ZM163.512 117.535C163.512 118.316 163.733 118.948 164.176 119.43C164.632 119.898 165.224 120.133 165.953 120.133C166.682 120.133 167.262 119.892 167.691 119.41C168.121 118.928 168.336 118.284 168.336 117.477V116.031C168.336 115.25 168.121 114.618 167.691 114.137C167.262 113.655 166.669 113.414 165.914 113.414C165.198 113.414 164.618 113.655 164.176 114.137C163.733 114.605 163.512 115.263 163.512 116.109V117.535ZM173.355 132.027C173.355 130.27 173.928 128.857 175.074 127.789C176.22 126.708 177.704 126.168 179.527 126.168C181.376 126.168 182.867 126.702 184 127.77C185.146 128.824 185.719 130.283 185.719 132.145V133.551C185.719 135.296 185.159 136.708 184.039 137.789C182.919 138.857 181.428 139.391 179.566 139.391C177.691 139.391 176.188 138.85 175.055 137.77C173.922 136.689 173.355 135.257 173.355 133.473V132.027ZM177.105 133.551C177.105 134.267 177.34 134.879 177.809 135.387C178.277 135.895 178.863 136.148 179.566 136.148C181.155 136.148 181.949 135.27 181.949 133.512V132.027C181.949 131.246 181.728 130.621 181.285 130.152C180.842 129.671 180.257 129.43 179.527 129.43C178.798 129.43 178.212 129.671 177.77 130.152C177.327 130.621 177.105 131.266 177.105 132.086V133.551ZM167.066 136.871L164.312 135.387L178.199 113.16L180.953 114.645L167.066 136.871Z" fill="#FBFBFB"/>
<defs>
<filter id="filter0_d" x="263" y="161" width="140" height="140" filterUnits="userSpaceOnUse" color-interpolation-filters="sRGB">
<feFlood flood-opacity="0" result="BackgroundImageFix"/>
<feColorMatrix in="SourceAlpha" type="matrix" values="0 0 0 0 0 0 0 0 0 0 0 0 0 0 0 0 0 0 127 0"/>
<feOffset dx="15" dy="15"/>
<feColorMatrix type="matrix" values="0 0 0 0 0.75 0 0 0 0 0.504489 0 0 0 0 0.121875 0 0 0 1 0"/>
<feBlend mode="normal" in2="BackgroundImageFix" result="effect1_dropShadow"/>
<feBlend mode="normal" in="SourceGraphic" in2="effect1_dropShadow" result="shape"/>
</filter>
<filter id="filter1_d" x="92" y="255" width="140" height="140" filterUnits="userSpaceOnUse" color-interpolation-filters="sRGB">
<feFlood flood-opacity="0" result="BackgroundImageFix"/>
<feColorMatrix in="SourceAlpha" type="matrix" values="0 0 0 0 0 0 0 0 0 0 0 0 0 0 0 0 0 0 127 0"/>
<feOffset dx="15" dy="15"/>
<feColorMatrix type="matrix" values="0 0 0 0 0.6875 0 0 0 0 0.0773438 0 0 0 0 0.239703 0 0 0 1 0"/>
<feBlend mode="normal" in2="BackgroundImageFix" result="effect1_dropShadow"/>
<feBlend mode="normal" in="SourceGraphic" in2="effect1_dropShadow" result="shape"/>
</filter>
<filter id="filter2_d" x="84" y="70" width="140" height="140" filterUnits="userSpaceOnUse" color-interpolation-filters="sRGB">
<feFlood flood-opacity="0" result="BackgroundImageFix"/>
<feColorMatrix in="SourceAlpha" type="matrix" values="0 0 0 0 0 0 0 0 0 0 0 0 0 0 0 0 0 0 127 0"/>
<feOffset dx="15" dy="15"/>
<feColorMatrix type="matrix" values="0 0 0 0 0.113281 0 0 0 0 0.3625 0 0 0 0 0.347099 0 0 0 1 0"/>
<feBlend mode="normal" in2="BackgroundImageFix" result="effect1_dropShadow"/>
<feBlend mode="normal" in="SourceGraphic" in2="effect1_dropShadow" result="shape"/>
</filter>
<linearGradient id="paint0_linear" x1="125.501" y1="65.4995" x2="471.7" y2="400.527" gradientUnits="userSpaceOnUse">
<stop offset="0.242826" stop-color="#247BA0"/>
<stop offset="0.697773" stop-color="#1692AE"/>
</linearGradient>
</defs>
</svg>
