<svg width="1462" height="1107" viewBox="0 0 1462 1107" fill="none" xmlns="http://www.w3.org/2000/svg">
<path d="M108.125 999.369C108.125 992.452 105.684 987.162 100.801 983.5C95.918 979.757 87.1289 975.85 74.4336 971.781C61.7383 967.631 51.6878 963.562 44.2822 959.574C24.0999 948.669 14.0088 933.98 14.0088 915.507C14.0088 905.904 16.6943 897.359 22.0654 889.872C27.5179 882.304 35.2897 876.404 45.3809 872.172C55.5534 867.94 66.9466 865.824 79.5605 865.824C92.2559 865.824 103.568 868.144 113.496 872.782C123.424 877.34 131.115 883.809 136.567 892.191C142.101 900.574 144.868 910.095 144.868 920.756H108.247C108.247 912.618 105.684 906.311 100.557 901.835C95.4297 897.278 88.2275 894.999 78.9502 894.999C69.9984 894.999 63.0404 896.911 58.0762 900.736C53.112 904.48 50.6299 909.444 50.6299 915.629C50.6299 921.407 53.5189 926.249 59.2969 930.155C65.1562 934.062 73.7419 937.724 85.0537 941.142C105.887 947.408 121.064 955.18 130.586 964.457C140.107 973.734 144.868 985.29 144.868 999.125C144.868 1014.51 139.049 1026.59 127.412 1035.38C115.775 1044.09 100.109 1048.44 80.415 1048.44C66.7432 1048.44 54.292 1045.96 43.0615 1041C31.8311 1035.95 23.2454 1029.07 17.3047 1020.37C11.4453 1011.66 8.51562 1001.57 8.51562 990.092H45.2588C45.2588 1009.7 56.9775 1019.51 80.415 1019.51C89.1227 1019.51 95.918 1017.76 100.801 1014.26C105.684 1010.68 108.125 1005.72 108.125 999.369ZM222.383 1020C228.893 1020 234.183 1018.21 238.252 1014.63C242.321 1011.05 244.437 1006.29 244.6 1000.35H277.681C277.599 1009.3 275.158 1017.52 270.356 1025C265.555 1032.41 258.963 1038.19 250.581 1042.34C242.28 1046.41 233.084 1048.44 222.993 1048.44C204.113 1048.44 189.22 1042.46 178.315 1030.5C167.41 1018.45 161.958 1001.85 161.958 980.692V978.373C161.958 958.028 167.37 941.793 178.193 929.667C189.017 917.541 203.869 911.479 222.749 911.479C239.269 911.479 252.493 916.199 262.422 925.639C272.432 934.997 277.518 947.489 277.681 963.114H244.6C244.437 956.278 242.321 950.744 238.252 946.513C234.183 942.2 228.812 940.043 222.139 940.043C213.919 940.043 207.694 943.054 203.462 949.076C199.312 955.017 197.236 964.701 197.236 978.129V981.791C197.236 995.382 199.312 1005.15 203.462 1011.09C207.612 1017.03 213.919 1020 222.383 1020ZM374.36 1046C372.733 1042.83 371.553 1038.88 370.82 1034.16C362.275 1043.68 351.167 1048.44 337.495 1048.44C324.556 1048.44 313.813 1044.7 305.269 1037.21C296.805 1029.72 292.573 1020.28 292.573 1008.89C292.573 994.893 297.741 984.151 308.076 976.664C318.493 969.177 333.507 965.393 353.12 965.312H369.355V957.743C369.355 951.64 367.769 946.757 364.595 943.095C361.502 939.433 356.579 937.602 349.824 937.602C343.883 937.602 339.204 939.026 335.786 941.874C332.45 944.722 330.781 948.629 330.781 953.593H295.503C295.503 945.943 297.863 938.863 302.583 932.353C307.303 925.842 313.976 920.756 322.603 917.094C331.229 913.35 340.913 911.479 351.655 911.479C367.931 911.479 380.83 915.588 390.352 923.808C399.954 931.946 404.756 943.42 404.756 958.231V1015.48C404.837 1028.01 406.587 1037.5 410.005 1043.92V1046H374.36ZM345.186 1021.46C350.394 1021.46 355.195 1020.32 359.59 1018.05C363.984 1015.69 367.24 1012.55 369.355 1008.65V985.941H356.172C338.512 985.941 329.113 992.045 327.974 1004.25L327.852 1006.33C327.852 1010.72 329.398 1014.34 332.49 1017.19C335.583 1020.04 339.814 1021.46 345.186 1021.46ZM464.326 913.92L465.425 929.179C474.865 917.379 487.52 911.479 503.389 911.479C517.386 911.479 527.803 915.588 534.639 923.808C541.475 932.027 544.974 944.315 545.137 960.673V1046H509.858V961.527C509.858 954.04 508.231 948.629 504.976 945.292C501.72 941.874 496.309 940.165 488.74 940.165C478.812 940.165 471.366 944.397 466.401 952.86V1046H431.123V913.92H464.326ZM610.933 1016.58H688.691V1046H574.312V868.266H610.933V1016.58ZM784.028 1046C782.401 1042.83 781.221 1038.88 780.488 1034.16C771.943 1043.68 760.835 1048.44 747.163 1048.44C734.224 1048.44 723.481 1044.7 714.937 1037.21C706.473 1029.72 702.241 1020.28 702.241 1008.89C702.241 994.893 707.409 984.151 717.744 976.664C728.161 969.177 743.175 965.393 762.788 965.312H779.023V957.743C779.023 951.64 777.437 946.757 774.263 943.095C771.17 939.433 766.247 937.602 759.492 937.602C753.551 937.602 748.872 939.026 745.454 941.874C742.118 944.722 740.449 948.629 740.449 953.593H705.171C705.171 945.943 707.531 938.863 712.251 932.353C716.971 925.842 723.644 920.756 732.271 917.094C740.897 913.35 750.581 911.479 761.323 911.479C777.599 911.479 790.498 915.588 800.02 923.808C809.622 931.946 814.424 943.42 814.424 958.231V1015.48C814.505 1028.01 816.255 1037.5 819.673 1043.92V1046H784.028ZM754.854 1021.46C760.062 1021.46 764.863 1020.32 769.258 1018.05C773.652 1015.69 776.908 1012.55 779.023 1008.65V985.941H765.84C748.18 985.941 738.781 992.045 737.642 1004.25L737.52 1006.33C737.52 1010.72 739.066 1014.34 742.158 1017.19C745.251 1020.04 749.482 1021.46 754.854 1021.46ZM960.542 981.181C960.542 1002.34 956.025 1018.86 946.992 1030.74C937.959 1042.54 925.345 1048.44 909.15 1048.44C894.827 1048.44 883.394 1042.95 874.849 1031.96L873.262 1046H841.523V858.5H876.802V925.761C884.94 916.239 895.641 911.479 908.906 911.479C925.02 911.479 937.633 917.419 946.748 929.301C955.944 941.101 960.542 957.743 960.542 979.228V981.181ZM925.264 978.617C925.264 965.271 923.148 955.546 918.916 949.442C914.684 943.257 908.377 940.165 899.995 940.165C888.765 940.165 881.034 944.763 876.802 953.959V1006.08C881.115 1015.36 888.927 1020 900.239 1020C911.632 1020 919.119 1014.38 922.7 1003.15C924.409 997.782 925.264 989.604 925.264 978.617Z" fill="black"/>
<path d="M1019.75 868.266L1077.85 1013.29L1135.96 868.266H1166.35V1046H1142.92V976.786L1145.11 902.079L1086.76 1046H1068.82L1010.59 902.445L1012.91 976.786V1046H989.473V868.266H1019.75ZM1256.67 974.101H1214.92V1046H1191.36V868.266H1250.2C1270.22 868.266 1285.6 872.823 1296.34 881.938C1307.17 891.052 1312.58 904.317 1312.58 921.732C1312.58 932.8 1309.57 942.444 1303.54 950.663C1297.6 958.882 1289.3 965.027 1278.64 969.096L1320.39 1044.54V1046H1295.24L1256.67 974.101ZM1214.92 954.936H1250.93C1262.57 954.936 1271.81 951.924 1278.64 945.902C1285.56 939.88 1289.02 931.824 1289.02 921.732C1289.02 910.746 1285.72 902.323 1279.13 896.464C1272.62 890.604 1263.18 887.634 1250.81 887.553H1214.92V954.936Z" fill="url(#paint0_linear)"/>
<path d="M1390.27 803.227H1370.77V856H1365.97V803.227H1346.52V799.125H1390.27V803.227ZM1405.85 799.125L1426.83 849.32L1447.88 799.125H1454.29V856H1449.48V831.234L1449.88 805.844L1428.7 856H1424.99L1403.9 806.039L1404.29 831.078V856H1399.48V799.125H1405.85Z" fill="black"/>
<path fill-rule="evenodd" clip-rule="evenodd" d="M606.975 189C590.959 189 577.975 201.984 577.975 218V222.682C577.975 236.703 587.925 248.4 601.15 251.097V372.664L446.554 722.83C441.3 734.729 450.013 748.1 463.02 748.1H861.448C874.355 748.1 883.067 734.917 878.007 723.043L727.925 370.888V250.4C739.766 246.75 748.371 235.721 748.371 222.682V218C748.371 201.984 735.387 189 719.371 189H606.975Z" fill="#CDDAE3"/>
<mask id="mask0" mask-type="alpha" maskUnits="userSpaceOnUse" x="497" y="420" width="337" height="292">
<path d="M613.858 420.313H719.947L832.496 693.094C836.027 701.652 829.736 711.053 820.479 711.053H510.778C501.477 711.053 495.185 701.569 498.801 692.999L613.858 420.313Z" fill="#1692AE"/>
</mask>
<g mask="url(#mask0)">
<path d="M796.419 692.184L761.379 521.542L747.96 511.322C732.251 499.357 710.25 500.269 695.584 513.492C681.55 526.146 660.692 527.588 645.05 516.986L637.716 512.016C618.951 499.298 594.134 500.098 576.226 513.997L561.888 525.126C539.478 542.52 508.397 543.442 484.995 527.408L477.335 522.159C457.678 508.69 431.451 509.985 413.215 525.324V692.184H796.419Z" fill="#2CC8EB"/>
<path d="M854.93 733.64L763.351 522.506L768.13 509.973C761.211 528.116 739.458 535.44 722.975 525.176L703.599 513.109C688.099 503.457 668.554 503.088 652.701 512.146L621.818 529.793C610.05 536.517 595.262 534.718 585.45 525.368L579.481 519.68C566.462 507.275 545.011 512.123 538.593 528.921L473.975 622.771L478.797 723.999L854.93 733.64Z" fill="#1692AE"/>
<ellipse cx="633.108" cy="578.422" rx="23.1467" ry="23.1379" fill="#FBFBFB"/>
<ellipse cx="605.139" cy="608.309" rx="12.5378" ry="12.5331" fill="#FBFBFB"/>
<ellipse cx="763.308" cy="625.662" rx="12.5378" ry="12.533" fill="#FBFBFB"/>
<ellipse cx="757.521" cy="662.298" rx="12.5378" ry="12.5331" fill="#FBFBFB"/>
<ellipse cx="562.704" cy="670.01" rx="12.5378" ry="12.533" fill="#FBFBFB"/>
<ellipse cx="589.708" cy="683.507" rx="4.82222" ry="4.8204" fill="#FBFBFB"/>
<ellipse cx="724.73" cy="652.657" rx="6.7511" ry="6.74857" fill="#FBFBFB"/>
<ellipse cx="668.793" cy="562.033" rx="6.75111" ry="6.74857" fill="#FBFBFB"/>
<ellipse cx="811.574" cy="499.681" rx="12.2685" ry="12.2639" fill="#FBFBFB"/>
</g>
<defs>
<linearGradient id="paint0_linear" x1="662.5" y1="814" x2="662.5" y2="1107" gradientUnits="userSpaceOnUse">
<stop stop-color="#4FCFEA"/>
<stop offset="1" stop-color="#1692AE"/>
</linearGradient>
</defs>
</svg>
